<svg width="360" height="800" viewBox="0 0 360 800" fill="none" xmlns="http://www.w3.org/2000/svg">
<path d="M-133.969 235.216C-130.382 236.855 -126.773 238.39 -123.119 239.715C-93.0754 250.598 -59.1985 250.163 -29.2775 239.044C3.02491 227.012 32.4359 201.352 41.5894 167.113C49.843 136.072 36.2123 97.4152 4.00974 86.3996C-12.0915 80.8918 -31.1705 83.7149 -42.6415 97.015C-43.365 97.8449 -43.9838 98.6971 -44.7073 99.5269C-47.1297 103.712 -48.177 108.628 -47.5886 113.564C-46.707 120.202 -42.4563 127.449 -35.233 128.442C-31.9463 128.923 -28.4299 127.814 -26.424 125.07C-24.6942 122.596 -24.1681 119.1 -26.0457 116.623C-27.7363 114.295 -31.5391 113.157 -34.0165 115.034C-36.7253 116.972 -36.4284 121.736 -33.4691 123.241C-31.9895 123.994 -32.9203 126.31 -34.4222 125.662C-40.9684 122.518 -38.9716 112.12 -31.6678 111.708C-25.3721 111.409 -21.0855 117.461 -22.774 123.333C-24.7453 130.02 -32.0541 132.508 -38.3002 130.521C-45.4653 128.23 -49.6268 120.564 -50.2924 113.425C-50.3679 112.753 -50.4211 111.976 -50.392 111.326C-51.1428 114.337 -51.4752 117.437 -51.2624 120.544C-50.7305 128.31 -47.1141 135.969 -41.3051 141.033C-35.4961 146.098 -28.0996 148.329 -20.4684 146.894C-17.168 146.285 -14.0476 144.982 -11.1519 143.194C-9.9878 142.348 -8.80144 141.398 -7.69736 140.322C-7.42134 140.052 -7.16761 139.888 -6.93616 139.828C-5.4069 138.295 -4.1691 136.591 -3.22279 134.715C3.0962 122.504 -5.77572 104.104 -19.6907 103.217C-22.3945 103.078 -22.0243 100.314 -19.3428 100.558C-10.3948 101.152 -1.44633 108.416 4.68509 114.533C11.811 121.627 16.8642 131.779 14.5759 142.006C13.0675 148.572 7.90725 155.345 0.528 155.085C-4.25205 154.941 -8.48369 151.197 -8.84742 146.746C-10.0115 147.591 -11.258 148.31 -12.4821 148.924C-23.2455 154.284 -37.109 152.642 -46.6472 145.58C-69.1923 128.75 -60.2188 93.8168 -38.044 81.5945C-37.1782 81.123 -36.4393 80.7337 -35.5735 80.2622C-35.5548 77.0955 -33.549 74.3522 -30.5332 73.0267C-29.2045 72.4351 -27.7335 72.2018 -26.307 72.1778C-30.2831 69.8 -33.5357 66.5923 -34.7138 61.8586C-36.0498 56.326 -34.1076 50.2891 -29.2042 47.2884C-24.6815 44.5346 -18.139 44.6166 -14.3102 48.7123C-10.5861 52.7858 -10.2719 59.5221 -14.0762 63.5222C-15.2026 64.7036 -17.2806 63.1675 -16.1543 61.9861C-11.3505 56.8869 -14.8709 48.2648 -21.7873 47.8846C-28.4722 47.4444 -33.2004 53.2157 -32.5057 59.7051C-31.66 67.5386 -24.0679 70.9055 -17.5972 73.3774C-15.2586 74.2037 -12.92 75.0299 -10.4322 75.6693C-6.01044 75.9554 -1.59552 76.7867 2.68568 78.2455C3.10403 78.3346 3.60467 78.5506 4.00073 78.7443C4.2099 78.7889 4.41906 78.8335 4.62823 78.878C5.04658 78.9672 5.23345 79.1163 5.39806 79.3701C25.3108 87.0019 39.6485 104.379 46.4683 124.2C46.1595 122.057 45.7239 119.997 45.4152 117.853C44.7 113 44.8128 107.338 49.1932 104.226C52.8346 101.503 58.0417 102.722 59.8319 107.149C61.5398 111.449 58.0424 116.061 53.5315 116.193C51.8736 116.277 51.5494 113.694 53.1851 113.714C57.8005 113.604 59.5781 107.314 54.9231 105.556C50.978 104.06 48.1527 108.597 47.6711 111.883C47.1158 116.029 48.3831 120.344 49.0674 124.317C49.7517 128.289 50.4138 132.366 51.0981 136.339C57.6302 133.904 64.02 131.111 69.856 127.325C76.0949 123.187 81.593 117.908 85.2823 111.369C88.8447 104.912 90.941 96.6115 88.3037 89.4896C85.891 82.8528 77.1313 77.2692 70.8943 82.9377C68.3055 85.3382 67.7056 89.693 69.8301 92.551C72.0591 95.4313 76.8837 95.3658 78.9564 92.3087C79.8959 90.9782 81.9739 92.5143 81.0345 93.8448C78.6635 97.2757 73.8921 98.1178 70.2675 96.1429C66.6429 94.168 65.2933 89.7258 66.2224 85.8784C67.8131 79.4386 74.3229 77.1082 80.4044 78.8412C89.1828 81.2582 94.3766 90.2368 94.6034 98.9225C94.612 99.9083 94.6206 100.894 94.5024 101.962C100.923 93.3808 105.37 83.2855 107.18 72.7378C110.659 52.815 104.785 31.1182 88.5038 18.2466C82.8971 13.772 76.1194 10.688 69.1344 9.09048C55.0153 6.0823 41.5258 11.4083 35.6716 25.0304C30.659 36.7545 32.5732 51.3758 42.0686 60.1775C44.992 62.8777 48.4074 64.808 51.8965 65.8794C51.7919 65.8571 51.605 65.708 51.5004 65.6857C44.3113 61.9673 39.5582 52.9733 42.8651 45.1498C45.7176 38.4322 54.3465 34.3666 60.9013 38.4965C66.9555 42.4104 68.7597 52.4161 61.6018 56.2485C58.3923 57.97 54.082 57.161 52.2559 53.9293C50.4898 50.929 51.8818 46.9615 55.0021 45.6583C56.5623 45.0067 57.4762 47.3881 56.0206 48.062C54.3336 48.7959 53.5742 50.8208 54.4127 52.5301C55.3335 54.3663 57.799 55.1102 59.5683 54.5032C62.9801 53.3714 64.4766 49.4263 63.5318 46.1636C62.009 40.4818 55.8966 37.8675 50.7464 40.4876C45.1332 43.2277 43.2065 49.7052 45.3791 55.4161C47.754 61.7168 54.1065 65.2569 60.6045 65.548C79.5088 66.6237 88.7827 39.5168 73.2726 28.6682C71.9421 27.7287 73.4782 25.6507 74.8087 26.5901C77.2828 28.3199 79.4364 30.5281 80.9333 33.2524C83.3579 37.2676 84.4314 41.979 84.1008 46.6099C82.8246 66.4554 61.1469 75.8316 44.6528 66.5228C35.6547 61.5443 29.6621 52.7235 23.4688 44.844C18.4724 38.5314 13.0558 30.5987 4.45058 29.4213C1.05924 28.9174 -2.80864 29.624 -5.2328 32.2782C-7.38095 34.6632 -8.11626 38.1146 -7.46286 41.2058C-6.68942 44.7599 -3.7729 48.0053 0.0213165 48.1577C2.20217 48.185 4.56817 46.8304 4.93152 44.6119C5.31033 42.8339 4.05348 41.0354 2.27551 40.6566C0.684422 40.427 0.905458 37.85 2.60112 38.102C5.76099 38.6659 7.9677 41.6507 7.50839 44.8329C6.95995 48.4334 3.17617 50.7979 -0.281998 50.6078C-7.30294 50.2053 -11.1953 42.8159 -9.96288 36.5185C-8.61909 29.6981 -2.38708 26.1058 4.23097 26.8598C12.903 27.7235 18.7516 34.6549 23.8303 41.0943C24.6156 42.027 25.2963 42.9373 26.0593 43.9746C22.9832 38.3992 20.7728 32.3522 19.4883 26.0652C18.1215 19.6513 16.7375 11.2657 20.8983 5.59215C24.7162 0.501565 32.1159 -0.873925 36.819 3.73615C38.8903 5.81745 39.6929 8.72178 39.2404 11.3587C47.7456 3.76809 58.5795 1.15629 69.2609 2.3387C79.4263 2.86449 88.7449 7.36455 96.1468 14.1896C97.059 15.04 97.9934 15.7857 98.7787 16.7184C107.662 25.8271 112.426 37.338 113.867 49.5624C115.058 46.5362 116.937 43.8752 119.937 42.1091C125.811 38.6591 134.903 41.143 134.636 49.0674C134.427 55.6923 125.02 58.28 122.54 51.9571C121.993 50.4192 123.896 49.1846 124.548 50.7448C126.114 54.6864 132.049 52.9989 132.141 48.9733C132.196 44.6116 127.884 42.2715 123.971 43.1873C115.579 45.1165 114.673 55.5288 114.166 62.5275C113.696 69.8622 112.495 77.0409 110.33 84.1236C104.957 101.128 94.3813 113.307 81.9158 125.63C80.8117 126.707 79.7076 127.784 78.6258 128.756C82.9857 127.279 87.4657 126.266 91.9611 125.693C97.6961 124.947 103.589 125 109.326 125.785C115.062 126.569 120.792 127.9 126.581 127.93C135.326 127.935 143.566 123.13 147.836 115.403C151.421 108.841 150.947 99.7748 143.228 96.4903C137.011 93.8537 128.926 96.3951 128.621 103.983C128.397 110.168 135.579 114.431 140.519 110.236C141.727 109.181 143.38 111.173 142.067 112.206C135.897 117.56 126.331 112.68 126.031 104.853C125.746 97.4668 132.23 92.1789 139.333 92.7083C144.718 93.0903 148.912 96.4985 151.225 101.037C152.036 98.2574 153.639 95.8656 156.072 94.1972C159.266 92.0351 163.567 91.8582 166.684 94.1624C169.615 96.3173 170.673 100.588 168.682 103.772C166.714 106.851 162.637 107.513 159.663 105.568C158.332 104.628 159.846 102.655 161.199 103.49C163.882 105.264 167.054 103.206 167.155 100.167C167.211 97.3359 164.908 95.3146 162.227 95.0713C154.227 94.1322 153.125 103.409 153.244 109.011C153.462 116.711 149.623 123.437 143.967 127.917C150.004 129.859 156.37 132.309 160.119 137.809C162.879 141.786 163.528 146.954 160.978 151.222C158.556 155.407 153.413 157.482 148.862 155.747C147.047 155.032 145.447 153.816 144.481 152.189C144.766 152.906 145.051 153.623 145.209 154.422C147.848 163.075 146.657 172.77 141.863 180.386C137.048 188.107 128.748 192.68 119.644 192.818C110.771 192.896 102.312 188.469 98.3438 180.408C94.2937 172.219 96.4174 161.739 104.448 156.889C111.739 152.43 121.998 155.599 125.189 163.714C125.249 163.945 125.331 164.072 125.286 164.281C125.669 165.565 123.87 166.822 123.152 165.576C119.927 160.187 112.911 157.709 107.231 160.762C101.17 164.063 99.3567 171.549 102.68 177.505C108.3 187.558 122.529 188.513 131.208 182.162C140.923 175.047 143.193 161.318 138.438 150.792C133.338 139.319 122.037 132.32 109.981 130.407C106.59 129.903 103.236 129.735 99.8378 129.776C92.3848 130.375 85.0383 132.527 78.4102 135.926C55.697 147.596 35.3441 178.465 49.7508 203.729C52.0485 207.827 55.3389 211.371 59.2704 213.958C62.9104 216.373 67.0648 217.914 71.4265 217.969C80.3368 218.227 89.3736 211.734 88.7798 202.205C88.5584 198.112 86.4922 193.955 82.7408 192.062C79.0939 190.192 74.307 190.593 71.0461 193.069C65.0096 197.796 68.525 208.495 76.2849 208.508C77.9205 208.529 77.5949 211.083 75.9592 211.063C65.787 211.082 61.7297 196.77 69.7516 190.935C73.4977 188.234 78.6428 187.69 82.8795 189.358C87.303 191.175 90.2282 195.407 91.0926 200.074C91.5059 202.239 90.6046 210.575 86.5911 214.531C86.4642 214.613 86.3151 214.8 86.2105 214.777C83.0474 217.821 78.8898 219.887 74.2898 220.438C64.0817 221.652 55.1487 214.829 48.4189 207.928C46.6391 206.019 44.8594 204.109 43.3556 201.93C42.7795 201.042 39.4805 196.512 40.0171 195.533C34.9873 205.285 22.8751 219.542 13.8606 225.931C-59.9941 278.529 -118.973 246.939 -135.57 239.139C-138.073 238.059 -136.45 234.032 -133.969 235.216Z" fill="#848198"/>
<path d="M142.78 154.017C143.484 156.354 143.831 158.833 143.841 161.35C144.163 174.21 135.767 186.417 122.655 188.434C116.771 189.367 110.6 188.052 105.801 184.405C103.641 182.742 101.905 180.623 100.655 178.28C102.123 181.654 104.539 184.683 107.596 186.756C115.146 191.863 125.974 191.327 133.4 186.24C140.444 181.4 144.199 173.015 144.45 164.65C144.58 160.961 143.934 157.324 142.78 154.017Z" fill="#848198"/>
<path d="M126.822 130.383C129.504 130.626 132.148 130.534 134.82 129.791C139.912 128.471 144.315 125.254 147.283 121.076C146.858 121.532 146.537 122.01 146.007 122.444C141.673 126.878 135.933 129.7 129.802 130.253C128.794 130.366 127.808 130.374 126.822 130.383Z" fill="#848198"/>
<path d="M128.836 133.771C135.248 137.543 140.385 142.683 143.717 149.625C143.379 148.131 143.377 146.6 143.816 145.054C145.17 140.75 150.231 138.548 154.237 140.276C155.739 140.924 154.808 143.241 153.283 142.697C147.941 140.575 143.96 146.943 147.072 151.323C150.02 155.45 156.389 154.292 158.871 150.339C161.674 145.906 159.853 140.598 156.436 137.137C152.667 133.273 147.213 131.673 142.305 130.081C142.096 130.036 141.909 129.887 141.826 129.76C137.938 132.103 133.474 133.557 128.836 133.771Z" fill="#848198"/>
<path d="M33.5796 17.9146C28.9728 19.0105 24.3228 15.1771 24.4665 10.397C24.487 8.76137 27.0417 9.08699 27.0212 10.7226C26.8602 13.531 29.7235 15.9998 32.5387 15.6155C35.5854 15.1713 37.5157 11.7559 37.0269 8.91842C36.4404 5.51344 32.7781 3.20248 29.4399 3.47527C26.1018 3.74807 23.3038 6.10396 22.0301 9.00327C19.3335 14.9888 21.3297 23.0674 22.9949 29.1076C23.9175 32.4748 25.0938 35.6774 26.5015 38.82C26.6794 31.3139 29.2251 23.9842 33.5796 17.9146Z" fill="#848198"/>
<path d="M111.14 61.337C111.683 53.1434 110.822 44.8692 108.214 37.0975C105.463 28.9674 100.525 21.3553 94.1774 15.7389C87.1425 9.75738 78.3177 6.01854 69.3542 4.98349C66.3366 4.77792 63.3345 5.01297 60.1387 5.64408C58.7723 5.89963 57.3836 6.25974 56.0771 6.74673C58.5563 6.40026 60.9909 6.26297 63.5078 6.25254C85.5855 6.80166 103.464 24.4961 108.932 45.0133C110.418 50.3591 111.104 55.8626 111.14 61.337Z" fill="#848198"/>
<path d="M86.6923 114.508C88.6913 112.31 90.2343 109.687 91.2542 106.952C91.2988 106.743 91.3434 106.534 91.4702 106.451C92.3188 104.008 92.6667 101.349 92.574 98.7051C92.4985 98.033 92.423 97.361 92.3475 96.6889C92.2688 99.6241 91.7718 102.47 90.9832 105.145C89.9119 108.634 88.489 111.72 86.6923 114.508Z" fill="#848198"/>
<path d="M-1.88785 152.054C5.92019 154.92 11.6908 146.309 12.5717 139.609C14.0078 128.763 7.86594 120.129 0.00111389 113.424C1.41573 116.021 2.44971 118.866 2.93851 121.703C4.03614 127.841 2.61688 133.989 -0.760422 139.064C1.79422 139.39 4.05921 141.075 4.88405 143.875C5.30419 145.495 2.82502 145.842 2.40488 144.221C1.78239 142.011 -0.660849 141.163 -2.72166 141.599C-2.99769 141.868 -3.29597 142.242 -3.57199 142.511C-4.27318 143.236 -4.95212 143.857 -5.7579 144.56C-6.74014 147.63 -4.83172 150.989 -1.88785 152.054Z" fill="#848198"/>
<path d="M-19.7909 75.9699C-22.1294 75.1437 -24.617 74.5044 -27.096 74.8508C-29.575 75.1972 -32.1123 76.8432 -32.6248 79.2486C-28.5343 77.4962 -24.2637 76.4382 -19.7909 75.9699Z" fill="#848198"/>
<path d="M135.517 784.178C133.81 786.631 131.789 789.15 128.669 789.708C128.042 789.84 127.427 789.872 126.724 789.791C128.883 792.28 129.349 796.205 127.561 799.361C127.314 799.74 126.699 799.771 126.443 799.335C125.267 797.162 120.795 794.408 120.213 791.489C119.394 792.413 118.574 793.338 117.554 794.24C110.906 799.793 102.052 800.61 93.7756 799.049C80.9089 796.656 69.5554 789.954 59.303 781.647C60.3183 785.227 58.0238 789.242 53.6624 789.964C53.1482 790.007 53.0163 789.38 53.1515 789.09C53.9971 787.048 52.507 784.941 52.8614 782.741C53.0691 780.931 54.6268 779.786 55.3141 778.234C50.5901 774.127 46.2022 769.752 42.1276 765.312C35.4026 758.224 29.0253 750.769 22.4238 743.492C22.5013 743.704 22.4782 743.905 22.5557 744.118C22.7931 746.488 20.9535 748.314 19.2607 749.75C18.9244 750.017 18.2206 749.936 18.2899 749.333C18.5816 745.903 14.2285 741.227 17.6141 738.355C9.6973 730.112 1.13104 722.202 -9.89941 718.899C-10.6263 719.019 -11.4538 719.128 -12.1807 719.248C-17.7717 720.033 -23.5177 720.392 -29.2175 720.349C-22.3293 728.678 -15.2548 738.047 -15.3059 749.145C-12.4478 743.768 -5.72763 749.124 -2.48212 751.024C-2.00247 751.283 -2.20681 752.176 -2.81009 752.107C-5.93858 751.85 -8.67477 754.388 -11.7142 754.243C-8.67312 757.037 -7.67261 761.634 -9.46432 765.707C-9.59948 765.997 -10.1138 766.04 -10.2918 765.816C-12.4857 763.629 -15.4955 761.45 -17.2295 758.806C-19.8668 764.921 -25.0804 769.518 -32.2571 769.917C-39.0317 770.362 -45.6925 767.153 -50.1001 762.063C-52.472 759.651 -54.1599 756.605 -54.6181 753.497C-55.223 750.779 -55.0895 747.84 -54.2752 745.182C-55.1224 744.576 -56.2053 744.248 -56.952 743.653C-57.6096 743.17 -58.0432 742.509 -58.3531 741.658C-59.1163 739.432 -58.302 736.774 -59.8036 734.768C-60.0706 734.432 -59.5992 733.875 -59.2085 734.022C-57.1317 734.566 -54.7531 735.144 -53.0933 736.659C-53.3026 735.82 -53.3109 735.004 -53.1065 734.111C-52.5708 731.218 -49.3582 729.855 -48.9346 727.051C-48.8769 726.548 -48.061 726.54 -47.8945 726.865C-46.5396 729.262 -44.9061 731.894 -45.643 734.764C-45.8127 735.355 -46.0946 736.036 -46.4654 736.605C-45.5144 736.306 -44.3622 736.031 -43.2331 735.957C-35.6427 735.504 -31.1099 743.053 -32.3857 749.732C-32.4895 750.637 -32.6049 751.642 -33.0104 752.513C-33.3153 753.394 -34.812 753.121 -34.4955 752.138C-32.8175 745.506 -38.819 739.214 -45.6002 741.492C-51.1171 743.406 -53.6537 749.532 -52.1422 755.003C-50.3439 761.525 -43.9535 765.315 -37.2828 765.775C-38.9311 764.159 -39.447 761.553 -41.5437 760.294C-42.2129 759.912 -41.8074 759.041 -41.1036 759.122C-38.0987 759.569 -35.1878 758.171 -32.2522 759.221C-30.0979 759.978 -28.349 761.605 -27.3617 763.653C-27.3617 763.653 -27.3616 763.653 -27.2611 763.665C-27.0485 763.588 -26.8243 763.41 -26.6117 763.332C-18.5564 757.94 -21.736 743.925 -25.0853 736.715C-28.1792 729.942 -33.2444 724.369 -39.1635 720.023C-46.1127 719.327 -52.9697 717.827 -59.6684 715.836C-60.059 715.689 -60.3606 715.655 -60.7513 715.508C-60.7628 715.609 -60.6623 715.62 -60.6738 715.721C-59.5579 719.312 -61.5706 722.647 -63.715 725.355C-64.0628 725.723 -64.643 725.452 -64.6859 724.938C-64.8276 720.847 -69.6752 716.929 -67.4813 712.902C-74.4438 709.658 -80.7074 704.763 -83.3645 697.734C-84.6963 695.137 -85.4791 692.194 -84.3401 689.371C-83.0775 686.358 -79.7727 684.19 -76.5816 685.677C-72.2416 687.805 -72.7872 693.447 -71.3927 697.274C-68.7934 704.806 -61.343 709.124 -54.1646 711.374C-43.5479 714.732 -32.8554 715.653 -22.1018 715.155C-21.9897 715.066 -21.8892 715.078 -21.7771 714.989C-21.7656 714.888 -21.7541 714.788 -21.7425 714.687C-22.4068 709.823 -14.0037 710.278 -11.4373 708.331C-11.2131 708.153 -10.834 708.401 -10.768 708.714C-10.8093 710.848 -11.3532 712.925 -12.7444 714.396C1.39976 712.759 15.5504 709.289 29.3533 706.187C29.2528 706.175 29.0517 706.152 29.0748 705.951C28.3776 704.038 28.8985 702.162 30.1001 700.568C30.8187 699.632 31.816 698.931 32.9022 698.343C33.9884 697.754 37.0197 697.083 37.3823 695.699C37.5636 695.007 38.457 695.211 38.4883 695.826C38.6795 698.598 38.813 701.873 37.0163 704.214C36.8927 704.404 36.7806 704.493 36.6685 704.582C41.7684 703.639 47.0001 703.322 52.0044 704.1C55.9142 704.651 60.7025 706.423 64.5596 709.208L64.6601 709.22C65.0392 709.467 65.5073 709.827 65.8864 710.074C68.1413 710.842 70.5083 711.521 72.6923 710.244C74.2153 709.4 75.2389 707.582 74.217 705.834C73.0945 704.076 70.9599 704.034 69.5028 705.192C69.422 705.895 69.5193 706.823 70.1539 707.507C70.5989 708.068 70.0698 709.128 69.3116 708.633C67.0485 707.049 67.2397 703.607 69.5473 702.141C72.0791 700.495 75.4054 701.692 76.6252 704.379C78.0229 707.29 76.6021 710.794 74.0587 712.54C72.5126 713.585 70.5791 713.567 68.8154 712.957C70.7852 715.322 72.0824 718.221 71.9258 721.361C73.8939 721.078 76.0136 722.136 77.024 723.984C78.5569 726.605 77.6965 729.664 76.4916 732.174C76.3449 732.565 75.7301 732.596 75.4515 732.361C73.9268 730.556 72.2011 728.728 70.9121 726.644C70.8231 726.532 70.8346 726.432 70.7456 726.319C69.1698 729.398 66.0545 731.69 62.4464 731.174C58.8267 730.758 56.0213 727.686 56.2356 724.043C56.3163 723.339 57.2328 723.343 57.2526 724.058C57.5674 726.641 58.7245 728.098 60.2756 728.785C64.0931 730.14 67.8495 726.7 67.6534 722.195C67.5397 719.636 66.6215 716.984 65.3441 714.799C62.8898 710.443 58.9751 708.16 54.3648 706.612C54.2642 706.601 54.1752 706.489 54.0862 706.377C48.5133 705.228 42.5547 705.665 37.0296 706.762C26.0799 708.969 15.4482 712.843 4.6073 715.877C9.27201 717.839 13.6087 720.883 17.4855 724.384C18.5405 723.181 19.7849 722.101 21.2618 721.66C23.3535 721.187 25.5589 723.273 27.3836 722.464C27.8089 722.309 28.2885 722.568 28.2308 723.071C28.0034 724.165 27.4973 725.024 26.8018 725.759C27.9424 725.584 29.1259 725.924 30.0852 726.441C32.4719 727.836 33.1774 730.566 33.4032 733.036C33.4461 733.551 32.8082 733.783 32.4406 733.435C30.1 731.639 26.9682 732.298 24.4463 731.193C25.615 732.55 26.7951 733.806 27.8632 735.151C33.6949 742.034 39.0783 749.274 44.7863 756.347C45.0764 756.482 45.4556 756.729 45.7457 756.864C47.9956 755.9 50.0247 754.197 52.4609 754.273C55.3999 754.407 57.6596 756.907 60.2821 758.023C60.6727 758.17 60.5804 758.974 60.1667 759.029C56.8338 759.665 54.1521 762.617 50.6329 762.213C50.2307 762.167 49.7395 762.009 49.3374 761.962C50.328 763.095 51.307 764.328 52.3982 765.472C67.3928 782.167 90.6323 806.023 114.604 794.207C121.444 787.861 124.33 777.801 119.085 769.355C116.329 764.964 111.947 762.322 106.807 761.834C102.472 761.438 96.263 763.171 94.3476 767.433C93.5647 770.705 93.5202 773.756 96.3602 776.527C98.0085 778.142 100.352 779.023 102.599 778.975C105.259 778.873 107.949 776.736 107.132 774.096C106.799 773.446 106.365 772.785 105.719 772.202C104.795 771.383 106.062 770.102 107.099 770.832C112.248 774.785 109.067 782.977 103.074 783.715C101.833 783.878 100.626 783.74 99.5316 783.513C99.9881 783.972 100.344 784.421 100.588 784.958C101.188 785.944 102.606 789.57 101.183 790.425C100.522 790.859 99.5859 790.14 99.1063 789.882C97.8453 789.329 96.5959 788.677 95.5822 787.745C94.7465 787.038 94.135 786.153 93.7361 785.19C92.7356 786.807 90.9768 787.93 88.8077 788.19C88.3939 788.245 88.0379 787.796 88.1846 787.406C88.7055 785.53 88.1088 783.628 89.0203 781.899C89.9318 780.17 92.0927 779.093 92.335 776.982C91.1153 774.295 90.7576 771.198 91.4829 768.429C93.1724 761.695 100.529 757.956 107.176 758.617C114.628 759.37 120.463 765.337 123.267 771.974C124.94 776.037 125.372 780.264 124.52 784.139C125.092 783.593 125.753 783.16 126.514 782.738C127.577 782.351 128.618 782.164 129.712 782.392C131.599 782.812 133.17 784.215 135.184 783.529C135.331 783.138 135.865 783.811 135.517 784.178ZM93.0603 780.427C92.7207 781.61 92.0795 782.759 91.0708 783.56C90.6224 783.916 89.8642 783.422 90.1345 782.842C90.8878 781.604 91.5406 780.354 91.8917 779.07C91.6444 779.449 91.3856 779.929 91.0378 780.297C89.9598 781.701 89.4538 782.56 89.4356 784.493C89.3549 785.197 89.3862 785.812 89.317 786.415C92.1471 785.721 93.4641 783.122 93.0603 780.427ZM94.7581 780.724C94.8586 780.735 94.8586 780.735 94.7581 780.724C94.6691 780.611 94.491 780.387 94.313 780.163C94.3905 780.376 94.3674 780.577 94.4448 780.789C94.5454 780.801 94.6575 780.712 94.7581 780.724ZM98.5458 784.112C97.5552 782.98 96.4063 782.339 95.0218 781.976C95.1108 782.088 95.1882 782.301 95.2772 782.413C96.3338 783.859 97.7728 784.635 98.9529 785.891C99.2315 786.127 98.9727 786.606 98.5821 786.46C96.9074 785.962 95.5608 784.381 94.5932 783.048C94.5042 782.936 94.4267 782.723 94.3377 782.611C94.2916 783.013 94.1449 783.404 94.0097 783.694C94.3855 784.857 95.086 785.855 96.0223 786.573C96.5794 787.045 99.5002 789.112 100.262 788.69C100.586 788.523 99.9782 786.722 99.9123 786.409C99.5908 785.659 99.0799 784.785 98.5458 784.112ZM74.3537 726.835C73.1158 726.082 72.1368 724.849 71.4939 723.349C71.3472 723.74 71.2896 724.243 71.1313 724.734C71.1313 724.734 71.1313 724.734 71.1198 724.834C71.6192 725.809 72.4433 726.616 73.0664 727.401C73.8675 728.41 74.7807 729.329 75.5818 730.338C76.2806 728.686 76.7125 726.699 76.0927 724.998C75.4729 723.297 73.879 722.095 72.1236 722.301C72.201 722.514 72.3675 722.838 72.445 723.051C73.1225 724.249 74.0471 725.069 74.9488 726.089C75.3163 726.437 74.8334 727.094 74.3537 726.835ZM29.5809 705.093C30.5847 702.559 33.0192 699.986 35.734 700.298C36.0356 700.332 36.0784 700.846 35.8658 700.924C34.5669 701.59 33.2137 701.842 32.0813 702.833C31.3972 703.467 30.8022 704.214 30.3968 705.084C32.7324 705.149 35.1257 704.71 36.3966 702.513C37.3971 700.896 37.4152 698.963 37.3328 697.018C36.5598 697.54 35.6087 697.838 34.8472 698.26C32.0484 699.569 28.9562 701.659 29.5809 705.093ZM-77.8624 703.052C-77.9514 702.94 -77.9514 702.94 -78.0519 702.928C-78.0519 702.928 -78.0404 702.828 -78.1409 702.816C-78.5975 702.356 -79.0425 701.796 -79.4876 701.235C-78.9535 701.908 -78.5201 702.569 -77.8855 703.253C-77.874 703.152 -77.874 703.152 -77.8624 703.052ZM-62.3799 714.608C-63.1612 714.315 -63.8419 714.033 -64.6232 713.739C-64.5457 713.952 -64.4567 714.064 -64.2786 714.288C-63.7017 715.475 -62.9699 717.087 -63.2204 718.383C-63.2666 718.785 -63.7579 718.627 -63.8354 718.414C-64.4007 717.127 -64.4402 715.696 -65.2067 714.386C-65.4622 713.949 -65.7177 713.512 -65.9847 713.176C-66.2748 713.04 -66.4644 712.917 -66.766 712.882L-66.8666 712.871C-68.0863 716.398 -64.7006 719.741 -63.7743 723.209C-62.4606 721.526 -61.4255 719.607 -61.4733 717.361C-61.559 716.332 -61.8574 715.381 -62.3799 714.608ZM-49.7241 738.37C-49.8247 738.359 -49.9253 738.347 -50.0258 738.335C-50.2269 738.312 -50.3275 738.301 -50.4165 738.189C-50.4511 738.49 -50.4742 738.691 -50.5088 738.993C-50.2846 738.815 -50.0489 738.537 -49.7241 738.37ZM-51.2044 739.728C-51.1928 739.628 -51.1928 739.628 -51.2044 739.728C-51.1928 739.628 -51.1813 739.527 -51.1813 739.527C-51.1813 739.527 -51.1813 739.527 -51.2818 739.516C-51.1813 739.527 -51.1928 739.628 -51.2044 739.728ZM-51.1895 738.711C-51.1368 736.476 -50.4692 734.21 -48.8654 732.662C-48.6297 732.383 -48.1616 732.743 -48.3973 733.021C-49.1736 734.46 -49.8379 735.81 -50.3011 737.183C-50.3011 737.183 -50.2006 737.195 -50.189 737.094C-45.2474 736.643 -46.5924 731.497 -48.2687 728.35C-48.6858 729.321 -49.3698 729.955 -50.189 730.88C-52.0977 733.31 -52.7109 735.99 -51.1895 738.711ZM-53.9702 744.301C-53.9586 744.2 -53.835 744.011 -53.8235 743.91C-53.9784 743.485 -54.0213 742.97 -54.2768 742.534C-54.8421 741.246 -55.7669 740.427 -56.6685 739.407C-56.8465 739.183 -56.5992 738.804 -56.3091 738.939C-54.8471 739.514 -53.7905 740.96 -53.2598 742.549C-52.9894 741.968 -52.6186 741.4 -52.2478 740.831C-52.1983 739.512 -52.7637 738.225 -53.8779 737.282C-55.0812 736.227 -56.7559 735.729 -58.3415 735.344C-57.6328 737.157 -57.9525 739.056 -57.4679 741.047C-56.9487 742.736 -55.185 743.346 -53.9702 744.301ZM-33.6945 765.575C-32.4533 765.412 -31.3011 765.137 -30.1374 764.761C-32.0709 764.743 -34.0126 763.909 -35.3708 762.429C-35.7268 761.98 -35.1548 761.435 -34.6867 761.794C-32.8258 763.332 -30.7605 763.977 -28.4907 763.728C-30.0352 761.207 -32.4104 759.712 -35.496 759.969C-36.9268 760.009 -38.191 760.373 -39.5212 760.424C-38.8982 761.209 -38.4877 762.071 -37.8762 762.956C-36.7421 764.614 -35.3032 765.391 -33.6945 765.575ZM-15.1494 752.219C-15.2268 752.007 -15.3043 751.794 -15.3817 751.581C-15.4048 751.782 -15.4164 751.883 -15.4394 752.084C-15.3389 752.096 -15.2499 752.208 -15.1494 752.219ZM-15.0752 753.348C-14.2114 755.587 -12.8219 757.682 -10.9841 759.421C-10.6165 759.768 -11.111 760.527 -11.5791 760.167C-13.5406 758.618 -15.0306 756.511 -15.7707 754.083C-15.9982 755.178 -16.3147 756.16 -16.6427 757.243C-16.2323 758.105 -15.5977 758.789 -14.9631 759.473C-13.3148 761.089 -11.767 762.693 -10.1187 764.308C-8.48197 759.81 -10.7121 755.275 -15.0752 753.348ZM-15.3207 750.162C-14.8411 750.421 -14.4389 750.467 -13.9362 750.525C-13.0197 750.528 -12.3703 750.195 -11.5313 749.986C-11.1176 749.931 -10.8621 750.368 -11.0978 750.647C-12.0176 751.56 -13.5488 751.588 -14.8329 751.237C-13.895 754.604 -9.28301 752.587 -7.2457 751.7C-6.28309 751.301 -5.44411 751.092 -4.61665 750.983C-7.73855 748.893 -12.5549 745.59 -14.4933 750.053C-14.729 750.332 -15.0306 750.297 -15.3207 750.162ZM-18.881 714.608C-17.8525 714.522 -16.824 714.437 -15.6949 714.363C-13.468 713.599 -11.729 711.761 -11.6416 709.225C-12.751 710.014 -14.1042 710.266 -15.4575 710.519C-17.5377 710.891 -20.7584 711.438 -21.0354 713.852C-20.9348 713.863 -20.9348 713.863 -20.8343 713.875C-20.7337 713.886 -20.6332 713.898 -20.6447 713.998C-18.8085 713.088 -17.0613 712.066 -15.2366 711.257C-14.6993 711.013 -14.2658 711.674 -14.7141 712.03C-16.0476 712.998 -17.4701 713.853 -19.0821 714.585C-18.9816 714.597 -18.881 714.608 -18.881 714.608ZM22.1865 728.693C22.2211 728.391 22.2442 728.19 22.4799 727.912C22.1782 727.877 21.7761 727.831 21.3624 727.885C21.6294 728.222 21.9079 728.457 22.1865 728.693ZM24.7727 727.462C26.4704 727.758 28.2111 728.569 29.3023 729.713C29.5693 730.05 29.2099 730.518 28.8193 730.371C27.5699 729.718 26.5331 728.988 25.16 728.525C24.5683 728.355 23.876 728.174 23.2727 728.105C23.2612 728.205 23.2612 728.205 23.1491 728.294C21.9392 729.072 26.0699 730.361 26.4721 730.407C27.377 730.511 28.1814 730.603 29.0748 730.808C30.0802 730.923 31.0626 731.24 31.8208 731.734C31.2076 728.2 28.4023 725.128 24.7727 727.462ZM18.2125 724.264C18.313 724.276 18.5141 724.299 18.6261 724.21C19.9679 724.058 21.0772 723.268 22.3184 723.105C22.6315 723.039 22.8986 723.376 22.6513 723.755C21.8206 724.78 20.4558 725.133 18.913 725.261C21.509 727.495 25.3792 726.614 26.6534 723.501C25.6248 723.587 24.6656 723.069 23.5826 722.741C21.4398 721.884 19.7932 722.917 18.2125 724.264ZM21.0623 742.928C20.8184 742.39 20.4739 741.842 20.1179 741.393C20.3816 742.646 20.3321 743.965 19.981 745.249C19.8228 745.74 19.1189 745.659 19.0761 745.145C19.0596 743.513 19.2327 742.005 18.7135 740.315C18.6245 740.203 18.6476 740.002 18.5585 739.89C18.369 739.766 18.191 739.542 18.0014 739.419C17.9124 739.306 17.9124 739.306 17.8234 739.194C16.1042 741.748 18.8635 745.222 19.3333 748.23C20.825 746.772 22.1502 744.988 21.0623 742.928ZM45.9435 757.804C46.2995 758.252 46.6671 758.6 46.9226 759.037C49.0275 761.112 51.8889 761.033 54.8114 759.534C55.9981 758.958 57.0844 758.369 58.2481 757.993C55.8729 756.498 53.5438 754.601 50.6016 755.384C49.3374 755.748 48.228 756.538 47.1418 757.126C49.1956 757.871 51.2065 758.102 53.5883 757.764C54.0021 757.71 54.4355 758.371 53.8982 758.615C51.401 759.958 48.5544 759.02 45.9435 757.804ZM56.0723 778.729C55.3619 780.481 53.9822 781.851 54.2427 784.02C54.4602 785.675 54.9251 786.951 54.6515 788.447C58.5563 787.266 59.7018 782.609 57.086 779.66C57.2574 781.717 57.2277 783.751 56.4168 785.492C56.2585 785.983 55.4773 785.69 55.5234 785.288C55.5762 783.053 56.0195 780.964 56.0723 778.729ZM123.185 788.672C122.895 788.537 122.84 788.123 122.975 787.833C122.975 787.833 122.975 787.833 122.886 787.721C122.774 787.81 122.774 787.81 122.662 787.899C122.539 788.088 122.516 788.289 122.392 788.479C122.713 789.229 123.135 789.99 123.681 790.562C124.404 791.359 125.576 791.799 126.199 792.583C126.377 792.807 126.231 793.198 125.918 793.264C124.688 793.327 123.508 792.071 122.796 791.174C122.351 790.613 122.107 790.076 121.874 789.438C121.739 789.728 121.503 790.007 121.38 790.196C121.06 792.095 122.975 794.047 124.38 795.125C125.304 795.944 126.241 796.663 127.042 797.671C128.474 794.067 126.643 790.495 123.185 788.672ZM133.727 784.686C132.308 784.625 130.981 783.76 129.396 783.374C126.816 782.772 124.709 784.263 123.361 786.247L123.35 786.348C125.243 784.935 127.64 783.58 129.783 784.437C130.274 784.595 130.193 785.299 129.679 785.342C128.036 785.459 126.806 785.522 125.283 786.366C124.858 786.521 124.522 786.788 124.085 787.043C127.034 790.641 131.258 787.561 133.727 784.686Z" fill="#848198"/>
<path d="M493.97 235.216C490.383 236.855 486.774 238.39 483.12 239.715C453.076 250.598 419.199 250.163 389.278 239.044C356.976 227.012 327.565 201.352 318.411 167.113C310.157 136.072 323.788 97.4152 355.991 86.3996C372.092 80.8918 391.171 83.7149 402.642 97.015C403.366 97.8449 403.984 98.6971 404.708 99.5269C407.13 103.712 408.178 108.628 407.589 113.564C406.708 120.202 402.457 127.449 395.234 128.442C391.947 128.923 388.43 127.814 386.425 125.07C384.695 122.596 384.169 119.1 386.046 116.623C387.737 114.295 391.54 113.157 394.017 115.034C396.726 116.972 396.429 121.736 393.47 123.241C391.99 123.994 392.921 126.31 394.423 125.662C400.969 122.518 398.972 112.12 391.668 111.708C385.373 111.409 381.086 117.461 382.774 123.333C384.746 130.02 392.055 132.508 398.301 130.521C405.466 128.23 409.627 120.564 410.293 113.425C410.368 112.753 410.422 111.976 410.393 111.326C411.143 114.337 411.476 117.437 411.263 120.544C410.731 128.31 407.115 135.969 401.306 141.033C395.497 146.098 388.1 148.329 380.469 146.894C377.168 146.285 374.048 144.982 371.152 143.194C369.988 142.348 368.802 141.398 367.698 140.322C367.422 140.052 367.168 139.888 366.937 139.828C365.407 138.295 364.17 136.591 363.223 134.715C356.904 122.504 365.776 104.104 379.691 103.217C382.395 103.078 382.025 100.314 379.343 100.558C370.395 101.152 361.447 108.416 355.315 114.533C348.19 121.627 343.136 131.779 345.425 142.006C346.933 148.572 352.093 155.345 359.473 155.085C364.253 154.941 368.484 151.197 368.848 146.746C370.012 147.591 371.258 148.31 372.483 148.924C383.246 154.284 397.11 152.642 406.648 145.58C429.193 128.75 420.219 93.8168 398.045 81.5945C397.179 81.123 396.44 80.7337 395.574 80.2622C395.555 77.0955 393.549 74.3522 390.534 73.0267C389.205 72.4351 387.734 72.2019 386.308 72.1778C390.284 69.8 393.536 66.5923 394.714 61.8586C396.05 56.326 394.108 50.2891 389.205 47.2884C384.682 44.5346 378.139 44.6166 374.311 48.7123C370.587 52.7858 370.272 59.5221 374.077 63.5222C375.203 64.7036 377.281 63.1675 376.155 61.9861C371.351 56.8869 374.871 48.2649 381.788 47.8846C388.473 47.4444 393.201 53.2157 392.506 59.7051C391.661 67.5386 384.068 70.9055 377.598 73.3774C375.259 74.2037 372.92 75.0299 370.433 75.6693C366.011 75.9554 361.596 76.7867 357.315 78.2455C356.896 78.3346 356.396 78.5506 356 78.7443C355.791 78.7889 355.581 78.8335 355.372 78.878C354.954 78.9672 354.767 79.1163 354.602 79.3701C334.69 87.0019 320.352 104.379 313.532 124.2C313.841 122.057 314.277 119.997 314.585 117.853C315.301 113 315.188 107.338 310.807 104.226C307.166 101.503 301.959 102.722 300.169 107.149C298.461 111.449 301.958 116.061 306.469 116.193C308.127 116.277 308.451 113.694 306.815 113.714C302.2 113.604 300.422 107.314 305.077 105.556C309.023 104.06 311.848 108.597 312.329 111.883C312.885 116.029 311.617 120.344 310.933 124.317C310.249 128.289 309.587 132.366 308.902 136.339C302.37 133.904 295.98 131.111 290.145 127.325C283.906 123.187 278.407 117.908 274.718 111.369C271.156 104.912 269.059 96.6115 271.697 89.4896C274.109 82.8528 282.869 77.2692 289.106 82.9377C291.695 85.3382 292.295 89.693 290.17 92.551C287.941 95.4313 283.117 95.3658 281.044 92.3087C280.105 90.9782 278.027 92.5143 278.966 93.8448C281.337 97.2757 286.108 98.1178 289.733 96.1429C293.358 94.168 294.707 89.7258 293.778 85.8784C292.187 79.4386 285.678 77.1082 279.596 78.8412C270.818 81.2582 265.624 90.2368 265.397 98.9225C265.389 99.9083 265.38 100.894 265.498 101.962C259.078 93.3808 254.631 83.2855 252.821 72.7378C249.342 52.815 255.215 31.1182 271.497 18.2466C277.103 13.772 283.881 10.688 290.866 9.09048C304.985 6.0823 318.475 11.4083 324.329 25.0304C329.342 36.7545 327.427 51.3758 317.932 60.1775C315.008 62.8777 311.593 64.808 308.104 65.8794C308.209 65.8571 308.396 65.708 308.5 65.6857C315.689 61.9673 320.442 52.9733 317.135 45.1498C314.283 38.4322 305.654 34.3666 299.099 38.4965C293.045 42.4104 291.241 52.4161 298.399 56.2485C301.608 57.97 305.918 57.161 307.745 53.9293C309.511 50.929 308.119 46.9615 304.998 45.6583C303.438 45.0067 302.524 47.3881 303.98 48.062C305.667 48.7959 306.426 50.8208 305.588 52.5301C304.667 54.3663 302.202 55.1102 300.432 54.5032C297.02 53.3714 295.524 49.4263 296.469 46.1636C297.992 40.4818 304.104 37.8675 309.254 40.4876C314.867 43.2277 316.794 49.7052 314.621 55.4161C312.246 61.7168 305.894 65.2569 299.396 65.548C280.492 66.6237 271.218 39.5168 286.728 28.6682C288.058 27.7287 286.522 25.6507 285.192 26.5901C282.718 28.3199 280.564 30.5281 279.067 33.2524C276.643 37.2676 275.569 41.979 275.9 46.6099C277.176 66.4554 298.854 75.8316 315.348 66.5228C324.346 61.5443 330.338 52.7235 336.532 44.844C341.528 38.5314 346.945 30.5987 355.55 29.4213C358.941 28.9174 362.809 29.624 365.233 32.2782C367.381 34.6632 368.117 38.1146 367.463 41.2058C366.69 44.7599 363.773 48.0053 359.979 48.1577C357.798 48.185 355.432 46.8304 355.069 44.6119C354.69 42.8339 355.947 41.0354 357.725 40.6566C359.316 40.427 359.095 37.85 357.399 38.102C354.24 38.6659 352.033 41.6507 352.492 44.8329C353.041 48.4334 356.824 50.7979 360.283 50.6078C367.303 50.2052 371.196 42.8159 369.963 36.5185C368.62 29.6981 362.388 26.1058 355.77 26.8598C347.098 27.7235 341.249 34.6549 336.17 41.0943C335.385 42.027 334.704 42.9373 333.941 43.9746C337.017 38.3992 339.228 32.3522 340.512 26.0652C341.879 19.6513 343.263 11.2657 339.102 5.59215C335.284 0.501565 327.885 -0.873925 323.181 3.73615C321.11 5.81745 320.308 8.72178 320.76 11.3587C312.255 3.76809 301.421 1.15629 290.74 2.3387C280.574 2.86449 271.256 7.36455 263.854 14.1896C262.942 15.04 262.007 15.7857 261.222 16.7184C252.338 25.827 247.575 37.338 246.134 49.5624C244.943 46.5362 243.064 43.8752 240.063 42.1091C234.19 38.6591 225.097 41.143 225.364 49.0674C225.573 55.6923 234.981 58.28 237.46 51.9571C238.007 50.4192 236.104 49.1846 235.453 50.7448C233.887 54.6864 227.951 52.9989 227.859 48.9733C227.804 44.6116 232.117 42.2715 236.029 43.1873C244.421 45.1165 245.328 55.5288 245.835 62.5275C246.304 69.8622 247.506 77.0409 249.671 84.1236C255.043 101.128 265.619 113.307 278.085 125.63C279.189 126.707 280.293 127.784 281.375 128.756C277.015 127.279 272.535 126.266 268.039 125.693C262.304 124.947 256.412 125 250.675 125.785C244.938 126.569 239.208 127.9 233.42 127.93C224.674 127.935 216.435 123.13 212.164 115.403C208.579 108.841 209.053 99.7748 216.772 96.4903C222.989 93.8537 231.075 96.3951 231.379 103.983C231.604 110.168 224.421 114.431 219.482 110.236C218.273 109.181 216.62 111.173 217.934 112.206C224.104 117.56 233.669 112.68 233.97 104.853C234.255 97.4668 227.771 92.1789 220.668 92.7083C215.282 93.0903 211.088 96.4985 208.775 101.037C207.965 98.2574 206.362 95.8656 203.929 94.1972C200.735 92.0351 196.433 91.8582 193.316 94.1624C190.386 96.3173 189.328 100.588 191.318 103.772C193.286 106.851 197.363 107.513 200.338 105.568C201.669 104.628 200.155 102.655 198.802 103.49C196.119 105.264 192.947 103.206 192.846 100.167C192.789 97.3359 195.092 95.3146 197.774 95.0713C205.774 94.1322 206.876 103.409 206.757 109.011C206.539 116.711 210.377 123.437 216.033 127.917C209.996 129.859 203.63 132.309 199.882 137.809C197.121 141.786 196.473 146.954 199.022 151.222C201.445 155.407 206.588 157.482 211.138 155.747C212.954 155.032 214.554 153.816 215.519 152.189C215.234 152.906 214.95 153.623 214.792 154.422C212.153 163.075 213.344 172.77 218.137 180.386C222.953 188.107 231.253 192.68 240.357 192.818C249.229 192.896 257.689 188.469 261.657 180.408C265.707 172.219 263.583 161.739 255.553 156.889C248.261 152.43 238.003 155.599 234.812 163.714C234.752 163.945 234.67 164.072 234.714 164.281C234.332 165.565 236.13 166.822 236.849 165.576C240.074 160.187 247.09 157.709 252.77 160.762C258.83 164.063 260.644 171.549 257.321 177.505C251.7 187.558 237.471 188.513 228.793 182.162C219.077 175.047 216.808 161.318 221.563 150.792C226.662 139.319 237.963 132.32 250.02 130.407C253.411 129.903 256.765 129.735 260.163 129.776C267.616 130.375 274.962 132.527 281.59 135.926C304.303 147.596 324.656 178.465 310.25 203.729C307.952 207.827 304.662 211.371 300.73 213.958C297.09 216.373 292.936 217.914 288.574 217.969C279.664 218.227 270.627 211.734 271.221 202.205C271.442 198.112 273.508 193.955 277.26 192.062C280.907 190.192 285.694 190.593 288.954 193.069C294.991 197.796 291.476 208.495 283.716 208.508C282.08 208.529 282.406 211.083 284.041 211.063C294.213 211.082 298.271 196.77 290.249 190.935C286.503 188.234 281.358 187.69 277.121 189.358C272.697 191.175 269.772 195.407 268.908 200.074C268.495 202.239 269.396 210.575 273.409 214.531C273.536 214.613 273.685 214.8 273.79 214.777C276.953 217.821 281.111 219.887 285.711 220.438C295.919 221.652 304.852 214.829 311.582 207.928C313.361 206.019 315.141 204.109 316.645 201.93C317.221 201.042 320.52 196.512 319.983 195.533C325.013 205.285 337.125 219.542 346.14 225.931C419.995 278.529 478.974 246.939 495.571 239.139C498.074 238.059 496.451 234.032 493.97 235.216Z" fill="#848198"/>
<path d="M217.221 154.017C216.516 156.354 216.17 158.833 216.159 161.35C215.838 174.21 224.233 186.417 237.346 188.434C243.23 189.367 249.4 188.052 254.199 184.405C256.36 182.742 258.095 180.623 259.345 178.28C257.877 181.654 255.461 184.683 252.404 186.756C244.855 191.863 234.026 191.327 226.601 186.24C219.556 181.4 215.802 173.015 215.55 164.65C215.42 160.961 216.067 157.324 217.221 154.017Z" fill="#848198"/>
<path d="M233.178 130.383C230.497 130.626 227.853 130.534 225.18 129.791C220.088 128.471 215.685 125.254 212.718 121.076C213.143 121.532 213.464 122.01 213.993 122.444C218.327 126.878 224.067 129.7 230.198 130.253C231.207 130.366 232.192 130.374 233.178 130.383Z" fill="#848198"/>
<path d="M231.165 133.771C224.752 137.543 219.615 142.683 216.284 149.625C216.622 148.131 216.623 146.6 216.184 145.054C214.83 140.75 209.769 138.548 205.764 140.276C204.262 140.924 205.193 143.241 206.717 142.697C212.06 140.575 216.04 146.943 212.928 151.323C209.981 155.45 203.611 154.292 201.129 150.339C198.326 145.906 200.147 140.598 203.564 137.137C207.333 133.273 212.787 131.673 217.696 130.081C217.905 130.036 218.092 129.887 218.174 129.76C222.063 132.103 226.527 133.557 231.165 133.771Z" fill="#848198"/>
<path d="M326.421 17.9146C331.028 19.0105 335.678 15.1771 335.534 10.397C335.514 8.76137 332.959 9.08699 332.979 10.7226C333.14 13.531 330.277 15.9998 327.462 15.6155C324.415 15.1713 322.485 11.7559 322.974 8.91842C323.56 5.51344 327.222 3.20248 330.561 3.47527C333.899 3.74807 336.697 6.10396 337.97 9.00327C340.667 14.9888 338.671 23.0674 337.006 29.1076C336.083 32.4748 334.907 35.6774 333.499 38.82C333.321 31.3139 330.775 23.9842 326.421 17.9146Z" fill="#848198"/>
<path d="M248.861 61.337C248.318 53.1434 249.179 44.8692 251.787 37.0975C254.537 28.9674 259.476 21.3553 265.823 15.7389C272.858 9.75738 281.683 6.01854 290.646 4.98349C293.664 4.77792 296.666 5.01297 299.862 5.64408C301.228 5.89963 302.617 6.25974 303.923 6.74673C301.444 6.40026 299.01 6.26297 296.493 6.25254C274.415 6.80166 256.537 24.4961 251.068 45.0133C249.583 50.3591 248.897 55.8626 248.861 61.337Z" fill="#848198"/>
<path d="M273.308 114.508C271.309 112.31 269.766 109.687 268.746 106.952C268.702 106.743 268.657 106.534 268.53 106.451C267.682 104.008 267.334 101.349 267.427 98.7051C267.502 98.0331 267.578 97.361 267.653 96.6889C267.732 99.6241 268.229 102.47 269.017 105.145C270.089 108.634 271.512 111.72 273.308 114.508Z" fill="#848198"/>
<path d="M361.888 152.054C354.08 154.92 348.31 146.309 347.429 139.609C345.993 128.763 352.135 120.129 359.999 113.424C358.585 116.021 357.551 118.866 357.062 121.703C355.964 127.841 357.384 133.989 360.761 139.064C358.206 139.39 355.941 141.075 355.116 143.875C354.696 145.495 357.175 145.842 357.596 144.221C358.218 142.011 360.661 141.163 362.722 141.599C362.998 141.868 363.296 142.242 363.573 142.511C364.274 143.236 364.953 143.857 365.758 144.56C366.741 147.63 364.832 150.989 361.888 152.054Z" fill="#848198"/>
<path d="M379.791 75.9699C382.13 75.1437 384.618 74.5043 387.097 74.8508C389.576 75.1973 392.113 76.8432 392.625 79.2486C388.535 77.4962 384.264 76.4382 379.791 75.9699Z" fill="#848198"/>
<path d="M224.483 784.178C226.191 786.631 228.212 789.15 231.332 789.708C231.958 789.84 232.573 789.872 233.277 789.791C231.118 792.28 230.651 796.205 232.44 799.361C232.687 799.74 233.302 799.771 233.557 799.335C234.734 797.162 239.206 794.408 239.788 791.489C240.607 792.413 241.426 793.338 242.446 794.24C249.094 799.793 257.949 800.61 266.225 799.049C279.092 796.656 290.445 789.954 300.698 781.647C299.682 785.227 301.977 789.242 306.338 789.964C306.852 790.007 306.984 789.38 306.849 789.09C306.003 787.048 307.494 784.941 307.139 782.741C306.931 780.931 305.374 779.786 304.686 778.234C309.41 774.127 313.798 769.752 317.873 765.312C324.598 758.224 330.975 750.769 337.577 743.492C337.499 743.704 337.522 743.905 337.445 744.118C337.207 746.488 339.047 748.314 340.74 749.75C341.076 750.017 341.78 749.936 341.711 749.333C341.419 745.903 345.772 741.227 342.386 738.355C350.303 730.112 358.869 722.202 369.9 718.899C370.627 719.019 371.454 719.128 372.181 719.248C377.772 720.033 383.518 720.392 389.218 720.349C382.33 728.678 375.255 738.047 375.306 749.145C372.448 743.768 365.728 749.124 362.483 751.024C362.003 751.283 362.207 752.176 362.811 752.107C365.939 751.85 368.675 754.388 371.715 754.243C368.674 757.037 367.673 761.634 369.465 765.707C369.6 765.997 370.114 766.04 370.292 765.816C372.486 763.629 375.496 761.45 377.23 758.806C379.867 764.921 385.081 769.518 392.258 769.917C399.032 770.362 405.693 767.153 410.101 762.063C412.472 759.651 414.16 756.605 414.619 753.497C415.224 750.779 415.09 747.84 414.276 745.182C415.123 744.576 416.206 744.248 416.952 743.653C417.61 743.17 418.044 742.509 418.354 741.658C419.117 739.432 418.302 736.774 419.804 734.768C420.071 734.432 419.6 733.875 419.209 734.022C417.132 734.566 414.754 735.144 413.094 736.659C413.303 735.82 413.311 735.004 413.107 734.111C412.571 731.218 409.359 729.855 408.935 727.051C408.877 726.548 408.062 726.54 407.895 726.865C406.54 729.262 404.907 731.894 405.643 734.764C405.813 735.355 406.095 736.036 406.466 736.605C405.515 736.306 404.363 736.031 403.234 735.957C395.643 735.504 391.11 743.053 392.386 749.732C392.49 750.637 392.605 751.642 393.011 752.513C393.316 753.394 394.812 753.121 394.496 752.138C392.818 745.506 398.82 739.214 405.601 741.492C411.118 743.406 413.654 749.532 412.143 755.003C410.344 761.525 403.954 765.315 397.283 765.775C398.932 764.159 399.448 761.553 401.544 760.294C402.213 759.912 401.808 759.042 401.104 759.122C398.099 759.569 395.188 758.171 392.253 759.221C390.098 759.978 388.35 761.605 387.362 763.653C387.362 763.653 387.362 763.653 387.262 763.665C387.049 763.588 386.825 763.41 386.612 763.332C378.557 757.94 381.736 743.925 385.086 736.715C388.18 729.942 393.245 724.369 399.164 720.023C406.113 719.327 412.97 717.827 419.669 715.836C420.06 715.689 420.361 715.655 420.752 715.508C420.763 715.609 420.663 715.62 420.674 715.721C419.558 719.312 421.571 722.647 423.716 725.355C424.063 725.723 424.644 725.452 424.686 724.938C424.828 720.847 429.676 716.929 427.482 712.902C434.444 709.658 440.708 704.763 443.365 697.734C444.697 695.137 445.48 692.194 444.341 689.371C443.078 686.358 439.773 684.19 436.582 685.677C432.242 687.805 432.788 693.447 431.393 697.274C428.794 704.806 421.344 709.124 414.165 711.374C403.548 714.732 392.856 715.653 382.102 715.155C381.99 715.066 381.89 715.078 381.778 714.989C381.766 714.888 381.755 714.788 381.743 714.687C382.407 709.823 374.004 710.278 371.438 708.331C371.214 708.153 370.834 708.401 370.769 708.714C370.81 710.848 371.354 712.925 372.745 714.396C358.601 712.759 344.45 709.289 330.647 706.187C330.748 706.175 330.949 706.152 330.926 705.951C331.623 704.038 331.102 702.162 329.9 700.568C329.182 699.632 328.185 698.931 327.098 698.343C326.012 697.754 322.981 697.083 322.618 695.699C322.437 695.007 321.544 695.211 321.512 695.826C321.321 698.598 321.188 701.873 322.984 704.214C323.108 704.404 323.22 704.493 323.332 704.582C318.232 703.639 313 703.322 307.996 704.1C304.086 704.651 299.298 706.423 295.441 709.208L295.34 709.22C294.961 709.467 294.493 709.827 294.114 710.074C291.859 710.842 289.492 711.521 287.308 710.244C285.785 709.4 284.762 707.582 285.784 705.834C286.906 704.076 289.041 704.034 290.498 705.192C290.579 705.895 290.481 706.823 289.847 707.507C289.402 708.068 289.931 709.128 290.689 708.633C292.952 707.049 292.761 703.607 290.453 702.141C287.921 700.495 284.595 701.692 283.375 704.379C281.978 707.29 283.398 710.794 285.942 712.54C287.488 713.585 289.421 713.567 291.185 712.957C289.215 715.322 287.918 718.221 288.075 721.361C286.107 721.078 283.987 722.136 282.977 723.984C281.444 726.605 282.304 729.664 283.509 732.174C283.656 732.565 284.27 732.596 284.549 732.361C286.074 730.556 287.799 728.728 289.088 726.644C289.177 726.532 289.166 726.432 289.255 726.319C290.831 729.398 293.946 731.69 297.554 731.174C301.174 730.758 303.979 727.686 303.765 724.043C303.684 723.339 302.768 723.343 302.748 724.058C302.433 726.641 301.276 728.098 299.725 728.785C295.907 730.14 292.151 726.7 292.347 722.195C292.461 719.636 293.379 716.984 294.656 714.799C297.111 710.443 301.025 708.16 305.636 706.612C305.736 706.601 305.825 706.489 305.914 706.377C311.487 705.228 317.446 705.665 322.971 706.762C333.921 708.969 344.552 712.843 355.393 715.877C350.729 717.839 346.392 720.883 342.515 724.384C341.46 723.181 340.216 722.101 338.739 721.66C336.647 721.187 334.442 723.273 332.617 722.464C332.192 722.309 331.712 722.568 331.77 723.071C331.997 724.165 332.503 725.024 333.199 725.759C332.058 725.584 330.875 725.924 329.915 726.441C327.529 727.836 326.823 730.565 326.597 733.036C326.554 733.551 327.192 733.783 327.56 733.435C329.9 731.639 333.032 732.298 335.554 731.193C334.386 732.55 333.205 733.806 332.137 735.151C326.306 742.034 320.922 749.274 315.214 756.347C314.924 756.482 314.545 756.729 314.255 756.864C312.005 755.9 309.976 754.197 307.54 754.273C304.601 754.407 302.341 756.907 299.718 758.023C299.328 758.17 299.42 758.974 299.834 759.029C303.167 759.665 305.848 762.617 309.368 762.213C309.77 762.167 310.261 762.009 310.663 761.962C309.673 763.095 308.693 764.328 307.602 765.472C292.608 782.167 269.368 806.023 245.397 794.207C238.556 787.861 235.67 777.801 240.915 769.355C243.671 764.964 248.054 762.322 253.193 761.834C257.528 761.438 263.738 763.171 265.653 767.433C266.436 770.705 266.48 773.756 263.64 776.527C261.992 778.142 259.648 779.023 257.401 778.975C254.741 778.873 252.051 776.736 252.869 774.096C253.202 773.446 253.635 772.785 254.281 772.202C255.206 771.383 253.938 770.102 252.902 770.832C247.752 774.785 250.934 782.977 256.927 783.715C258.168 783.878 259.374 783.74 260.469 783.513C260.012 783.972 259.656 784.421 259.412 784.958C258.812 785.944 257.395 789.57 258.817 790.425C259.478 790.859 260.415 790.14 260.894 789.882C262.155 789.329 263.405 788.677 264.418 787.745C265.254 787.038 265.866 786.153 266.264 785.19C267.265 786.807 269.024 787.93 271.193 788.19C271.607 788.245 271.963 787.796 271.816 787.406C271.295 785.53 271.892 783.628 270.98 781.899C270.069 780.17 267.908 779.093 267.666 776.982C268.885 774.295 269.243 771.198 268.518 768.429C266.828 761.695 259.472 757.956 252.824 758.617C245.372 759.37 239.537 765.337 236.733 771.974C235.06 776.037 234.629 780.264 235.481 784.139C234.909 783.593 234.248 783.16 233.486 782.738C232.423 782.351 231.383 782.164 230.288 782.392C228.401 782.812 226.83 784.215 224.816 783.529C224.669 783.138 224.135 783.811 224.483 784.178ZM266.94 780.427C267.28 781.61 267.921 782.759 268.93 783.56C269.378 783.916 270.136 783.422 269.866 782.842C269.113 781.604 268.46 780.354 268.109 779.07C268.356 779.449 268.615 779.929 268.963 780.297C270.041 781.701 270.547 782.56 270.565 784.493C270.646 785.197 270.614 785.812 270.684 786.415C267.853 785.721 266.536 783.122 266.94 780.427ZM265.242 780.724C265.142 780.735 265.142 780.735 265.242 780.724C265.331 780.611 265.509 780.387 265.688 780.163C265.61 780.376 265.633 780.577 265.556 780.789C265.455 780.801 265.343 780.712 265.242 780.724ZM261.455 784.112C262.445 782.98 263.594 782.339 264.979 781.976C264.89 782.088 264.812 782.301 264.723 782.413C263.667 783.859 262.228 784.635 261.048 785.891C260.769 786.127 261.028 786.606 261.418 786.46C263.093 785.962 264.44 784.381 265.407 783.048C265.496 782.936 265.574 782.723 265.663 782.611C265.709 783.013 265.856 783.404 265.991 783.694C265.615 784.857 264.914 785.855 263.978 786.573C263.421 787.045 260.5 789.112 259.739 788.69C259.414 788.523 260.022 786.722 260.088 786.409C260.41 785.659 260.921 784.785 261.455 784.112ZM285.647 726.835C286.885 726.082 287.864 724.849 288.507 723.349C288.653 723.74 288.711 724.243 288.869 724.734C288.869 724.734 288.869 724.734 288.881 724.834C288.381 725.808 287.557 726.616 286.934 727.401C286.133 728.41 285.22 729.329 284.419 730.338C283.72 728.686 283.288 726.699 283.908 724.998C284.528 723.297 286.122 722.095 287.877 722.301C287.799 722.514 287.633 722.838 287.556 723.051C286.878 724.249 285.953 725.068 285.052 726.089C284.684 726.437 285.167 727.094 285.647 726.835ZM330.42 705.093C329.416 702.559 326.981 699.986 324.267 700.298C323.965 700.332 323.922 700.846 324.135 700.924C325.434 701.59 326.787 701.842 327.919 702.833C328.603 703.467 329.198 704.214 329.604 705.084C327.268 705.149 324.875 704.71 323.604 702.513C322.603 700.896 322.585 698.963 322.668 697.018C323.441 697.54 324.392 697.838 325.153 698.26C327.952 699.569 331.044 701.659 330.42 705.093ZM437.863 703.052C437.952 702.94 437.952 702.94 438.052 702.928C438.052 702.928 438.041 702.828 438.141 702.816C438.598 702.356 439.043 701.796 439.488 701.235C438.954 701.908 438.521 702.569 437.886 703.253C437.874 703.152 437.874 703.152 437.863 703.052ZM422.38 714.608C423.162 714.315 423.842 714.033 424.624 713.739C424.546 713.952 424.457 714.064 424.279 714.288C423.702 715.475 422.97 717.087 423.221 718.383C423.267 718.785 423.758 718.627 423.836 718.414C424.401 717.127 424.441 715.696 425.207 714.386C425.463 713.949 425.718 713.512 425.985 713.176C426.275 713.041 426.465 712.917 426.767 712.882L426.867 712.871C428.087 716.398 424.701 719.741 423.775 723.209C422.461 721.526 421.426 719.607 421.474 717.361C421.559 716.332 421.858 715.381 422.38 714.608ZM409.725 738.37C409.825 738.359 409.926 738.347 410.026 738.335C410.227 738.312 410.328 738.301 410.417 738.189C410.452 738.49 410.475 738.691 410.509 738.993C410.285 738.815 410.049 738.537 409.725 738.37ZM411.205 739.728C411.193 739.628 411.193 739.628 411.205 739.728C411.193 739.628 411.182 739.527 411.182 739.527C411.182 739.527 411.182 739.527 411.282 739.516C411.182 739.527 411.193 739.628 411.205 739.728ZM411.19 738.711C411.137 736.476 410.47 734.21 408.866 732.662C408.63 732.383 408.162 732.743 408.398 733.021C409.174 734.46 409.838 735.81 410.302 737.183C410.302 737.183 410.201 737.195 410.19 737.094C405.248 736.643 406.593 731.497 408.269 728.35C408.686 729.321 409.37 729.956 410.19 730.88C412.098 733.31 412.711 735.99 411.19 738.711ZM413.971 744.301C413.959 744.2 413.836 744.011 413.824 743.91C413.979 743.485 414.022 742.97 414.277 742.534C414.843 741.246 415.767 740.427 416.669 739.407C416.847 739.183 416.6 738.804 416.31 738.939C414.848 739.514 413.791 740.96 413.26 742.549C412.99 741.968 412.619 741.4 412.248 740.831C412.199 739.512 412.764 738.225 413.878 737.282C415.082 736.227 416.756 735.729 418.342 735.344C417.633 737.157 417.953 739.056 417.468 741.047C416.949 742.736 415.186 743.346 413.971 744.301ZM393.695 765.575C392.454 765.412 391.302 765.137 390.138 764.761C392.071 764.743 394.013 763.909 395.371 762.429C395.727 761.98 395.155 761.435 394.687 761.794C392.826 763.332 390.761 763.977 388.491 763.728C390.036 761.207 392.411 759.712 395.497 759.969C396.927 760.009 398.192 760.373 399.522 760.424C398.899 761.209 398.488 762.071 397.877 762.956C396.743 764.614 395.304 765.391 393.695 765.575ZM375.15 752.219C375.227 752.007 375.305 751.794 375.382 751.581C375.405 751.782 375.417 751.883 375.44 752.084C375.339 752.096 375.25 752.208 375.15 752.219ZM375.076 753.348C374.212 755.587 372.822 757.682 370.985 759.421C370.617 759.768 371.111 760.527 371.58 760.167C373.541 758.618 375.031 756.511 375.771 754.083C375.999 755.178 376.315 756.16 376.643 757.243C376.233 758.105 375.598 758.789 374.964 759.473C373.315 761.089 371.768 762.693 370.119 764.308C368.482 759.81 370.713 755.275 375.076 753.348ZM375.321 750.162C374.842 750.421 374.439 750.467 373.937 750.525C373.02 750.528 372.371 750.195 371.532 749.986C371.118 749.931 370.863 750.368 371.098 750.647C372.018 751.56 373.549 751.588 374.833 751.237C373.895 754.604 369.284 752.587 367.246 751.7C366.284 751.301 365.445 751.092 364.617 750.983C367.739 748.893 372.555 745.59 374.494 750.053C374.73 750.332 375.031 750.297 375.321 750.162ZM378.882 714.608C377.853 714.522 376.824 714.437 375.695 714.363C373.469 713.599 371.73 711.761 371.642 709.225C372.751 710.014 374.105 710.266 375.458 710.519C377.538 710.891 380.759 711.438 381.036 713.852C380.935 713.863 380.935 713.863 380.835 713.875C380.734 713.886 380.634 713.898 380.645 713.998C378.809 713.088 377.062 712.066 375.237 711.257C374.7 711.013 374.266 711.674 374.715 712.03C376.048 712.998 377.471 713.853 379.083 714.585C378.982 714.597 378.882 714.608 378.882 714.608ZM337.814 728.693C337.779 728.391 337.756 728.19 337.521 727.912C337.822 727.877 338.224 727.831 338.638 727.885C338.371 728.222 338.093 728.457 337.814 728.693ZM335.228 727.462C333.53 727.758 331.789 728.569 330.698 729.713C330.431 730.049 330.791 730.518 331.181 730.371C332.431 729.718 333.467 728.988 334.84 728.525C335.432 728.355 336.125 728.174 336.728 728.105C336.739 728.205 336.739 728.205 336.851 728.294C338.061 729.072 333.931 730.361 333.528 730.407C332.623 730.511 331.819 730.603 330.926 730.808C329.92 730.923 328.938 731.24 328.18 731.734C328.793 728.2 331.598 725.128 335.228 727.462ZM341.788 724.264C341.688 724.276 341.486 724.299 341.374 724.21C340.033 724.058 338.923 723.268 337.682 723.105C337.369 723.039 337.102 723.376 337.349 723.755C338.18 724.78 339.545 725.133 341.088 725.261C338.491 727.495 334.621 726.614 333.347 723.501C334.376 723.586 335.335 723.069 336.418 722.741C338.561 721.884 340.207 722.917 341.788 724.264ZM338.938 742.928C339.182 742.39 339.527 741.842 339.883 741.393C339.619 742.646 339.668 743.965 340.02 745.249C340.178 745.74 340.882 745.659 340.924 745.145C340.941 743.513 340.768 742.005 341.287 740.315C341.376 740.203 341.353 740.002 341.442 739.89C341.632 739.766 341.81 739.542 341.999 739.419C342.088 739.306 342.088 739.306 342.177 739.194C343.896 741.748 341.137 745.222 340.667 748.23C339.176 746.772 337.85 744.988 338.938 742.928ZM314.057 757.804C313.701 758.252 313.333 758.6 313.078 759.037C310.973 761.112 308.112 761.033 305.189 759.534C304.002 758.958 302.916 758.369 301.752 757.993C304.128 756.498 306.457 754.601 309.399 755.384C310.663 755.748 311.772 756.538 312.859 757.126C310.805 757.871 308.794 758.102 306.412 757.764C305.998 757.71 305.565 758.371 306.102 758.615C308.6 759.958 311.446 759.02 314.057 757.804ZM303.928 778.729C304.639 780.481 306.018 781.851 305.758 784.02C305.54 785.675 305.075 786.951 305.349 788.447C301.444 787.266 300.299 782.609 302.915 779.66C302.743 781.717 302.773 783.751 303.584 785.492C303.742 785.983 304.523 785.69 304.477 785.288C304.424 783.053 303.981 780.964 303.928 778.729ZM236.816 788.672C237.106 788.537 237.16 788.123 237.025 787.833C237.025 787.833 237.025 787.833 237.114 787.721C237.226 787.81 237.226 787.81 237.338 787.899C237.462 788.088 237.485 788.289 237.609 788.479C237.287 789.229 236.865 789.99 236.32 790.562C235.596 791.359 234.424 791.799 233.801 792.583C233.623 792.807 233.77 793.198 234.083 793.264C235.313 793.327 236.493 792.071 237.205 791.174C237.65 790.613 237.894 790.076 238.126 789.438C238.261 789.728 238.497 790.007 238.621 790.196C238.941 792.095 237.025 794.047 235.621 795.125C234.696 795.944 233.76 796.663 232.959 797.671C231.526 794.067 233.358 790.495 236.816 788.672ZM226.273 784.686C227.692 784.625 229.019 783.76 230.605 783.374C233.185 782.772 235.291 784.263 236.639 786.247L236.651 786.348C234.757 784.935 232.36 783.58 230.218 784.437C229.726 784.596 229.807 785.299 230.321 785.342C231.965 785.459 233.194 785.522 234.717 786.366C235.143 786.521 235.479 786.788 235.916 787.043C232.967 790.641 228.742 787.561 226.273 784.686Z" fill="#848198"/>
</svg>
