<svg width="1920" height="483" viewBox="0 0 1920 483" fill="none" xmlns="http://www.w3.org/2000/svg">
<path d="M1956.86 234.29C1953.27 235.929 1949.66 237.463 1946.01 238.788C1915.96 249.672 1882.09 249.236 1852.16 238.117C1819.86 226.085 1790.45 200.426 1781.3 166.186C1773.04 135.145 1786.68 96.4885 1818.88 85.4729C1834.98 79.9651 1854.06 82.7882 1865.53 96.0883C1866.25 96.9181 1866.87 97.7703 1867.59 98.6002C1870.02 102.785 1871.06 107.701 1870.48 112.637C1869.59 119.276 1865.34 126.523 1858.12 127.515C1854.83 127.996 1851.32 126.887 1849.31 124.144C1847.58 121.669 1847.06 118.174 1848.93 115.696C1850.62 113.368 1854.43 112.23 1856.9 114.107C1859.61 116.045 1859.32 120.809 1856.36 122.315C1854.88 123.067 1855.81 125.384 1857.31 124.736C1863.86 121.592 1861.86 111.193 1854.56 110.781C1848.26 110.482 1843.97 116.534 1845.66 122.407C1847.63 129.093 1854.94 131.581 1861.19 129.595C1868.35 127.303 1872.51 119.637 1873.18 112.498C1873.26 111.826 1873.31 111.05 1873.28 110.4C1874.03 113.41 1874.36 116.51 1874.15 119.617C1873.62 127.384 1870 135.042 1864.19 140.107C1858.38 145.171 1850.99 147.403 1843.36 145.967C1840.06 145.358 1836.93 144.055 1834.04 142.267C1832.88 141.422 1831.69 140.472 1830.58 139.395C1830.31 139.126 1830.05 138.961 1829.82 138.901C1828.29 137.368 1827.06 135.664 1826.11 133.788C1819.79 121.577 1828.66 103.177 1842.58 102.29C1845.28 102.151 1844.91 99.3875 1842.23 99.6309C1833.28 100.225 1824.33 107.489 1818.2 113.606C1811.08 120.7 1806.02 130.852 1808.31 141.079C1809.82 147.646 1814.98 154.418 1822.36 154.158C1827.14 154.014 1831.37 150.27 1831.73 145.819C1832.9 146.664 1834.15 147.383 1835.37 147.997C1846.13 153.357 1860 151.715 1869.53 144.654C1892.08 127.824 1883.11 92.89 1860.93 80.6677C1860.07 80.1962 1859.33 79.807 1858.46 79.3354C1858.44 76.1687 1856.44 73.4254 1853.42 72.0999C1852.09 71.5083 1850.62 71.2751 1849.19 71.251C1853.17 68.8732 1856.42 65.6655 1857.6 60.9318C1858.94 55.3992 1856.99 49.3623 1852.09 46.3616C1847.57 43.6079 1841.03 43.6898 1837.2 47.7855C1833.47 51.859 1833.16 58.5953 1836.96 62.5955C1838.09 63.7768 1840.17 62.2407 1839.04 61.0594C1834.24 55.9602 1837.76 47.3381 1844.67 46.9579C1851.36 46.5176 1856.09 52.2889 1855.39 58.7783C1854.55 66.6118 1846.96 69.9787 1840.48 72.4507C1838.15 73.2769 1835.81 74.1032 1833.32 74.7426C1828.9 75.0286 1824.48 75.8599 1820.2 77.3187C1819.78 77.4079 1819.28 77.6239 1818.89 77.8176C1818.68 77.8621 1818.47 77.9067 1818.26 77.9513C1817.84 78.0404 1817.65 78.1896 1817.49 78.4433C1797.58 86.0752 1783.24 103.453 1776.42 123.274C1776.73 121.131 1777.16 119.07 1777.47 116.927C1778.19 112.073 1778.07 106.412 1773.69 103.299C1770.05 100.577 1764.85 101.795 1763.06 106.222C1761.35 110.522 1764.84 115.134 1769.36 115.267C1771.01 115.351 1771.34 112.767 1769.7 112.787C1765.09 112.677 1763.31 106.387 1767.96 104.63C1771.91 103.133 1774.73 107.67 1775.22 110.957C1775.77 115.102 1774.5 119.418 1773.82 123.39C1773.14 127.363 1772.47 131.44 1771.79 135.412C1765.26 132.977 1758.87 130.184 1753.03 126.398C1746.79 122.26 1741.29 116.981 1737.6 110.442C1734.04 103.985 1731.95 95.6847 1734.58 88.5628C1737 81.9261 1745.76 76.3424 1751.99 82.0109C1754.58 84.4114 1755.18 88.7663 1753.06 91.6243C1750.83 94.5045 1746 94.4391 1743.93 91.382C1742.99 90.0515 1740.91 91.5876 1741.85 92.9181C1744.22 96.349 1749 97.191 1752.62 95.2161C1756.24 93.2412 1757.59 88.799 1756.66 84.9516C1755.07 78.5118 1748.56 76.1814 1742.48 77.9145C1733.7 80.3314 1728.51 89.31 1728.28 97.9957C1728.28 98.9815 1728.27 99.9674 1728.38 101.036C1721.96 92.454 1717.52 82.3588 1715.71 71.811C1712.23 51.8882 1718.1 30.1914 1734.38 17.3198C1739.99 12.8453 1746.77 9.76125 1753.75 8.16372C1767.87 5.15554 1781.36 10.4816 1787.22 24.1037C1792.23 35.8278 1790.31 50.449 1780.82 59.2507C1777.9 61.9509 1774.48 63.8813 1770.99 64.9527C1771.1 64.9304 1771.28 64.7812 1771.39 64.7589C1778.58 61.0406 1783.33 52.0465 1780.02 44.223C1777.17 37.5054 1768.54 33.4398 1761.99 37.5697C1755.93 41.4836 1754.13 51.4894 1761.29 55.3217C1764.49 57.0433 1768.81 56.2342 1770.63 53.0025C1772.4 50.0022 1771.01 46.0348 1767.89 44.7316C1766.32 44.08 1765.41 46.4613 1766.87 47.1352C1768.55 47.8691 1769.31 49.894 1768.47 51.6033C1767.55 53.4395 1765.09 54.1835 1763.32 53.5764C1759.91 52.4447 1758.41 48.4995 1759.36 45.2369C1760.88 39.5551 1766.99 36.9408 1772.14 39.5608C1777.75 42.3009 1779.68 48.7784 1777.51 54.4894C1775.13 60.79 1768.78 64.3302 1762.28 64.6213C1743.38 65.6969 1734.1 38.59 1749.61 27.7415C1750.95 26.802 1749.41 24.7239 1748.08 25.6634C1745.6 27.3932 1743.45 29.6014 1741.95 32.3256C1739.53 36.3409 1738.46 41.0523 1738.79 45.6832C1740.06 65.5287 1761.74 74.9049 1778.23 65.596C1787.23 60.6176 1793.23 51.7968 1799.42 43.9172C1804.41 37.6047 1809.83 29.6719 1818.44 28.4945C1821.83 27.9907 1825.7 28.6973 1828.12 31.3515C1830.27 33.7365 1831 37.1878 1830.35 40.2791C1829.58 43.8332 1826.66 47.0786 1822.87 47.231C1820.69 47.2583 1818.32 45.9037 1817.96 43.6851C1817.58 41.9071 1818.83 40.1087 1820.61 39.7299C1822.2 39.5002 1821.98 36.9233 1820.29 37.1752C1817.13 37.7391 1814.92 40.7239 1815.38 43.9061C1815.93 47.5066 1819.71 49.8711 1823.17 49.681C1830.19 49.2785 1834.08 41.8892 1832.85 35.5917C1831.51 28.7713 1825.27 25.1791 1818.66 25.9331C1809.98 26.7967 1804.14 33.7282 1799.06 40.1676C1798.27 41.1002 1797.59 42.0106 1796.83 43.0478C1799.9 37.4724 1802.11 31.4254 1803.4 25.1384C1804.77 18.7245 1806.15 10.3389 1801.99 4.66539C1798.17 -0.425193 1790.77 -1.80068 1786.07 2.8094C1784 4.89069 1783.19 7.79503 1783.65 10.432C1775.14 2.84133 1764.31 0.229535 1753.63 1.41195C1743.46 1.93773 1734.14 6.43779 1726.74 13.2628C1725.83 14.1132 1724.89 14.859 1724.11 15.7916C1715.23 24.9003 1710.46 36.4112 1709.02 48.6356C1707.83 45.6094 1705.95 42.9484 1702.95 41.1823C1697.08 37.7324 1687.98 40.2162 1688.25 48.1407C1688.46 54.7655 1697.87 57.3533 1700.35 51.0303C1700.89 49.4924 1698.99 48.2579 1698.34 49.818C1696.77 53.7596 1690.84 52.0722 1690.75 48.0465C1690.69 43.6848 1695 41.3447 1698.92 42.2605C1707.31 44.1898 1708.21 54.6021 1708.72 61.6007C1709.19 68.9354 1710.39 76.1141 1712.56 83.1969C1717.93 100.202 1728.51 112.38 1740.97 124.703C1742.08 125.78 1743.18 126.857 1744.26 127.829C1739.9 126.353 1735.42 125.339 1730.93 124.766C1725.19 124.02 1719.3 124.073 1713.56 124.858C1707.82 125.643 1702.09 126.973 1696.31 127.003C1687.56 127.008 1679.32 122.204 1675.05 114.476C1671.47 107.914 1671.94 98.8481 1679.66 95.5635C1685.88 92.9269 1693.96 95.4683 1694.27 103.057C1694.49 109.241 1687.31 113.505 1682.37 109.309C1681.16 108.254 1679.51 110.247 1680.82 111.279C1686.99 116.634 1696.56 111.753 1696.86 103.926C1697.14 96.54 1690.66 91.2521 1683.55 91.7815C1678.17 92.1636 1673.98 95.5718 1671.66 100.11C1670.85 97.3307 1669.25 94.9388 1666.82 93.2705C1663.62 91.1083 1659.32 90.9315 1656.2 93.2356C1653.27 95.3906 1652.21 99.6614 1654.2 102.845C1656.17 105.925 1660.25 106.587 1663.22 104.641C1664.56 103.701 1663.04 101.728 1661.69 102.563C1659.01 104.337 1655.83 102.28 1655.73 99.2398C1655.68 96.4091 1657.98 94.3879 1660.66 94.1445C1668.66 93.2054 1669.76 102.483 1669.64 108.084C1669.43 115.784 1673.26 122.51 1678.92 126.99C1672.88 128.933 1666.52 131.382 1662.77 136.882C1660.01 140.86 1659.36 146.027 1661.91 150.295C1664.33 154.48 1669.47 156.555 1674.03 154.82C1675.84 154.105 1677.44 152.89 1678.41 151.263C1678.12 151.979 1677.84 152.696 1677.68 153.495C1675.04 162.148 1676.23 171.844 1681.02 179.46C1685.84 187.18 1694.14 191.753 1703.24 191.891C1712.12 191.969 1720.58 187.542 1724.54 179.481C1728.59 171.293 1726.47 160.812 1718.44 155.963C1711.15 151.503 1700.89 154.672 1697.7 162.787C1697.64 163.018 1697.56 163.145 1697.6 163.354C1697.22 164.639 1699.02 165.895 1699.74 164.649C1702.96 159.261 1709.98 156.782 1715.66 159.836C1721.72 163.136 1723.53 170.622 1720.21 176.578C1714.59 186.632 1700.36 187.586 1691.68 181.235C1681.96 174.121 1679.69 160.391 1684.45 149.866C1689.55 138.393 1700.85 131.393 1712.91 129.48C1716.3 128.976 1719.65 128.808 1723.05 128.85C1730.5 129.448 1737.85 131.601 1744.48 134.999C1767.19 146.669 1787.54 177.539 1773.14 202.803C1770.84 206.9 1767.55 210.444 1763.62 213.031C1759.98 215.446 1755.82 216.988 1751.46 217.042C1742.55 217.301 1733.51 210.807 1734.11 201.278C1734.33 197.186 1736.4 193.028 1740.15 191.135C1743.79 189.265 1748.58 189.666 1751.84 192.142C1757.88 196.87 1754.36 207.568 1746.6 207.581C1744.97 207.602 1745.29 210.156 1746.93 210.136C1757.1 210.155 1761.16 195.843 1753.14 190.008C1749.39 187.307 1744.24 186.764 1740.01 188.432C1735.58 190.249 1732.66 194.48 1731.79 199.147C1731.38 201.312 1732.28 209.648 1736.3 213.604C1736.42 213.686 1736.57 213.873 1736.68 213.851C1739.84 216.894 1744 218.96 1748.6 219.511C1758.81 220.725 1767.74 213.902 1774.47 207.002C1776.25 205.092 1778.03 203.182 1779.53 201.003C1780.11 200.115 1783.41 195.585 1782.87 194.606C1787.9 204.359 1800.01 218.615 1809.03 225.004C1882.88 277.603 1941.86 246.013 1958.46 238.213C1960.96 237.133 1959.34 233.105 1956.86 234.29Z" fill="#848198"/>
<path d="M1680.11 153.09C1679.4 155.427 1679.06 157.906 1679.05 160.423C1678.72 173.284 1687.12 185.49 1700.23 187.507C1706.12 188.44 1712.29 187.125 1717.09 183.479C1719.25 181.816 1720.98 179.697 1722.23 177.353C1720.76 180.727 1718.35 183.756 1715.29 185.829C1707.74 190.936 1696.91 190.401 1689.49 185.313C1682.44 180.473 1678.69 172.089 1678.44 163.723C1678.31 160.034 1678.95 156.397 1680.11 153.09Z" fill="#848198"/>
<path d="M1696.06 129.456C1693.38 129.7 1690.74 129.607 1688.07 128.864C1682.97 127.544 1678.57 124.327 1675.6 120.149C1676.03 120.605 1676.35 121.083 1676.88 121.517C1681.21 125.951 1686.95 128.773 1693.09 129.326C1694.09 129.439 1695.08 129.448 1696.06 129.456Z" fill="#848198"/>
<path d="M1694.05 132.845C1687.64 136.616 1682.5 141.756 1679.17 148.698C1679.51 147.204 1679.51 145.673 1679.07 144.127C1677.72 139.823 1672.66 137.622 1668.65 139.35C1667.15 139.998 1668.08 142.314 1669.6 141.771C1674.95 139.648 1678.93 146.016 1675.81 150.397C1672.87 154.523 1666.5 153.366 1664.02 149.412C1661.21 144.98 1663.03 139.672 1666.45 136.21C1670.22 132.346 1675.67 130.747 1680.58 129.154C1680.79 129.11 1680.98 128.96 1681.06 128.834C1684.95 131.176 1689.41 132.63 1694.05 132.845Z" fill="#848198"/>
<path d="M1789.31 16.9879C1793.91 18.0837 1798.56 14.2503 1798.42 9.47026C1798.4 7.83461 1795.85 8.16024 1795.87 9.79588C1796.03 12.6043 1793.16 15.073 1790.35 14.6888C1787.3 14.2446 1785.37 10.8291 1785.86 7.99166C1786.45 4.58668 1790.11 2.27572 1793.45 2.54852C1796.79 2.82131 1799.58 5.1772 1800.86 8.07651C1803.55 14.062 1801.56 22.1407 1799.89 28.1808C1798.97 31.548 1797.79 34.7507 1796.39 37.8933C1796.21 30.3872 1793.66 23.0575 1789.31 16.9879Z" fill="#848198"/>
<path d="M1711.75 60.4103C1711.2 52.2166 1712.07 43.9424 1714.67 36.1707C1717.42 28.0407 1722.36 20.4285 1728.71 14.8122C1735.74 8.83063 1744.57 5.09179 1753.53 4.05673C1756.55 3.85116 1759.55 4.08621 1762.75 4.71733C1764.11 4.97287 1765.5 5.33298 1766.81 5.81997C1764.33 5.4735 1761.9 5.33621 1759.38 5.32579C1737.3 5.8749 1719.42 23.5694 1713.95 44.0866C1712.47 49.4323 1711.78 54.9359 1711.75 60.4103Z" fill="#848198"/>
<path d="M1736.19 113.581C1734.2 111.383 1732.65 108.76 1731.63 106.025C1731.59 105.816 1731.54 105.607 1731.42 105.525C1730.57 103.081 1730.22 100.422 1730.31 97.7784C1730.39 97.1063 1730.46 96.4342 1730.54 95.7621C1730.62 98.6974 1731.12 101.543 1731.9 104.218C1732.98 107.707 1734.4 110.793 1736.19 113.581Z" fill="#848198"/>
<path d="M1824.78 151.127C1816.97 153.993 1811.2 145.382 1810.32 138.682C1808.88 127.836 1815.02 119.202 1822.89 112.497C1821.47 115.094 1820.44 117.939 1819.95 120.776C1818.85 126.914 1820.27 133.062 1823.65 138.137C1821.09 138.463 1818.83 140.148 1818 142.948C1817.58 144.568 1820.06 144.915 1820.48 143.295C1821.1 141.085 1823.55 140.236 1825.61 140.672C1825.88 140.941 1826.18 141.315 1826.46 141.584C1827.16 142.309 1827.84 142.93 1828.65 143.633C1829.63 146.704 1827.72 150.062 1824.78 151.127Z" fill="#848198"/>
<path d="M1842.68 75.0432C1845.02 74.2169 1847.5 73.5776 1849.98 73.924C1852.46 74.2705 1855 75.9165 1855.51 78.3218C1851.42 76.5695 1847.15 75.5114 1842.68 75.0432Z" fill="#848198"/>
<path d="M-35.1468 234.29C-31.56 235.929 -27.9508 237.463 -24.2971 238.788C5.74683 249.672 39.6238 249.236 69.5448 238.117C101.847 226.085 131.258 200.426 140.412 166.186C148.665 135.145 135.035 96.4885 102.832 85.4729C86.7307 79.9651 67.6518 82.7882 56.1808 96.0883C55.4573 96.9181 54.8384 97.7703 54.115 98.6002C51.6926 102.785 50.6453 107.701 51.2336 112.637C52.1153 119.276 56.366 126.523 63.5892 127.515C66.876 127.996 70.3924 126.887 72.3982 124.144C74.128 121.669 74.6541 118.174 72.7766 115.696C71.086 113.368 67.2831 112.23 64.8058 114.107C62.097 116.045 62.3938 120.809 65.3531 122.315C66.8328 123.067 65.902 125.384 64.4 124.736C57.8539 121.592 59.8507 111.193 67.1545 110.781C73.4501 110.482 77.7368 116.534 76.0483 122.407C74.077 129.093 66.7681 131.581 60.5221 129.595C53.357 127.303 49.1955 119.637 48.5298 112.498C48.4544 111.826 48.4012 111.05 48.4303 110.4C47.6795 113.41 47.347 116.51 47.5598 119.617C48.0918 127.384 51.7081 135.042 57.5172 140.107C63.3262 145.171 70.7227 147.403 78.3539 145.967C81.6543 145.358 84.7747 144.055 87.6704 142.267C88.8345 141.422 90.0208 140.472 91.1249 139.395C91.4009 139.126 91.6547 138.961 91.8861 138.901C93.4154 137.368 94.6532 135.664 95.5995 133.788C101.918 121.577 93.0465 103.177 79.1315 102.29C76.4278 102.151 76.7979 99.3875 79.4794 99.6309C88.4275 100.225 97.3759 107.489 103.507 113.606C110.633 120.7 115.687 130.852 113.398 141.079C111.89 147.646 106.73 154.418 99.3503 154.158C94.5702 154.014 90.3386 150.27 89.9748 145.819C88.8107 146.664 87.5643 147.383 86.3402 147.997C75.5768 153.357 61.7132 151.715 52.175 144.654C29.63 127.824 38.6035 92.89 60.7782 80.6677C61.644 80.1962 62.383 79.807 63.2488 79.3354C63.2674 76.1687 65.2733 73.4254 68.289 72.0999C69.6177 71.5083 71.0888 71.2751 72.5152 71.251C68.5392 68.8732 65.2866 65.6655 64.1084 60.9318C62.7725 55.3992 64.7147 49.3623 69.618 46.3616C74.1408 43.6079 80.6833 43.6898 84.512 47.7855C88.2362 51.859 88.5503 58.5953 84.7461 62.5955C83.6197 63.7768 81.5416 62.2407 82.668 61.0594C87.4718 55.9602 83.9514 47.3381 77.035 46.9579C70.3501 46.5176 65.6218 52.2889 66.3166 58.7783C67.1623 66.6118 74.7543 69.9787 81.225 72.4507C83.5637 73.2769 85.9023 74.1032 88.3901 74.7426C92.8118 75.0286 97.2267 75.8599 101.508 77.3187C101.926 77.4079 102.427 77.6239 102.823 77.8176C103.032 77.8621 103.241 77.9067 103.451 77.9513C103.869 78.0404 104.056 78.1896 104.22 78.4433C124.133 86.0752 138.471 103.453 145.291 123.274C144.982 121.131 144.546 119.07 144.237 116.927C143.522 112.073 143.635 106.412 148.015 103.299C151.657 100.577 156.864 101.795 158.654 106.222C160.362 110.522 156.865 115.134 152.354 115.267C150.696 115.351 150.372 112.767 152.007 112.787C156.623 112.677 158.4 106.387 153.745 104.63C149.8 103.133 146.975 107.67 146.493 110.957C145.938 115.102 147.205 119.418 147.89 123.39C148.574 127.363 149.236 131.44 149.92 135.412C156.452 132.977 162.842 130.184 168.678 126.398C174.917 122.26 180.415 116.981 184.105 110.442C187.667 103.985 189.763 95.6847 187.126 88.5628C184.713 81.9261 175.954 76.3424 169.717 82.0109C167.128 84.4114 166.528 88.7663 168.652 91.6243C170.881 94.5045 175.706 94.4391 177.779 91.382C178.718 90.0515 180.796 91.5876 179.857 92.9181C177.486 96.349 172.714 97.191 169.09 95.2161C165.465 93.2412 164.116 88.799 165.045 84.9516C166.635 78.5118 173.145 76.1814 179.227 77.9145C188.005 80.3314 193.199 89.31 193.426 97.9957C193.434 98.9815 193.443 99.9674 193.325 101.036C199.745 92.454 204.192 82.3588 206.002 71.811C209.481 51.8882 203.608 30.1914 187.326 17.3198C181.719 12.8453 174.942 9.76125 167.957 8.16372C153.838 5.15554 140.348 10.4816 134.494 24.1037C129.481 35.8278 131.395 50.449 140.891 59.2507C143.814 61.9509 147.23 63.8813 150.719 64.9527C150.614 64.9304 150.427 64.7812 150.323 64.7589C143.134 61.0406 138.38 52.0465 141.687 44.223C144.54 37.5054 153.169 33.4398 159.724 37.5697C165.778 41.4836 167.582 51.4894 160.424 55.3217C157.215 57.0433 152.904 56.2342 151.078 53.0025C149.312 50.0022 150.704 46.0348 153.824 44.7316C155.385 44.08 156.298 46.4613 154.843 47.1352C153.156 47.8691 152.396 49.894 153.235 51.6033C154.156 53.4395 156.621 54.1835 158.391 53.5764C161.802 52.4447 163.299 48.4995 162.354 45.2369C160.831 39.5551 154.719 36.9408 149.569 39.5608C143.955 42.3009 142.029 48.7784 144.201 54.4894C146.576 60.79 152.929 64.3302 159.427 64.6213C178.331 65.6969 187.605 38.59 172.095 27.7415C170.764 26.802 172.3 24.7239 173.631 25.6634C176.105 27.3932 178.259 29.6014 179.756 32.3256C182.18 36.3409 183.254 41.0523 182.923 45.6832C181.647 65.5287 159.969 74.9049 143.475 65.596C134.477 60.6176 128.484 51.7968 122.291 43.9172C117.295 37.6047 111.878 29.6719 103.273 28.4945C99.8815 27.9907 96.0136 28.6973 93.5895 31.3515C91.4413 33.7365 90.706 37.1878 91.3594 40.2791C92.1328 43.8332 95.0494 47.0786 98.8436 47.231C101.024 47.2583 103.39 45.9037 103.754 43.6851C104.133 41.9071 102.876 40.1087 101.098 39.7299C99.5067 39.5002 99.7277 36.9233 101.423 37.1752C104.583 37.7391 106.79 40.7239 106.331 43.9061C105.782 47.5066 101.998 49.8711 98.5403 49.681C91.5193 49.2785 87.627 41.8892 88.8594 35.5917C90.2032 28.7713 96.4352 25.1791 103.053 25.9331C111.725 26.7967 117.574 33.7282 122.653 40.1676C123.438 41.1002 124.119 42.0106 124.882 43.0478C121.805 37.4724 119.595 31.4254 118.311 25.1384C116.944 18.7245 115.56 10.3389 119.721 4.66539C123.538 -0.425193 130.938 -1.80068 135.641 2.8094C137.713 4.89069 138.515 7.79503 138.063 10.432C146.568 2.84133 157.402 0.229535 168.083 1.41195C178.249 1.93773 187.567 6.43779 194.969 13.2628C195.881 14.1132 196.816 14.859 197.601 15.7916C206.484 24.9003 211.248 36.4112 212.689 48.6356C213.88 45.6094 215.759 42.9484 218.759 41.1823C224.633 37.7324 233.725 40.2162 233.458 48.1407C233.25 54.7655 223.842 57.3533 221.363 51.0303C220.816 49.4924 222.719 48.2579 223.37 49.818C224.936 53.7596 230.871 52.0722 230.964 48.0465C231.018 43.6848 226.706 41.3447 222.794 42.2605C214.401 44.1898 213.495 54.6021 212.988 61.6007C212.518 68.9354 211.317 76.1141 209.152 83.1969C203.78 100.202 193.204 112.38 180.738 124.703C179.634 125.78 178.53 126.857 177.448 127.829C181.808 126.353 186.288 125.339 190.783 124.766C196.518 124.02 202.411 124.073 208.148 124.858C213.885 125.643 219.615 126.973 225.403 127.003C234.149 127.008 242.388 122.204 246.659 114.476C250.243 107.914 249.77 98.8481 242.051 95.5635C235.834 92.9269 227.748 95.4683 227.444 103.057C227.219 109.241 234.402 113.505 239.341 109.309C240.55 108.254 242.202 110.247 240.889 111.279C234.719 116.634 225.153 111.753 224.853 103.926C224.568 96.54 231.052 91.2521 238.155 91.7815C243.54 92.1636 247.734 95.5718 250.047 100.11C250.858 97.3307 252.461 94.9388 254.894 93.2705C258.088 91.1083 262.39 90.9315 265.507 93.2356C268.437 95.3906 269.495 99.6614 267.505 102.845C265.537 105.925 261.46 106.587 258.485 104.641C257.154 103.701 258.668 101.728 260.021 102.563C262.704 104.337 265.876 102.28 265.977 99.2398C266.033 96.4091 263.731 94.3879 261.049 94.1445C253.049 93.2054 251.947 102.483 252.066 108.084C252.284 115.784 248.446 122.51 242.79 126.99C248.827 128.933 255.193 131.382 258.941 136.882C261.701 140.86 262.35 146.027 259.801 150.295C257.378 154.48 252.235 156.555 247.684 154.82C245.869 154.105 244.269 152.89 243.304 151.263C243.588 151.979 243.873 152.696 244.031 153.495C246.67 162.148 245.479 171.844 240.686 179.46C235.87 187.18 227.57 191.753 218.466 191.891C209.594 191.969 201.134 187.542 197.166 179.481C193.116 171.293 195.24 160.812 203.27 155.963C210.562 151.503 220.82 154.672 224.011 162.787C224.071 163.018 224.153 163.145 224.109 163.354C224.491 164.639 222.693 165.895 221.974 164.649C218.749 159.261 211.733 156.782 206.053 159.836C199.992 163.136 198.179 170.622 201.502 176.578C207.123 186.632 221.351 187.586 230.03 181.235C239.746 174.121 242.015 160.391 237.26 149.866C232.16 138.393 220.86 131.393 208.803 129.48C205.412 128.976 202.058 128.808 198.66 128.85C191.207 129.448 183.861 131.601 177.232 134.999C154.519 146.669 134.166 177.539 148.573 202.803C150.871 206.9 154.161 210.444 158.093 213.031C161.733 215.446 165.887 216.988 170.249 217.042C179.159 217.301 188.196 210.807 187.602 201.278C187.381 197.186 185.314 193.028 181.563 191.135C177.916 189.265 173.129 189.666 169.868 192.142C163.832 196.87 167.347 207.568 175.107 207.581C176.743 207.602 176.417 210.156 174.781 210.136C164.609 210.155 160.552 195.843 168.574 190.008C172.32 187.307 177.465 186.764 181.702 188.432C186.125 190.249 189.05 194.48 189.915 199.147C190.328 201.312 189.427 209.648 185.413 213.604C185.287 213.686 185.137 213.873 185.033 213.851C181.87 216.894 177.712 218.96 173.112 219.511C162.904 220.725 153.971 213.902 147.241 207.002C145.461 205.092 143.682 203.182 142.178 201.003C141.602 200.115 138.303 195.585 138.839 194.606C133.81 204.359 121.697 218.615 112.683 225.004C38.8282 277.603 -20.151 246.013 -36.7479 238.213C-39.2512 237.133 -37.6277 233.105 -35.1468 234.29Z" fill="#848198"/>
<path d="M241.602 153.09C242.307 155.427 242.653 157.906 242.664 160.423C242.985 173.284 234.59 185.49 221.477 187.507C215.593 188.44 209.422 187.125 204.623 183.479C202.463 181.816 200.728 179.697 199.478 177.353C200.946 180.727 203.361 183.756 206.419 185.829C213.968 190.936 224.797 190.401 232.222 185.313C239.267 180.473 243.021 172.089 243.272 163.723C243.402 160.034 242.756 156.397 241.602 153.09Z" fill="#848198"/>
<path d="M225.645 129.456C228.326 129.7 230.97 129.607 233.643 128.864C238.735 127.544 243.137 124.327 246.105 120.149C245.68 120.605 245.359 121.083 244.829 121.517C240.495 125.951 234.755 128.773 228.624 129.326C227.616 129.439 226.63 129.448 225.645 129.456Z" fill="#848198"/>
<path d="M227.658 132.845C234.071 136.616 239.207 141.756 242.539 148.698C242.201 147.204 242.2 145.673 242.638 144.127C243.993 139.823 249.054 137.622 253.059 139.35C254.561 139.998 253.63 142.314 252.106 141.771C246.763 139.648 242.782 146.016 245.895 150.397C248.842 154.523 255.211 153.366 257.694 149.412C260.497 144.98 258.676 139.672 255.258 136.21C251.49 132.346 246.036 130.747 241.127 129.154C240.918 129.11 240.731 128.96 240.649 128.834C236.76 131.176 232.296 132.63 227.658 132.845Z" fill="#848198"/>
<path d="M132.402 16.9879C127.795 18.0837 123.145 14.2503 123.289 9.47026C123.309 7.83461 125.864 8.16024 125.843 9.79588C125.682 12.6043 128.546 15.073 131.361 14.6888C134.408 14.2446 136.338 10.8291 135.849 7.99166C135.263 4.58668 131.6 2.27572 128.262 2.54852C124.924 2.82131 122.126 5.1772 120.852 8.07651C118.156 14.062 120.152 22.1407 121.817 28.1808C122.74 31.548 123.916 34.7507 125.324 37.8933C125.502 30.3872 128.047 23.0575 132.402 16.9879Z" fill="#848198"/>
<path d="M209.962 60.4103C210.505 52.2166 209.644 43.9424 207.036 36.1707C204.285 28.0407 199.347 20.4285 193 14.8122C185.965 8.83063 177.14 5.09179 168.176 4.05673C165.159 3.85116 162.157 4.08621 158.961 4.71733C157.595 4.97287 156.206 5.33298 154.899 5.81997C157.379 5.4735 159.813 5.33621 162.33 5.32579C184.408 5.8749 202.286 23.5694 207.755 44.0866C209.24 49.4323 209.926 54.9359 209.962 60.4103Z" fill="#848198"/>
<path d="M185.515 113.581C187.514 111.383 189.057 108.76 190.077 106.025C190.121 105.816 190.166 105.607 190.293 105.525C191.141 103.081 191.489 100.422 191.396 97.7784C191.321 97.1063 191.245 96.4342 191.17 95.7621C191.091 98.6974 190.594 101.543 189.805 104.218C188.734 107.707 187.311 110.793 185.515 113.581Z" fill="#848198"/>
<path d="M96.9344 151.127C104.742 153.993 110.513 145.382 111.394 138.682C112.83 127.836 106.688 119.202 98.8234 112.497C100.238 115.094 101.272 117.939 101.761 120.776C102.858 126.914 101.439 133.062 98.0618 138.137C100.616 138.463 102.881 140.148 103.706 142.948C104.126 144.568 101.647 144.915 101.227 143.295C100.605 141.085 98.1614 140.236 96.1006 140.672C95.8246 140.941 95.5263 141.315 95.2503 141.584C94.5491 142.309 93.8701 142.93 93.0643 143.633C92.0821 146.704 93.9905 150.062 96.9344 151.127Z" fill="#848198"/>
<path d="M79.0314 75.0432C76.6929 74.2169 74.2052 73.5776 71.7262 73.924C69.2472 74.2705 66.71 75.9165 66.1975 78.3218C70.288 76.5695 74.5585 75.5114 79.0314 75.0432Z" fill="#848198"/>
<path d="M1718.24 466.741C1719.95 469.194 1721.97 471.713 1725.09 472.271C1725.72 472.403 1726.33 472.435 1727.03 472.354C1724.88 474.843 1724.41 478.767 1726.2 481.924C1726.44 482.303 1727.06 482.334 1727.31 481.898C1728.49 479.725 1732.96 476.971 1733.55 474.052C1734.36 474.976 1735.18 475.901 1736.2 476.803C1742.85 482.356 1751.71 483.173 1759.98 481.612C1772.85 479.219 1784.2 472.517 1794.46 464.21C1793.44 467.79 1795.73 471.805 1800.1 472.527C1800.61 472.57 1800.74 471.943 1800.61 471.653C1799.76 469.611 1801.25 467.504 1800.9 465.304C1800.69 463.494 1799.13 462.349 1798.44 460.797C1803.17 456.69 1807.56 452.315 1811.63 447.875C1818.36 440.787 1824.73 433.332 1831.33 426.054C1831.26 426.267 1831.28 426.468 1831.2 426.681C1830.96 429.051 1832.8 430.877 1834.5 432.313C1834.83 432.58 1835.54 432.499 1835.47 431.896C1835.18 428.466 1839.53 423.79 1836.14 420.918C1844.06 412.675 1852.63 404.765 1863.66 401.462C1864.38 401.582 1865.21 401.691 1865.94 401.811C1871.53 402.596 1877.28 402.955 1882.98 402.912C1876.09 411.241 1869.01 420.61 1869.06 431.708C1866.21 426.331 1859.49 431.687 1856.24 433.587C1855.76 433.846 1855.96 434.739 1856.57 434.67C1859.7 434.413 1862.43 436.951 1865.47 436.806C1862.43 439.6 1861.43 444.197 1863.22 448.27C1863.36 448.56 1863.87 448.603 1864.05 448.379C1866.24 446.192 1869.25 444.013 1870.99 441.369C1873.62 447.484 1878.84 452.081 1886.02 452.48C1892.79 452.925 1899.45 449.716 1903.86 444.626C1906.23 442.214 1907.92 439.168 1908.38 436.06C1908.98 433.341 1908.85 430.403 1908.03 427.745C1908.88 427.139 1909.96 426.811 1910.71 426.216C1911.37 425.733 1911.8 425.072 1912.11 424.221C1912.87 421.995 1912.06 419.337 1913.56 417.331C1913.83 416.995 1913.36 416.438 1912.97 416.585C1910.89 417.129 1908.51 417.707 1906.85 419.222C1907.06 418.383 1907.07 417.567 1906.86 416.674C1906.33 413.781 1903.12 412.418 1902.69 409.614C1902.63 409.111 1901.82 409.103 1901.65 409.428C1900.3 411.824 1898.66 414.457 1899.4 417.327C1899.57 417.918 1899.85 418.599 1900.22 419.168C1899.27 418.869 1898.12 418.594 1896.99 418.52C1889.4 418.067 1884.87 425.616 1886.14 432.295C1886.25 433.2 1886.36 434.205 1886.77 435.076C1887.07 435.957 1888.57 435.684 1888.25 434.701C1886.58 428.069 1892.58 421.777 1899.36 424.055C1904.88 425.969 1907.41 432.095 1905.9 437.566C1904.1 444.088 1897.71 447.878 1891.04 448.338C1892.69 446.722 1893.21 444.116 1895.3 442.857C1895.97 442.475 1895.57 441.604 1894.86 441.685C1891.86 442.132 1888.95 440.734 1886.01 441.784C1883.86 442.541 1882.11 444.168 1881.12 446.216C1881.12 446.216 1881.12 446.216 1881.02 446.228C1880.81 446.15 1880.58 445.972 1880.37 445.895C1872.31 440.503 1875.49 426.488 1878.84 419.278C1881.94 412.505 1887 406.932 1892.92 402.586C1899.87 401.89 1906.73 400.39 1913.43 398.399C1913.82 398.252 1914.12 398.218 1914.51 398.071C1914.52 398.172 1914.42 398.183 1914.43 398.284C1913.32 401.875 1915.33 405.21 1917.47 407.918C1917.82 408.286 1918.4 408.015 1918.44 407.501C1918.59 403.41 1923.43 399.492 1921.24 395.465C1928.2 392.221 1934.47 387.326 1937.12 380.297C1938.45 377.7 1939.24 374.757 1938.1 371.934C1936.84 368.921 1933.53 366.753 1930.34 368.24C1926 370.368 1926.55 376.01 1925.15 379.837C1922.55 387.369 1915.1 391.687 1907.92 393.937C1897.31 397.295 1886.61 398.216 1875.86 397.718C1875.75 397.629 1875.65 397.641 1875.54 397.552C1875.52 397.451 1875.51 397.351 1875.5 397.25C1876.16 392.386 1867.76 392.841 1865.2 390.894C1864.97 390.716 1864.59 390.964 1864.53 391.277C1864.57 393.411 1865.11 395.488 1866.5 396.958C1852.36 395.322 1838.21 391.852 1824.4 388.75C1824.51 388.738 1824.71 388.715 1824.68 388.514C1825.38 386.601 1824.86 384.725 1823.66 383.131C1822.94 382.195 1821.94 381.494 1820.86 380.906C1819.77 380.317 1816.74 379.646 1816.38 378.262C1816.19 377.57 1815.3 377.774 1815.27 378.389C1815.08 381.161 1814.95 384.436 1816.74 386.777C1816.87 386.967 1816.98 387.055 1817.09 387.145C1811.99 386.202 1806.76 385.885 1801.75 386.663C1797.84 387.214 1793.06 388.986 1789.2 391.771L1789.1 391.783C1788.72 392.03 1788.25 392.39 1787.87 392.637C1785.62 393.405 1783.25 394.084 1781.07 392.807C1779.54 391.963 1778.52 390.144 1779.54 388.397C1780.66 386.639 1782.8 386.597 1784.26 387.754C1784.34 388.458 1784.24 389.386 1783.6 390.07C1783.16 390.631 1783.69 391.691 1784.45 391.196C1786.71 389.612 1786.52 386.17 1784.21 384.703C1781.68 383.058 1778.35 384.255 1777.13 386.942C1775.74 389.853 1777.16 393.357 1779.7 395.103C1781.25 396.148 1783.18 396.13 1784.94 395.52C1782.97 397.885 1781.68 400.784 1781.83 403.924C1779.86 403.641 1777.74 404.699 1776.73 406.547C1775.2 409.168 1776.06 412.227 1777.27 414.737C1777.41 415.128 1778.03 415.159 1778.31 414.924C1779.83 413.119 1781.56 411.291 1782.85 409.207C1782.93 409.095 1782.92 408.995 1783.01 408.882C1784.59 411.961 1787.7 414.253 1791.31 413.737C1794.93 413.321 1797.74 410.249 1797.52 406.606C1797.44 405.902 1796.53 405.906 1796.51 406.621C1796.19 409.204 1795.03 410.661 1793.48 411.348C1789.66 412.703 1785.91 409.263 1786.1 404.758C1786.22 402.199 1787.14 399.546 1788.41 397.362C1790.87 393.006 1794.78 390.723 1799.39 389.175C1799.49 389.164 1799.58 389.052 1799.67 388.94C1805.24 387.791 1811.2 388.227 1816.73 389.325C1827.68 391.532 1838.31 395.406 1849.15 398.44C1844.49 400.402 1840.15 403.446 1836.27 406.947C1835.22 405.744 1833.97 404.664 1832.5 404.223C1830.4 403.75 1828.2 405.836 1826.37 405.027C1825.95 404.872 1825.47 405.131 1825.53 405.634C1825.75 406.728 1826.26 407.587 1826.96 408.322C1825.82 408.147 1824.63 408.487 1823.67 409.004C1821.29 410.399 1820.58 413.128 1820.35 415.599C1820.31 416.114 1820.95 416.346 1821.32 415.998C1823.66 414.202 1826.79 414.861 1829.31 413.756C1828.14 415.113 1826.96 416.369 1825.89 417.714C1820.06 424.597 1814.68 431.837 1808.97 438.91C1808.68 439.045 1808.3 439.292 1808.01 439.427C1805.76 438.463 1803.73 436.76 1801.3 436.836C1798.36 436.97 1796.1 439.47 1793.48 440.586C1793.09 440.733 1793.18 441.537 1793.59 441.591C1796.92 442.228 1799.61 445.18 1803.13 444.776C1803.53 444.73 1804.02 444.572 1804.42 444.525C1803.43 445.658 1802.45 446.891 1801.36 448.035C1786.37 464.73 1763.13 488.586 1739.15 476.77C1732.31 470.424 1729.43 460.364 1734.67 451.918C1737.43 447.527 1741.81 444.885 1746.95 444.397C1751.29 444.001 1757.5 445.734 1759.41 449.996C1760.19 453.268 1760.24 456.319 1757.4 459.09C1755.75 460.705 1753.41 461.585 1751.16 461.538C1748.5 461.435 1745.81 459.299 1746.63 456.659C1746.96 456.009 1747.39 455.348 1748.04 454.765C1748.96 453.946 1747.7 452.665 1746.66 453.395C1741.51 457.348 1744.69 465.54 1750.68 466.278C1751.93 466.441 1753.13 466.303 1754.23 466.075C1753.77 466.535 1753.41 466.984 1753.17 467.521C1752.57 468.507 1751.15 472.133 1752.57 472.988C1753.24 473.422 1754.17 472.703 1754.65 472.444C1755.91 471.892 1757.16 471.24 1758.18 470.308C1759.01 469.601 1759.62 468.716 1760.02 467.753C1761.02 469.37 1762.78 470.493 1764.95 470.753C1765.36 470.808 1765.72 470.359 1765.57 469.969C1765.05 468.093 1765.65 466.191 1764.74 464.462C1763.83 462.733 1761.67 461.656 1761.42 459.545C1762.64 456.858 1763 453.761 1762.28 450.992C1760.59 444.258 1753.23 440.518 1746.58 441.179C1739.13 441.933 1733.29 447.9 1730.49 454.537C1728.82 458.6 1728.39 462.827 1729.24 466.702C1728.67 466.156 1728.01 465.723 1727.24 465.301C1726.18 464.913 1725.14 464.727 1724.05 464.955C1722.16 465.375 1720.59 466.778 1718.57 466.092C1718.43 465.701 1717.89 466.374 1718.24 466.741ZM1760.7 462.99C1761.04 464.173 1761.68 465.322 1762.69 466.123C1763.14 466.479 1763.89 465.985 1763.62 465.405C1762.87 464.167 1762.22 462.917 1761.87 461.633C1762.11 462.012 1762.37 462.492 1762.72 462.86C1763.8 464.264 1764.3 465.123 1764.32 467.056C1764.4 467.76 1764.37 468.375 1764.44 468.978C1761.61 468.284 1760.29 465.685 1760.7 462.99ZM1759 463.286C1758.9 463.298 1758.9 463.298 1759 463.286C1759.09 463.174 1759.27 462.95 1759.44 462.726C1759.37 462.939 1759.39 463.14 1759.31 463.352C1759.21 463.364 1759.1 463.275 1759 463.286ZM1755.21 466.675C1756.2 465.543 1757.35 464.902 1758.74 464.539C1758.65 464.651 1758.57 464.864 1758.48 464.976C1757.42 466.422 1755.99 467.198 1754.81 468.454C1754.53 468.69 1754.79 469.169 1755.18 469.023C1756.85 468.525 1758.2 466.944 1759.16 465.611C1759.25 465.498 1759.33 465.286 1759.42 465.174C1759.47 465.576 1759.61 465.967 1759.75 466.257C1759.37 467.42 1758.67 468.418 1757.74 469.136C1757.18 469.608 1754.26 471.675 1753.5 471.253C1753.17 471.086 1753.78 469.285 1753.85 468.971C1754.17 468.222 1754.68 467.348 1755.21 466.675ZM1779.4 409.398C1780.64 408.645 1781.62 407.412 1782.26 405.912C1782.41 406.303 1782.47 406.806 1782.63 407.297C1782.63 407.297 1782.63 407.297 1782.64 407.397C1782.14 408.371 1781.31 409.179 1780.69 409.964C1779.89 410.973 1778.98 411.892 1778.18 412.901C1777.48 411.249 1777.05 409.262 1777.67 407.561C1778.29 405.859 1779.88 404.658 1781.63 404.864C1781.56 405.077 1781.39 405.401 1781.31 405.614C1780.64 406.812 1779.71 407.631 1778.81 408.652C1778.44 409 1778.92 409.657 1779.4 409.398ZM1824.18 387.656C1823.17 385.122 1820.74 382.549 1818.02 382.861C1817.72 382.895 1817.68 383.409 1817.89 383.487C1819.19 384.153 1820.54 384.405 1821.68 385.396C1822.36 386.03 1822.96 386.777 1823.36 387.647C1821.03 387.712 1818.63 387.273 1817.36 385.076C1816.36 383.459 1816.34 381.525 1816.43 379.58C1817.2 380.103 1818.15 380.401 1818.91 380.823C1821.71 382.132 1824.8 384.222 1824.18 387.656ZM1931.62 385.615C1931.71 385.503 1931.71 385.503 1931.81 385.491C1931.81 385.491 1931.8 385.391 1931.9 385.379C1932.36 384.919 1932.8 384.359 1933.25 383.798C1932.71 384.471 1932.28 385.132 1931.64 385.816C1931.63 385.715 1931.63 385.715 1931.62 385.615ZM1916.14 397.171C1916.92 396.878 1917.6 396.596 1918.38 396.302C1918.3 396.515 1918.21 396.627 1918.04 396.851C1917.46 398.038 1916.73 399.65 1916.98 400.946C1917.02 401.348 1917.52 401.19 1917.59 400.977C1918.16 399.69 1918.2 398.259 1918.96 396.948C1919.22 396.512 1919.48 396.075 1919.74 395.739C1920.03 395.603 1920.22 395.48 1920.52 395.445L1920.62 395.434C1921.84 398.961 1918.46 402.304 1917.53 405.772C1916.22 404.089 1915.18 402.17 1915.23 399.924C1915.32 398.895 1915.62 397.944 1916.14 397.171ZM1903.48 420.933C1903.58 420.921 1903.68 420.91 1903.78 420.898C1903.98 420.875 1904.09 420.864 1904.17 420.752C1904.21 421.053 1904.23 421.254 1904.27 421.556C1904.04 421.378 1903.81 421.099 1903.48 420.933ZM1904.96 422.291C1904.95 422.191 1904.95 422.191 1904.96 422.291C1904.95 422.191 1904.94 422.09 1904.94 422.09C1904.94 422.09 1904.94 422.09 1905.04 422.079C1904.94 422.09 1904.95 422.191 1904.96 422.291ZM1904.95 421.274C1904.89 419.039 1904.23 416.773 1902.62 415.225C1902.39 414.946 1901.92 415.306 1902.16 415.584C1902.93 417.023 1903.6 418.373 1904.06 419.746C1904.06 419.746 1903.96 419.758 1903.95 419.657C1899.01 419.206 1900.35 414.06 1902.03 410.913C1902.44 411.884 1903.13 412.518 1903.95 413.443C1905.86 415.873 1906.47 418.553 1904.95 421.274ZM1907.73 426.864C1907.72 426.763 1907.59 426.574 1907.58 426.473C1907.74 426.048 1907.78 425.533 1908.03 425.097C1908.6 423.809 1909.52 422.99 1910.43 421.97C1910.6 421.746 1910.36 421.366 1910.07 421.502C1908.61 422.077 1907.55 423.523 1907.02 425.111C1906.75 424.531 1906.38 423.963 1906.01 423.394C1905.96 422.075 1906.52 420.788 1907.64 419.845C1908.84 418.79 1910.51 418.292 1912.1 417.907C1911.39 419.72 1911.71 421.619 1911.23 423.61C1910.71 425.299 1908.94 425.909 1907.73 426.864ZM1887.45 448.138C1886.21 447.975 1885.06 447.7 1883.9 447.324C1885.83 447.306 1887.77 446.472 1889.13 444.992C1889.48 444.543 1888.91 443.998 1888.44 444.357C1886.58 445.895 1884.52 446.539 1882.25 446.291C1883.79 443.77 1886.17 442.275 1889.25 442.532C1890.68 442.572 1891.95 442.936 1893.28 442.987C1892.66 443.772 1892.25 444.634 1891.63 445.519C1890.5 447.177 1889.06 447.954 1887.45 448.138ZM1868.91 434.782C1868.98 434.57 1869.06 434.357 1869.14 434.144C1869.16 434.345 1869.17 434.446 1869.2 434.647C1869.1 434.658 1869.01 434.771 1868.91 434.782ZM1868.83 435.911C1867.97 438.15 1866.58 440.245 1864.74 441.984C1864.37 442.331 1864.87 443.09 1865.34 442.73C1867.3 441.181 1868.79 439.074 1869.53 436.646C1869.76 437.741 1870.07 438.723 1870.4 439.806C1869.99 440.668 1869.36 441.352 1868.72 442.036C1867.07 443.652 1865.53 445.255 1863.88 446.871C1862.24 442.373 1864.47 437.838 1868.83 435.911ZM1869.08 432.725C1868.6 432.984 1868.2 433.03 1867.69 433.088C1866.78 433.091 1866.13 432.758 1865.29 432.549C1864.88 432.494 1864.62 432.931 1864.86 433.21C1865.78 434.123 1867.31 434.151 1868.59 433.8C1867.65 437.167 1863.04 435.15 1861 434.263C1860.04 433.864 1859.2 433.655 1858.37 433.546C1861.5 431.456 1866.31 428.153 1868.25 432.616C1868.49 432.895 1868.79 432.86 1869.08 432.725ZM1872.64 397.171C1871.61 397.085 1870.58 397 1869.45 396.925C1867.23 396.162 1865.49 394.324 1865.4 391.788C1866.51 392.577 1867.86 392.829 1869.22 393.082C1871.3 393.454 1874.52 394.001 1874.79 396.415C1874.69 396.426 1874.69 396.426 1874.59 396.438C1874.49 396.449 1874.39 396.461 1874.4 396.561C1872.57 395.651 1870.82 394.629 1868.99 393.82C1868.46 393.576 1868.02 394.237 1868.47 394.593C1869.81 395.561 1871.23 396.416 1872.84 397.148C1872.74 397.16 1872.64 397.171 1872.64 397.171ZM1831.57 411.256C1831.54 410.954 1831.51 410.753 1831.28 410.475C1831.58 410.44 1831.98 410.394 1832.4 410.448C1832.13 410.785 1831.85 411.02 1831.57 411.256ZM1828.99 410.025C1827.29 410.321 1825.55 411.132 1824.46 412.276C1824.19 412.612 1824.55 413.081 1824.94 412.934C1826.19 412.281 1827.22 411.551 1828.6 411.088C1829.19 410.918 1829.88 410.737 1830.49 410.668C1830.5 410.768 1830.5 410.768 1830.61 410.857C1831.82 411.635 1827.69 412.924 1827.29 412.97C1826.38 413.074 1825.58 413.166 1824.68 413.371C1823.68 413.486 1822.7 413.803 1821.94 414.297C1822.55 410.763 1825.36 407.691 1828.99 410.025ZM1835.55 406.827C1835.44 406.838 1835.24 406.862 1835.13 406.773C1833.79 406.621 1832.68 405.831 1831.44 405.668C1831.13 405.602 1830.86 405.938 1831.11 406.318C1831.94 407.343 1833.3 407.696 1834.85 407.824C1832.25 410.058 1828.38 409.177 1827.1 406.064C1828.13 406.149 1829.09 405.632 1830.18 405.304C1832.32 404.447 1833.96 405.48 1835.55 406.827ZM1832.7 425.491C1832.94 424.953 1833.28 424.404 1833.64 423.956C1833.38 425.209 1833.43 426.528 1833.78 427.812C1833.94 428.303 1834.64 428.222 1834.68 427.708C1834.7 426.076 1834.53 424.568 1835.04 422.878C1835.13 422.766 1835.11 422.565 1835.2 422.453C1835.39 422.329 1835.57 422.105 1835.76 421.981C1835.85 421.869 1835.85 421.869 1835.93 421.757C1837.65 424.311 1834.89 427.785 1834.42 430.793C1832.93 429.335 1831.61 427.551 1832.7 425.491ZM1807.81 440.367C1807.46 440.815 1807.09 441.163 1806.84 441.6C1804.73 443.675 1801.87 443.596 1798.95 442.097C1797.76 441.521 1796.67 440.932 1795.51 440.556C1797.89 439.061 1800.21 437.164 1803.16 437.947C1804.42 438.311 1805.53 439.101 1806.62 439.689C1804.56 440.434 1802.55 440.665 1800.17 440.327C1799.76 440.273 1799.32 440.934 1799.86 441.178C1802.36 442.521 1805.2 441.583 1807.81 440.367ZM1797.69 461.292C1798.4 463.044 1799.78 464.414 1799.52 466.583C1799.3 468.238 1798.83 469.514 1799.11 471.01C1795.2 469.829 1794.06 465.172 1796.67 462.223C1796.5 464.28 1796.53 466.314 1797.34 468.055C1797.5 468.546 1798.28 468.253 1798.23 467.851C1798.18 465.615 1797.74 463.527 1797.69 461.292ZM1730.57 471.235C1730.86 471.1 1730.92 470.686 1730.78 470.396C1730.78 470.396 1730.78 470.396 1730.87 470.284C1730.98 470.373 1730.98 470.373 1731.1 470.462C1731.22 470.651 1731.24 470.852 1731.37 471.042C1731.04 471.792 1730.62 472.553 1730.08 473.125C1729.35 473.921 1728.18 474.362 1727.56 475.146C1727.38 475.37 1727.53 475.761 1727.84 475.827C1729.07 475.889 1730.25 474.633 1730.96 473.737C1731.41 473.176 1731.65 472.639 1731.88 472.001C1732.02 472.291 1732.25 472.57 1732.38 472.759C1732.7 474.658 1730.78 476.61 1729.38 477.688C1728.45 478.507 1727.52 479.226 1726.72 480.234C1725.28 476.63 1727.12 473.058 1730.57 471.235ZM1720.03 467.249C1721.45 467.188 1722.78 466.323 1724.36 465.937C1726.94 465.335 1729.05 466.825 1730.4 468.81L1730.41 468.911C1728.51 467.498 1726.12 466.143 1723.98 467C1723.48 467.158 1723.56 467.862 1724.08 467.905C1725.72 468.022 1726.95 468.085 1728.47 468.929C1728.9 469.084 1729.24 469.351 1729.67 469.606C1726.72 473.204 1722.5 470.124 1720.03 467.249Z" fill="#848198"/>
<path d="M203.468 466.741C201.761 469.194 199.74 471.713 196.62 472.271C195.993 472.403 195.378 472.435 194.675 472.354C196.834 474.843 197.3 478.767 195.512 481.924C195.265 482.303 194.65 482.334 194.394 481.898C193.218 479.725 188.746 476.971 188.164 474.052C187.345 474.976 186.525 475.901 185.505 476.803C178.857 482.356 170.003 483.173 161.727 481.612C148.86 479.219 137.506 472.517 127.254 464.209C128.269 467.79 125.975 471.805 121.613 472.527C121.099 472.57 120.967 471.943 121.103 471.653C121.948 469.611 120.458 467.504 120.812 465.304C121.02 463.494 122.578 462.348 123.265 460.797C118.541 456.69 114.153 452.315 110.079 447.875C103.354 440.787 96.9763 433.332 90.3749 426.054C90.4523 426.267 90.4293 426.468 90.5067 426.681C90.7441 429.051 88.9045 430.877 87.2117 432.313C86.8755 432.58 86.1717 432.499 86.2409 431.896C86.5326 428.466 82.1795 423.79 85.5651 420.918C77.6483 412.675 69.0821 404.765 58.0516 401.462C57.3247 401.582 56.4973 401.691 55.7704 401.811C50.1793 402.596 44.4333 402.955 38.7335 402.912C45.6217 411.241 52.6962 420.61 52.6451 431.708C55.5033 426.331 62.2234 431.687 65.4689 433.587C65.9486 433.846 65.7442 434.739 65.1409 434.67C62.0125 434.413 59.2763 436.951 56.2368 436.806C59.2779 439.6 60.2784 444.197 58.4867 448.27C58.3516 448.56 57.8372 448.603 57.6592 448.379C55.4653 446.192 52.4555 444.013 50.7215 441.369C48.0842 447.484 42.8706 452.081 35.6939 452.48C28.9194 452.925 22.2585 449.716 17.851 444.626C15.4791 442.214 13.7912 439.168 13.3329 436.059C12.728 433.341 12.8616 430.402 13.6758 427.745C12.8286 427.139 11.7457 426.811 10.9991 426.216C10.3414 425.733 9.90778 425.072 9.5979 424.221C8.83475 421.994 9.64906 419.337 8.14746 417.331C7.88044 416.995 8.35186 416.438 8.7425 416.585C10.8194 417.129 13.1979 417.707 14.8578 419.222C14.6484 418.383 14.6401 417.567 14.8445 416.674C15.3802 413.781 18.5928 412.418 19.0165 409.614C19.0741 409.111 19.8901 409.103 20.0565 409.428C21.4114 411.824 23.0449 414.457 22.3081 417.326C22.1383 417.918 21.8565 418.599 21.4856 419.168C22.4367 418.869 23.5888 418.594 24.7179 418.52C32.3084 418.067 36.8411 425.616 35.5653 432.295C35.4615 433.2 35.3461 434.205 34.9406 435.075C34.6357 435.957 33.139 435.684 33.4555 434.701C35.1335 428.068 29.132 421.777 22.3509 424.055C16.834 425.969 14.2973 432.095 15.8088 437.566C17.6071 444.088 23.9975 447.878 30.6682 448.338C29.0199 446.722 28.504 444.116 26.4073 442.857C25.7381 442.475 26.1436 441.604 26.8474 441.685C29.8523 442.132 32.7632 440.734 35.6988 441.784C37.8532 442.541 39.602 444.167 40.5893 446.216C40.5893 446.216 40.5894 446.216 40.6899 446.228C40.9026 446.15 41.1267 445.972 41.3393 445.895C49.3946 440.503 46.2151 426.488 42.8657 419.278C39.7719 412.505 34.7066 406.932 28.7876 402.586C21.8383 401.89 14.9814 400.39 8.28265 398.399C7.89201 398.252 7.59039 398.218 7.19975 398.071C7.18821 398.171 7.28873 398.183 7.27719 398.284C8.39309 401.875 6.38047 405.21 4.23602 407.918C3.88823 408.285 3.30802 408.015 3.26517 407.501C3.12343 403.41 -1.72422 399.492 0.469692 395.465C-6.49276 392.221 -12.7564 387.326 -15.4134 380.297C-16.7453 377.7 -17.5281 374.757 -16.3891 371.934C-15.1265 368.921 -11.8217 366.753 -8.63056 368.24C-4.29058 370.368 -4.83616 376.01 -3.44168 379.837C-0.842332 387.368 6.60801 391.687 13.7864 393.937C24.4031 397.295 35.0956 398.216 45.8492 397.718C45.9613 397.629 46.0618 397.641 46.1739 397.552C46.1854 397.451 46.197 397.351 46.2085 397.25C45.5443 392.386 53.9473 392.841 56.5138 390.894C56.7379 390.716 57.1171 390.964 57.183 391.277C57.1418 393.411 56.5978 395.488 55.2067 396.958C69.3508 395.322 83.5015 391.852 97.3044 388.75C97.2038 388.738 97.0028 388.715 97.0258 388.514C96.3286 386.601 96.8495 384.725 98.0511 383.131C98.7698 382.195 99.767 381.494 100.853 380.906C101.939 380.317 104.971 379.646 105.333 378.262C105.515 377.569 106.408 377.774 106.439 378.389C106.631 381.161 106.764 384.436 104.967 386.777C104.844 386.966 104.732 387.055 104.62 387.144C109.719 386.202 114.951 385.885 119.955 386.663C123.865 387.214 128.654 388.986 132.511 391.771L132.611 391.783C132.99 392.03 133.458 392.389 133.837 392.637C136.092 393.405 138.459 394.084 140.643 392.806C142.166 391.963 143.19 390.144 142.168 388.397C141.046 386.639 138.911 386.597 137.454 387.754C137.373 388.458 137.47 389.386 138.105 390.07C138.55 390.631 138.021 391.691 137.263 391.196C135 389.612 135.191 386.17 137.498 384.703C140.03 383.058 143.356 384.255 144.576 386.942C145.974 389.853 144.553 393.357 142.01 395.103C140.464 396.148 138.53 396.129 136.766 395.52C138.736 397.885 140.033 400.784 139.877 403.924C141.845 403.641 143.965 404.699 144.975 406.547C146.508 409.168 145.648 412.227 144.443 414.737C144.296 415.128 143.681 415.159 143.403 414.923C141.878 413.119 140.152 411.291 138.863 409.207C138.774 409.095 138.786 408.994 138.697 408.882C137.121 411.961 134.006 414.253 130.397 413.737C126.778 413.321 123.972 410.249 124.187 406.606C124.267 405.902 125.184 405.906 125.204 406.621C125.518 409.204 126.676 410.661 128.227 411.348C132.044 412.703 135.801 409.263 135.604 404.758C135.491 402.199 134.573 399.546 133.295 397.362C130.841 393.006 126.926 390.723 122.316 389.175C122.215 389.164 122.126 389.052 122.037 388.94C116.464 387.791 110.506 388.227 104.981 389.325C94.0309 391.532 83.3993 395.406 72.5583 398.44C77.223 400.402 81.5598 403.446 85.4366 406.947C86.4915 405.744 87.7359 404.664 89.2128 404.223C91.3045 403.749 93.51 405.836 95.3347 405.027C95.7599 404.872 96.2395 405.131 96.1819 405.634C95.9544 406.728 95.4484 407.587 94.7528 408.322C95.8934 408.147 97.0769 408.487 98.0362 409.004C100.423 410.399 101.128 413.128 101.354 415.599C101.397 416.113 100.759 416.346 100.392 415.998C98.0511 414.201 94.9192 414.861 92.3973 413.756C93.566 415.113 94.7462 416.369 95.8143 417.714C101.646 424.597 107.029 431.837 112.737 438.91C113.027 439.045 113.407 439.292 113.697 439.427C115.947 438.463 117.976 436.76 120.412 436.836C123.351 436.969 125.611 439.47 128.233 440.586C128.624 440.733 128.531 441.537 128.118 441.591C124.785 442.228 122.103 445.18 118.584 444.776C118.182 444.73 117.691 444.571 117.288 444.525C118.279 445.658 119.258 446.891 120.349 448.035C135.344 464.73 158.583 488.586 182.555 476.77C189.395 470.424 192.281 460.364 187.036 451.918C184.28 447.527 179.898 444.885 174.758 444.397C170.423 444.001 164.214 445.734 162.299 449.996C161.516 453.268 161.471 456.319 164.311 459.09C165.96 460.705 168.303 461.585 170.55 461.538C173.21 461.435 175.9 459.299 175.083 456.659C174.75 456.009 174.316 455.348 173.67 454.765C172.746 453.946 174.013 452.665 175.05 453.395C180.199 457.348 177.018 465.54 171.025 466.278C169.784 466.441 168.577 466.303 167.483 466.075C167.939 466.535 168.295 466.984 168.539 467.521C169.139 468.507 170.557 472.133 169.134 472.988C168.473 473.422 167.537 472.703 167.057 472.444C165.796 471.892 164.547 471.239 163.533 470.308C162.698 469.601 162.086 468.716 161.687 467.753C160.687 469.37 158.928 470.493 156.759 470.753C156.345 470.808 155.989 470.359 156.136 469.969C156.657 468.093 156.06 466.191 156.971 464.462C157.883 462.733 160.044 461.656 160.286 459.545C159.066 456.858 158.709 453.761 159.434 450.992C161.123 444.258 168.48 440.518 175.127 441.179C182.579 441.933 188.414 447.9 191.218 454.537C192.891 458.6 193.323 462.827 192.471 466.702C193.043 466.156 193.704 465.723 194.465 465.301C195.528 464.913 196.569 464.727 197.663 464.955C199.55 465.375 201.121 466.778 203.135 466.092C203.282 465.701 203.816 466.374 203.468 466.741ZM161.011 462.99C160.672 464.173 160.031 465.322 159.022 466.123C158.573 466.479 157.815 465.985 158.086 465.405C158.839 464.167 159.492 462.917 159.843 461.633C159.595 462.012 159.337 462.492 158.989 462.86C157.911 464.264 157.405 465.123 157.387 467.056C157.306 467.76 157.337 468.375 157.268 468.978C160.098 468.284 161.415 465.685 161.011 462.99ZM162.709 463.286C162.81 463.298 162.81 463.298 162.709 463.286C162.62 463.174 162.442 462.95 162.264 462.726C162.342 462.939 162.318 463.14 162.396 463.352C162.496 463.364 162.609 463.275 162.709 463.286ZM166.497 466.675C165.506 465.543 164.357 464.902 162.973 464.539C163.062 464.651 163.139 464.864 163.228 464.976C164.285 466.422 165.724 467.198 166.904 468.454C167.183 468.69 166.924 469.169 166.533 469.023C164.858 468.525 163.512 466.944 162.544 465.611C162.455 465.498 162.378 465.286 162.289 465.174C162.243 465.576 162.096 465.967 161.961 466.257C162.337 467.42 163.037 468.418 163.973 469.136C164.53 469.608 167.451 471.675 168.213 471.253C168.537 471.086 167.929 469.285 167.863 468.971C167.542 468.221 167.031 467.348 166.497 466.675ZM142.305 409.398C141.067 408.645 140.088 407.412 139.445 405.912C139.298 406.303 139.241 406.806 139.082 407.297C139.082 407.297 139.082 407.297 139.071 407.397C139.57 408.371 140.394 409.179 141.017 409.964C141.818 410.972 142.732 411.892 143.533 412.901C144.232 411.249 144.663 409.262 144.044 407.56C143.424 405.859 141.83 404.658 140.075 404.864C140.152 405.076 140.319 405.401 140.396 405.614C141.073 406.812 141.998 407.631 142.9 408.652C143.267 408.999 142.784 409.657 142.305 409.398ZM97.5319 387.655C98.5357 385.122 100.97 382.549 103.685 382.861C103.987 382.895 104.029 383.409 103.817 383.487C102.518 384.153 101.165 384.405 100.032 385.396C99.3483 386.03 98.7533 386.777 98.3478 387.647C100.683 387.711 103.077 387.273 104.348 385.076C105.348 383.459 105.366 381.525 105.284 379.58C104.511 380.103 103.56 380.401 102.798 380.823C99.9994 382.132 96.9072 384.222 97.5319 387.655ZM-9.91138 385.615C-10.0004 385.503 -10.0003 385.503 -10.1009 385.491C-10.1009 385.491 -10.0893 385.39 -10.1899 385.379C-10.6464 384.919 -11.0915 384.359 -11.5365 383.798C-11.0025 384.471 -10.569 385.132 -9.93446 385.816C-9.92292 385.715 -9.92292 385.715 -9.91138 385.615ZM5.57114 397.171C4.78985 396.878 4.10917 396.596 3.32788 396.302C3.40534 396.515 3.49438 396.627 3.67239 396.851C4.2493 398.038 4.98114 399.65 4.73059 400.946C4.68444 401.348 4.19315 401.19 4.11569 400.977C3.55032 399.69 3.51083 398.259 2.74437 396.948C2.48888 396.512 2.23338 396.075 1.96636 395.739C1.67626 395.603 1.48664 395.48 1.185 395.445L1.08448 395.434C-0.135271 398.961 3.25041 402.304 4.17676 405.772C5.49047 404.089 6.52557 402.17 6.47778 399.924C6.39207 398.895 6.09365 397.944 5.57114 397.171ZM18.2269 420.933C18.1264 420.921 18.0258 420.91 17.9252 420.898C17.7241 420.875 17.6235 420.864 17.5345 420.752C17.4999 421.053 17.4768 421.254 17.4422 421.556C17.6664 421.378 17.9022 421.099 18.2269 420.933ZM16.7467 422.291C16.7582 422.191 16.7582 422.191 16.7467 422.291C16.7582 422.191 16.7697 422.09 16.7697 422.09C16.7697 422.09 16.7698 422.09 16.6692 422.079C16.7698 422.09 16.7582 422.191 16.7467 422.291ZM16.7615 421.274C16.8143 419.039 17.4818 416.773 19.0856 415.225C19.3213 414.946 19.7895 415.306 19.5537 415.584C18.7774 417.023 18.1131 418.373 17.6499 419.746C17.6499 419.746 17.7504 419.758 17.762 419.657C22.7036 419.206 21.3586 414.06 19.6823 410.913C19.2653 411.884 18.5812 412.518 17.762 413.443C15.8533 415.873 15.2401 418.553 16.7615 421.274ZM13.9809 426.864C13.9924 426.763 14.116 426.573 14.1275 426.473C13.9726 426.048 13.9297 425.533 13.6743 425.097C13.1089 423.809 12.1841 422.99 11.2825 421.97C11.1045 421.746 11.3518 421.366 11.6419 421.502C13.1039 422.077 14.1605 423.522 14.6913 425.111C14.9616 424.531 15.3324 423.963 15.7033 423.394C15.7527 422.075 15.1873 420.788 14.0731 419.845C12.8698 418.79 11.1952 418.292 9.60951 417.907C10.3183 419.72 9.9985 421.619 10.4831 423.61C11.0023 425.299 12.766 425.909 13.9809 426.864ZM34.2566 448.138C35.4977 447.975 36.6499 447.7 37.8136 447.324C35.8802 447.306 33.9384 446.472 32.5802 444.992C32.2242 444.543 32.7962 443.998 33.2643 444.357C35.1252 445.895 37.1906 446.539 39.4603 446.291C37.9158 443.77 35.5406 442.275 32.455 442.532C31.0243 442.572 29.76 442.936 28.4298 442.987C29.0529 443.772 29.4633 444.634 30.0749 445.519C31.2089 447.177 32.6478 447.954 34.2566 448.138ZM52.8017 434.782C52.7242 434.569 52.6468 434.357 52.5693 434.144C52.5462 434.345 52.5347 434.446 52.5116 434.647C52.6122 434.658 52.7011 434.771 52.8017 434.782ZM52.8759 435.911C53.7396 438.15 55.1291 440.245 56.967 441.984C57.3345 442.331 56.8401 443.09 56.3719 442.73C54.4104 441.181 52.9204 439.074 52.1803 436.646C51.9528 437.741 51.6364 438.723 51.3083 439.806C51.7188 440.668 52.3533 441.352 52.9879 442.036C54.6362 443.652 56.184 445.255 57.8323 446.871C59.4691 442.373 57.2389 437.838 52.8759 435.911ZM52.6303 432.725C53.11 432.984 53.5121 433.03 54.0148 433.088C54.9313 433.091 55.5807 432.758 56.4197 432.549C56.8334 432.494 57.0889 432.931 56.8532 433.21C55.9335 434.123 54.4022 434.151 53.1182 433.8C54.0561 437.167 58.668 435.15 60.7053 434.263C61.6679 433.864 62.5069 433.655 63.3344 433.546C60.2125 431.456 55.3962 428.153 53.4577 432.616C53.222 432.895 52.9204 432.86 52.6303 432.725ZM49.07 397.171C50.0986 397.085 51.1271 397 52.2562 396.925C54.483 396.162 56.222 394.324 56.3094 391.788C55.2001 392.577 53.8468 392.829 52.4935 393.082C50.4134 393.454 47.1926 394.001 46.9157 396.414C47.0162 396.426 47.0162 396.426 47.1168 396.438C47.2173 396.449 47.3178 396.461 47.3063 396.561C49.1425 395.651 50.8897 394.629 52.7144 393.82C53.2517 393.576 53.6853 394.237 53.2369 394.593C51.9035 395.561 50.481 396.416 48.8689 397.148C48.9695 397.16 49.07 397.171 49.07 397.171ZM90.1375 411.256C90.1721 410.954 90.1952 410.753 90.4309 410.475C90.1293 410.44 89.7271 410.394 89.3134 410.448C89.5804 410.784 89.8589 411.02 90.1375 411.256ZM92.7237 410.025C94.4215 410.321 96.1621 411.132 97.2533 412.276C97.5203 412.612 97.161 413.081 96.7703 412.934C95.5209 412.281 94.4841 411.551 93.1111 411.088C92.5193 410.918 91.827 410.737 91.2238 410.667C91.2122 410.768 91.2122 410.768 91.1001 410.857C89.8903 411.635 94.021 412.924 94.4231 412.97C95.3281 413.074 96.1324 413.166 97.0258 413.371C98.0313 413.486 99.0136 413.803 99.7719 414.297C99.1587 410.763 96.3533 407.691 92.7237 410.025ZM86.1635 406.827C86.264 406.838 86.4651 406.862 86.5772 406.773C87.9189 406.621 89.0282 405.831 90.2694 405.668C90.5826 405.602 90.8496 405.938 90.6024 406.318C89.7716 407.343 88.4068 407.696 86.864 407.824C89.4601 410.058 93.3303 409.177 94.6044 406.064C93.5759 406.149 92.6166 405.632 91.5337 405.304C89.3909 404.447 87.7442 405.48 86.1635 406.827ZM89.0133 425.491C88.7694 424.953 88.4249 424.404 88.0689 423.956C88.3326 425.209 88.2832 426.527 87.9321 427.811C87.7738 428.303 87.07 428.222 87.0271 427.708C87.0106 426.076 87.1838 424.568 86.6645 422.878C86.5755 422.766 86.5986 422.565 86.5096 422.453C86.32 422.329 86.142 422.105 85.9525 421.981C85.8635 421.869 85.8635 421.869 85.7745 421.757C84.0553 424.31 86.8145 427.785 87.2843 430.793C88.776 429.335 90.1012 427.551 89.0133 425.491ZM113.895 440.367C114.251 440.815 114.618 441.163 114.874 441.6C116.978 443.675 119.84 443.596 122.762 442.097C123.949 441.52 125.035 440.932 126.199 440.556C123.824 439.061 121.495 437.164 118.553 437.947C117.288 438.311 116.179 439.101 115.093 439.689C117.147 440.434 119.158 440.665 121.539 440.327C121.953 440.273 122.387 440.934 121.849 441.178C119.352 442.521 116.505 441.583 113.895 440.367ZM124.023 461.292C123.313 463.044 121.933 464.414 122.194 466.583C122.411 468.238 122.876 469.514 122.602 471.01C126.507 469.829 127.653 465.172 125.037 462.223C125.208 464.28 125.179 466.314 124.368 468.055C124.21 468.546 123.428 468.253 123.474 467.851C123.527 465.615 123.971 463.527 124.023 461.292ZM191.136 471.235C190.846 471.099 190.791 470.686 190.926 470.396C190.926 470.396 190.926 470.396 190.837 470.284C190.725 470.373 190.725 470.373 190.613 470.462C190.49 470.651 190.467 470.852 190.343 471.042C190.664 471.792 191.086 472.553 191.632 473.125C192.356 473.921 193.527 474.361 194.15 475.146C194.328 475.37 194.182 475.761 193.869 475.827C192.639 475.889 191.459 474.633 190.747 473.737C190.302 473.176 190.058 472.639 189.825 472.001C189.69 472.291 189.454 472.57 189.331 472.759C189.011 474.658 190.926 476.61 192.331 477.688C193.255 478.507 194.192 479.226 194.993 480.234C196.425 476.63 194.594 473.058 191.136 471.235ZM201.678 467.249C200.259 467.188 198.932 466.323 197.347 465.937C194.767 465.335 192.66 466.825 191.312 468.81L191.301 468.91C193.194 467.498 195.591 466.143 197.734 467C198.225 467.158 198.144 467.862 197.63 467.905C195.987 468.022 194.757 468.085 193.234 468.929C192.809 469.084 192.473 469.351 192.036 469.606C194.985 473.204 199.209 470.124 201.678 467.249Z" fill="#848198"/>
</svg>
