<svg width="1920" height="332" viewBox="0 0 1920 332" fill="none" xmlns="http://www.w3.org/2000/svg">
<path d="M1956 265.594C1952.41 267.233 1948.81 268.767 1945.15 270.092C1915.11 280.976 1881.23 280.54 1851.31 269.422C1819.01 257.389 1789.6 231.73 1780.44 197.491C1772.19 166.449 1785.82 127.793 1818.02 116.777C1834.12 111.269 1853.2 114.093 1864.67 127.393C1865.4 128.222 1866.02 129.075 1866.74 129.904C1869.16 134.09 1870.21 139.005 1869.62 143.941C1868.74 150.58 1864.49 157.827 1857.27 158.819C1853.98 159.301 1850.46 158.191 1848.46 155.448C1846.73 152.974 1846.2 149.478 1848.08 147.001C1849.77 144.672 1853.57 143.534 1856.05 145.412C1858.76 147.349 1858.46 152.114 1855.5 153.619C1854.02 154.372 1854.95 156.688 1856.45 156.04C1863 152.896 1861 142.497 1853.7 142.085C1847.4 141.787 1843.12 147.839 1844.81 153.711C1846.78 160.398 1854.09 162.886 1860.33 160.899C1867.5 158.607 1871.66 150.942 1872.32 143.803C1872.4 143.131 1872.45 142.354 1872.42 141.704C1873.18 144.715 1873.51 147.815 1873.29 150.921C1872.76 158.688 1869.15 166.347 1863.34 171.411C1857.53 176.475 1850.13 178.707 1842.5 177.272C1839.2 176.663 1836.08 175.36 1833.18 173.571C1832.02 172.726 1830.83 171.776 1829.73 170.699C1829.45 170.43 1829.2 170.265 1828.97 170.205C1827.44 168.672 1826.2 166.968 1825.26 165.092C1818.94 152.881 1827.81 134.482 1841.72 133.594C1844.43 133.456 1844.06 130.692 1841.38 130.935C1832.43 131.53 1823.48 138.793 1817.35 144.911C1810.22 152.005 1805.17 162.156 1807.46 172.383C1808.96 178.95 1814.13 185.723 1821.5 185.462C1826.28 185.319 1830.52 181.574 1830.88 177.123C1832.04 177.969 1833.29 178.687 1834.51 179.301C1845.28 184.661 1859.14 183.02 1868.68 175.958C1891.22 159.128 1882.25 124.194 1860.08 111.972C1859.21 111.501 1858.47 111.111 1857.61 110.64C1857.59 107.473 1855.58 104.73 1852.57 103.404C1851.24 102.813 1849.77 102.579 1848.34 102.555C1852.32 100.178 1855.57 96.9699 1856.75 92.2362C1858.08 86.7035 1856.14 80.6666 1851.24 77.666C1846.71 74.9122 1840.17 74.9941 1836.34 79.0899C1832.62 83.1633 1832.3 89.8996 1836.11 93.8998C1837.24 95.0811 1839.31 93.5451 1838.19 92.3637C1833.38 87.2645 1836.9 78.6424 1843.82 78.2622C1850.5 77.8219 1855.23 83.5932 1854.54 90.0826C1853.69 97.9162 1846.1 101.283 1839.63 103.755C1837.29 104.581 1834.95 105.407 1832.46 106.047C1828.04 106.333 1823.63 107.164 1819.35 108.623C1818.93 108.712 1818.43 108.928 1818.03 109.122C1817.82 109.166 1817.61 109.211 1817.4 109.256C1816.99 109.345 1816.8 109.494 1816.63 109.748C1796.72 117.379 1782.38 134.757 1775.56 154.578C1775.87 152.435 1776.31 150.374 1776.62 148.231C1777.33 143.377 1777.22 137.716 1772.84 134.604C1769.2 131.881 1763.99 133.1 1762.2 137.526C1760.49 141.826 1763.99 146.439 1768.5 146.571C1770.16 146.655 1770.48 144.071 1768.85 144.092C1764.23 143.982 1762.45 137.691 1767.11 135.934C1771.05 134.437 1773.88 138.974 1774.36 142.261C1774.92 146.407 1773.65 150.722 1772.97 154.694C1772.28 158.667 1771.62 162.744 1770.93 166.716C1764.4 164.281 1758.01 161.488 1752.18 157.702C1745.94 153.565 1740.44 148.285 1736.75 141.746C1733.19 135.289 1731.09 126.989 1733.73 119.867C1736.14 113.23 1744.9 107.647 1751.14 113.315C1753.73 115.716 1754.33 120.071 1752.2 122.929C1749.97 125.809 1745.15 125.743 1743.08 122.686C1742.14 121.356 1740.06 122.892 1741 124.222C1743.37 127.653 1748.14 128.495 1751.77 126.52C1755.39 124.546 1756.74 120.103 1755.81 116.256C1754.22 109.816 1747.71 107.486 1741.63 109.219C1732.85 111.636 1727.66 120.614 1727.43 129.3C1727.42 130.286 1727.41 131.272 1727.53 132.34C1721.11 123.758 1716.66 113.663 1714.85 103.115C1711.37 83.1925 1717.25 61.4957 1733.53 48.6241C1739.14 44.1496 1745.91 41.0656 1752.9 39.468C1767.02 36.4599 1780.51 41.7859 1786.36 55.408C1791.37 67.1321 1789.46 81.7533 1779.96 90.5551C1777.04 93.2552 1773.63 95.1856 1770.14 96.257C1770.24 96.2347 1770.43 96.0855 1770.53 96.0632C1777.72 92.3449 1782.47 83.3508 1779.17 75.5274C1776.31 68.8097 1767.69 64.7441 1761.13 68.874C1755.08 72.7879 1753.27 82.7937 1760.43 86.626C1763.64 88.3476 1767.95 87.5386 1769.78 84.3068C1771.54 81.3065 1770.15 77.3391 1767.03 76.0359C1765.47 75.3843 1764.56 77.7657 1766.01 78.4395C1767.7 79.1734 1768.46 81.1983 1767.62 82.9077C1766.7 84.7438 1764.23 85.4878 1762.46 84.8807C1759.05 83.749 1757.56 79.8038 1758.5 76.5412C1760.02 70.8594 1766.14 68.2451 1771.29 70.8651C1776.9 73.6052 1778.83 80.0828 1776.65 85.7937C1774.28 92.0944 1767.93 95.6345 1761.43 95.9256C1742.52 97.0012 1733.25 69.8943 1748.76 59.0458C1750.09 58.1063 1748.55 56.0282 1747.22 56.9677C1744.75 58.6975 1742.6 60.9057 1741.1 63.6299C1738.67 67.6452 1737.6 72.3566 1737.93 76.9875C1739.21 96.833 1760.89 106.209 1777.38 96.9003C1786.38 91.9219 1792.37 83.1011 1798.56 75.2215C1803.56 68.909 1808.98 60.9762 1817.58 59.7989C1820.97 59.295 1824.84 60.0016 1827.27 62.6558C1829.41 65.0408 1830.15 68.4922 1829.5 71.5834C1828.72 75.1375 1825.81 78.3829 1822.01 78.5353C1819.83 78.5626 1817.46 77.208 1817.1 74.9894C1816.72 73.2114 1817.98 71.413 1819.76 71.0342C1821.35 70.8045 1821.13 68.2276 1819.43 68.4795C1816.27 69.0434 1814.06 72.0283 1814.52 75.2104C1815.07 78.8109 1818.86 81.1754 1822.31 80.9853C1829.34 80.5828 1833.23 73.1935 1832 66.896C1830.65 60.0756 1824.42 56.4834 1817.8 57.2374C1809.13 58.101 1803.28 65.0325 1798.2 71.4719C1797.42 72.4045 1796.74 73.3149 1795.97 74.3521C1799.05 68.7767 1801.26 62.7298 1802.54 56.4427C1803.91 50.0288 1805.3 41.6432 1801.13 35.9697C1797.32 30.8791 1789.92 29.5036 1785.21 34.1137C1783.14 36.195 1782.34 39.0993 1782.79 41.7363C1774.29 34.1456 1763.45 31.5338 1752.77 32.7163C1742.61 33.242 1733.29 37.7421 1725.89 44.5671C1724.97 45.4175 1724.04 46.1633 1723.25 47.0959C1714.37 56.2046 1709.61 67.7156 1708.17 79.9399C1706.97 76.9137 1705.1 74.2527 1702.1 72.4866C1696.22 69.0367 1687.13 71.5205 1687.4 79.445C1687.61 86.0699 1697.01 88.6576 1699.49 82.3346C1700.04 80.7967 1698.14 79.5622 1697.48 81.1223C1695.92 85.0639 1689.98 83.3765 1689.89 79.3508C1689.84 74.9891 1694.15 72.649 1698.06 73.5648C1706.45 75.4941 1707.36 85.9064 1707.87 92.905C1708.34 100.24 1709.54 107.418 1711.7 114.501C1717.08 131.506 1727.65 143.685 1740.12 156.008C1741.22 157.084 1742.32 158.161 1743.41 159.133C1739.05 157.657 1734.57 156.643 1730.07 156.07C1724.34 155.324 1718.44 155.377 1712.71 156.162C1706.97 156.947 1701.24 158.277 1695.45 158.308C1686.71 158.312 1678.47 153.508 1674.2 145.78C1670.61 139.219 1671.09 130.152 1678.8 126.868C1685.02 124.231 1693.11 126.773 1693.41 134.361C1693.64 140.545 1686.45 144.809 1681.51 140.613C1680.31 139.559 1678.65 141.551 1679.97 142.583C1686.14 147.938 1695.7 143.057 1696 135.23C1696.29 127.844 1689.8 122.556 1682.7 123.086C1677.31 123.468 1673.12 126.876 1670.81 131.414C1670 128.635 1668.39 126.243 1665.96 124.575C1662.77 122.413 1658.47 122.236 1655.35 124.54C1652.42 126.695 1651.36 130.966 1653.35 134.15C1655.32 137.229 1659.4 137.891 1662.37 135.945C1663.7 135.006 1662.19 133.032 1660.83 133.867C1658.15 135.642 1654.98 133.584 1654.88 130.544C1654.82 127.713 1657.12 125.692 1659.81 125.449C1667.81 124.51 1668.91 133.787 1668.79 139.388C1668.57 147.088 1672.41 153.814 1678.07 158.295C1672.03 160.237 1665.66 162.687 1661.91 168.187C1659.15 172.164 1658.5 177.332 1661.05 181.599C1663.48 185.784 1668.62 187.859 1673.17 186.124C1674.99 185.41 1676.59 184.194 1677.55 182.567C1677.27 183.284 1676.98 184 1676.82 184.799C1674.18 193.452 1675.38 203.148 1680.17 210.764C1684.98 218.485 1693.28 223.058 1702.39 223.195C1711.26 223.273 1719.72 218.847 1723.69 210.785C1727.74 202.597 1725.62 192.116 1717.58 187.267C1710.29 182.807 1700.03 185.977 1696.84 194.091C1696.78 194.323 1696.7 194.45 1696.75 194.659C1696.36 195.943 1698.16 197.2 1698.88 195.953C1702.11 190.565 1709.12 188.086 1714.8 191.14C1720.86 194.441 1722.68 201.926 1719.35 207.882C1713.73 217.936 1699.5 218.89 1690.82 212.539C1681.11 205.425 1678.84 191.695 1683.59 181.17C1688.69 169.697 1700 162.697 1712.05 160.784C1715.44 160.281 1718.8 160.113 1722.19 160.154C1729.65 160.753 1736.99 162.905 1743.62 166.303C1766.34 177.974 1786.69 208.843 1772.28 234.107C1769.98 238.205 1766.69 241.748 1762.76 244.335C1759.12 246.751 1754.97 248.292 1750.61 248.347C1741.7 248.605 1732.66 242.112 1733.25 232.582C1733.47 228.49 1735.54 224.332 1739.29 222.44C1742.94 220.569 1747.73 220.971 1750.99 223.447C1757.02 228.174 1753.51 238.872 1745.75 238.886C1744.11 238.906 1744.44 241.461 1746.07 241.44C1756.25 241.46 1760.3 227.147 1752.28 221.312C1748.53 218.612 1743.39 218.068 1739.15 219.736C1734.73 221.553 1731.8 225.784 1730.94 230.451C1730.53 232.617 1731.43 240.952 1735.44 244.908C1735.57 244.99 1735.72 245.177 1735.82 245.155C1738.99 248.198 1743.14 250.265 1747.74 250.815C1757.95 252.03 1766.88 245.206 1773.61 238.306C1775.39 236.396 1777.17 234.486 1778.68 232.307C1779.25 231.419 1782.55 226.89 1782.02 225.911C1787.05 235.663 1799.16 249.92 1808.17 256.309C1882.03 308.907 1941.01 277.317 1957.6 269.517C1960.11 268.437 1958.48 264.409 1956 265.594Z" fill="#D5D2DF"/>
<path d="M1679.25 184.395C1678.55 186.731 1678.2 189.211 1678.19 191.727C1677.87 204.588 1686.27 216.794 1699.38 218.811C1705.26 219.744 1711.43 218.429 1716.23 214.783C1718.39 213.12 1720.13 211.001 1721.38 208.657C1719.91 212.031 1717.49 215.061 1714.44 217.133C1706.89 222.24 1696.06 221.705 1688.63 216.618C1681.59 211.777 1677.83 203.393 1677.58 195.028C1677.45 191.338 1678.1 187.702 1679.25 184.395Z" fill="#D5D2DF"/>
<path d="M1695.21 160.761C1692.53 161.004 1689.88 160.911 1687.21 160.169C1682.12 158.848 1677.72 155.632 1674.75 151.453C1675.17 151.909 1675.5 152.388 1676.03 152.821C1680.36 157.255 1686.1 160.078 1692.23 160.63C1693.24 160.743 1694.22 160.752 1695.21 160.761Z" fill="#D5D2DF"/>
<path d="M1693.2 164.149C1686.78 167.92 1681.65 173.06 1678.32 180.002C1678.65 178.509 1678.66 176.978 1678.22 175.431C1676.86 171.128 1671.8 168.926 1667.8 170.654C1666.29 171.302 1667.22 173.618 1668.75 173.075C1674.09 170.953 1678.07 177.321 1674.96 181.701C1672.01 185.828 1665.64 184.67 1663.16 180.716C1660.36 176.284 1662.18 170.976 1665.6 167.515C1669.37 163.65 1674.82 162.051 1679.73 160.459C1679.94 160.414 1680.12 160.265 1680.21 160.138C1684.09 162.48 1688.56 163.934 1693.2 164.149Z" fill="#D5D2DF"/>
<path d="M1788.45 48.2922C1793.06 49.388 1797.71 45.5546 1797.57 40.7746C1797.55 39.1389 1794.99 39.4645 1795.01 41.1002C1795.17 43.9086 1792.31 46.3773 1789.49 45.9931C1786.45 45.5489 1784.52 42.1335 1785.01 39.296C1785.59 35.891 1789.25 33.58 1792.59 33.8528C1795.93 34.1256 1798.73 36.4815 1800 39.3808C1802.7 45.3663 1800.7 53.445 1799.04 59.4851C1798.12 62.8523 1796.94 66.055 1795.53 69.1976C1795.35 61.6915 1792.81 54.3618 1788.45 48.2922Z" fill="#D5D2DF"/>
<path d="M1710.89 91.7146C1710.35 83.5209 1711.21 75.2468 1713.82 67.475C1716.57 59.345 1721.51 51.7328 1727.86 46.1165C1734.89 40.1349 1743.71 36.3961 1752.68 35.361C1755.7 35.1555 1758.7 35.3905 1761.89 36.0216C1763.26 36.2772 1764.65 36.6373 1765.96 37.1243C1763.48 36.7778 1761.04 36.6405 1758.52 36.6301C1736.45 37.1792 1718.57 54.8737 1713.1 75.3909C1711.61 80.7366 1710.93 86.2402 1710.89 91.7146Z" fill="#D5D2DF"/>
<path d="M1735.34 144.886C1733.34 142.688 1731.8 140.064 1730.78 137.33C1730.73 137.12 1730.69 136.911 1730.56 136.829C1729.71 134.386 1729.37 131.726 1729.46 129.083C1729.53 128.411 1729.61 127.739 1729.68 127.066C1729.76 130.002 1730.26 132.848 1731.05 135.522C1732.12 139.012 1733.54 142.098 1735.34 144.886Z" fill="#D5D2DF"/>
<path d="M1823.92 182.431C1816.11 185.297 1810.34 176.687 1809.46 169.986C1808.02 159.14 1814.17 150.506 1822.03 143.801C1820.62 146.399 1819.58 149.243 1819.09 152.08C1818 158.218 1819.42 164.367 1822.79 169.442C1820.24 169.767 1817.97 171.453 1817.15 174.252C1816.73 175.873 1819.21 176.219 1819.63 174.599C1820.25 172.389 1822.69 171.54 1824.75 171.976C1825.03 172.245 1825.33 172.619 1825.6 172.888C1826.31 173.613 1826.98 174.234 1827.79 174.937C1828.77 178.008 1826.86 181.366 1823.92 182.431Z" fill="#D5D2DF"/>
<path d="M1841.82 106.347C1844.16 105.521 1846.65 104.882 1849.13 105.228C1851.61 105.575 1854.14 107.221 1854.66 109.626C1850.57 107.874 1846.3 106.816 1841.82 106.347Z" fill="#D5D2DF"/>
<path d="M-36.0015 265.594C-32.4147 267.233 -28.8056 268.767 -25.1519 270.092C4.89206 280.976 38.769 280.54 68.69 269.422C100.992 257.389 130.403 231.73 139.557 197.491C147.811 166.449 134.18 127.793 101.977 116.777C85.876 111.269 66.797 114.093 55.326 127.393C54.6025 128.222 53.9837 129.075 53.2602 129.904C50.8378 134.09 49.7905 139.005 50.3789 143.941C51.2605 150.58 55.5112 157.827 62.7345 158.819C66.0212 159.301 69.5376 158.191 71.5435 155.448C73.2733 152.974 73.7994 149.478 71.9218 147.001C70.2312 144.672 66.4284 143.534 63.951 145.412C61.2422 147.349 61.5391 152.114 64.4984 153.619C65.978 154.372 65.0472 156.688 63.5453 156.04C56.9991 152.896 58.9959 142.497 66.2997 142.085C72.5954 141.787 76.882 147.839 75.1935 153.711C73.2222 160.398 65.9134 162.886 59.6673 160.899C52.5022 158.607 48.3407 150.942 47.6751 143.803C47.5996 143.131 47.5464 142.354 47.5755 141.704C46.8247 144.715 46.4923 147.815 46.7051 150.921C47.237 158.688 50.8534 166.347 56.6624 171.411C62.4714 176.475 69.8679 178.707 77.4991 177.272C80.7995 176.663 83.9199 175.36 86.8156 173.571C87.9797 172.726 89.1661 171.776 90.2701 170.699C90.5462 170.43 90.7999 170.265 91.0313 170.205C92.5606 168.672 93.7984 166.968 94.7447 165.092C101.064 152.881 92.1918 134.482 78.2768 133.594C75.573 133.456 75.9432 130.692 78.6247 130.935C87.5727 131.53 96.5212 138.793 102.653 144.911C109.778 152.005 114.832 162.156 112.543 172.383C111.035 178.95 105.875 185.723 98.4955 185.462C93.7154 185.319 89.4838 181.574 89.1201 177.123C87.956 177.969 86.7095 178.687 85.4854 179.301C74.722 184.661 60.8585 183.02 51.3203 175.958C28.7752 159.128 37.7487 124.194 59.9235 111.972C60.7893 111.501 61.5282 111.111 62.394 110.64C62.4127 107.473 64.4185 104.73 67.4343 103.404C68.763 102.813 70.234 102.579 71.6605 102.555C67.6844 100.178 64.4318 96.9698 63.2537 92.2362C61.9177 86.7035 63.8599 80.6666 68.7633 77.666C73.286 74.9122 79.8285 74.9941 83.6573 79.0899C87.3814 83.1633 87.6956 89.8996 83.8913 93.8998C82.7649 95.0811 80.6869 93.5451 81.8132 92.3637C86.617 87.2645 83.0966 78.6424 76.1802 78.2622C69.4953 77.8219 64.7671 83.5932 65.4618 90.0826C66.3075 97.9162 73.8996 101.283 80.3703 103.755C82.7089 104.581 85.0475 105.408 87.5353 106.047C91.9571 106.333 96.372 107.164 100.653 108.623C101.072 108.712 101.572 108.928 101.968 109.122C102.177 109.166 102.387 109.211 102.596 109.256C103.014 109.345 103.201 109.494 103.366 109.748C123.278 117.379 137.616 134.757 144.436 154.578C144.127 152.435 143.691 150.374 143.383 148.231C142.667 143.377 142.78 137.716 147.161 134.604C150.802 131.881 156.009 133.1 157.799 137.526C159.507 141.826 156.01 146.439 151.499 146.571C149.841 146.655 149.517 144.071 151.153 144.092C155.768 143.982 157.546 137.691 152.891 135.934C148.945 134.437 146.12 138.974 145.639 142.261C145.083 146.407 146.351 150.722 147.035 154.694C147.719 158.667 148.381 162.744 149.066 166.716C155.598 164.281 161.988 161.488 167.824 157.702C174.062 153.565 179.561 148.285 183.25 141.746C186.812 135.289 188.909 126.989 186.271 119.867C183.859 113.23 175.099 107.647 168.862 113.315C166.273 115.716 165.673 120.071 167.798 122.929C170.027 125.809 174.851 125.743 176.924 122.686C177.863 121.356 179.941 122.892 179.002 124.222C176.631 127.653 171.86 128.495 168.235 126.52C164.61 124.546 163.261 120.103 164.19 116.256C165.781 109.816 172.29 107.486 178.372 109.219C187.15 111.636 192.344 120.614 192.571 129.3C192.579 130.286 192.588 131.272 192.47 132.34C198.89 123.758 203.337 113.663 205.147 103.115C208.626 83.1925 202.753 61.4958 186.471 48.6241C180.865 44.1496 174.087 41.0656 167.102 39.468C152.983 36.4599 139.493 41.7859 133.639 55.408C128.626 67.1321 130.541 81.7533 140.036 90.5551C142.96 93.2552 146.375 95.1856 149.864 96.257C149.759 96.2347 149.573 96.0855 149.468 96.0632C142.279 92.3449 137.526 83.3508 140.833 75.5273C143.685 68.8097 152.314 64.7441 158.869 68.874C164.923 72.7879 166.727 82.7937 159.569 86.626C156.36 88.3476 152.05 87.5386 150.223 84.3068C148.457 81.3065 149.849 77.3391 152.97 76.0359C154.53 75.3843 155.444 77.7657 153.988 78.4395C152.301 79.1734 151.542 81.1983 152.38 82.9077C153.301 84.7438 155.766 85.4878 157.536 84.8808C160.948 83.749 162.444 79.8038 161.499 76.5412C159.976 70.8594 153.864 68.2451 148.714 70.8651C143.101 73.6052 141.174 80.0828 143.347 85.7937C145.722 92.0944 152.074 95.6345 158.572 95.9256C177.476 97.0012 186.75 69.8943 171.24 59.0458C169.91 58.1063 171.446 56.0282 172.776 56.9677C175.25 58.6975 177.404 60.9057 178.901 63.6299C181.325 67.6452 182.399 72.3566 182.068 76.9875C180.792 96.833 159.114 106.209 142.62 96.9003C133.622 91.9219 127.63 83.1011 121.436 75.2215C116.44 68.909 111.023 60.9763 102.418 59.7989C99.0268 59.295 95.1589 60.0016 92.7347 62.6558C90.5866 65.0408 89.8512 68.4921 90.5046 71.5834C91.2781 75.1375 94.1946 78.3829 97.9888 78.5353C100.17 78.5626 102.536 77.208 102.899 74.9894C103.278 73.2114 102.021 71.413 100.243 71.0342C98.6519 70.8045 98.8729 68.2276 100.569 68.4795C103.728 69.0434 105.935 72.0283 105.476 75.2104C104.927 78.8109 101.144 81.1754 97.6855 80.9853C90.6646 80.5828 86.7722 73.1935 88.0046 66.896C89.3484 60.0756 95.5804 56.4834 102.198 57.2374C110.871 58.101 116.719 65.0325 121.798 71.4719C122.583 72.4045 123.264 73.3149 124.027 74.3521C120.951 68.7767 118.74 62.7298 117.456 56.4427C116.089 50.0288 114.705 41.6432 118.866 35.9697C122.684 30.8791 130.083 29.5036 134.787 34.1137C136.858 36.195 137.66 39.0993 137.208 41.7363C145.713 34.1457 156.547 31.5339 167.228 32.7163C177.394 33.242 186.712 37.7421 194.114 44.5672C195.026 45.4175 195.961 46.1633 196.746 47.0959C205.63 56.2046 210.393 67.7156 211.834 79.9399C213.025 76.9138 214.904 74.2527 217.905 72.4866C223.778 69.0367 232.871 71.5205 232.604 79.445C232.395 86.0699 222.987 88.6576 220.508 82.3346C219.961 80.7967 221.864 79.5622 222.515 81.1223C224.081 85.0639 230.017 83.3765 230.109 79.3508C230.164 74.9891 225.851 72.649 221.939 73.5648C213.547 75.4941 212.64 85.9064 212.133 92.905C211.664 100.24 210.462 107.418 208.297 114.501C202.925 131.506 192.349 143.685 179.883 156.008C178.779 157.084 177.675 158.161 176.593 159.133C180.953 157.657 185.433 156.643 189.929 156.07C195.664 155.324 201.556 155.377 207.293 156.162C213.03 156.947 218.76 158.277 224.548 158.308C233.294 158.312 241.533 153.508 245.804 145.78C249.389 139.219 248.915 130.152 241.196 126.868C234.979 124.231 226.893 126.773 226.589 134.361C226.364 140.545 233.547 144.809 238.486 140.613C239.695 139.559 241.348 141.551 240.034 142.583C233.864 147.938 224.299 143.057 223.998 135.23C223.713 127.844 230.197 122.556 237.3 123.086C242.686 123.468 246.88 126.876 249.193 131.414C250.003 128.635 251.606 126.243 254.039 124.575C257.233 122.413 261.535 122.236 264.652 124.54C267.582 126.695 268.64 130.966 266.65 134.15C264.682 137.229 260.605 137.891 257.63 135.945C256.299 135.006 257.813 133.032 259.166 133.867C261.849 135.642 265.021 133.584 265.122 130.544C265.179 127.713 262.876 125.692 260.194 125.449C252.194 124.51 251.092 133.787 251.211 139.388C251.429 147.088 247.591 153.814 241.935 158.295C247.972 160.237 254.338 162.687 258.086 168.187C260.847 172.164 261.495 177.332 258.946 181.599C256.524 185.784 251.38 187.859 246.83 186.124C245.014 185.41 243.414 184.194 242.449 182.567C242.734 183.284 243.018 184 243.176 184.799C245.815 193.452 244.624 203.148 239.831 210.764C235.015 218.485 226.715 223.058 217.611 223.195C208.739 223.273 200.279 218.847 196.311 210.785C192.261 202.597 194.385 192.116 202.415 187.267C209.707 182.807 219.965 185.977 223.156 194.091C223.216 194.323 223.299 194.45 223.254 194.659C223.636 195.943 221.838 197.2 221.119 195.953C217.894 190.565 210.878 188.086 205.198 191.14C199.138 194.441 197.324 201.926 200.647 207.882C206.268 217.936 220.497 218.89 229.175 212.539C238.891 205.425 241.16 191.695 236.405 181.17C231.306 169.697 220.005 162.697 207.948 160.784C204.557 160.281 201.203 160.113 197.805 160.154C190.352 160.753 183.006 162.905 176.378 166.303C153.665 177.974 133.312 208.843 147.718 234.107C150.016 238.205 153.306 241.748 157.238 244.335C160.878 246.751 165.032 248.292 169.394 248.347C178.304 248.605 187.341 242.112 186.747 232.582C186.526 228.49 184.46 224.332 180.708 222.44C177.061 220.569 172.275 220.971 169.014 223.447C162.977 228.174 166.492 238.872 174.252 238.886C175.888 238.906 175.562 241.461 173.927 241.44C163.755 241.46 159.697 227.147 167.719 221.312C171.465 218.612 176.61 218.068 180.847 219.736C185.271 221.553 188.196 225.784 189.06 230.451C189.473 232.617 188.572 240.952 184.559 244.908C184.432 244.99 184.283 245.177 184.178 245.155C181.015 248.198 176.857 250.265 172.257 250.815C162.049 252.03 153.116 245.206 146.386 238.306C144.607 236.396 142.827 234.486 141.323 232.307C140.747 231.419 137.448 226.89 137.985 225.911C132.955 235.663 120.843 249.92 111.828 256.309C37.9734 308.907 -21.0058 277.317 -37.6027 269.517C-40.1059 268.437 -38.4825 264.409 -36.0015 265.594Z" fill="#D5D2DF"/>
<path d="M240.747 184.395C241.452 186.731 241.798 189.211 241.809 191.727C242.13 204.588 233.735 216.794 220.622 218.811C214.738 219.744 208.568 218.429 203.769 214.783C201.608 213.12 199.873 211.001 198.623 208.657C200.091 212.031 202.507 215.061 205.564 217.133C213.113 222.24 223.942 221.705 231.367 216.618C238.412 211.777 242.166 203.393 242.418 195.028C242.548 191.338 241.901 187.702 240.747 184.395Z" fill="#D5D2DF"/>
<path d="M224.79 160.761C227.471 161.004 230.115 160.911 232.788 160.169C237.88 158.848 242.283 155.632 245.25 151.453C244.825 151.909 244.504 152.388 243.975 152.821C239.641 157.255 233.901 160.078 227.77 160.63C226.761 160.743 225.776 160.752 224.79 160.761Z" fill="#D5D2DF"/>
<path d="M226.803 164.149C233.216 167.92 238.353 173.06 241.684 180.002C241.347 178.509 241.345 176.978 241.784 175.431C243.138 171.128 248.199 168.926 252.204 170.654C253.706 171.302 252.775 173.618 251.251 173.075C245.908 170.953 241.928 177.321 245.04 181.701C247.987 185.828 254.357 184.67 256.839 180.716C259.642 176.284 257.821 170.976 254.404 167.515C250.635 163.65 245.181 162.051 240.272 160.459C240.063 160.414 239.876 160.265 239.794 160.138C235.906 162.48 231.441 163.934 226.803 164.149Z" fill="#D5D2DF"/>
<path d="M131.547 48.2922C126.94 49.388 122.29 45.5546 122.434 40.7746C122.455 39.1389 125.009 39.4645 124.989 41.1002C124.828 43.9086 127.691 46.3773 130.506 45.9931C133.553 45.5489 135.483 42.1335 134.994 39.296C134.408 35.891 130.746 33.58 127.407 33.8528C124.069 34.1256 121.271 36.4815 119.998 39.3808C117.301 45.3663 119.297 53.445 120.962 59.4851C121.885 62.8523 123.061 66.055 124.469 69.1976C124.647 61.6915 127.193 54.3618 131.547 48.2922Z" fill="#D5D2DF"/>
<path d="M209.107 91.7146C209.65 83.5209 208.789 75.2468 206.181 67.475C203.431 59.345 198.492 51.7328 192.145 46.1165C185.11 40.1349 176.285 36.3961 167.322 35.361C164.304 35.1555 161.302 35.3905 158.106 36.0216C156.74 36.2772 155.351 36.6373 154.045 37.1243C156.524 36.7778 158.958 36.6405 161.475 36.6301C183.553 37.1792 201.431 54.8737 206.9 75.3909C208.385 80.7366 209.071 86.2402 209.107 91.7146Z" fill="#D5D2DF"/>
<path d="M184.66 144.886C186.659 142.688 188.202 140.064 189.222 137.33C189.266 137.12 189.311 136.911 189.438 136.829C190.286 134.386 190.634 131.726 190.541 129.083C190.466 128.411 190.39 127.739 190.315 127.066C190.236 130.002 189.739 132.848 188.951 135.522C187.879 139.012 186.456 142.098 184.66 144.886Z" fill="#D5D2DF"/>
<path d="M96.0797 182.431C103.888 185.297 109.658 176.687 110.539 169.986C111.975 159.14 105.833 150.506 97.9686 143.801C99.3832 146.399 100.417 149.243 100.906 152.08C102.004 158.218 100.584 164.367 97.2071 169.442C99.7617 169.767 102.027 171.453 102.852 174.252C103.272 175.873 100.793 176.219 100.372 174.599C99.7499 172.389 97.3066 171.54 95.2458 171.976C94.9698 172.245 94.6715 172.619 94.3955 172.888C93.6943 173.613 93.0154 174.234 92.2096 174.937C91.2273 178.008 93.1358 181.366 96.0797 182.431Z" fill="#D5D2DF"/>
<path d="M78.1766 106.347C75.8382 105.521 73.3505 104.882 70.8715 105.228C68.3925 105.575 65.8552 107.221 65.3427 109.626C69.4332 107.874 73.7038 106.816 78.1766 106.347Z" fill="#D5D2DF"/>
</svg>
