<svg width="1920" height="123" viewBox="0 0 1920 123" fill="none" xmlns="http://www.w3.org/2000/svg">
<path d="M1717.39 103.046C1719.09 105.498 1721.11 108.017 1724.23 108.576C1724.86 108.708 1725.48 108.739 1726.18 108.658C1724.02 111.147 1723.55 115.072 1725.34 118.228C1725.59 118.607 1726.2 118.639 1726.46 118.202C1727.64 116.029 1732.11 113.275 1732.69 110.356C1733.51 111.281 1734.33 112.205 1735.35 113.107C1742 118.66 1750.85 119.478 1759.13 117.917C1771.99 115.523 1783.35 108.821 1793.6 100.514C1792.59 104.094 1794.88 108.109 1799.24 108.831C1799.76 108.874 1799.89 108.248 1799.75 107.958C1798.91 105.915 1800.4 103.809 1800.04 101.608C1799.83 99.7984 1798.28 98.6529 1797.59 97.1018C1802.31 92.9942 1806.7 88.6196 1810.78 84.1791C1817.5 77.0913 1823.88 69.6361 1830.48 62.3588C1830.4 62.5714 1830.43 62.7725 1830.35 62.9851C1830.11 65.3554 1831.95 67.1817 1833.64 68.6174C1833.98 68.8844 1834.68 68.8036 1834.61 68.2003C1834.32 64.7702 1838.67 60.094 1835.29 57.2227C1843.21 48.9795 1851.77 41.0692 1862.8 37.766C1863.53 37.8863 1864.36 37.9951 1865.08 38.1154C1870.68 38.9 1876.42 39.2593 1882.12 39.2165C1875.23 47.5454 1868.16 56.9144 1868.21 68.0124C1865.35 62.6356 1858.63 67.991 1855.39 69.8915C1854.91 70.1502 1855.11 71.0437 1855.71 70.9744C1858.84 70.7173 1861.58 73.2557 1864.62 73.1106C1861.58 75.9045 1860.58 80.5016 1862.37 84.5746C1862.5 84.8647 1863.02 84.9075 1863.2 84.6834C1865.39 82.4961 1868.4 80.317 1870.13 77.6731C1872.77 83.7883 1877.98 88.3854 1885.16 88.7843C1891.94 89.2293 1898.6 86.0201 1903 80.9301C1905.38 78.5186 1907.06 75.4726 1907.52 72.3639C1908.13 69.6458 1907.99 66.7069 1907.18 64.0498C1908.03 63.4432 1909.11 63.1152 1909.86 62.5202C1910.51 62.0372 1910.95 61.3762 1911.26 60.5257C1912.02 58.2989 1911.21 55.6418 1912.71 53.6358C1912.97 53.2995 1912.5 52.7424 1912.11 52.8891C1910.04 53.433 1907.66 54.0116 1906 55.5264C1906.21 54.6874 1906.21 53.8715 1906.01 52.9781C1905.47 50.0854 1902.26 48.7222 1901.84 45.9184C1901.78 45.4157 1900.96 45.4075 1900.8 45.7322C1899.44 48.1288 1897.81 50.7612 1898.55 53.6309C1898.72 54.2226 1899 54.9034 1899.37 55.4721C1898.42 55.1737 1897.27 54.8984 1896.14 54.8243C1888.55 54.371 1884.01 61.9202 1885.29 68.5992C1885.39 69.5041 1885.51 70.5095 1885.91 71.3799C1886.22 72.2617 1887.72 71.9881 1887.4 71.0057C1885.72 64.3729 1891.72 58.0813 1898.5 60.3592C1904.02 62.2729 1906.56 68.3997 1905.05 73.8704C1903.25 80.3927 1896.86 84.1822 1890.19 84.6421C1891.83 83.0268 1892.35 80.4208 1894.45 79.1615C1895.12 78.7791 1894.71 77.9088 1894.01 77.9896C1891 78.4363 1888.09 77.0385 1885.16 78.0885C1883 78.845 1881.25 80.4719 1880.27 82.5207C1880.27 82.5207 1880.27 82.5208 1880.16 82.5323C1879.95 82.4548 1879.73 82.2768 1879.52 82.1994C1871.46 76.8078 1874.64 62.7922 1877.99 55.5825C1881.08 48.8096 1886.15 43.2367 1892.07 38.8901C1899.02 38.1945 1905.87 36.6945 1912.57 34.7033C1912.96 34.5566 1913.26 34.522 1913.65 34.3753C1913.67 34.4759 1913.57 34.4874 1913.58 34.588C1912.46 38.1796 1914.47 41.5141 1916.62 44.2223C1916.97 44.5899 1917.55 44.3196 1917.59 43.8053C1917.73 39.7142 1922.58 35.7962 1920.38 31.7693C1927.35 28.5255 1933.61 23.63 1936.27 16.6016C1937.6 14.0039 1938.38 11.0616 1937.24 8.2381C1935.98 5.22499 1932.68 3.05747 1929.48 4.54425C1925.15 6.67222 1925.69 12.3144 1924.3 16.1417C1921.7 23.6728 1914.25 27.9914 1907.07 30.2414C1896.45 33.599 1885.76 34.5204 1875.01 34.0226C1874.89 33.9336 1874.79 33.9452 1874.68 33.8562C1874.67 33.7557 1874.66 33.6551 1874.65 33.5545C1875.31 28.6904 1866.91 29.1454 1864.34 27.1987C1864.12 27.0207 1863.74 27.2679 1863.67 27.5811C1863.71 29.7157 1864.26 31.7925 1865.65 33.2628C1851.5 31.6261 1837.35 28.1564 1823.55 25.0543C1823.65 25.0428 1823.85 25.0197 1823.83 24.8186C1824.53 22.9049 1824 21.0292 1822.8 19.4353C1822.08 18.499 1821.09 17.7985 1820 17.2101C1818.91 16.6216 1815.88 15.9507 1815.52 14.5662C1815.34 13.8739 1814.45 14.0783 1814.42 14.6931C1814.22 17.4655 1814.09 20.7407 1815.89 23.0813C1816.01 23.2709 1816.12 23.3598 1816.23 23.4489C1811.13 22.506 1805.9 22.1896 1800.9 22.9676C1796.99 23.5182 1792.2 25.2901 1788.34 28.0757L1788.24 28.0873C1787.86 28.3345 1787.4 28.6939 1787.02 28.9411C1784.76 29.7092 1782.4 30.3883 1780.21 29.1109C1778.69 28.2669 1777.66 26.4488 1778.69 24.7016C1779.81 22.9429 1781.94 22.9017 1783.4 24.0588C1783.48 24.7626 1783.38 25.6906 1782.75 26.3747C1782.3 26.9351 1782.83 27.995 1783.59 27.5005C1785.85 25.9165 1785.66 22.4748 1783.36 21.0078C1780.82 19.3628 1777.5 20.5595 1776.28 23.2462C1774.88 26.1571 1776.3 29.6614 1778.84 31.407C1780.39 32.452 1782.32 32.4339 1784.09 31.824C1782.12 34.1893 1780.82 37.0887 1780.98 40.2287C1779.01 39.9452 1776.89 41.0034 1775.88 42.8511C1774.35 45.4719 1775.21 48.5312 1776.41 51.0416C1776.56 51.4323 1777.17 51.4636 1777.45 51.2279C1778.98 49.423 1780.7 47.595 1781.99 45.5115C1782.08 45.3995 1782.07 45.2989 1782.16 45.1868C1783.73 48.2658 1786.85 50.557 1790.46 50.041C1794.08 49.6257 1796.88 46.5532 1796.67 42.9105C1796.59 42.2066 1795.67 42.21 1795.65 42.9253C1795.34 45.5082 1794.18 46.9653 1792.63 47.6527C1788.81 49.0076 1785.05 45.5676 1785.25 41.0628C1785.36 38.5029 1786.28 35.8508 1787.56 33.6668C1790.01 29.3103 1793.93 27.0274 1798.54 25.4796C1798.64 25.4681 1798.73 25.356 1798.82 25.2439C1804.39 24.0951 1810.35 24.5318 1815.87 25.6296C1826.82 27.8367 1837.46 31.7101 1848.3 34.7447C1843.63 36.7061 1839.29 39.7506 1835.42 43.2516C1834.36 42.0483 1833.12 40.9687 1831.64 40.5269C1829.55 40.0539 1827.34 42.1407 1825.52 41.3314C1825.09 41.1764 1824.61 41.4352 1824.67 41.9379C1824.9 43.0324 1825.41 43.8912 1826.1 44.6263C1824.96 44.4516 1823.78 44.7911 1822.82 45.3087C1820.43 46.7032 1819.73 49.4328 1819.5 51.9036C1819.46 52.4179 1820.1 52.6503 1820.46 52.3025C1822.8 50.5058 1825.94 51.1651 1828.46 50.0607C1827.29 51.4173 1826.11 52.6733 1825.04 54.0183C1819.21 60.9017 1813.83 68.1411 1808.12 75.2139C1807.83 75.3491 1807.45 75.5964 1807.16 75.7315C1804.91 74.7673 1802.88 73.0645 1800.44 73.1404C1797.5 73.2739 1795.24 75.7744 1792.62 76.8903C1792.23 77.037 1792.32 77.8414 1792.74 77.8958C1796.07 78.532 1798.75 81.4841 1802.27 81.0803C1802.67 81.0341 1803.16 80.8759 1803.57 80.8297C1802.58 81.9621 1801.6 83.195 1800.51 84.339C1785.51 101.035 1762.27 124.891 1738.3 113.074C1731.46 106.728 1728.57 96.6685 1733.82 88.2225C1736.57 83.8314 1740.96 81.1892 1746.1 80.7013C1750.43 80.3057 1756.64 82.038 1758.56 86.3005C1759.34 89.5724 1759.38 92.6234 1756.54 95.3943C1754.89 97.0096 1752.55 97.8898 1750.3 97.842C1747.64 97.7398 1744.95 95.6036 1745.77 92.963C1746.1 92.3136 1746.54 91.6526 1747.18 91.0691C1748.11 90.2499 1746.84 88.9692 1745.8 89.6994C1740.66 93.652 1743.84 101.844 1749.83 102.583C1751.07 102.746 1752.28 102.607 1753.37 102.38C1752.92 102.84 1752.56 103.288 1752.32 103.825C1751.72 104.811 1750.3 108.437 1751.72 109.293C1752.38 109.726 1753.32 109.008 1753.8 108.749C1755.06 108.197 1756.31 107.544 1757.32 106.613C1758.16 105.905 1758.77 105.02 1759.17 104.058C1760.17 105.675 1761.93 106.797 1764.1 107.058C1764.51 107.112 1764.87 106.664 1764.72 106.273C1764.2 104.397 1764.79 102.495 1763.88 100.766C1762.97 99.037 1760.81 97.9607 1760.57 95.8492C1761.79 93.1625 1762.15 90.0652 1761.42 87.2961C1759.73 80.5628 1752.37 76.8228 1745.73 77.4838C1738.28 78.2371 1732.44 84.2039 1729.64 90.8417C1727.96 94.9048 1727.53 99.131 1728.38 103.006C1727.81 102.461 1727.15 102.027 1726.39 101.605C1725.33 101.218 1724.29 101.032 1723.19 101.259C1721.3 101.679 1719.73 103.082 1717.72 102.396C1717.57 102.006 1717.04 102.678 1717.39 103.046ZM1759.84 99.2942C1760.18 100.478 1760.82 101.626 1761.83 102.428C1762.28 102.784 1763.04 102.289 1762.77 101.709C1762.02 100.471 1761.36 99.2216 1761.01 97.9376C1761.26 98.3167 1761.52 98.7963 1761.87 99.1639C1762.94 100.568 1763.45 101.427 1763.47 103.36C1763.55 104.064 1763.52 104.679 1763.59 105.282C1760.76 104.588 1759.44 101.989 1759.84 99.2942ZM1758.15 99.5908C1758.04 99.6024 1758.04 99.6024 1758.15 99.5908C1758.23 99.4787 1758.41 99.2546 1758.59 99.0304C1758.51 99.243 1758.54 99.4442 1758.46 99.6568C1758.36 99.6683 1758.25 99.5793 1758.15 99.5908ZM1754.36 102.98C1755.35 101.847 1756.5 101.206 1757.88 100.844C1757.79 100.956 1757.72 101.168 1757.63 101.28C1756.57 102.726 1755.13 103.502 1753.95 104.758C1753.67 104.994 1753.93 105.474 1754.32 105.327C1756 104.829 1757.34 103.248 1758.31 101.915C1758.4 101.803 1758.48 101.59 1758.57 101.478C1758.61 101.88 1758.76 102.271 1758.89 102.561C1758.52 103.725 1757.82 104.722 1756.88 105.441C1756.32 105.912 1753.4 107.979 1752.64 107.557C1752.32 107.391 1752.93 105.589 1752.99 105.276C1753.31 104.526 1753.82 103.652 1754.36 102.98ZM1778.55 45.7027C1779.79 44.9495 1780.77 43.7165 1781.41 42.2165C1781.56 42.6072 1781.61 43.1099 1781.77 43.6011C1781.77 43.6011 1781.77 43.6011 1781.78 43.7017C1781.28 44.6758 1780.46 45.4835 1779.84 46.2681C1779.04 47.2769 1778.12 48.1966 1777.32 49.2054C1776.62 47.5538 1776.19 45.5659 1776.81 43.8649C1777.43 42.1638 1779.02 40.9622 1780.78 41.1682C1780.7 41.3809 1780.54 41.7056 1780.46 41.9182C1779.78 43.1165 1778.86 43.9358 1777.95 44.9561C1777.59 45.3039 1778.07 45.9615 1778.55 45.7027ZM1823.32 23.9599C1822.32 21.4264 1819.88 18.8534 1817.17 19.1649C1816.87 19.1996 1816.82 19.7138 1817.04 19.7913C1818.34 20.4572 1819.69 20.7094 1820.82 21.7C1821.51 22.3346 1822.1 23.0813 1822.51 23.9516C1820.17 24.0159 1817.78 23.5774 1816.51 21.3802C1815.51 19.7632 1815.49 17.8298 1815.57 15.8848C1816.34 16.4073 1817.29 16.7056 1818.06 17.1276C1820.86 18.4364 1823.95 20.5265 1823.32 23.9599ZM1930.77 21.919C1930.77 21.919 1930.87 21.9075 1930.77 21.919C1930.85 21.807 1930.85 21.807 1930.96 21.7955C1930.96 21.7955 1930.94 21.6949 1931.04 21.6833C1931.5 21.2235 1931.95 20.6631 1932.39 20.1026C1931.86 20.7752 1931.42 21.4361 1930.79 22.1202C1930.78 22.0196 1930.78 22.0196 1930.77 21.919ZM1915.28 33.4753C1916.06 33.1819 1916.75 32.9001 1917.53 32.6067C1917.45 32.8193 1917.36 32.9314 1917.18 33.1556C1916.61 34.3424 1915.87 35.9544 1916.12 37.25C1916.17 37.6522 1916.66 37.4939 1916.74 37.2813C1917.3 35.994 1917.34 34.5632 1918.11 33.2528C1918.37 32.816 1918.62 32.3792 1918.89 32.0429C1919.18 31.9078 1919.37 31.7842 1919.67 31.7496L1919.77 31.7381C1920.99 35.2654 1917.6 38.6082 1916.68 42.0762C1915.36 40.3933 1914.33 38.4747 1914.38 36.228C1914.46 35.1995 1914.76 34.2484 1915.28 33.4753ZM1902.63 57.2374C1902.73 57.2258 1902.83 57.2143 1902.93 57.2027C1903.13 57.1797 1903.23 57.1681 1903.32 57.0561C1903.35 57.3577 1903.38 57.5588 1903.41 57.8604C1903.19 57.6824 1902.95 57.4038 1902.63 57.2374ZM1904.11 58.5956C1904.1 58.495 1904.1 58.495 1904.11 58.5956C1904.1 58.495 1904.08 58.3945 1904.08 58.3945C1904.08 58.3945 1904.08 58.3945 1904.19 58.3829C1904.08 58.3945 1904.1 58.495 1904.11 58.5956ZM1904.09 57.5786C1904.04 55.3435 1903.37 53.077 1901.77 51.5293C1901.53 51.2507 1901.06 51.61 1901.3 51.8886C1902.08 53.3276 1902.74 54.6776 1903.2 56.0506C1903.2 56.0506 1903.1 56.0621 1903.09 55.9616C1898.15 55.5099 1899.5 50.3639 1901.17 47.2173C1901.59 48.1882 1902.27 48.8228 1903.09 49.7475C1905 52.1771 1905.61 54.8572 1904.09 57.5786ZM1906.87 63.1679C1906.86 63.0674 1906.74 62.8779 1906.73 62.7773C1906.88 62.3521 1906.92 61.8378 1907.18 61.401C1907.75 60.1136 1908.67 59.2944 1909.57 58.2741C1909.75 58.0499 1909.5 57.6708 1909.21 57.806C1907.75 58.3813 1906.69 59.8268 1906.16 61.4158C1905.89 60.8356 1905.52 60.2669 1905.15 59.6983C1905.1 58.3796 1905.67 57.0923 1906.78 56.1495C1907.98 55.0946 1909.66 54.5968 1911.24 54.2111C1910.54 56.0242 1910.86 57.923 1910.37 59.9142C1909.85 61.6037 1908.09 62.2136 1906.87 63.1679ZM1886.6 84.4427C1885.36 84.2795 1884.2 84.0042 1883.04 83.6284C1884.97 83.6103 1886.92 82.7762 1888.27 81.2961C1888.63 80.8477 1888.06 80.3021 1887.59 80.6615C1885.73 82.1993 1883.66 82.8438 1881.39 82.5949C1882.94 80.0747 1885.31 78.5796 1888.4 78.8368C1889.83 78.8763 1891.09 79.2406 1892.42 79.2917C1891.8 80.0763 1891.39 80.9384 1890.78 81.8235C1889.65 83.4817 1888.21 84.2581 1886.6 84.4427ZM1868.05 71.0865C1868.13 70.8739 1868.21 70.6612 1868.29 70.4486C1868.31 70.6497 1868.32 70.7502 1868.34 70.9513C1868.24 70.9628 1868.15 71.075 1868.05 71.0865ZM1867.98 72.2156C1867.11 74.454 1865.73 76.549 1863.89 78.2879C1863.52 78.6357 1864.01 79.3939 1864.48 79.0346C1866.44 77.4852 1867.93 75.3787 1868.67 72.9507C1868.9 74.0452 1869.22 75.0276 1869.55 76.1105C1869.14 76.9726 1868.5 77.6566 1867.87 78.3407C1866.22 79.956 1864.67 81.5598 1863.02 83.1752C1861.39 78.6769 1863.62 74.1424 1867.98 72.2156ZM1868.22 69.0294C1867.74 69.2882 1867.34 69.3344 1866.84 69.3921C1865.92 69.3954 1865.27 69.0623 1864.43 68.853C1864.02 68.7986 1863.77 69.2355 1864 69.514C1864.92 70.4272 1866.45 70.4552 1867.74 70.1041C1866.8 73.4716 1862.19 71.4541 1860.15 70.5673C1859.19 70.1684 1858.35 69.959 1857.52 69.8503C1860.64 67.7602 1865.46 64.457 1867.4 68.9206C1867.63 69.1992 1867.93 69.1646 1868.22 69.0294ZM1871.78 33.4754C1870.76 33.3897 1869.73 33.304 1868.6 33.2298C1866.37 32.4667 1864.63 30.6288 1864.55 28.0921C1865.65 28.8816 1867.01 29.1338 1868.36 29.386C1870.44 29.7585 1873.66 30.3057 1873.94 32.7189C1873.84 32.7304 1873.84 32.7304 1873.74 32.7419C1873.64 32.7535 1873.54 32.765 1873.55 32.8655C1871.71 31.9557 1869.96 30.9337 1868.14 30.1244C1867.6 29.8805 1867.17 30.5415 1867.62 30.8975C1868.95 31.8651 1870.37 32.7205 1871.99 33.4524C1871.88 33.4639 1871.78 33.4754 1871.78 33.4754ZM1830.72 47.5603C1830.68 47.2587 1830.66 47.0575 1830.42 46.779C1830.73 46.7443 1831.13 46.6982 1831.54 46.7526C1831.27 47.0889 1831 47.3246 1830.72 47.5603ZM1828.13 46.329C1826.43 46.6257 1824.69 47.4366 1823.6 48.5806C1823.33 48.9168 1823.69 49.385 1824.08 49.2383C1825.33 48.5855 1826.37 47.8554 1827.74 47.3922C1828.34 47.2224 1829.03 47.0411 1829.63 46.9718C1829.64 47.0724 1829.64 47.0724 1829.75 47.1614C1830.96 47.9394 1826.83 49.2283 1826.43 49.2745C1825.53 49.3783 1824.72 49.4707 1823.83 49.6751C1822.82 49.7905 1821.84 50.1069 1821.08 50.6014C1821.7 47.0674 1824.5 43.995 1828.13 46.329ZM1834.69 43.1313C1834.59 43.1428 1834.39 43.1659 1834.28 43.0769C1832.94 42.9253 1831.83 42.1357 1830.59 41.9725C1830.27 41.9066 1830 42.2428 1830.25 42.622C1831.08 43.6472 1832.45 44 1833.99 44.1285C1831.39 46.362 1827.52 45.4818 1826.25 42.3681C1827.28 42.4538 1828.24 41.9363 1829.32 41.6083C1831.46 40.7511 1833.11 41.7846 1834.69 43.1313ZM1832 46.2927C1832 46.2927 1832.01 46.3933 1832 46.2927C1832.01 46.3933 1832 46.2927 1832 46.2927ZM1831.84 61.795C1832.09 61.2577 1832.43 60.7088 1832.79 60.2605C1832.52 61.5132 1832.57 62.8319 1832.92 64.1159C1833.08 64.6071 1833.78 64.5263 1833.83 64.012C1833.84 62.3802 1833.67 60.872 1834.19 59.1825C1834.28 59.0704 1834.26 58.8693 1834.34 58.7572C1834.53 58.6336 1834.71 58.4095 1834.9 58.2858C1834.99 58.1737 1834.99 58.1737 1835.08 58.0616C1836.8 60.6149 1834.04 64.0895 1833.57 67.0977C1832.08 65.6389 1830.75 63.8554 1831.84 61.795ZM1806.96 76.671C1806.6 77.1194 1806.24 77.4672 1805.98 77.904C1803.88 79.9792 1801.01 79.9001 1798.09 78.4018C1796.91 77.8249 1795.82 77.2364 1794.66 76.8606C1797.03 75.3656 1799.36 73.4684 1802.3 74.2514C1803.57 74.6156 1804.68 75.4052 1805.76 75.9936C1803.71 76.7386 1801.7 76.9694 1799.32 76.6315C1798.9 76.5771 1798.47 77.2381 1799.01 77.482C1801.5 78.8254 1804.35 77.8875 1806.96 76.671C1806.96 76.671 1806.95 76.5705 1806.96 76.671ZM1796.83 97.5963C1796.83 97.5963 1796.93 97.5848 1796.83 97.5963C1797.54 99.3485 1798.92 100.718 1798.66 102.887C1798.44 104.542 1797.98 105.818 1798.25 107.315C1794.35 106.133 1793.2 101.476 1795.82 98.5276C1795.65 100.585 1795.68 102.619 1796.49 104.359C1796.64 104.85 1797.43 104.557 1797.38 104.155C1797.33 101.92 1796.88 99.8314 1796.83 97.5963ZM1729.72 107.539C1730.01 107.404 1730.06 106.99 1729.93 106.7C1729.93 106.7 1729.93 106.7 1730.02 106.588C1730.13 106.677 1730.13 106.677 1730.24 106.766C1730.36 106.956 1730.39 107.157 1730.51 107.346C1730.19 108.096 1729.77 108.858 1729.22 109.43C1728.5 110.226 1727.33 110.666 1726.7 111.45C1726.53 111.675 1726.67 112.065 1726.99 112.131C1728.22 112.194 1729.4 110.938 1730.11 110.041C1730.55 109.481 1730.8 108.943 1731.03 108.305C1731.16 108.596 1731.4 108.874 1731.52 109.064C1731.84 110.963 1729.93 112.914 1728.52 113.992C1727.6 114.811 1726.66 115.53 1725.86 116.539C1724.43 112.934 1726.26 109.362 1729.72 107.539ZM1719.18 103.553C1720.6 103.492 1721.92 102.627 1723.51 102.241C1726.09 101.64 1728.19 103.13 1729.54 105.114L1729.55 105.215C1727.66 103.802 1725.26 102.447 1723.12 103.305C1722.63 103.463 1722.71 104.167 1723.22 104.209C1724.87 104.327 1726.1 104.389 1727.62 105.233C1728.05 105.388 1728.38 105.655 1728.82 105.911C1725.87 109.509 1721.65 106.428 1719.18 103.553Z" fill="#D5D2DF"/>
<path d="M202.614 103.046C200.906 105.498 198.885 108.017 195.765 108.576C195.139 108.708 194.524 108.739 193.82 108.658C195.979 111.147 196.446 115.072 194.658 118.228C194.41 118.607 193.795 118.639 193.54 118.202C192.363 116.029 187.891 113.275 187.309 110.356C186.49 111.281 185.671 112.205 184.651 113.107C178.003 118.66 169.148 119.478 160.872 117.917C148.006 115.523 136.652 108.821 126.4 100.514C127.415 104.094 125.12 108.109 120.759 108.831C120.245 108.874 120.113 108.248 120.248 107.958C121.094 105.915 119.604 103.809 119.958 101.608C120.166 99.7984 121.723 98.6529 122.411 97.1018C117.687 92.9942 113.299 88.6196 109.224 84.1791C102.499 77.0913 96.1219 69.6361 89.5204 62.3588C89.5979 62.5714 89.5748 62.7725 89.6523 62.9851C89.8897 65.3554 88.0501 67.1817 86.3573 68.6174C86.021 68.8844 85.3172 68.8036 85.3865 68.2003C85.6782 64.7702 81.3251 60.094 84.7107 57.2227C76.7939 48.9795 68.2277 41.0692 57.1972 37.766C56.4703 37.8863 55.6428 37.9951 54.9159 38.1154C49.3249 38.9 43.5789 39.2593 37.8791 39.2165C44.7673 47.5454 51.8418 56.9144 51.7907 68.0124C54.6488 62.6356 61.369 67.991 64.6145 69.8915C65.0941 70.1502 64.8898 71.0437 64.2865 70.9744C61.158 70.7173 58.4218 73.2557 55.3824 73.1106C58.4235 75.9045 59.424 80.5016 57.6323 84.5746C57.4971 84.8647 56.9828 84.9075 56.8048 84.6834C54.6109 82.4961 51.6011 80.317 49.8671 77.6731C47.2298 83.7883 42.0162 88.3854 34.8395 88.7843C28.0649 89.2293 21.4041 86.0201 16.9965 80.9301C14.6246 78.5186 12.9367 75.4726 12.4785 72.3639C11.8736 69.6458 12.0071 66.7069 12.8214 64.0498C11.9742 63.4432 10.8913 63.1152 10.1446 62.5202C9.48696 62.0372 9.05336 61.3762 8.74348 60.5257C7.98032 58.2989 8.79464 55.6418 7.29303 53.6358C7.02601 53.2995 7.49742 52.7424 7.88807 52.8891C9.96494 53.433 12.3435 54.0116 14.0033 55.5264C13.794 54.6874 13.7857 53.8715 13.9901 52.9781C14.5258 50.0854 17.7384 48.7222 18.162 45.9184C18.2197 45.4157 19.0356 45.4075 19.2021 45.7322C20.557 48.1288 22.1905 50.7612 21.4537 53.6309C21.2839 54.2226 21.002 54.9034 20.6312 55.4721C21.5822 55.1737 22.7344 54.8984 23.8635 54.8243C31.4539 54.371 35.9867 61.9202 34.7109 68.5992C34.6071 69.5041 34.4917 70.5095 34.0862 71.3799C33.7813 72.2617 32.2846 71.9881 32.6011 71.0057C34.2791 64.3729 28.2776 58.0813 21.4964 60.3592C15.9795 62.2729 13.4429 68.3997 14.9544 73.8704C16.7527 80.3927 23.1431 84.1822 29.8138 84.6421C28.1655 83.0268 27.6496 80.4208 25.5529 79.1615C24.8837 78.7791 25.2892 77.9088 25.993 77.9896C28.9979 78.4363 31.9088 77.0385 34.8444 78.0885C36.9988 78.845 38.7476 80.4719 39.7349 82.5207C39.7349 82.5207 39.735 82.5208 39.8355 82.5323C40.0481 82.4548 40.2723 82.2768 40.4849 82.1994C48.5402 76.8078 45.3606 62.7922 42.0113 55.5825C38.9174 48.8096 33.8522 43.2367 27.9331 38.8901C20.9839 38.1945 14.1269 36.6945 7.42822 34.7033C7.03758 34.5566 6.73596 34.522 6.34531 34.3753C6.33378 34.4759 6.4343 34.4874 6.42276 34.588C7.53865 38.1796 5.52604 41.5141 3.38159 44.2223C3.0338 44.5899 2.45359 44.3196 2.41074 43.8053C2.26899 39.7142 -2.57865 35.7962 -0.384743 31.7693C-7.34718 28.5255 -13.6108 23.63 -16.2678 16.6016C-17.5997 14.0039 -18.3825 11.0616 -17.2435 8.2381C-15.9809 5.22499 -12.6761 3.05747 -9.485 4.54425C-5.14501 6.67222 -5.69058 12.3144 -4.29612 16.1417C-1.69675 23.6728 5.75358 27.9914 12.932 30.2414C23.5487 33.599 34.2412 34.5204 44.9948 34.0226C45.1069 33.9336 45.2074 33.9452 45.3195 33.8562C45.331 33.7557 45.3425 33.6551 45.3541 33.5545C44.6898 28.6904 53.0929 29.1454 55.6593 27.1987C55.8835 27.0207 56.2626 27.2679 56.3286 27.5811C56.2873 29.7157 55.7434 31.7925 54.3522 33.2628C68.4964 31.6261 82.647 28.1564 96.45 25.0543C96.3494 25.0428 96.1483 25.0197 96.1714 24.8186C95.4742 22.9049 95.9951 21.0292 97.1967 19.4353C97.9154 18.499 98.9126 17.7985 99.9988 17.2101C101.085 16.6216 104.116 15.9507 104.479 14.5662C104.66 13.8739 105.554 14.0783 105.585 14.6931C105.776 17.4655 105.91 20.7407 104.113 23.0813C103.989 23.2709 103.877 23.3598 103.765 23.4489C108.865 22.506 114.097 22.1896 119.101 22.9676C123.011 23.5182 127.799 25.2901 131.656 28.0757L131.757 28.0873C132.136 28.3345 132.604 28.6939 132.983 28.9411C135.238 29.7092 137.605 30.3883 139.789 29.1109C141.312 28.2669 142.336 26.4488 141.314 24.7016C140.191 22.9429 138.057 22.9017 136.599 24.0588C136.519 24.7626 136.616 25.6906 137.25 26.3747C137.696 26.9351 137.166 27.995 136.408 27.5005C134.145 25.9165 134.336 22.4748 136.644 21.0078C139.176 19.3628 142.502 20.5595 143.722 23.2462C145.12 26.1571 143.699 29.6614 141.155 31.407C139.609 32.452 137.676 32.4339 135.912 31.824C137.882 34.1893 139.179 37.0887 139.022 40.2287C140.99 39.9452 143.11 41.0034 144.121 42.8511C145.654 45.4719 144.793 48.5312 143.588 51.0416C143.441 51.4323 142.827 51.4636 142.548 51.2279C141.023 49.423 139.298 47.595 138.009 45.5115C137.92 45.3995 137.931 45.2989 137.842 45.1868C136.266 48.2658 133.151 50.557 129.543 50.041C125.923 49.6257 123.118 46.5532 123.332 42.9105C123.413 42.2066 124.329 42.21 124.349 42.9253C124.664 45.5082 125.821 46.9653 127.372 47.6527C131.19 49.0076 134.946 45.5676 134.75 41.0628C134.636 38.5029 133.718 35.8508 132.441 33.6668C129.986 29.3103 126.072 27.0274 121.461 25.4796C121.361 25.4681 121.272 25.356 121.183 25.2439C115.61 24.0951 109.651 24.5318 104.126 25.6296C93.1765 27.8367 82.5448 31.7101 71.7039 34.7447C76.3686 36.7061 80.7053 39.7506 84.5821 43.2516C85.6371 42.0483 86.8815 40.9687 88.3584 40.5269C90.4501 40.0539 92.6556 42.1407 94.4802 41.3314C94.9055 41.1764 95.3851 41.4352 95.3274 41.9379C95.1 43.0324 94.5939 43.8912 93.8984 44.6263C95.039 44.4516 96.2225 44.7911 97.1818 45.3087C99.5685 46.7032 100.274 49.4328 100.5 51.9036C100.543 52.4179 99.9048 52.6503 99.5372 52.3025C97.1966 50.5058 94.0648 51.1651 91.5429 50.0607C92.7116 51.4173 93.8917 52.6733 94.9598 54.0183C100.792 60.9017 106.175 68.1411 111.883 75.2139C112.173 75.3491 112.552 75.5964 112.842 75.7315C115.092 74.7673 117.121 73.0645 119.558 73.1404C122.496 73.2739 124.756 75.7744 127.379 76.8903C127.769 77.037 127.677 77.8414 127.263 77.8958C123.93 78.532 121.249 81.4841 117.73 81.0803C117.327 81.0341 116.836 80.8759 116.434 80.8297C117.425 81.9621 118.404 83.195 119.495 84.339C134.489 101.035 157.729 124.891 181.7 113.074C188.541 106.728 191.427 96.6685 186.182 88.2225C183.426 83.8314 179.043 81.1892 173.904 80.7013C169.569 80.3057 163.36 82.038 161.444 86.3005C160.661 89.5724 160.617 92.6234 163.457 95.3943C165.105 97.0096 167.449 97.8898 169.696 97.842C172.356 97.7398 175.046 95.6036 174.228 92.963C173.896 92.3136 173.462 91.6526 172.816 91.0691C171.891 90.2499 173.159 88.9692 174.196 89.6994C179.345 93.652 176.164 101.844 170.17 102.583C168.929 102.746 167.723 102.607 166.628 102.38C167.085 102.84 167.441 103.288 167.685 103.825C168.285 104.811 169.702 108.437 168.28 109.293C167.619 109.726 166.683 109.008 166.203 108.749C164.942 108.197 163.692 107.544 162.679 106.613C161.843 105.905 161.232 105.02 160.833 104.058C159.832 105.675 158.073 106.797 155.904 107.058C155.491 107.112 155.135 106.664 155.281 106.273C155.802 104.397 155.205 102.495 156.117 100.766C157.028 99.037 159.189 97.9607 159.432 95.8492C158.212 93.1625 157.854 90.0652 158.579 87.2961C160.269 80.5628 167.625 76.8228 174.273 77.4838C181.725 78.2371 187.56 84.2039 190.364 90.8417C192.037 94.9048 192.469 99.131 191.616 103.006C192.188 102.461 192.849 102.027 193.611 101.605C194.674 101.218 195.714 101.032 196.809 101.259C198.696 101.679 200.267 103.082 202.281 102.396C202.428 102.006 202.962 102.678 202.614 103.046ZM160.157 99.2942C159.817 100.478 159.176 101.626 158.167 102.428C157.719 102.784 156.961 102.289 157.231 101.709C157.984 100.471 158.637 99.2216 158.988 97.9376C158.741 98.3167 158.482 98.7963 158.134 99.1639C157.056 100.568 156.55 101.427 156.532 103.36C156.451 104.064 156.483 104.679 156.414 105.282C159.244 104.588 160.561 101.989 160.157 99.2942ZM161.855 99.5908C161.955 99.6024 161.955 99.6024 161.855 99.5908C161.766 99.4787 161.588 99.2546 161.41 99.0304C161.487 99.243 161.464 99.4442 161.541 99.6568C161.642 99.6683 161.754 99.5793 161.855 99.5908ZM165.642 102.98C164.652 101.847 163.503 101.206 162.118 100.844C162.207 100.956 162.285 101.168 162.374 101.28C163.43 102.726 164.869 103.502 166.05 104.758C166.328 104.994 166.069 105.474 165.679 105.327C164.004 104.829 162.657 103.248 161.69 101.915C161.601 101.803 161.523 101.59 161.434 101.478C161.388 101.88 161.241 102.271 161.106 102.561C161.482 103.725 162.183 104.722 163.119 105.441C163.676 105.912 166.597 107.979 167.358 107.557C167.683 107.391 167.075 105.589 167.009 105.276C166.687 104.526 166.176 103.652 165.642 102.98ZM141.45 45.7027C140.212 44.9495 139.233 43.7165 138.591 42.2165C138.444 42.6072 138.386 43.1099 138.228 43.6011C138.228 43.6011 138.228 43.6011 138.216 43.7017C138.716 44.6758 139.54 45.4835 140.163 46.2681C140.964 47.2769 141.877 48.1966 142.678 49.2054C143.377 47.5538 143.809 45.5659 143.189 43.8649C142.57 42.1638 140.976 40.9622 139.22 41.1682C139.298 41.3809 139.464 41.7056 139.542 41.9182C140.219 43.1165 141.144 43.9358 142.045 44.9561C142.413 45.3039 141.93 45.9615 141.45 45.7027ZM96.6775 23.9599C97.6813 21.4264 100.116 18.8534 102.831 19.1649C103.132 19.1996 103.175 19.7138 102.962 19.7913C101.664 20.4572 100.31 20.7094 99.1779 21.7C98.4938 22.3346 97.8989 23.0813 97.4934 23.9516C99.829 24.0159 102.222 23.5774 103.493 21.3802C104.494 19.7632 104.512 17.8298 104.429 15.8848C103.656 16.4073 102.705 16.7056 101.944 17.1276C99.145 18.4364 96.0528 20.5265 96.6775 23.9599ZM-10.7658 21.919C-10.7658 21.919 -10.8664 21.9075 -10.7658 21.919C-10.8548 21.807 -10.8548 21.807 -10.9553 21.7955C-10.9553 21.7955 -10.9438 21.6949 -11.0443 21.6833C-11.5009 21.2235 -11.9459 20.6631 -12.391 20.1026C-11.8569 20.7752 -11.4235 21.4361 -10.7889 22.1202C-10.7773 22.0196 -10.7773 22.0196 -10.7658 21.919ZM4.71672 33.4753C3.93542 33.1819 3.25474 32.9001 2.47344 32.6067C2.55091 32.8193 2.63995 32.9314 2.81796 33.1556C3.39487 34.3424 4.12671 35.9544 3.87617 37.25C3.83001 37.6522 3.33872 37.4939 3.26125 37.2813C2.69588 35.994 2.6564 34.5632 1.88994 33.2528C1.63445 32.816 1.37895 32.3792 1.11192 32.0429C0.82182 31.9078 0.63221 31.7842 0.33057 31.7496L0.230048 31.7381C-0.989705 35.2654 2.39599 38.6082 3.32233 42.0762C4.63603 40.3933 5.67115 38.4747 5.62335 36.228C5.53764 35.1995 5.23923 34.2484 4.71672 33.4753ZM17.3725 57.2374C17.2719 57.2258 17.1713 57.2143 17.0708 57.2027C16.8697 57.1797 16.7691 57.1681 16.6801 57.0561C16.6455 57.3577 16.6224 57.5588 16.5878 57.8604C16.812 57.6824 17.0478 57.4038 17.3725 57.2374ZM15.8922 58.5956C15.9038 58.495 15.9038 58.495 15.8922 58.5956C15.9038 58.495 15.9153 58.3945 15.9153 58.3945C15.9153 58.3945 15.9153 58.3945 15.8148 58.3829C15.9153 58.3945 15.9038 58.495 15.8922 58.5956ZM15.9071 57.5786C15.9598 55.3435 16.6274 53.077 18.2312 51.5293C18.4669 51.2507 18.935 51.61 18.6993 51.8886C17.923 53.3276 17.2587 54.6776 16.7955 56.0506C16.7955 56.0506 16.896 56.0621 16.9076 55.9616C21.8492 55.5099 20.5042 50.3639 18.8279 47.2173C18.4108 48.1882 17.7268 48.8228 16.9076 49.7475C14.9989 52.1771 14.3857 54.8572 15.9071 57.5786ZM13.1264 63.1679C13.138 63.0674 13.2616 62.8779 13.2731 62.7773C13.1182 62.3521 13.0753 61.8378 12.8198 61.401C12.2545 60.1136 11.3297 59.2944 10.4281 58.2741C10.2501 58.0499 10.4974 57.6708 10.7875 57.806C12.2495 58.3813 13.3061 59.8268 13.8368 61.4158C14.1072 60.8356 14.478 60.2669 14.8488 59.6983C14.8983 58.3796 14.3329 57.0923 13.2187 56.1495C12.0154 55.0946 10.3407 54.5968 8.75508 54.2111C9.46385 56.0242 9.14407 57.923 9.62867 59.9142C10.1479 61.6037 11.9116 62.2136 13.1264 63.1679ZM33.4021 84.4427C34.6433 84.2795 35.7955 84.0042 36.9592 83.6284C35.0257 83.6103 33.084 82.7762 31.7258 81.2961C31.3698 80.8477 31.9418 80.3021 32.4099 80.6615C34.2708 82.1993 36.3361 82.8438 38.6059 82.5949C37.0614 80.0747 34.6862 78.5796 31.6006 78.8368C30.1698 78.8763 28.9056 79.2406 27.5754 79.2917C28.1984 80.0763 28.6089 80.9384 29.2204 81.8235C30.3544 83.4817 31.7934 84.2581 33.4021 84.4427ZM51.9473 71.0865C51.8698 70.8739 51.7923 70.6612 51.7149 70.4486C51.6918 70.6497 51.6802 70.7502 51.6572 70.9513C51.7577 70.9628 51.8467 71.075 51.9473 71.0865ZM52.0214 72.2156C52.8852 74.454 54.2747 76.549 56.1125 78.2879C56.4801 78.6357 55.9856 79.3939 55.5175 79.0346C53.556 77.4852 52.066 75.3787 51.3259 72.9507C51.0984 74.0452 50.7819 75.0276 50.4539 76.1105C50.8643 76.9726 51.4989 77.6566 52.1335 78.3407C53.7818 79.956 55.3296 81.5598 56.9779 83.1752C58.6146 78.6769 56.3845 74.1424 52.0214 72.2156ZM51.7759 69.0294C52.2555 69.2882 52.6577 69.3344 53.1604 69.3921C54.0769 69.3954 54.7263 69.0623 55.5653 68.853C55.979 68.7986 56.2345 69.2355 55.9988 69.514C55.079 70.4272 53.5478 70.4552 52.2637 70.1041C53.2016 73.4716 57.8136 71.4541 59.8509 70.5673C60.8135 70.1684 61.6525 69.959 62.48 69.8503C59.3581 67.7602 54.5417 64.457 52.6033 68.9206C52.3676 69.1992 52.066 69.1646 51.7759 69.0294ZM48.2156 33.4754C49.2441 33.3897 50.2727 33.304 51.4017 33.2298C53.6286 32.4667 55.3676 30.6288 55.455 28.0921C54.3457 28.8816 52.9924 29.1338 51.6391 29.386C49.5589 29.7585 46.3382 30.3057 46.0612 32.7189C46.1618 32.7304 46.1618 32.7304 46.2623 32.7419C46.3629 32.7535 46.4634 32.765 46.4519 32.8655C48.2881 31.9557 50.0353 30.9337 51.86 30.1244C52.3973 29.8805 52.8308 30.5415 52.3825 30.8975C51.049 31.8651 49.6265 32.7205 48.0145 33.4524C48.115 33.4639 48.2156 33.4754 48.2156 33.4754ZM89.2831 47.5603C89.3177 47.2587 89.3408 47.0575 89.5765 46.779C89.2749 46.7443 88.8727 46.6982 88.459 46.7526C88.726 47.0889 89.0045 47.3246 89.2831 47.5603ZM91.8693 46.329C93.5671 46.6257 95.3077 47.4366 96.3989 48.5806C96.6659 48.9168 96.3065 49.385 95.9159 49.2383C94.6665 48.5855 93.6297 47.8554 92.2567 47.3922C91.6649 47.2224 90.9726 47.0411 90.3693 46.9718C90.3578 47.0724 90.3578 47.0724 90.2457 47.1614C89.0359 47.9394 93.1665 49.2283 93.5687 49.2745C94.4736 49.3783 95.278 49.4707 96.1714 49.6751C97.1768 49.7905 98.1592 50.1069 98.9174 50.6014C98.3043 47.0674 95.4989 43.995 91.8693 46.329ZM85.3091 43.1313C85.4096 43.1428 85.6107 43.1659 85.7227 43.0769C87.0645 42.9253 88.1738 42.1357 89.415 41.9725C89.7281 41.9066 89.9952 42.2428 89.7479 42.622C88.9172 43.6472 87.5524 44 86.0096 44.1285C88.6057 46.362 92.4758 45.4818 93.75 42.3681C92.7215 42.4538 91.7622 41.9363 90.6792 41.6083C88.5364 40.7511 86.8898 41.7846 85.3091 43.1313ZM88.0024 46.2927C88.0024 46.2927 87.9909 46.3933 88.0024 46.2927C87.9909 46.3933 88.0024 46.2927 88.0024 46.2927ZM88.1589 61.795C87.915 61.2577 87.5705 60.7088 87.2145 60.2605C87.4782 61.5132 87.4287 62.8319 87.0776 64.1159C86.9194 64.6071 86.2155 64.5263 86.1727 64.012C86.1562 62.3802 86.3293 60.872 85.8101 59.1825C85.7211 59.0704 85.7442 58.8693 85.6552 58.7572C85.4656 58.6336 85.2876 58.4095 85.0981 58.2858C85.009 58.1737 85.009 58.1737 84.92 58.0616C83.2008 60.6149 85.9601 64.0895 86.4299 67.0977C87.9216 65.6389 89.2468 63.8554 88.1589 61.795ZM113.04 76.671C113.396 77.1194 113.764 77.4672 114.019 77.904C116.124 79.9792 118.986 79.9001 121.908 78.4018C123.095 77.8249 124.181 77.2364 125.345 76.8606C122.969 75.3656 120.64 73.4684 117.698 74.2514C116.434 74.6156 115.325 75.4052 114.238 75.9936C116.292 76.7386 118.303 76.9694 120.685 76.6315C121.099 76.5771 121.532 77.2381 120.995 77.482C118.498 78.8254 115.651 77.8875 113.04 76.671C113.04 76.671 113.052 76.5705 113.04 76.671ZM123.169 97.5963C123.169 97.5963 123.068 97.5848 123.169 97.5963C122.458 99.3485 121.079 100.718 121.339 102.887C121.557 104.542 122.022 105.818 121.748 107.315C125.653 106.133 126.798 101.476 124.183 98.5276C124.354 100.585 124.324 102.619 123.513 104.359C123.355 104.85 122.574 104.557 122.62 104.155C122.673 101.92 123.116 99.8314 123.169 97.5963ZM190.281 107.539C189.991 107.404 189.937 106.99 190.072 106.7C190.072 106.7 190.072 106.7 189.983 106.588C189.871 106.677 189.871 106.677 189.759 106.766C189.635 106.956 189.612 107.157 189.489 107.346C189.81 108.096 190.232 108.858 190.777 109.43C191.501 110.226 192.673 110.666 193.296 111.45C193.474 111.675 193.327 112.065 193.014 112.131C191.785 112.194 190.604 110.938 189.892 110.041C189.447 109.481 189.203 108.943 188.971 108.305C188.836 108.596 188.6 108.874 188.476 109.064C188.157 110.963 190.072 112.914 191.476 113.992C192.401 114.811 193.337 115.53 194.138 116.539C195.571 112.934 193.739 109.362 190.281 107.539ZM200.824 103.553C199.405 103.492 198.078 102.627 196.492 102.241C193.913 101.64 191.806 103.13 190.458 105.114L190.446 105.215C192.34 103.802 194.737 102.447 196.88 103.305C197.371 103.463 197.29 104.167 196.776 104.209C195.132 104.327 193.903 104.389 192.38 105.233C191.954 105.388 191.618 105.655 191.181 105.911C194.13 109.509 198.355 106.428 200.824 103.553Z" fill="#D5D2DF"/>
</svg>
