<svg width="17" height="17" viewBox="0 0 17 17" fill="none" xmlns="http://www.w3.org/2000/svg">
<path d="M16.4375 0.0380859C16.4656 0.0568359 16.4969 0.0755859 16.5281 0.0943359C16.7188 0.200586 16.8188 0.406836 16.7719 0.606836C16.7219 0.819336 16.55 0.966211 16.325 0.975586C16.1594 0.981836 15.9938 0.975586 15.8188 0.975586C15.8188 3.25996 15.8188 5.52871 15.8188 7.84121C15.75 7.77871 15.7094 7.73809 15.6688 7.69746C14.6094 6.63809 13.5469 5.57871 12.4875 4.51621C12.1813 4.20996 11.95 4.20996 11.6469 4.51309C10.8906 5.26621 10.1375 6.02246 9.38125 6.77559C9.34063 6.81621 9.3 6.85371 9.21875 6.93184C9.18125 6.87246 9.15625 6.81309 9.1125 6.76934C8.05 5.70371 6.98438 4.64121 5.92188 3.57559C5.61875 3.27246 5.3875 3.27559 5.08125 3.57871C4.01875 4.63809 2.95625 5.69746 1.89688 6.75684C1.85625 6.79746 1.81563 6.83184 1.75313 6.89434C1.75313 4.90684 1.75313 2.94746 1.75313 0.978711C1.38438 0.953711 0.975 1.08496 0.78125 0.631836C0.78125 0.547461 0.78125 0.466211 0.78125 0.381836C0.896875 0.266211 1.00938 0.153711 1.125 0.0380859C6.22813 0.0380859 11.3344 0.0380859 16.4375 0.0380859ZM10.1844 3.37246C10.2063 2.61621 9.58438 1.97246 8.80625 1.94434C8.05 1.91934 7.40625 2.53809 7.375 3.31934C7.34688 4.07871 7.98125 4.73496 8.75938 4.75371C9.51875 4.77246 10.1625 4.14746 10.1844 3.37246Z" fill="#090416"/>
<path d="M0.78125 9.78816C0.975 9.33503 1.38438 9.46628 1.75 9.44128C1.75 9.07253 1.74688 8.71316 1.75313 8.35691C1.75313 8.29128 1.77813 8.21003 1.82188 8.16628C3.025 6.95691 4.23438 5.74753 5.44375 4.54128C5.45938 4.52566 5.475 4.51628 5.54375 4.45691C5.575 4.51003 5.59688 4.57566 5.6375 4.61941C7.20938 6.19441 8.78125 7.76628 10.35 9.33816C10.425 9.41316 10.5 9.44753 10.6063 9.44753C10.9844 9.44128 11.3656 9.44441 11.7563 9.44441C11.1313 8.82253 10.5188 8.21003 9.92188 7.61316C10.6563 6.87878 11.3656 6.16941 12.0844 5.44753C12.1094 5.46941 12.1531 5.51316 12.1969 5.55378C13.3344 6.69128 14.4719 7.83191 15.6125 8.96628C15.7438 9.09441 15.8688 9.21316 15.7969 9.44128C15.95 9.44128 16.0813 9.44128 16.2156 9.44128C16.5625 9.44128 16.7781 9.61941 16.7781 9.90691C16.7781 10.1944 16.5625 10.3788 16.2188 10.3788C12.6094 10.3788 9 10.3788 5.39375 10.3788C4.06563 10.3788 2.7375 10.3725 1.40938 10.3819C1.12188 10.3882 0.90625 10.31 0.78125 10.0382C0.78125 9.95378 0.78125 9.87253 0.78125 9.78816Z" fill="#090416"/>
<path d="M3.62595 16.0381C3.30095 15.8756 3.22908 15.7381 3.28845 15.3756C3.49783 14.0694 3.7072 12.7663 3.91658 11.46C3.92283 11.4163 3.93533 11.3694 3.94783 11.3225C4.56658 11.3225 5.1822 11.3225 5.81345 11.3225C5.76345 11.6319 5.71345 11.9381 5.66345 12.2475C6.39158 12.2475 7.1072 12.2475 7.84158 12.2475C7.84158 11.9444 7.84158 11.6381 7.84158 11.3256C8.4697 11.3256 9.0822 11.3256 9.71345 11.3256C9.71345 11.6256 9.71345 11.9288 9.71345 12.2444C10.451 12.2444 11.1728 12.2444 11.9072 12.2444C11.8572 11.9413 11.8072 11.6413 11.7572 11.3288C12.3791 11.3288 12.9947 11.3288 13.6291 11.3288C13.6916 11.6913 13.7541 12.06 13.8135 12.4256C13.976 13.4006 14.1322 14.3756 14.2947 15.3506C14.3572 15.7288 14.3041 15.8538 13.9728 16.035C13.5978 16.035 13.2228 16.035 12.8478 16.035C12.6041 15.9569 12.4853 15.7819 12.4478 15.5319C12.3885 15.1256 12.3197 14.7225 12.251 14.3163C12.1885 13.9444 12.126 13.5694 12.0666 13.1975C11.2791 13.1975 10.5072 13.1975 9.72283 13.1975C9.72283 13.2631 9.72283 13.3194 9.72283 13.3756C9.72283 14.0506 9.71345 14.7288 9.72595 15.4038C9.7322 15.6944 9.64783 15.9069 9.37908 16.0319C8.9822 16.0319 8.58845 16.0319 8.19158 16.0319C7.92283 15.9069 7.83845 15.6944 7.8447 15.4038C7.8572 14.7225 7.84783 14.0413 7.84783 13.36C7.84783 13.3069 7.84783 13.2506 7.84783 13.1944C7.05408 13.1944 6.28533 13.1944 5.51033 13.1944C5.50095 13.2381 5.48845 13.2756 5.4822 13.3163C5.36345 14.0381 5.24158 14.76 5.12908 15.485C5.08845 15.7444 4.9947 15.9506 4.72283 16.0319C4.35408 16.0381 3.99158 16.0381 3.62595 16.0381Z" fill="#090416"/>
<path d="M8.77396 2.88187C9.02709 2.87875 9.24584 3.08812 9.24896 3.34125C9.25209 3.59437 9.04271 3.81312 8.78959 3.81625C8.53646 3.81937 8.31771 3.61 8.31459 3.35687C8.30834 3.10375 8.51771 2.88812 8.77396 2.88187Z" fill="#090416"/>
</svg>
