<svg width="12" height="15" viewBox="0 0 12 15" fill="none" xmlns="http://www.w3.org/2000/svg">
<path d="M6.37369 7.20598C7.99627 7.20598 9.31175 5.60825 9.31175 3.63734C9.31175 1.66639 8.87986 0.0686646 6.37369 0.0686646C3.86752 0.0686646 3.43555 1.66639 3.43555 3.63734C3.43555 5.60825 4.75103 7.20598 6.37369 7.20598Z" fill="#090416"/>
<path d="M11.9219 12.7488C11.9235 12.7158 11.9224 12.5197 11.9219 12.7488V12.7488Z" fill="#090416"/>
<path d="M11.9166 12.5108C11.8622 9.0774 11.4138 8.09907 7.98246 7.4798C7.98246 7.4798 7.49945 8.09528 6.37365 8.09528C5.24784 8.09528 4.76474 7.4798 4.76474 7.4798C1.37086 8.09232 0.895186 9.05613 0.832641 12.3992C0.827513 12.6722 0.825136 12.6866 0.824219 12.6549C0.824427 12.7142 0.824677 12.8241 0.824677 13.0156C0.824677 13.0156 1.64159 14.6624 6.37365 14.6624C11.1056 14.6624 11.9226 13.0156 11.9226 13.0156C11.9226 12.8925 11.9227 12.807 11.9228 12.7488C11.9219 12.7684 11.9201 12.7304 11.9166 12.5108Z" fill="#090416"/>
</svg>
