<svg width="12" height="11" viewBox="0 0 12 11" fill="none" xmlns="http://www.w3.org/2000/svg">
<path d="M6.1126 9.41009C5.8068 9.82515 5.33057 10.0803 4.81567 10.1056C4.30076 10.1312 3.80206 9.92369 3.45704 9.54052L0.365247 6.10946C-0.126137 5.56449 -0.0824872 4.72444 0.462478 4.23305C1.00797 3.74167 1.8475 3.78558 2.33888 4.33081L4.52632 6.75845C4.55873 6.79452 4.60578 6.81386 4.65414 6.81151C4.70275 6.80916 4.74719 6.78485 4.7762 6.74616L9.27236 0.648043C9.70755 0.0573372 10.5392 -0.0683838 11.1302 0.367066C11.7206 0.802515 11.8461 1.63421 11.4107 2.22465L6.1126 9.41009Z" fill="#090416"/>
</svg>
