<svg width="60" height="61" viewBox="0 0 60 61" fill="none" xmlns="http://www.w3.org/2000/svg">
<path d="M3.15286 32.0827C4.75118 30.8598 7.06425 31.1438 8.31925 32.717L24.6042 53.1316C25.8592 54.7049 25.5809 56.9716 23.9825 58.1945C22.3842 59.4174 20.0711 59.1334 18.8161 57.5602L2.53121 37.1456C1.27621 35.5723 1.55453 33.3056 3.15286 32.0827Z" fill="#090416"/>
<path d="M20.1023 58.4001C18.3878 57.3298 17.8911 55.0885 18.9926 53.394L51.5333 3.33874C52.6348 1.64424 54.9176 1.13826 56.632 2.20857C58.3465 3.27889 58.8433 5.52021 57.7417 7.2147L25.2011 57.27C24.0995 58.9645 21.8167 59.4705 20.1023 58.4001Z" fill="#090416"/>
</svg>
