<svg width="17" height="17" viewBox="0 0 17 17" fill="none" xmlns="http://www.w3.org/2000/svg">
<path d="M13.6395 8.80798C13.2516 8.80798 12.993 9.13122 12.993 9.45445V14.7555C12.993 15.1434 12.6698 15.4019 12.3465 15.4019H2.97279C2.58491 15.4019 2.32633 15.0787 2.32633 14.7555V5.44635C2.32633 5.05848 2.64956 4.79989 2.97279 4.79989H8.33845C8.72633 4.79989 8.98492 4.47666 8.98492 4.15342C8.98492 3.76554 8.66169 3.50696 8.33845 3.50696H2.97279C1.8738 3.50696 0.96875 4.41201 0.96875 5.511V14.8201C0.96875 15.9191 1.8738 16.8242 2.97279 16.8242H12.2819C13.3809 16.8242 14.2859 15.9191 14.2859 14.8201V9.45445C14.2859 9.13122 14.0274 8.80798 13.6395 8.80798Z" fill="#090416"/>
<path d="M7.23807 8.22621C7.17342 8.29086 7.17342 8.3555 7.17342 8.42014L6.65625 10.7474C6.65625 10.8767 6.65625 10.9414 6.7209 11.0707C6.78554 11.1353 6.85019 11.2 6.97948 11.2H7.04413L9.37141 10.7474C9.43605 10.7474 9.5007 10.6828 9.56534 10.6828L14.8017 5.4464L12.4744 3.11914L7.23807 8.22621Z" fill="#090416"/>
<path d="M16.4823 1.30907C15.8359 0.662602 14.8015 0.662602 14.1551 1.30907L13.25 2.21412L15.5773 4.54139L16.4823 3.63635C16.8056 3.31311 16.9995 2.92524 16.9995 2.47272C16.9995 2.02019 16.8056 1.6323 16.4823 1.30907Z" fill="#090416"/>
</svg>
