<svg width="107" height="24" viewBox="0 0 107 24" fill="none" xmlns="http://www.w3.org/2000/svg">
<path d="M9.52166 2.03809C10.3812 2.03809 11.2408 2.03809 12.1004 2.03809C12.3935 2.14065 12.5302 2.36043 12.5986 2.65347C12.75 3.30793 12.916 3.95262 13.0723 4.60707C13.1016 4.72917 13.1505 4.79266 13.2677 4.83662C13.59 4.95872 13.9075 5.09547 14.2201 5.23711C14.3275 5.28595 14.4057 5.28107 14.5082 5.22246C15.0162 4.90988 15.5339 4.60707 16.0467 4.29938C16.4179 4.0796 16.6474 4.1089 16.9502 4.41171C17.4435 4.905 17.9368 5.39828 18.4301 5.89157C18.7427 6.20414 18.772 6.43369 18.5424 6.81464C18.2396 7.32258 17.9368 7.83052 17.6242 8.33357C17.5558 8.44102 17.5607 8.52404 17.6096 8.63638C17.7512 8.94895 17.8831 9.26641 18.0101 9.58876C18.054 9.69621 18.1077 9.74993 18.225 9.77923C18.9087 9.94041 19.5876 10.1113 20.2714 10.2823C20.6474 10.3751 20.8086 10.5753 20.8086 10.9612C20.8086 11.6791 20.8086 12.3922 20.8086 13.1101C20.8086 13.5106 20.6523 13.706 20.2665 13.8037C19.5876 13.9746 18.9038 14.1358 18.225 14.3116C18.1468 14.3311 18.0638 14.4093 18.0296 14.4874C17.8831 14.8 17.7659 15.1223 17.6193 15.4349C17.5705 15.5424 17.5803 15.6205 17.6438 15.7182C17.9515 16.2164 18.2494 16.7194 18.5473 17.2225C18.7671 17.5936 18.7427 17.8232 18.4399 18.1309C17.9466 18.6242 17.4533 19.1175 16.9649 19.6107C16.6572 19.9184 16.413 19.9477 16.0418 19.728C15.5485 19.4349 15.0601 19.1419 14.5717 18.8391C14.4594 18.7707 14.3715 18.7707 14.2543 18.8293C13.9319 18.9807 13.5998 19.1175 13.2677 19.2444C13.1602 19.2884 13.1065 19.347 13.0772 19.4593C12.916 20.1431 12.7451 20.822 12.5742 21.5057C12.4814 21.8818 12.2811 22.0381 11.8904 22.0381C11.1725 22.0381 10.4594 22.0381 9.74144 22.0381C9.34095 22.0381 9.14559 21.8818 9.04791 21.4911C8.87697 20.8122 8.7158 20.1284 8.53997 19.4496C8.52044 19.3714 8.43741 19.2884 8.36415 19.2542C8.0418 19.1028 7.70481 18.9807 7.38246 18.8293C7.27502 18.7805 7.19687 18.7853 7.09919 18.8439C6.61079 19.1419 6.11751 19.4349 5.62911 19.728C5.27257 19.938 5.02837 19.9087 4.73533 19.6156C4.23717 19.1175 3.739 18.6242 3.24571 18.126C2.94779 17.8232 2.91848 17.5839 3.13826 17.2176C3.42642 16.7389 3.70969 16.2554 4.00273 15.7817C4.07599 15.6596 4.07599 15.5717 4.01738 15.4447C3.87575 15.137 3.74388 14.8244 3.62666 14.5118C3.57782 14.3897 3.51922 14.3262 3.38735 14.2969C2.72801 14.1407 2.07355 13.9697 1.41909 13.8183C1.11629 13.7548 0.911158 13.6132 0.808594 13.3299C0.808594 12.4703 0.808594 11.6107 0.808594 10.7512C0.911158 10.4679 1.11629 10.3262 1.40444 10.2579C2.06378 10.1065 2.71336 9.93064 3.3727 9.77923C3.50456 9.74993 3.56806 9.68644 3.61201 9.56434C3.70969 9.29083 3.82202 9.01733 3.94412 8.75359C3.99296 8.64614 3.99297 8.568 3.92947 8.47032C3.59248 7.92331 3.26525 7.36654 2.93314 6.81464C2.70847 6.43857 2.73778 6.19437 3.04058 5.89157C3.53387 5.3934 4.02715 4.905 4.52044 4.41171C4.83301 4.09914 5.06256 4.07472 5.44351 4.30426C5.97587 4.62172 6.50334 4.9343 7.03082 5.26153C7.13826 5.32991 7.22129 5.32502 7.33362 5.27618C7.66574 5.12478 7.99785 4.98314 8.33485 4.85127C8.45695 4.80243 8.52044 4.74382 8.54974 4.61196C8.70115 3.95262 8.87697 3.30304 9.02837 2.6437C9.09675 2.34578 9.23839 2.14065 9.52166 2.03809ZM10.8208 7.93796C8.56928 7.9282 6.71824 9.77435 6.70847 12.0308C6.6987 14.2823 8.54486 16.1333 10.8013 16.1431C13.0528 16.1529 14.9038 14.3067 14.9136 12.0503C14.9234 9.79877 13.0772 7.94773 10.8208 7.93796Z" fill="#090416"/>
<path d="M37.5419 7.07409V8.33809H32.0379V12.1461H36.4939V13.3621H32.0379V17.2741H37.5419V18.5381H30.4779V7.07409H37.5419ZM45.2548 18.5381C45.0521 18.5381 44.9241 18.4394 44.8708 18.2421L44.7428 17.2581C44.3961 17.6794 43.9988 18.0181 43.5508 18.2741C43.1081 18.5248 42.5988 18.6501 42.0228 18.6501C41.5588 18.6501 41.1375 18.5621 40.7588 18.3861C40.3801 18.2048 40.0575 17.9408 39.7908 17.5941C39.5241 17.2474 39.3188 16.8154 39.1748 16.2981C39.0308 15.7808 38.9588 15.1861 38.9588 14.5141C38.9588 13.9168 39.0388 13.3621 39.1988 12.8501C39.3588 12.3328 39.5881 11.8848 39.8868 11.5061C40.1908 11.1274 40.5588 10.8314 40.9908 10.6181C41.4228 10.3994 41.9135 10.2901 42.4628 10.2901C42.9588 10.2901 43.3828 10.3754 43.7348 10.5461C44.0868 10.7114 44.4015 10.9461 44.6788 11.2501V6.75409H46.1028V18.5381H45.2548ZM42.4948 17.4981C42.9588 17.4981 43.3641 17.3914 43.7108 17.1781C44.0628 16.9648 44.3855 16.6634 44.6788 16.2741V12.3541C44.4175 12.0021 44.1295 11.7568 43.8148 11.6181C43.5055 11.4741 43.1615 11.4021 42.7828 11.4021C42.0255 11.4021 41.4441 11.6714 41.0388 12.2101C40.6335 12.7488 40.4308 13.5168 40.4308 14.5141C40.4308 15.0421 40.4761 15.4954 40.5668 15.8741C40.6575 16.2474 40.7908 16.5568 40.9668 16.8021C41.1428 17.0421 41.3588 17.2181 41.6148 17.3301C41.8708 17.4421 42.1641 17.4981 42.4948 17.4981ZM50.0723 10.4341V18.5381H48.6483V10.4341H50.0723ZM50.3923 7.89009C50.3923 8.02875 50.363 8.15942 50.3043 8.28209C50.251 8.39942 50.1763 8.50609 50.0803 8.60209C49.9896 8.69275 49.883 8.76475 49.7603 8.81809C49.6376 8.87142 49.507 8.89809 49.3683 8.89809C49.2296 8.89809 49.099 8.87142 48.9763 8.81809C48.859 8.76475 48.7523 8.69275 48.6563 8.60209C48.5656 8.50609 48.4936 8.39942 48.4403 8.28209C48.387 8.15942 48.3603 8.02875 48.3603 7.89009C48.3603 7.75142 48.387 7.62075 48.4403 7.49809C48.4936 7.37009 48.5656 7.26075 48.6563 7.17008C48.7523 7.07409 48.859 6.99942 48.9763 6.94608C49.099 6.89275 49.2296 6.86609 49.3683 6.86609C49.507 6.86609 49.6376 6.89275 49.7603 6.94608C49.883 6.99942 49.9896 7.07409 50.0803 7.17008C50.1763 7.26075 50.251 7.37009 50.3043 7.49809C50.363 7.62075 50.3923 7.75142 50.3923 7.89009ZM55.0381 18.6661C54.3981 18.6661 53.9047 18.4874 53.5581 18.1301C53.2167 17.7728 53.0461 17.2581 53.0461 16.5861V11.6261H52.0701C51.9847 11.6261 51.9127 11.6021 51.8541 11.5541C51.7954 11.5008 51.7661 11.4208 51.7661 11.3141V10.7461L53.0941 10.5781L53.4221 8.07409C53.4327 7.99409 53.4674 7.93009 53.5261 7.88209C53.5847 7.82875 53.6594 7.80209 53.7501 7.80209H54.4701V10.5941H56.7901V11.6261H54.4701V16.4901C54.4701 16.8314 54.5527 17.0848 54.7181 17.2501C54.8834 17.4154 55.0967 17.4981 55.3581 17.4981C55.5074 17.4981 55.6354 17.4794 55.7421 17.4421C55.8541 17.3994 55.9501 17.3541 56.0301 17.3061C56.1101 17.2581 56.1767 17.2154 56.2301 17.1781C56.2887 17.1354 56.3394 17.1141 56.3821 17.1141C56.4567 17.1141 56.5234 17.1594 56.5821 17.2501L56.9981 17.9301C56.7527 18.1594 56.4567 18.3408 56.1101 18.4741C55.7634 18.6021 55.4061 18.6661 55.0381 18.6661ZM61.6446 21.2821V10.4341H62.4926C62.6952 10.4341 62.8232 10.5328 62.8766 10.7301L62.9966 11.6901C63.3432 11.2688 63.7379 10.9301 64.1806 10.6741C64.6286 10.4181 65.1432 10.2901 65.7246 10.2901C66.1886 10.2901 66.6099 10.3808 66.9886 10.5621C67.3672 10.7381 67.6899 11.0021 67.9566 11.3541C68.2232 11.7008 68.4286 12.1328 68.5726 12.6501C68.7166 13.1674 68.7886 13.7621 68.7886 14.4341C68.7886 15.0314 68.7086 15.5888 68.5486 16.1061C68.3886 16.6181 68.1592 17.0634 67.8606 17.4421C67.5619 17.8154 67.1939 18.1114 66.7566 18.3301C66.3246 18.5434 65.8366 18.6501 65.2926 18.6501C64.7912 18.6501 64.3619 18.5674 64.0046 18.4021C63.6526 18.2368 63.3406 18.0021 63.0686 17.6981V21.2821H61.6446ZM65.2526 11.4421C64.7886 11.4421 64.3806 11.5488 64.0286 11.7621C63.6819 11.9754 63.3619 12.2768 63.0686 12.6661V16.5861C63.3299 16.9381 63.6152 17.1861 63.9246 17.3301C64.2392 17.4741 64.5886 17.5461 64.9726 17.5461C65.7246 17.5461 66.3032 17.2768 66.7086 16.7381C67.1139 16.1994 67.3166 15.4314 67.3166 14.4341C67.3166 13.9061 67.2686 13.4528 67.1726 13.0741C67.0819 12.6954 66.9486 12.3861 66.7726 12.1461C66.5966 11.9008 66.3806 11.7221 66.1246 11.6101C65.8686 11.4981 65.5779 11.4421 65.2526 11.4421ZM70.4727 18.5381V10.4341H71.2887C71.4434 10.4341 71.55 10.4634 71.6087 10.5221C71.6674 10.5808 71.7074 10.6821 71.7287 10.8261L71.8247 12.0901C72.102 11.5248 72.4434 11.0848 72.8487 10.7701C73.2594 10.4501 73.7394 10.2901 74.2887 10.2901C74.5127 10.2901 74.7154 10.3168 74.8967 10.3701C75.078 10.4181 75.246 10.4874 75.4007 10.5781L75.2167 11.6421C75.1794 11.7754 75.0967 11.8421 74.9687 11.8421C74.894 11.8421 74.7794 11.8181 74.6247 11.7701C74.47 11.7168 74.254 11.6901 73.9767 11.6901C73.4807 11.6901 73.0647 11.8341 72.7287 12.1221C72.398 12.4101 72.1207 12.8288 71.8967 13.3781V18.5381H70.4727ZM80.2058 10.3061C80.7978 10.3061 81.3311 10.4048 81.8058 10.6021C82.2858 10.7994 82.6911 11.0794 83.0218 11.4421C83.3578 11.8048 83.6138 12.2448 83.7898 12.7621C83.9711 13.2741 84.0618 13.8474 84.0618 14.4821C84.0618 15.1221 83.9711 15.6981 83.7898 16.2101C83.6138 16.7221 83.3578 17.1594 83.0218 17.5221C82.6911 17.8848 82.2858 18.1648 81.8058 18.3621C81.3311 18.5541 80.7978 18.6501 80.2058 18.6501C79.6138 18.6501 79.0778 18.5541 78.5978 18.3621C78.1231 18.1648 77.7178 17.8848 77.3818 17.5221C77.0458 17.1594 76.7871 16.7221 76.6058 16.2101C76.4245 15.6981 76.3338 15.1221 76.3338 14.4821C76.3338 13.8474 76.4245 13.2741 76.6058 12.7621C76.7871 12.2448 77.0458 11.8048 77.3818 11.4421C77.7178 11.0794 78.1231 10.7994 78.5978 10.6021C79.0778 10.4048 79.6138 10.3061 80.2058 10.3061ZM80.2058 17.5381C81.0058 17.5381 81.6031 17.2714 81.9978 16.7381C82.3925 16.1994 82.5898 15.4501 82.5898 14.4901C82.5898 13.5248 82.3925 12.7728 81.9978 12.2341C81.6031 11.6954 81.0058 11.4261 80.2058 11.4261C79.8005 11.4261 79.4485 11.4954 79.1498 11.6341C78.8511 11.7728 78.6005 11.9728 78.3978 12.2341C78.2005 12.4954 78.0511 12.8181 77.9498 13.2021C77.8538 13.5808 77.8058 14.0101 77.8058 14.4901C77.8058 14.9701 77.8538 15.3994 77.9498 15.7781C78.0511 16.1568 78.2005 16.4768 78.3978 16.7381C78.6005 16.9941 78.8511 17.1914 79.1498 17.3301C79.4485 17.4688 79.8005 17.5381 80.2058 17.5381ZM86.1364 18.5381V11.6501L85.2404 11.5461C85.1284 11.5194 85.0351 11.4794 84.9604 11.4261C84.8911 11.3674 84.8564 11.2848 84.8564 11.1781V10.5941H86.1364V10.1461C86.1364 9.65009 86.2138 9.19675 86.3684 8.78609C86.5231 8.37009 86.7551 8.01275 87.0644 7.71409C87.3738 7.41542 87.7578 7.18342 88.2164 7.01809C88.6804 6.85275 89.2191 6.77009 89.8324 6.77009C90.0351 6.77009 90.2404 6.78342 90.4484 6.81009C90.6618 6.83675 90.8458 6.87675 91.0004 6.93009L90.9524 7.67409C90.9418 7.74342 90.9098 7.78875 90.8564 7.81009C90.8031 7.82609 90.7258 7.83409 90.6244 7.83409C90.5658 7.83409 90.5044 7.83409 90.4404 7.83409C90.3764 7.82875 90.3044 7.82609 90.2244 7.82609C89.2804 7.82609 88.5924 8.02342 88.1604 8.41809C87.7338 8.80742 87.5204 9.39675 87.5204 10.1861V10.5941H92.4164V18.5381H90.9924V11.6261H87.5684V18.5381H86.1364ZM96.5254 6.75409V18.5381H95.1014V6.75409H96.5254ZM102.243 10.3061C102.729 10.3061 103.177 10.3888 103.587 10.5541C103.998 10.7141 104.353 10.9488 104.651 11.2581C104.95 11.5621 105.182 11.9408 105.347 12.3941C105.518 12.8421 105.603 13.3541 105.603 13.9301C105.603 14.1541 105.579 14.3034 105.531 14.3781C105.483 14.4528 105.393 14.4901 105.259 14.4901H99.8672C99.8779 15.0021 99.9472 15.4474 100.075 15.8261C100.203 16.2048 100.379 16.5221 100.603 16.7781C100.827 17.0288 101.094 17.2181 101.403 17.3461C101.713 17.4688 102.059 17.5301 102.443 17.5301C102.801 17.5301 103.107 17.4901 103.363 17.4101C103.625 17.3248 103.849 17.2341 104.035 17.1381C104.222 17.0421 104.377 16.9541 104.499 16.8741C104.627 16.7888 104.737 16.7461 104.827 16.7461C104.945 16.7461 105.035 16.7914 105.099 16.8821L105.499 17.4021C105.323 17.6154 105.113 17.8021 104.867 17.9621C104.622 18.1168 104.358 18.2448 104.075 18.3461C103.798 18.4474 103.51 18.5221 103.211 18.5701C102.913 18.6234 102.617 18.6501 102.323 18.6501C101.763 18.6501 101.246 18.5568 100.771 18.3701C100.302 18.1781 99.8939 17.9008 99.5472 17.5381C99.2059 17.1701 98.9392 16.7168 98.7472 16.1781C98.5552 15.6394 98.4592 15.0208 98.4592 14.3221C98.4592 13.7568 98.5445 13.2288 98.7152 12.7381C98.8912 12.2474 99.1419 11.8234 99.4672 11.4661C99.7925 11.1034 100.19 10.8208 100.659 10.6181C101.129 10.4101 101.657 10.3061 102.243 10.3061ZM102.275 11.3541C101.587 11.3541 101.046 11.5541 100.651 11.9541C100.257 12.3488 100.011 12.8981 99.9152 13.6021H104.323C104.323 13.2714 104.278 12.9701 104.187 12.6981C104.097 12.4208 103.963 12.1834 103.787 11.9861C103.611 11.7834 103.395 11.6288 103.139 11.5221C102.889 11.4101 102.601 11.3541 102.275 11.3541Z" fill="#090416"/>
</svg>
