<svg width="26" height="22" viewBox="0 0 26 22" fill="none" xmlns="http://www.w3.org/2000/svg">
<path d="M0 14.3351C0.0475081 13.7947 0.0831392 13.2543 0.142524 12.7199C0.475081 9.88719 1.22333 7.17923 2.7911 4.75632C3.58092 3.53893 4.55484 2.49375 5.74254 1.65048C6.31264 1.24666 6.88867 0.854718 7.47065 0.462776C7.56567 0.397452 7.69037 0.36776 7.79727 0.320251C7.81508 0.338067 7.83884 0.355883 7.85665 0.373698C7.80321 0.516222 7.76757 0.664685 7.69631 0.795332C7.14997 1.81082 6.568 2.80849 6.04541 3.83585C5.07743 5.71242 4.34699 7.67807 3.94911 9.75655C3.93723 9.82187 3.92536 9.89313 3.91348 9.97627C4.28761 9.89907 4.63798 9.80999 5.00023 9.75655C7.55973 9.36461 10.2142 10.9264 11.111 13.3553C12.0552 15.9148 11.2475 18.5634 9.03248 20.1608C6.60956 21.9067 3.0227 21.3485 1.22333 18.9672C0.546343 18.0705 0.142524 17.0847 0.0356311 15.9801C0.0296926 15.9207 0.011877 15.8613 0 15.802C0 15.3091 0 14.8221 0 14.3351Z" fill="white"/>
<path d="M22.3491 0.379605C22.2957 0.522129 22.2541 0.670592 22.1829 0.801239C21.6246 1.8286 21.0427 2.84409 20.5082 3.88333C19.5521 5.75396 18.8217 7.71367 18.4297 9.78621C18.4238 9.83372 18.4119 9.88122 18.406 9.92279C18.406 9.93467 18.4178 9.95249 18.406 9.92279C18.9464 9.84559 19.4749 9.72682 20.0094 9.69713C21.69 9.61993 23.1568 10.1841 24.3207 11.3896C25.8172 12.9336 26.3398 14.8043 25.7816 16.8827C25.1937 19.074 23.7328 20.4577 21.5296 21.01C18.8217 21.6929 15.8643 20.1133 14.8844 17.4944C14.5994 16.7343 14.4806 15.9444 14.4865 15.1427C14.5222 12.0844 15.0566 9.13297 16.369 6.34781C17.3014 4.38216 18.6197 2.72532 20.4251 1.48417C20.9298 1.13973 21.4346 0.789362 21.9394 0.444929C22.0403 0.379605 22.1591 0.343974 22.266 0.290527C22.3016 0.338035 22.3254 0.355851 22.3491 0.379605Z" fill="white"/>
</svg>
