<svg width="117" height="99" viewBox="0 0 117 99" fill="none" xmlns="http://www.w3.org/2000/svg">
<path d="M31.2383 3.21588C31.3315 3.0029 31.398 2.78992 31.5045 2.59026C32.037 1.51205 32.9421 1.01954 34.1268 0.99292C35.0453 0.99292 35.9637 0.99292 36.8955 0.99292C52.0968 0.99292 67.3115 0.99292 82.5128 0.99292C82.9122 0.99292 83.3381 1.00623 83.7241 1.09941C84.8157 1.35232 85.6143 2.31072 85.7341 3.44217C85.7607 3.64184 85.7607 3.82819 85.7607 4.02786C85.7607 15.329 85.7607 26.6302 85.7607 37.9314C85.7607 39.4222 85.0686 40.4738 83.8306 40.8332C83.4845 40.9397 83.0985 40.9796 82.7258 40.9796C66.5794 40.9929 50.433 40.9796 34.2865 40.9929C32.7025 40.9929 31.7308 40.2342 31.2383 38.77C31.2383 26.923 31.2383 15.0628 31.2383 3.21588ZM33.0486 24.3939C33.2616 24.1943 33.3947 24.0744 33.5145 23.9546C35.6576 21.8116 37.8007 19.6685 39.9571 17.5254C41.3681 16.1277 42.9255 16.1277 44.3365 17.5387C47.1052 20.2941 49.8606 23.0628 52.6293 25.8182C52.7624 25.9513 52.9088 26.0711 53.1351 26.2841C53.2682 26.0977 53.3747 25.9247 53.5078 25.7916C58.3664 20.933 63.225 16.0745 68.0835 11.2292C68.3631 10.9497 68.6559 10.6834 68.9887 10.4971C70.1468 9.83152 71.4113 10.0844 72.4629 11.136C76.1235 14.7833 79.7707 18.4305 83.418 22.0911C83.5644 22.2375 83.631 22.4505 83.7374 22.6368C83.8173 22.5836 83.8839 22.517 83.9637 22.4638C83.9637 22.2774 83.9637 22.0911 83.9637 21.9047C83.9637 16.0079 83.9637 10.1244 83.9637 4.22753C83.9637 3.10939 83.6975 2.84317 82.5927 2.84317C66.5528 2.84317 50.4995 2.84317 34.4596 2.84317C33.3414 2.84317 33.0752 3.10939 33.0752 4.22753C33.0752 10.5104 33.0752 16.7933 33.0752 23.0761C33.0486 23.4488 33.0486 23.8615 33.0486 24.3939ZM42.6592 38.943C42.7258 39.0229 42.7924 39.1027 42.8456 39.1693C42.9521 39.1693 43.0586 39.1693 43.1651 39.1693C56.3298 39.1693 69.4945 39.1693 82.6726 39.1693C83.6443 39.1693 83.9504 38.8631 83.9504 37.8914C83.9504 33.8315 83.9504 29.7583 83.9637 25.6984C83.9637 25.3124 83.8573 25.0462 83.5777 24.7666C79.4646 20.6801 75.3647 16.567 71.2516 12.4671C70.4795 11.6951 70.1335 11.6951 69.3481 12.4938C60.6293 21.2259 51.8972 29.9447 43.1784 38.6635C43.0453 38.7966 42.8323 38.8498 42.6592 38.943ZM51.7907 27.6152C51.6576 27.4422 51.631 27.3889 51.6043 27.3623C48.7025 24.4605 45.814 21.572 42.9122 18.6701C42.3664 18.1244 41.9005 18.1643 41.3148 18.75C38.6659 21.3989 36.017 24.0345 33.3814 26.6967C33.2083 26.8698 33.0752 27.1759 33.0752 27.4289C33.0619 30.9164 33.0619 34.4172 33.0619 37.9047C33.0619 38.8764 33.3681 39.1826 34.3398 39.1826C36.0569 39.1826 37.7874 39.1693 39.5045 39.1959C39.9305 39.1959 40.2233 39.0761 40.5295 38.7833C44.1368 35.1626 47.7441 31.5553 51.3647 27.948C51.4712 27.8016 51.631 27.7217 51.7907 27.6152Z" fill="#848198"/>
<path d="M59.4054 12.8132C59.4054 15.8082 56.9296 18.2708 53.9345 18.2575C50.9395 18.2442 48.477 15.755 48.4903 12.7866C48.5036 9.8182 51.0061 7.35564 53.9878 7.36895C56.9562 7.38226 59.4054 9.85813 59.4054 12.8132ZM57.5818 12.7999C57.5685 10.8165 55.9445 9.17927 53.9612 9.17927C51.9911 9.17927 50.3405 10.8165 50.3272 12.7999C50.3139 14.7833 51.9911 16.4472 53.9878 16.4338C55.9845 16.4205 57.5818 14.7966 57.5818 12.7999Z" fill="#848198"/>
<path d="M8.35731 69.4809C8.79998 69.4809 9.19465 69.4063 9.54131 69.2569C9.89331 69.1076 10.1893 68.8996 10.4293 68.6329C10.6746 68.3663 10.8613 68.0463 10.9893 67.6729C11.1173 67.2943 11.1813 66.8756 11.1813 66.4169V59.4729H13.0453V66.4169C13.0453 67.0943 12.936 67.7209 12.7173 68.2969C12.504 68.8729 12.1946 69.3716 11.7893 69.7929C11.384 70.2089 10.8906 70.5369 10.3093 70.7769C9.73331 71.0116 9.08265 71.1289 8.35731 71.1289C7.63198 71.1289 6.97865 71.0116 6.39731 70.7769C5.82131 70.5369 5.33065 70.2089 4.92531 69.7929C4.51998 69.3716 4.20798 68.8729 3.98931 68.2969C3.77598 67.7209 3.66931 67.0943 3.66931 66.4169V59.4729H5.54131V66.4089C5.54131 66.8676 5.60531 67.2863 5.73331 67.6649C5.86131 68.0383 6.04531 68.3609 6.28531 68.6329C6.52531 68.8996 6.81865 69.1076 7.16531 69.2569C7.51731 69.4063 7.91465 69.4809 8.35731 69.4809ZM16.7914 68.9449C17.0314 69.2543 17.2928 69.4729 17.5754 69.6009C17.8634 69.7236 18.1808 69.7849 18.5274 69.7849C19.1994 69.7849 19.7221 69.5396 20.0954 69.0489C20.4741 68.5583 20.6634 67.8276 20.6634 66.8569C20.6634 66.3556 20.6208 65.9289 20.5354 65.5769C20.4501 65.2196 20.3274 64.9289 20.1674 64.7049C20.0074 64.4809 19.8128 64.3183 19.5834 64.2169C19.3541 64.1156 19.0954 64.0649 18.8074 64.0649C18.3701 64.0649 17.9914 64.1609 17.6714 64.3529C17.3568 64.5396 17.0634 64.8089 16.7914 65.1609V68.9449ZM16.7034 64.0169C17.0448 63.6169 17.4314 63.2943 17.8634 63.0489C18.3008 62.8036 18.8074 62.6809 19.3834 62.6809C19.8421 62.6809 20.2581 62.7743 20.6314 62.9609C21.0048 63.1423 21.3248 63.4089 21.5914 63.7609C21.8581 64.1129 22.0634 64.5503 22.2074 65.0729C22.3568 65.5903 22.4314 66.1849 22.4314 66.8569C22.4314 67.4596 22.3488 68.0223 22.1834 68.5449C22.0234 69.0623 21.7914 69.5129 21.4874 69.8969C21.1834 70.2756 20.8154 70.5743 20.3834 70.7929C19.9514 71.0063 19.4634 71.1129 18.9194 71.1129C18.4394 71.1129 18.0314 71.0356 17.6954 70.8809C17.3648 70.7263 17.0634 70.5129 16.7914 70.2409V73.7049H15.0714V62.8329H16.1114C16.3461 62.8329 16.4954 62.9423 16.5594 63.1609L16.7034 64.0169ZM25.8547 59.1529V70.9929H24.1347V59.1529H25.8547ZM31.5057 62.7049C32.1084 62.7049 32.6524 62.8036 33.1377 63.0009C33.6284 63.1983 34.0444 63.4783 34.3857 63.8409C34.7324 64.2036 34.999 64.6436 35.1857 65.1609C35.3724 65.6783 35.4657 66.2596 35.4657 66.9049C35.4657 67.5503 35.3724 68.1316 35.1857 68.6489C34.999 69.1663 34.7324 69.6089 34.3857 69.9769C34.0444 70.3396 33.6284 70.6196 33.1377 70.8169C32.6524 71.0143 32.1084 71.1129 31.5057 71.1129C30.8977 71.1129 30.3484 71.0143 29.8577 70.8169C29.3724 70.6196 28.9564 70.3396 28.6097 69.9769C28.263 69.6089 27.9964 69.1663 27.8097 68.6489C27.623 68.1316 27.5297 67.5503 27.5297 66.9049C27.5297 66.2596 27.623 65.6783 27.8097 65.1609C27.9964 64.6436 28.263 64.2036 28.6097 63.8409C28.9564 63.4783 29.3724 63.1983 29.8577 63.0009C30.3484 62.8036 30.8977 62.7049 31.5057 62.7049ZM31.5057 69.7689C32.2417 69.7689 32.7884 69.5236 33.1457 69.0329C33.5084 68.5369 33.6897 67.8303 33.6897 66.9129C33.6897 65.9956 33.5084 65.2889 33.1457 64.7929C32.7884 64.2916 32.2417 64.0409 31.5057 64.0409C30.759 64.0409 30.2044 64.2916 29.8417 64.7929C29.479 65.2889 29.2977 65.9956 29.2977 66.9129C29.2977 67.8303 29.479 68.5369 29.8417 69.0329C30.2044 69.5236 30.759 69.7689 31.5057 69.7689ZM41.4783 67.4249C40.865 67.4463 40.3476 67.4969 39.9263 67.5769C39.505 67.6516 39.1636 67.7503 38.9023 67.8729C38.641 67.9903 38.4516 68.1316 38.3343 68.2969C38.2223 68.4623 38.1663 68.6436 38.1663 68.8409C38.1663 69.0329 38.1956 69.1983 38.2543 69.3369C38.3183 69.4703 38.4036 69.5823 38.5103 69.6729C38.6223 69.7583 38.7503 69.8223 38.8943 69.8649C39.0436 69.9023 39.2063 69.9209 39.3823 69.9209C39.8303 69.9209 40.2143 69.8383 40.5343 69.6729C40.8596 69.5023 41.1743 69.2569 41.4783 68.9369V67.4249ZM36.9183 63.9689C37.841 63.1103 38.9396 62.6809 40.2143 62.6809C40.6836 62.6809 41.0996 62.7583 41.4623 62.9129C41.8303 63.0623 42.137 63.2756 42.3823 63.5529C42.633 63.8303 42.8223 64.1609 42.9503 64.5449C43.0836 64.9236 43.1503 65.3449 43.1503 65.8089V70.9929H42.3823C42.217 70.9929 42.0916 70.9689 42.0063 70.9209C41.921 70.8676 41.849 70.7636 41.7903 70.6089L41.6223 69.9449C41.4143 70.1316 41.209 70.2996 41.0063 70.4489C40.8036 70.5929 40.593 70.7156 40.3743 70.8169C40.161 70.9183 39.929 70.9929 39.6783 71.0409C39.433 71.0943 39.161 71.1209 38.8623 71.1209C38.5316 71.1209 38.2223 71.0756 37.9343 70.9849C37.6516 70.8943 37.4063 70.7583 37.1983 70.5769C36.9903 70.3903 36.825 70.1609 36.7023 69.8889C36.585 69.6169 36.5263 69.2969 36.5263 68.9289C36.5263 68.6143 36.609 68.3076 36.7743 68.0089C36.945 67.7103 37.2223 67.4436 37.6063 67.2089C37.9956 66.9689 38.505 66.7716 39.1343 66.6169C39.769 66.4623 40.5503 66.3743 41.4783 66.3529V65.8089C41.4783 65.2223 41.353 64.7849 41.1023 64.4969C40.8516 64.2089 40.4836 64.0649 39.9983 64.0649C39.6676 64.0649 39.3903 64.1076 39.1663 64.1929C38.9423 64.2729 38.7476 64.3609 38.5823 64.4569C38.417 64.5529 38.2703 64.6436 38.1423 64.7289C38.0143 64.8089 37.8783 64.8489 37.7343 64.8489C37.617 64.8489 37.5156 64.8196 37.4303 64.7609C37.3503 64.6969 37.2836 64.6196 37.2303 64.5289L36.9183 63.9689ZM50.3732 64.8409C50.1332 64.5316 49.8692 64.3156 49.5812 64.1929C49.2932 64.0703 48.9812 64.0089 48.6452 64.0089C47.9732 64.0089 47.4479 64.2569 47.0692 64.7529C46.6905 65.2436 46.5012 65.9716 46.5012 66.9369C46.5012 67.4383 46.5439 67.8676 46.6292 68.2249C46.7145 68.5769 46.8372 68.8649 46.9972 69.0889C47.1572 69.3129 47.3519 69.4756 47.5812 69.5769C47.8105 69.6783 48.0692 69.7289 48.3572 69.7289C48.7945 69.7289 49.1705 69.6356 49.4852 69.4489C49.8052 69.2569 50.1012 68.9876 50.3732 68.6409V64.8409ZM52.0932 59.1529V70.9929H51.0532C50.8239 70.9929 50.6772 70.8836 50.6132 70.6649L50.4612 69.7769C50.1199 70.1769 49.7305 70.4996 49.2932 70.7449C48.8612 70.9903 48.3572 71.1129 47.7812 71.1129C47.3225 71.1129 46.9065 71.0223 46.5332 70.8409C46.1599 70.6543 45.8399 70.3849 45.5732 70.0329C45.3065 69.6809 45.0985 69.2463 44.9492 68.7289C44.8052 68.2063 44.7332 67.6089 44.7332 66.9369C44.7332 66.3289 44.8132 65.7663 44.9732 65.2489C45.1385 64.7316 45.3732 64.2836 45.6772 63.9049C45.9812 63.5209 46.3492 63.2223 46.7812 63.0089C47.2185 62.7903 47.7065 62.6809 48.2452 62.6809C48.7252 62.6809 49.1332 62.7583 49.4692 62.9129C49.8052 63.0623 50.1065 63.2729 50.3732 63.5449V59.1529H52.0932ZM62.5408 67.4249C61.9275 67.4463 61.4101 67.4969 60.9888 67.5769C60.5675 67.6516 60.2261 67.7503 59.9648 67.8729C59.7035 67.9903 59.5141 68.1316 59.3968 68.2969C59.2848 68.4623 59.2288 68.6436 59.2288 68.8409C59.2288 69.0329 59.2581 69.1983 59.3168 69.3369C59.3808 69.4703 59.4661 69.5823 59.5728 69.6729C59.6848 69.7583 59.8128 69.8223 59.9568 69.8649C60.1061 69.9023 60.2688 69.9209 60.4448 69.9209C60.8928 69.9209 61.2768 69.8383 61.5968 69.6729C61.9221 69.5023 62.2368 69.2569 62.5408 68.9369V67.4249ZM57.9808 63.9689C58.9035 63.1103 60.0021 62.6809 61.2768 62.6809C61.7461 62.6809 62.1621 62.7583 62.5248 62.9129C62.8928 63.0623 63.1995 63.2756 63.4448 63.5529C63.6955 63.8303 63.8848 64.1609 64.0128 64.5449C64.1461 64.9236 64.2128 65.3449 64.2128 65.8089V70.9929H63.4448C63.2795 70.9929 63.1541 70.9689 63.0688 70.9209C62.9835 70.8676 62.9115 70.7636 62.8528 70.6089L62.6848 69.9449C62.4768 70.1316 62.2715 70.2996 62.0688 70.4489C61.8661 70.5929 61.6555 70.7156 61.4368 70.8169C61.2235 70.9183 60.9915 70.9929 60.7408 71.0409C60.4955 71.0943 60.2235 71.1209 59.9248 71.1209C59.5941 71.1209 59.2848 71.0756 58.9968 70.9849C58.7141 70.8943 58.4688 70.7583 58.2608 70.5769C58.0528 70.3903 57.8875 70.1609 57.7648 69.8889C57.6475 69.6169 57.5888 69.2969 57.5888 68.9289C57.5888 68.6143 57.6715 68.3076 57.8368 68.0089C58.0075 67.7103 58.2848 67.4436 58.6688 67.2089C59.0581 66.9689 59.5675 66.7716 60.1968 66.6169C60.8315 66.4623 61.6128 66.3743 62.5408 66.3529V65.8089C62.5408 65.2223 62.4155 64.7849 62.1648 64.4969C61.9141 64.2089 61.5461 64.0649 61.0608 64.0649C60.7301 64.0649 60.4528 64.1076 60.2288 64.1929C60.0048 64.2729 59.8101 64.3609 59.6448 64.4569C59.4795 64.5529 59.3328 64.6436 59.2048 64.7289C59.0768 64.8089 58.9408 64.8489 58.7968 64.8489C58.6795 64.8489 58.5781 64.8196 58.4928 64.7609C58.4128 64.6969 58.3461 64.6196 58.2928 64.5289L57.9808 63.9689ZM71.9321 68.9449C72.1721 69.2543 72.4334 69.4729 72.7161 69.6009C73.0041 69.7236 73.3214 69.7849 73.6681 69.7849C74.3401 69.7849 74.8627 69.5396 75.2361 69.0489C75.6147 68.5583 75.8041 67.8276 75.8041 66.8569C75.8041 66.3556 75.7614 65.9289 75.6761 65.5769C75.5907 65.2196 75.4681 64.9289 75.3081 64.7049C75.1481 64.4809 74.9534 64.3183 74.7241 64.2169C74.4947 64.1156 74.2361 64.0649 73.9481 64.0649C73.5107 64.0649 73.1321 64.1609 72.8121 64.3529C72.4974 64.5396 72.2041 64.8089 71.9321 65.1609V68.9449ZM71.8441 64.0169C72.1854 63.6169 72.5721 63.2943 73.0041 63.0489C73.4414 62.8036 73.9481 62.6809 74.5241 62.6809C74.9827 62.6809 75.3987 62.7743 75.7721 62.9609C76.1454 63.1423 76.4654 63.4089 76.7321 63.7609C76.9987 64.1129 77.2041 64.5503 77.3481 65.0729C77.4974 65.5903 77.5721 66.1849 77.5721 66.8569C77.5721 67.4596 77.4894 68.0223 77.3241 68.5449C77.1641 69.0623 76.9321 69.5129 76.6281 69.8969C76.3241 70.2756 75.9561 70.5743 75.5241 70.7929C75.0921 71.0063 74.6041 71.1129 74.0601 71.1129C73.5801 71.1129 73.1721 71.0356 72.8361 70.8809C72.5054 70.7263 72.2041 70.5129 71.9321 70.2409V73.7049H70.2121V62.8329H71.2521C71.4867 62.8329 71.6361 62.9423 71.7001 63.1609L71.8441 64.0169ZM80.8673 64.3449C81.1233 63.8276 81.4326 63.4223 81.7953 63.1289C82.158 62.8303 82.5926 62.6809 83.0993 62.6809C83.2753 62.6809 83.4406 62.7023 83.5953 62.7449C83.75 62.7823 83.8886 62.8409 84.0113 62.9209L83.8913 64.2169C83.87 64.3076 83.8353 64.3716 83.7873 64.4089C83.7446 64.4409 83.686 64.4569 83.6113 64.4569C83.5313 64.4569 83.4166 64.4436 83.2673 64.4169C83.118 64.3849 82.9606 64.3689 82.7953 64.3689C82.5553 64.3689 82.342 64.4036 82.1553 64.4729C81.974 64.5423 81.8086 64.6436 81.6593 64.7769C81.5153 64.9103 81.3873 65.0729 81.2753 65.2649C81.1633 65.4569 81.0593 65.6756 80.9633 65.9209V70.9929H79.2433V62.8329H80.2433C80.4246 62.8329 80.55 62.8676 80.6193 62.9369C80.6886 63.0009 80.7366 63.1156 80.7633 63.2809L80.8673 64.3449ZM88.3963 62.7049C88.999 62.7049 89.543 62.8036 90.0283 63.0009C90.519 63.1983 90.935 63.4783 91.2763 63.8409C91.623 64.2036 91.8896 64.6436 92.0763 65.1609C92.263 65.6783 92.3563 66.2596 92.3563 66.9049C92.3563 67.5503 92.263 68.1316 92.0763 68.6489C91.8896 69.1663 91.623 69.6089 91.2763 69.9769C90.935 70.3396 90.519 70.6196 90.0283 70.8169C89.543 71.0143 88.999 71.1129 88.3963 71.1129C87.7883 71.1129 87.239 71.0143 86.7483 70.8169C86.263 70.6196 85.847 70.3396 85.5003 69.9769C85.1536 69.6089 84.887 69.1663 84.7003 68.6489C84.5136 68.1316 84.4203 67.5503 84.4203 66.9049C84.4203 66.2596 84.5136 65.6783 84.7003 65.1609C84.887 64.6436 85.1536 64.2036 85.5003 63.8409C85.847 63.4783 86.263 63.1983 86.7483 63.0009C87.239 62.8036 87.7883 62.7049 88.3963 62.7049ZM88.3963 69.7689C89.1323 69.7689 89.679 69.5236 90.0363 69.0329C90.399 68.5369 90.5803 67.8303 90.5803 66.9129C90.5803 65.9956 90.399 65.2889 90.0363 64.7929C89.679 64.2916 89.1323 64.0409 88.3963 64.0409C87.6496 64.0409 87.095 64.2916 86.7323 64.7929C86.3696 65.2889 86.1883 65.9956 86.1883 66.9129C86.1883 67.8303 86.3696 68.5369 86.7323 69.0329C87.095 69.5236 87.6496 69.7689 88.3963 69.7689ZM94.3814 70.9929V64.2009L93.5814 64.0889C93.4481 64.0623 93.3388 64.0143 93.2534 63.9449C93.1734 63.8756 93.1334 63.7769 93.1334 63.6489V62.9449H94.3814V62.6009C94.3814 62.0996 94.4614 61.6383 94.6214 61.2169C94.7814 60.7956 95.0241 60.4303 95.3494 60.1209C95.6748 59.8116 96.0801 59.5716 96.5654 59.4009C97.0561 59.2249 97.6294 59.1369 98.2854 59.1369C98.4988 59.1369 98.7174 59.1503 98.9414 59.1769C99.1708 59.2036 99.3654 59.2436 99.5254 59.2969L99.4694 60.1929C99.4588 60.3049 99.3921 60.3689 99.2694 60.3849C99.1468 60.3956 98.9841 60.4009 98.7814 60.4009C98.2854 60.4009 97.8641 60.4489 97.5174 60.5449C97.1708 60.6356 96.8881 60.7769 96.6694 60.9689C96.4508 61.1556 96.2908 61.3903 96.1894 61.6729C96.0934 61.9503 96.0454 62.2756 96.0454 62.6489V62.9449H101.045V70.9929H99.3254V64.1849H96.1014V70.9929H94.3814ZM104.98 59.1529V70.9929H103.26V59.1529H104.98ZM112.455 65.9929C112.455 65.7049 112.412 65.4383 112.327 65.1929C112.247 64.9423 112.127 64.7263 111.967 64.5449C111.807 64.3583 111.607 64.2143 111.367 64.1129C111.132 64.0063 110.86 63.9529 110.551 63.9529C109.927 63.9529 109.436 64.1316 109.079 64.4889C108.721 64.8463 108.495 65.3476 108.399 65.9929H112.455ZM108.351 67.0489C108.372 67.5129 108.444 67.9156 108.567 68.2569C108.689 68.5929 108.852 68.8729 109.055 69.0969C109.263 69.3209 109.508 69.4889 109.791 69.6009C110.079 69.7076 110.399 69.7609 110.751 69.7609C111.087 69.7609 111.377 69.7236 111.623 69.6489C111.868 69.5689 112.081 69.4836 112.263 69.3929C112.444 69.2969 112.599 69.2116 112.727 69.1369C112.855 69.0569 112.972 69.0169 113.079 69.0169C113.217 69.0169 113.324 69.0703 113.399 69.1769L113.887 69.8089C113.684 70.0489 113.455 70.2516 113.199 70.4169C112.943 70.5823 112.671 70.7183 112.383 70.8249C112.095 70.9263 111.799 70.9983 111.495 71.0409C111.191 71.0889 110.895 71.1129 110.607 71.1129C110.041 71.1129 109.516 71.0196 109.031 70.8329C108.551 70.6409 108.132 70.3609 107.775 69.9929C107.423 69.6249 107.145 69.1689 106.943 68.6249C106.745 68.0809 106.647 67.4543 106.647 66.7449C106.647 66.1796 106.735 65.6516 106.911 65.1609C107.092 64.6703 107.348 64.2436 107.679 63.8809C108.015 63.5183 108.42 63.2329 108.895 63.0249C109.375 62.8116 109.916 62.7049 110.519 62.7049C111.02 62.7049 111.484 62.7876 111.911 62.9529C112.337 63.1129 112.705 63.3503 113.015 63.6649C113.324 63.9796 113.564 64.3663 113.735 64.8249C113.911 65.2783 113.999 65.7956 113.999 66.3769C113.999 66.6436 113.969 66.8223 113.911 66.9129C113.852 67.0036 113.745 67.0489 113.591 67.0489H108.351ZM40.3149 91.9449C40.5549 92.2543 40.8162 92.4729 41.0989 92.6009C41.3869 92.7236 41.7042 92.7849 42.0509 92.7849C42.7229 92.7849 43.2455 92.5396 43.6189 92.0489C43.9975 91.5583 44.1869 90.8276 44.1869 89.8569C44.1869 89.3556 44.1442 88.9289 44.0589 88.5769C43.9735 88.2196 43.8509 87.9289 43.6909 87.7049C43.5309 87.4809 43.3362 87.3183 43.1069 87.2169C42.8775 87.1156 42.6189 87.0649 42.3309 87.0649C41.8935 87.0649 41.5149 87.1609 41.1949 87.3529C40.8802 87.5396 40.5869 87.8089 40.3149 88.1609V91.9449ZM40.2269 87.0169C40.5682 86.6169 40.9549 86.2943 41.3869 86.0489C41.8242 85.8036 42.3309 85.6809 42.9069 85.6809C43.3655 85.6809 43.7815 85.7743 44.1549 85.9609C44.5282 86.1423 44.8482 86.4089 45.1149 86.7609C45.3815 87.1129 45.5869 87.5503 45.7309 88.0729C45.8802 88.5903 45.9549 89.1849 45.9549 89.8569C45.9549 90.4596 45.8722 91.0223 45.7069 91.5449C45.5469 92.0623 45.3149 92.5129 45.0109 92.8969C44.7069 93.2756 44.3389 93.5743 43.9069 93.7929C43.4749 94.0063 42.9869 94.1129 42.4429 94.1129C41.9629 94.1129 41.5549 94.0356 41.2189 93.8809C40.8882 93.7263 40.5869 93.5129 40.3149 93.2409V96.7049H38.5949V85.8329H39.6349C39.8695 85.8329 40.0189 85.9423 40.0829 86.1609L40.2269 87.0169ZM49.3461 86.8009C49.6821 86.4703 50.0501 86.2063 50.4501 86.0089C50.8501 85.8063 51.3168 85.7049 51.8501 85.7049C52.2981 85.7049 52.6901 85.7796 53.0261 85.9289C53.3675 86.0783 53.6528 86.2889 53.8821 86.5609C54.1168 86.8329 54.2928 87.1609 54.4101 87.5449C54.5275 87.9236 54.5861 88.3423 54.5861 88.8009V93.9929H52.8741V88.8009C52.8741 88.2516 52.7461 87.8249 52.4901 87.5209C52.2395 87.2169 51.8555 87.0649 51.3381 87.0649C50.9541 87.0649 50.5968 87.1529 50.2661 87.3289C49.9408 87.5049 49.6341 87.7449 49.3461 88.0489V93.9929H47.6261V82.1529H49.3461V86.8009ZM60.1229 85.7049C60.7255 85.7049 61.2695 85.8036 61.7549 86.0009C62.2455 86.1983 62.6615 86.4783 63.0029 86.8409C63.3495 87.2036 63.6162 87.6436 63.8029 88.1609C63.9895 88.6783 64.0829 89.2596 64.0829 89.9049C64.0829 90.5503 63.9895 91.1316 63.8029 91.6489C63.6162 92.1663 63.3495 92.6089 63.0029 92.9769C62.6615 93.3396 62.2455 93.6196 61.7549 93.8169C61.2695 94.0143 60.7255 94.1129 60.1229 94.1129C59.5149 94.1129 58.9655 94.0143 58.4749 93.8169C57.9895 93.6196 57.5735 93.3396 57.2269 92.9769C56.8802 92.6089 56.6135 92.1663 56.4269 91.6489C56.2402 91.1316 56.1469 90.5503 56.1469 89.9049C56.1469 89.2596 56.2402 88.6783 56.4269 88.1609C56.6135 87.6436 56.8802 87.2036 57.2269 86.8409C57.5735 86.4783 57.9895 86.1983 58.4749 86.0009C58.9655 85.8036 59.5149 85.7049 60.1229 85.7049ZM60.1229 92.7689C60.8589 92.7689 61.4055 92.5236 61.7629 92.0329C62.1255 91.5369 62.3069 90.8303 62.3069 89.9129C62.3069 88.9956 62.1255 88.2889 61.7629 87.7929C61.4055 87.2916 60.8589 87.0409 60.1229 87.0409C59.3762 87.0409 58.8215 87.2916 58.4589 87.7929C58.0962 88.2889 57.9149 88.9956 57.9149 89.9129C57.9149 90.8303 58.0962 91.5369 58.4589 92.0329C58.8215 92.5236 59.3762 92.7689 60.1229 92.7689ZM68.1953 94.1209C67.5179 94.1209 66.9953 93.9316 66.6273 93.5529C66.2646 93.1689 66.0833 92.6303 66.0833 91.9369V87.1849H65.1873C65.0913 87.1849 65.0086 87.1556 64.9393 87.0969C64.8699 87.0329 64.8353 86.9396 64.8353 86.8169V86.1209L66.1553 85.9289L66.5312 83.5689C66.5579 83.4783 66.6033 83.4063 66.6673 83.3529C66.7313 83.2943 66.8166 83.2649 66.9233 83.2649H67.8033V85.9449H70.0673V87.1849H67.8033V91.8169C67.8033 92.1103 67.8753 92.3343 68.0193 92.4889C68.1633 92.6436 68.3553 92.7209 68.5953 92.7209C68.7286 92.7209 68.8433 92.7049 68.9392 92.6729C69.0353 92.6356 69.1179 92.5983 69.1873 92.5609C69.2566 92.5183 69.3153 92.4809 69.3633 92.4489C69.4166 92.4116 69.4673 92.3929 69.5153 92.3929C69.6113 92.3929 69.6886 92.4463 69.7473 92.5529L70.2593 93.3929C69.9926 93.6276 69.6779 93.8089 69.3153 93.9369C68.9526 94.0596 68.5793 94.1209 68.1953 94.1209ZM74.8885 85.7049C75.4912 85.7049 76.0352 85.8036 76.5205 86.0009C77.0112 86.1983 77.4272 86.4783 77.7685 86.8409C78.1152 87.2036 78.3818 87.6436 78.5685 88.1609C78.7552 88.6783 78.8485 89.2596 78.8485 89.9049C78.8485 90.5503 78.7552 91.1316 78.5685 91.6489C78.3818 92.1663 78.1152 92.6089 77.7685 92.9769C77.4272 93.3396 77.0112 93.6196 76.5205 93.8169C76.0352 94.0143 75.4912 94.1129 74.8885 94.1129C74.2805 94.1129 73.7312 94.0143 73.2405 93.8169C72.7552 93.6196 72.3392 93.3396 71.9925 92.9769C71.6458 92.6089 71.3792 92.1663 71.1925 91.6489C71.0058 91.1316 70.9125 90.5503 70.9125 89.9049C70.9125 89.2596 71.0058 88.6783 71.1925 88.1609C71.3792 87.6436 71.6458 87.2036 71.9925 86.8409C72.3392 86.4783 72.7552 86.1983 73.2405 86.0009C73.7312 85.8036 74.2805 85.7049 74.8885 85.7049ZM74.8885 92.7689C75.6245 92.7689 76.1712 92.5236 76.5285 92.0329C76.8912 91.5369 77.0725 90.8303 77.0725 89.9129C77.0725 88.9956 76.8912 88.2889 76.5285 87.7929C76.1712 87.2916 75.6245 87.0409 74.8885 87.0409C74.1418 87.0409 73.5872 87.2916 73.2245 87.7929C72.8618 88.2889 72.6805 88.9956 72.6805 89.9129C72.6805 90.8303 72.8618 91.5369 73.2245 92.0329C73.5872 92.5236 74.1418 92.7689 74.8885 92.7689Z" fill="#848198"/>
</svg>
