<svg width="21" height="20" viewBox="0 0 21 20" fill="none" xmlns="http://www.w3.org/2000/svg">
<path d="M20.5 8.07292V10.5729C20.4479 10.7135 20.4635 10.8542 20.4479 10.9948C20.2083 13.1458 19.3854 15.0469 17.9323 16.6562C17.8021 16.8021 17.6667 16.9427 17.526 17.0833C17.4792 17.1302 17.4323 17.1771 17.3854 17.2188C16.6823 17.901 15.9062 18.4635 15.0625 18.8906L15.0573 18.8958C15.0573 18.8958 15.0573 18.8958 15.0521 18.8958V18.9062C14.6042 19.1094 14.1406 19.3177 13.6562 19.4792C13.6458 19.4844 13.6406 19.4844 13.6302 19.4896C13.1771 19.6354 12.7031 19.7552 12.2135 19.8438C11.8385 19.9115 11.4583 19.9479 11.0781 20H9.90625C9.85417 20 9.80729 19.9635 9.75521 19.9635C8.19271 19.8542 6.72917 19.401 5.39062 18.5833C3.80729 17.6146 2.59896 16.3802 1.76562 14.8906C1.23437 13.9375 0.869792 12.8802 0.651042 11.7135C0.578125 11.3333 0.552083 10.9531 0.5 10.5729V9.40104C0.5 9.26042 0.526042 9.11979 0.541667 8.97917C0.697917 7.55208 1.125 6.23437 1.80208 5.03646C2.16667 4.43229 2.5625 3.85937 3.04688 3.32292C4.58854 1.61458 6.49479 0.552083 8.76562 0.151042C9.14062 0.0833333 9.52083 0.0520833 9.90104 0H10.9948C11.0729 0 11.1458 0.015625 11.224 0.0260417C11.5417 0.0625 11.8594 0.0833333 12.1719 0.135417C13.4844 0.354167 14.7031 0.822917 15.8229 1.53646C16.0781 1.69792 16.3229 1.88021 16.5833 2.05729C15.8021 3.07292 15.0312 4.07292 14.2656 5.06771C13.0417 4.14583 11.6458 3.75521 10.2917 3.80729C10.224 3.80729 10.151 3.8125 10.0833 3.81771C10.0781 3.81771 10.0729 3.81771 10.0677 3.81771C9.85417 3.83333 9.64062 3.85938 9.43229 3.89583C9.40104 3.90104 9.36979 3.90625 9.33854 3.91146C9.30208 3.91667 9.27083 3.92708 9.23438 3.93229C9.19271 3.94271 9.15625 3.94792 9.11458 3.95833C9.06771 3.96875 9.02604 3.97917 8.97917 3.98958C8.89062 4.01042 8.80208 4.03646 8.71354 4.0625C8.68229 4.07292 8.64583 4.07292 8.61458 4.08333C8.48438 4.125 8.35417 4.16146 8.22917 4.21354C8.16667 4.26562 8.10417 4.27083 8.04167 4.29688C8.01042 4.3125 7.97917 4.32812 7.94792 4.33854C7.86458 4.375 7.78125 4.41667 7.70312 4.45833C7.66667 4.47396 7.63021 4.49479 7.59896 4.51042C7.56771 4.52604 7.53125 4.54688 7.5 4.5625C7.01042 4.82812 6.5625 5.16146 6.16667 5.55208C5.73958 5.97396 5.38021 6.44792 5.09375 6.96354C4.10417 8.73438 3.98958 10.9375 5.02604 12.8906C5.03646 12.9062 5.04688 12.9271 5.05208 12.9427C6.0625 14.7969 7.9375 16.0156 10.0625 16.1562C10.0677 16.1562 10.0729 16.1562 10.0781 16.1562C10.1458 16.1615 10.2187 16.1667 10.2865 16.1667C10.2917 16.1667 10.2969 16.1667 10.3021 16.1667C10.7865 16.1823 11.2812 16.1354 11.7812 16.0312C12.2656 15.9323 12.7188 15.7656 13.1354 15.5677C13.1354 15.5677 13.1354 15.5677 13.1406 15.5677C13.5365 15.3802 13.901 15.151 14.2344 14.8906C14.2812 14.8542 14.3281 14.8177 14.375 14.7812C14.4375 14.7292 14.5 14.6771 14.5573 14.625C14.6562 14.5417 14.75 14.4531 14.8385 14.3646C14.8542 14.349 14.8698 14.3333 14.8854 14.3177C14.9167 14.2865 14.9479 14.25 14.9792 14.2188C15.0208 14.1771 15.0625 14.1302 15.099 14.0885C15.1198 14.0625 15.1406 14.0417 15.1615 14.0156C15.2031 13.9688 15.2396 13.9219 15.2812 13.875C15.3594 13.7812 15.4323 13.6823 15.5052 13.5885C15.5208 13.5677 15.5365 13.5469 15.5521 13.526C15.5938 13.4635 15.6406 13.401 15.6823 13.3385C15.6823 13.3385 15.6823 13.3333 15.6875 13.3333C15.7031 13.3125 15.7135 13.2917 15.7292 13.2708C15.7448 13.2448 15.7656 13.2135 15.7812 13.1875C15.7969 13.1615 15.8073 13.1406 15.8229 13.1146C15.8594 13.0573 15.8906 13 15.9219 12.9427C15.9323 12.9219 15.9427 12.901 15.9531 12.8854C15.974 12.8437 16 12.8021 16.0208 12.7552C16.0312 12.7344 16.0417 12.7135 16.0521 12.6927C16.0625 12.6719 16.0729 12.651 16.0833 12.6302C16.1042 12.5885 16.1198 12.5469 16.1406 12.5C16.151 12.4792 16.1562 12.4583 16.1667 12.4375C16.1823 12.3958 16.2031 12.3542 16.2187 12.3125C16.2344 12.276 16.2448 12.2396 16.2604 12.2031C16.276 12.1667 16.2865 12.1302 16.2969 12.0938C16.3229 12.0208 16.3438 11.9479 16.3594 11.8802H10.5V8.07812H20.2344C20.3177 8.07292 20.3958 8.07292 20.5 8.07292Z" fill="#FFD500"/>
<path d="M16.584 2.05729C15.8027 3.07292 15.0319 4.07292 14.2663 5.06771C13.0423 4.14583 11.6465 3.75521 10.2923 3.80729C10.2246 3.80729 10.1517 3.8125 10.084 3.81771V0H10.9954C11.0736 0 11.1465 0.015625 11.2246 0.0260417C11.5423 0.0625 11.86 0.0833333 12.1725 0.135417C13.485 0.354167 14.7038 0.822917 15.8236 1.53646C16.084 1.69792 16.3288 1.88021 16.584 2.05729Z" fill="#D93F21"/>
<path d="M20.4993 8.07292V10.5729C20.4473 10.7135 20.4629 10.8542 20.4473 10.9948C20.2077 13.1458 19.3848 15.0469 17.9316 16.6563C17.8014 16.8021 17.666 16.9427 17.5254 17.0833C17.4785 17.1302 17.4316 17.1771 17.3848 17.2188C16.6764 17.8958 15.9004 18.4531 15.0566 18.8854H15.0514L15.0566 18.8906C15.0566 18.8906 15.0566 18.8906 15.0514 18.8906V18.901C14.6035 19.1042 14.14 19.3125 13.6556 19.474H10.291V16.1667C10.2962 16.1667 10.3014 16.1667 10.3066 16.1667C10.791 16.1823 11.2858 16.1354 11.7858 16.0313C12.2702 15.9323 12.7233 15.7656 13.14 15.5677C13.14 15.5677 13.14 15.5677 13.1452 15.5677C13.5983 15.349 14.0098 15.0833 14.3796 14.7813C14.4421 14.7292 14.5046 14.6771 14.5618 14.625C14.6608 14.5417 14.7546 14.4531 14.8431 14.3646C14.8587 14.349 14.8743 14.3333 14.89 14.3177C14.9212 14.2865 14.9525 14.25 14.9837 14.2188C15.0254 14.1771 15.0671 14.1302 15.1035 14.0885C15.1243 14.0625 15.1452 14.0417 15.166 14.0156C15.2077 13.9688 15.2441 13.9219 15.2858 13.875C15.3639 13.7813 15.4368 13.6823 15.5098 13.5885C15.5254 13.5677 15.541 13.5469 15.5566 13.526C15.5983 13.4635 15.6452 13.401 15.6868 13.3385C15.6868 13.3385 15.6868 13.3333 15.6921 13.3333C15.7077 13.3125 15.7181 13.2917 15.7337 13.2708C15.7493 13.2448 15.7702 13.2135 15.7858 13.1875C15.8014 13.1615 15.8118 13.1406 15.8275 13.1146C15.8639 13.0573 15.8952 13 15.9264 12.9427C15.9368 12.9219 15.9473 12.901 15.9577 12.8854C15.9785 12.8438 16.0046 12.8021 16.0254 12.7552C16.0358 12.7344 16.0462 12.7135 16.0566 12.6927C16.0671 12.6719 16.0775 12.651 16.0879 12.6302C16.1087 12.5885 16.1243 12.5469 16.1452 12.5C16.1556 12.4792 16.1608 12.4583 16.1712 12.4375C16.1868 12.3958 16.2077 12.3542 16.2233 12.3125C16.2389 12.276 16.2493 12.2396 16.265 12.2031C16.2806 12.1667 16.291 12.1302 16.3014 12.0938C16.3275 12.0208 16.3483 11.9479 16.3639 11.8802H10.4993V8.07813H20.2337C20.3171 8.07292 20.3952 8.07292 20.4993 8.07292Z" fill="#167EE6"/>
<path d="M15.0618 18.8906L15.0566 18.8958C15.0566 18.8958 15.0566 18.8958 15.0514 18.8958V18.9063C14.6035 19.1094 14.14 19.3177 13.6556 19.4792C13.6452 19.4844 13.64 19.4844 13.6296 19.4896C13.1764 19.6354 12.7025 19.7552 12.2129 19.8438C11.8379 19.9115 11.4577 19.9479 11.0775 20H10.0879V16.1615C10.1556 16.1667 10.2285 16.1719 10.2962 16.1719C10.3014 16.1719 10.3066 16.1719 10.3118 16.1719C10.7962 16.1875 11.291 16.1406 11.791 16.0365C12.2754 15.9375 12.7285 15.7708 13.1452 15.5729C13.1452 15.5729 13.1452 15.5729 13.1504 15.5729H13.1608L15.0618 18.8854V18.8906Z" fill="#0F993E"/>
<path d="M10.291 16.1719V20H9.90039C9.84831 20 9.80143 19.9635 9.74935 19.9635C8.18685 19.8542 6.72331 19.401 5.38477 18.5833C3.80143 17.6146 2.5931 16.3802 1.75977 14.8906L5.05143 12.9479C6.06185 14.8021 7.93685 16.0208 10.0618 16.1615C10.0671 16.1615 10.0723 16.1615 10.0775 16.1615C10.1504 16.1667 10.2233 16.1667 10.291 16.1719Z" fill="#12B347"/>
<path d="M10.2923 0V3.80729C10.2246 3.80729 10.1517 3.8125 10.084 3.81771C9.82878 3.83333 9.58398 3.86979 9.33919 3.91667C9.30273 3.92187 9.27148 3.93229 9.23503 3.9375C9.19336 3.94792 9.1569 3.95312 9.11523 3.96354C9.06836 3.97396 9.02669 3.98437 8.97982 3.99479C8.89128 4.01562 8.80273 4.04167 8.71419 4.06771C8.68294 4.07812 8.64648 4.07812 8.61523 4.08854C8.48503 4.13021 8.35482 4.16667 8.22982 4.21875C8.16732 4.27083 8.10482 4.27604 8.04232 4.30208C8.01107 4.31771 7.97982 4.33333 7.94857 4.34375C7.86523 4.38021 7.7819 4.42187 7.70378 4.46354C7.66732 4.47917 7.63086 4.5 7.59961 4.51562C7.56836 4.53125 7.5319 4.55208 7.50065 4.56771C7.01628 4.83333 6.56836 5.16667 6.17773 5.55729C5.75065 5.97917 5.38607 6.45833 5.09961 6.96875H5.0944L1.80273 5.03646C2.16732 4.43229 2.56315 3.85937 3.04753 3.32292C4.58919 1.61458 6.49544 0.552083 8.76628 0.151042C9.14128 0.0833333 9.52148 0.0520833 9.90169 0H10.2923V0Z" fill="#FF4B26"/>
</svg>
