<svg width="18" height="15" viewBox="0 0 18 15" fill="none" xmlns="http://www.w3.org/2000/svg">
<path d="M8.79493 3.25259L2.52077 8.42497C2.52077 8.43227 2.51894 8.44301 2.51527 8.45765C2.51168 8.47217 2.50977 8.48272 2.50977 8.49021V13.7278C2.50977 13.9169 2.5789 14.0808 2.71714 14.2188C2.85534 14.3569 3.019 14.4264 3.20814 14.4264H7.3981V10.2362H10.1918V14.4265H14.3817C14.5708 14.4265 14.7347 14.3572 14.8727 14.2188C15.011 14.0809 15.0803 13.9169 15.0803 13.7278V8.49021C15.0803 8.46116 15.0763 8.43923 15.0693 8.42497L8.79493 3.25259Z" fill="#090416"/>
<path d="M17.4708 7.24648L15.0813 5.26054V0.808513C15.0813 0.706736 15.0485 0.623036 14.9829 0.557529C14.9178 0.492098 14.8341 0.459382 14.7321 0.459382H12.637C12.5351 0.459382 12.4515 0.492098 12.3859 0.557529C12.3205 0.623036 12.2879 0.706774 12.2879 0.808513V2.93628L9.62546 0.710214C9.39293 0.521068 9.11645 0.426514 8.79633 0.426514C8.47625 0.426514 8.19981 0.521068 7.96705 0.710214L0.121252 7.24648C0.0485213 7.30457 0.00865882 7.38277 0.00124432 7.48099C-0.00613196 7.57914 0.0192837 7.66486 0.0775678 7.73755L0.754083 8.54505C0.812368 8.61048 0.888653 8.65049 0.983245 8.66513C1.07058 8.67247 1.15791 8.64694 1.24524 8.58877L8.7961 2.29248L16.347 8.58873C16.4054 8.63949 16.4816 8.66483 16.5762 8.66483H16.609C16.7034 8.65046 16.7796 8.61017 16.8382 8.54489L17.5147 7.73752C17.5729 7.66467 17.5984 7.5791 17.5908 7.48084C17.5834 7.38288 17.5434 7.30469 17.4708 7.24648Z" fill="#090416"/>
</svg>
