<svg id="basic" xmlns="http://www.w3.org/2000/svg" viewBox="0 0 121.46 125.72"><defs><style>.cls-1{fill:#fff;stroke:#848198;stroke-miterlimit:10;stroke-width:0.5px;}.cls-2{fill:#f2eff9;}.cls-3{fill:#848198;}</style></defs><title>img-uploadphoto</title><rect class="cls-1" x="0.25" y="0.25" width="120.96" height="125.22" rx="1.12" ry="1.12"/><rect class="cls-2" x="12.35" y="13.57" width="96.77" height="98.58" rx="1.11" ry="1.11"/><path class="cls-3" d="M1663.75,1452.73c.09-.21.16-.43.27-.63a2.77,2.77,0,0,1,2.62-1.6H1715a5.26,5.26,0,0,1,1.21.11,2.67,2.67,0,0,1,2,2.34,4.33,4.33,0,0,1,0,.59v33.9a2.75,2.75,0,0,1-1.93,2.9,3.82,3.82,0,0,1-1.1.15h-48.44a2.94,2.94,0,0,1-3-2.22Zm1.81,21.18.47-.44,6.44-6.43a2.8,2.8,0,0,1,4.38,0l8.29,8.28c.13.13.28.25.51.47a4,4,0,0,1,.37-.49l14.58-14.56a4.28,4.28,0,0,1,.91-.73,2.75,2.75,0,0,1,3.47.64q5.49,5.47,11,11a2.45,2.45,0,0,1,.32.55l.23-.17v-18.24c0-1.12-.27-1.38-1.37-1.38H1667c-1.12,0-1.38.27-1.38,1.38v18.85a5,5,0,0,0-.09,1.26Zm9.61,14.55.19.23h39.83c1,0,1.28-.31,1.28-1.28v-12.19a1.19,1.19,0,0,0-.39-.93q-6.17-6.13-12.33-12.3c-.77-.77-1.12-.77-1.9,0q-13.08,13.1-26.17,26.17a2.15,2.15,0,0,1-.51.29Zm9.13-11.33-.19-.25-8.69-8.69c-.55-.55-1-.51-1.6.08-2.65,2.65-5.3,5.28-7.93,7.95a1.14,1.14,0,0,0-.31.73v10.48c0,1,.31,1.28,1.28,1.28H1672a1.35,1.35,0,0,0,1-.41q5.41-5.43,10.84-10.84a1.53,1.53,0,0,1,.44-.33Z" transform="translate(-1630.27 -1407.64)"/><path class="cls-3" d="M1691.92,1462.36a5.46,5.46,0,1,1-5.48-5.44h.06A5.47,5.47,0,0,1,1691.92,1462.36Zm-1.82,0a3.63,3.63,0,1,0-3.63,3.63h0a3.65,3.65,0,0,0,3.58-3.63Z" transform="translate(-1630.27 -1407.64)"/></svg>