<svg width="21" height="21" viewBox="0 0 21 21" fill="none" xmlns="http://www.w3.org/2000/svg">
<path d="M0.75 18.5566C0.75 12.8927 0.75 7.22881 0.75 1.56492C0.881832 1.21337 1.1162 0.979002 1.49216 0.900879C6.02328 0.900879 10.5544 0.900879 15.0855 0.900879C15.5884 1.07177 15.7642 1.43797 15.7544 1.95553C15.7349 3.35686 15.7495 4.7533 15.7495 6.15462C15.7495 6.36458 15.7544 6.56965 15.7447 6.7796C15.7154 7.27764 15.2808 7.62431 14.7925 7.55107C14.3482 7.48271 14.0797 7.14092 14.0797 6.62336C14.0797 5.35387 14.0797 4.08438 14.0797 2.81488C14.0797 2.73676 14.0797 2.66352 14.0797 2.58051C11.8483 2.58051 9.63645 2.58051 7.42948 2.58051C7.47343 2.62446 7.52714 2.64399 7.58085 2.65864C8.37184 2.89789 9.16283 3.13226 9.95382 3.37151C10.5837 3.56193 10.7497 3.78653 10.7497 4.43593C10.7497 8.72779 10.7497 13.0148 10.7497 17.3066C10.7497 17.3896 10.7497 17.4678 10.7497 17.5508C11.8727 17.5508 12.9713 17.5508 14.0797 17.5508C14.0797 17.458 14.0797 17.3799 14.0797 17.3017C14.0797 16.0567 14.0797 14.8165 14.0797 13.5714C14.0797 13.4542 14.0846 13.337 14.109 13.2198C14.1773 12.8585 14.4947 12.59 14.8609 12.5704C15.3785 12.546 15.7447 12.9122 15.7495 13.4591C15.7495 15.0557 15.7495 16.6475 15.7495 18.2441C15.7495 18.9081 15.4371 19.2255 14.773 19.2255C13.5084 19.2255 12.2487 19.2255 10.9841 19.2255C10.9108 19.2255 10.8327 19.2255 10.7497 19.2255C10.7497 19.5331 10.7595 19.8065 10.7497 20.0751C10.735 20.4852 10.4567 20.8173 10.0564 20.8759C9.89523 20.9003 9.71945 20.8661 9.55344 20.8368C6.91192 20.3143 4.27528 19.7773 1.63376 19.2597C1.19921 19.1816 0.881832 18.996 0.75 18.5566Z" fill="#848198"/>
<path d="M17.8584 9.18185C17.5264 8.84983 17.1895 8.52269 16.8623 8.19067C16.5108 7.82936 16.4913 7.34109 16.8086 6.9993C17.0967 6.6917 17.5703 6.64775 17.9072 6.90165C17.9756 6.95048 18.0342 7.00907 18.0977 7.07254C18.8691 7.83912 19.6357 8.6057 20.4023 9.37716C20.8661 9.84101 20.8661 10.2951 20.3974 10.7638C19.6162 11.5451 18.8349 12.3312 18.0488 13.1075C17.6387 13.5177 17.0625 13.4884 16.7403 13.0538C16.4913 12.7169 16.5303 12.2823 16.8477 11.9552C17.1358 11.6574 17.4336 11.3644 17.7315 11.0714C17.7754 11.0275 17.8193 10.9787 17.8877 10.9006C17.7803 10.9006 17.7119 10.9006 17.6436 10.9006C16.1934 10.9006 14.7433 10.9006 13.2931 10.9006C12.7609 10.9006 12.3947 10.5246 12.4191 10.0168C12.4338 9.65059 12.7023 9.32833 13.0636 9.25998C13.1759 9.23556 13.298 9.23068 13.4103 9.23068C14.8165 9.23068 16.2227 9.23068 17.624 9.23068C17.6924 9.23068 17.7608 9.23068 17.8291 9.23068C17.8486 9.21603 17.8535 9.1965 17.8584 9.18185Z" fill="#848198"/>
</svg>
