<svg id="basic" xmlns="http://www.w3.org/2000/svg" viewBox="0 0 251.15 85.86"><defs><style>.cls-1{fill:#fff;}</style></defs><title>img-logo</title><path class="cls-1" d="M1546,1464a9.18,9.18,0,0,0-2.24,6.34h-4.87V1448h5.63a24.48,24.48,0,0,0,8.86,13.67,26.09,26.09,0,0,0,16.35,5.2q12,0,16-6.62a9.77,9.77,0,0,0,1.31-5,14,14,0,0,0-4.21-10.23q-4.21-4.27-14.44-8a99.45,99.45,0,0,1-15.42-6.89,34,34,0,0,1-8.2-6.56q-5.3-6.07-5.3-15.91t8.42-16q8.48-6.13,20.56-6.13a37,37,0,0,1,11.59,1.59,22,22,0,0,1,7.33,3.72,8,8,0,0,0,1.42-4.21h5.09V1407h-5.25q-.82-8.09-6.78-12.47a22.25,22.25,0,0,0-13.73-4.43q-7.77,0-12.69,3.23a9.85,9.85,0,0,0-4.92,8.7,12.7,12.7,0,0,0,4.59,9.68q4.59,4.16,18.76,10.39,13.29,5.41,18.54,11a19.08,19.08,0,0,1,5.25,13.67q0,11.48-8.09,18.1t-19.52,6.56a41.16,41.16,0,0,1-19.91-4.59A21.67,21.67,0,0,1,1546,1464Z" transform="translate(-1538.92 -1385.57)"/><path class="cls-1" d="M1608.12,1443.81h3.16V1414h-3.36v-1.52h8.44v15.33a9.35,9.35,0,0,1,6.72-2.75,8.27,8.27,0,0,1,4.63,1.33,6.1,6.1,0,0,1,2.58,5.47v12h3.16v1.52H1622v-1.52h3.16v-12.38a6.73,6.73,0,0,0-.49-3.11,2.75,2.75,0,0,0-1.07-1.13,4,4,0,0,0-1.82-.31,6.36,6.36,0,0,0-2.73.74,8.13,8.13,0,0,0-2.73,2.23v14h3.16v1.52h-11.41Zm34.41-23.22a2.58,2.58,0,0,1-1.89.78,2.68,2.68,0,0,1-1.91-.76,2.29,2.29,0,0,1-.8-1.64,3,3,0,0,1,.78-2.23,2.6,2.6,0,0,1,1.91-.78,2.48,2.48,0,0,1,2.48,1.64,2.59,2.59,0,0,1,.21,1.05A2.63,2.63,0,0,1,1642.54,1420.59Zm-7.66,23.22H1638v-16.93h-2.89v-1.52h8.07v18.46h3.16v1.52h-11.5Zm13.32,0h3V1414h-3v-1.52h8.07v22.81l9.88-8.4h-3.63v-1.5h8.71v1.5h-2.56l-6.31,5.27,8.13,11.68h2.68v1.52h-11.23v-1.52h2.75l-5.9-8.69-2.52,2.11v6.58h2.89v1.52h-11Zm26.64,0H1678V1414h-3.36v-1.52h8.44v15.33a9.35,9.35,0,0,1,6.72-2.75,8.27,8.27,0,0,1,4.63,1.33,6.1,6.1,0,0,1,2.58,5.47v12h3.16v1.52h-11.41v-1.52h3.16v-12.38a6.73,6.73,0,0,0-.49-3.11,2.75,2.75,0,0,0-1.07-1.13,4,4,0,0,0-1.82-.31,6.36,6.36,0,0,0-2.73.74,8.13,8.13,0,0,0-2.73,2.23v14h3.16v1.52h-11.41Zm40.25-16.91a6.75,6.75,0,0,0-5.27,2.68v14.24H1713v1.52h-11.43v-1.52h3.16v-17h-3.18v-1.48h8.26v2.23a8.79,8.79,0,0,1,6-2.56,7.82,7.82,0,0,1,5.31,1.78,5.25,5.25,0,0,1,1.23,1.6,9.3,9.3,0,0,1,7-3.38,8.27,8.27,0,0,1,4.63,1.33,6.09,6.09,0,0,1,2.58,5.47v12h3.18v1.52h-11.62v-1.52h3.36v-12.58a5.93,5.93,0,0,0-.51-2.93,2.87,2.87,0,0,0-1.11-1.09,3.09,3.09,0,0,0-1.46-.31,5.94,5.94,0,0,0-3.12.86A7.33,7.33,0,0,0,1723,1430a9.22,9.22,0,0,1,.14,1.5v12.27h3.18v1.52h-11.43v-1.52H1718V1431.1a6.08,6.08,0,0,0-.45-2.81,2.58,2.58,0,0,0-1-1.07A3,3,0,0,0,1715.09,1426.9Zm40.14,16.23a7.65,7.65,0,0,1-6.07,2.6,8,8,0,0,1-5-1.6,5.09,5.09,0,0,1-2.09-4.22,4.79,4.79,0,0,1,2.05-4.1,9.92,9.92,0,0,1,10.68.12v-4.65a6.07,6.07,0,0,0-.59-3.2,3.18,3.18,0,0,0-1.39-1.17,4.41,4.41,0,0,0-1.74-.33,8,8,0,0,0-2.54.35,3.63,3.63,0,0,0-1.39.68,2.28,2.28,0,0,1,1.39,1.37,2.53,2.53,0,0,1,.16.94,2.54,2.54,0,0,1-2.34,2.5,3,3,0,0,1-2.13-.72,2.31,2.31,0,0,1-.76-1.74,3.29,3.29,0,0,1,.37-1.66,4.26,4.26,0,0,1,1-1.19,8.19,8.19,0,0,1,3-1.52,12.22,12.22,0,0,1,3.4-.53q4.4,0,6.5,1.78a6.13,6.13,0,0,1,2.11,5v10.41q0,1.62.8,1.62a2,2,0,0,0,1.54-1l1,.84a4.81,4.81,0,0,1-4.34,2,4.13,4.13,0,0,1-2.15-.66A3.52,3.52,0,0,1,1755.23,1443.13Zm-.35-5.47a5.11,5.11,0,0,0-3.63-1.62,4.18,4.18,0,0,0-3,.94,3.87,3.87,0,0,0-1,3q0,3,2.13,3.67a4,4,0,0,0,1.23.2,5.21,5.21,0,0,0,3.4-1.37,6.48,6.48,0,0,0,.84-.88Zm23.89-10.78a7.56,7.56,0,0,0-5.76,2.95v14h3.55v1.52h-11.8v-1.52h3.16v-16.93h-3.18v-1.52H1773v2.5a9.37,9.37,0,0,1,6.7-2.83,8.17,8.17,0,0,1,4.61,1.33,6.08,6.08,0,0,1,2.6,5.47v12h3.16v1.52h-11.8v-1.52h3.55v-12.38a6.72,6.72,0,0,0-.49-3.11,2.75,2.75,0,0,0-1.07-1.13A3.19,3.19,0,0,0,1778.77,1426.88Z" transform="translate(-1538.92 -1385.57)"/></svg>