<svg id="Layer_1" data-name="Layer 1" xmlns="http://www.w3.org/2000/svg" viewBox="0 0 515.5 36.99"><defs><style>.cls-1{fill:#848198;}.cls-2{fill:none;stroke:#848198;stroke-linecap:round;}</style></defs><title>img-linesdecor</title><path class="cls-1" d="M470.15,51.78c.5-.5,1.21-.29,1.82-.44a1.7,1.7,0,0,0,.91-.59,2.11,2.11,0,0,0,.41-.71,7.38,7.38,0,0,0,8.94,5.15,4.85,4.85,0,0,0,3.26-5.27,4.52,4.52,0,0,0-1.5-2.44c-.23-.65.27-1.29.27-1.94s-.44-1.18-.56-1.79c0-.12-.21-.24-.32-.15a2.39,2.39,0,0,0-1,1.65,2.25,2.25,0,0,0-.94-.5,4.33,4.33,0,0,0-1.38-.12c-.21,0-.59-.06-.71.15-.32.5.65,1.35,1,1.56a3.36,3.36,0,0,0,.56.29,3.22,3.22,0,0,0-1.09.47c-1.71,1.12-1.47,4.06.68,4.5.41.09.62-.5.21-.62a1.6,1.6,0,0,1-.71-.35,1.44,1.44,0,0,1,.65-2.15,2.85,2.85,0,0,1,4.15,2.27c.06,1.56-1.53,3-2.91,3.5a5.33,5.33,0,0,1-4.8-.47c-2.82-1.77-3.41-5.21-2.29-8.15,5.5-7.06,16-3.27,22.92-.44.47.21.94.38,1.41.59l-.41.09c-1.12.41-1.5,1.68-2.41,2.35a.19.19,0,0,0,.12.32c.94-.06,2,.41,2.91,0s1.12-1.15,1.65-1.77h.38c2.74,1.29,5.41,2.71,8.21,3.91.53.24,1.06.47,1.62.68-.94,0-1.79.71-2.76.47-.15,0-.32.12-.24.26a2.64,2.64,0,0,0,2,1.5,1.77,1.77,0,0,0,1.09-.26,2.42,2.42,0,0,0,0,1,.18.18,0,0,0,.32.06c.41-.5,1.41-.21,2-.65a2.8,2.8,0,0,0,.77-1.38,16.25,16.25,0,0,0,5.12.68c-2.82,2.5-5.44,5.18-8.44,7.47a14.46,14.46,0,0,1-5.09,2.62.18.18,0,0,0-.12,0,6.19,6.19,0,0,1-4.5-.85,5.5,5.5,0,0,1-1.79-1.88,2,2,0,0,1,1.26-3.06,1.9,1.9,0,0,1,1.62,1c.12.18.41.06.32-.15A2.35,2.35,0,0,0,499.72,57a2.85,2.85,0,0,0-1.79,2.68.15.15,0,0,0-.12-.06,18.87,18.87,0,0,0-2.21-1,.23.23,0,0,0-.3.21,3,3,0,0,0,1,2.56,1.69,1.69,0,0,0,1.91,0,4,4,0,0,0,2.15,2.06,1.81,1.81,0,0,0-1.5.88,2.23,2.23,0,0,0,.41,2.82,1.62,1.62,0,0,0,2.44-.38,1.32,1.32,0,0,0-.88-2c-.29,0-.32.35-.09.47a.91.91,0,0,1,.53.62,1,1,0,1,1-1.68-1,2.72,2.72,0,0,1,2.06-.94l.5.06h.06a10.42,10.42,0,0,0,4.53-.32,16.18,16.18,0,0,0,4.56-2.41c0,.06,0,.12-.06.18a4,4,0,0,0,.77,2.74c.12.18.41.09.35-.12-.09-.47.71-1.12.94-1.44a3.4,3.4,0,0,0,.53-1.09,1.78,1.78,0,0,0-.47-1.77.18.18,0,0,0-.12,0A137.45,137.45,0,0,1,524.75,51a2.65,2.65,0,0,0,.24,2c0,.09.21.12.24,0,.5-1,3.09-2.06,2.18-3.41,0,0,0-.06,0-.09l.09-.09a31.44,31.44,0,0,1,10.21-3.56c2.5-.35,5.35-.15,7.24,1.71,1,1,1.65,2.74,3.27,2.74A2,2,0,0,0,550,48.1a3.23,3.23,0,0,0-1.53-2.38c-1.82-1.74-4.44-2.27-7-2.24.06-1.56-2-2-2.62-3.24a.2.2,0,0,0-.35,0,3.51,3.51,0,0,0,.5,3.35s0,0,.06,0-.27,0-.38.06a36,36,0,0,0-6.8,1.74,14.88,14.88,0,0,1-6.71-3c-2.09-1.68-5.09-5.44-3.44-8.24l.12-.21a2.92,2.92,0,0,0,2.12.62c1-.12,1.71-1,2.68-1.27a.21.21,0,0,0,0-.41c-.82-.09-1.32-.82-2.09-1.06a5.32,5.32,0,0,1,6,1.09,3.62,3.62,0,0,1,0,5,2.89,2.89,0,0,1-4.88-1.59c-.06-.32-.53-.24-.5.12a3,3,0,0,0,.24.91c.59,2.21,3.06,3.82,5.27,2.56a3.91,3.91,0,0,0,.88-.68,2.64,2.64,0,0,0,0,.68c.21,1,1.09,1.53,1.85,2.06.12.09.35,0,.29-.21-.29-.88.47-1.77.21-2.74a2.08,2.08,0,0,0-.38-.77,4.81,4.81,0,0,0,2.24-.12.18.18,0,0,0,.06-.32c-.74-.38-.88-1.29-1.44-1.85a1.73,1.73,0,0,0-.71-.41c-.32-.06-.68,0-1-.06A5.57,5.57,0,0,0,531.52,33a5.4,5.4,0,0,0-2.62-1.91,7.49,7.49,0,0,0-6.53.26,5.79,5.79,0,0,0-2.88,5.53,14.05,14.05,0,0,0-3.12-1.12.18.18,0,0,0-.23.18,3.34,3.34,0,0,0,2.35,3.12c-.94.41-1.38,1.56-2.38,2a.21.21,0,0,0,.09.38c1.27.09,4.06.71,4.15-1.32,1.62,3.32,5.12,5.12,8.41,6.62a37.49,37.49,0,0,0-5,2.82l-.65.44c-3.82.62-7.56-.53-11.15-1.82.59-1.38-1.41-2.12-1.82-3.21-.06-.18-.29-.12-.35,0a2.39,2.39,0,0,0-.18,2.18c0,.06.09.12.12.18-3.06-1.21-6.06-2.5-9.12-3.68-1.88-.71-3.85-1.38-5.86-1.94,0-.56.27-1.15.09-1.71s-1-1.09-1-1.85c0-.15-.15-.29-.29-.21a2.24,2.24,0,0,0-.5,3.32,26.31,26.31,0,0,0-12.92-.21A9.55,9.55,0,0,0,473.65,46a7.35,7.35,0,0,0-.41,1.21c-.59-.79-2.32-1-3-1.44a.21.21,0,0,0-.32.18,2.81,2.81,0,0,0,1.65,2.74A2,2,0,0,0,471,49a3.75,3.75,0,0,0-1.23,2.65C469.8,51.78,470,51.9,470.15,51.78Zm13.27-7.62c.06.21.18.38.26.62a2.4,2.4,0,0,1,.12,1.5c0,.18-.06.35-.09.5a5.64,5.64,0,0,1,0-1.41c0-.24-.29-.26-.38-.06a2.21,2.21,0,0,0-.15,1.24A1.78,1.78,0,0,1,483.42,44.16Zm-.71,2.44c0,.06.09.12.12.18l-.23-.09h0Zm-2.47-.91c-.09-.09-.5-.53-.44-.65s1.32,0,1.56,0a1.91,1.91,0,0,1,1,.59,1.69,1.69,0,0,0,.06.38L482.3,46a2.71,2.71,0,0,0-1.71-.44.12.12,0,0,0,0,.24,16.91,16.91,0,0,1,1.62.5l.15.09a2.48,2.48,0,0,1-1.38-.12A2.6,2.6,0,0,1,480.24,45.69ZM496.6,60.25a6.37,6.37,0,0,1,1.21.56L498,61a1.29,1.29,0,0,1-1.59-.21,2.7,2.7,0,0,1-.65-1.68l1.18.53a4.88,4.88,0,0,1,1,.47v0a2.69,2.69,0,0,0,.09.47,2.37,2.37,0,0,0-1.38-.62C496.45,59.93,496.42,60.19,496.6,60.25Zm16.15,2.47a4.61,4.61,0,0,0-.59.74,3.25,3.25,0,0,1-.5-1.79A2.07,2.07,0,0,1,513.1,60a2.66,2.66,0,0,1-.18.94,6.47,6.47,0,0,1-.85,1.15c-.06.09,0,.24.12.18.88-.29,1.21-1.44,1.15-2.35C514,60.84,513.37,62,512.75,62.72Zm33.21-18,.77.35-.65-.26a0,0,0,0,1,0,0H546A.09.09,0,0,1,546,44.75Zm-7-1.85a3.38,3.38,0,0,1-.18-2.09c.79.91,2.32,1.44,2.44,2.68h-.32a3.24,3.24,0,0,1-.41-.26c-.38-.29-.62-.71-1-1-.09-.06-.23,0-.21.09a2.35,2.35,0,0,0,.91,1.09l.18.12-.8.06A1.88,1.88,0,0,1,539,42.9ZM532.46,38l.09.26s-.09,0-.15,0l-.09,0A.55.55,0,0,0,532.46,38Zm.18-.24h0s0,0-.06,0v0S532.61,37.72,532.64,37.75Zm.85,2.71a3.54,3.54,0,0,0-.21,1c-1-.71-2.15-2.06-.71-2.91a0,0,0,0,0,0,0,6.45,6.45,0,0,1,.06,1.53c0,.12.15.15.21,0A2.63,2.63,0,0,0,532.7,38,2.1,2.1,0,0,1,533.49,40.45Zm.79-4A15,15,0,0,0,535.37,38a3.46,3.46,0,0,1-1.65.06,1.44,1.44,0,0,1-1-.82,5.15,5.15,0,0,0,.06-.68,1.94,1.94,0,0,0,1.47.65c.09,0,.12-.15,0-.21a7.32,7.32,0,0,1-1.18-.59,3.46,3.46,0,0,1-.32-.35v-.15C533.26,36,533.87,35.92,534.29,36.42Zm-9.12-3.77a6.73,6.73,0,0,0,.85.53c-.38.21-.74.5-1.15.71a2.46,2.46,0,0,1-2.65-.12,2.75,2.75,0,0,1,2.15-.35c.21,0,.29-.21.09-.29a2.28,2.28,0,0,0-1.91.06,7.68,7.68,0,0,1,.94-.76A1.94,1.94,0,0,1,525.17,32.66ZM520,39.19c0,.06,0,.12.06.15a.76.76,0,0,0-.18-.15Zm-3.44-2.91c.71.26,1.44.5,2.15.74a2.93,2.93,0,0,1,.85.44,6.82,6.82,0,0,0,.21,1.06,3.75,3.75,0,0,0-2.15-1.21c-.18,0-.24.26-.06.32a5.45,5.45,0,0,1,2.12,1.24A3,3,0,0,1,516.57,36.28ZM520,40c.06,1.65-1.85,1.35-3.12,1.18a3.29,3.29,0,0,0,.68-.62c.5-.56,1.59-1.85,2.35-1a1.23,1.23,0,0,0-1.06.71c-.06.12.12.24.21.15a5.59,5.59,0,0,1,.65-.53,1.23,1.23,0,0,1,.47-.12C520.13,39.78,520,39.81,520,40Zm6.53,10a10.46,10.46,0,0,0-.94,1.38.16.16,0,0,0,.27.18c.44-.53.82-1.09,1.23-1.65h.15c.27.76-.62,1.41-1.18,1.82a3.29,3.29,0,0,0-1,.94,1.83,1.83,0,0,1,.47-2.12l.91-.53S526.55,50,526.58,50Zm-14.12,1.88-.32.15a.29.29,0,0,0,0-.26Zm-3.74.44a2.24,2.24,0,0,0,1-.15l.82-.26c.12,0,1.56-.26,1.29.15a.06.06,0,0,0,0,.09,4.2,4.2,0,0,1-.65.15,10.39,10.39,0,0,1-1.35,0,.14.14,0,0,0-.06.26,2.81,2.81,0,0,0,1.71,0C510.72,53.72,509.43,53.22,508.72,52.28Zm3.85,1.5a3.08,3.08,0,0,0-1.06.21,1.61,1.61,0,0,1,2.06-1.65,1.57,1.57,0,0,0-.88,1c0,.12.09.21.21.12.35-.24.59-.65.94-.88,0,0,.09,0,.12-.06A1.87,1.87,0,0,1,512.57,53.78Zm.09-1.85Zm-2.56-6.44c.59.82,1.91,1.47,1.77,2.5,0,0,0,0-.09,0s-.18,0-.23-.06l-.12-.12a5.11,5.11,0,0,1-.79-1.41c-.09-.15-.32-.06-.29.09a2.66,2.66,0,0,0,.53,1.18,2.57,2.57,0,0,1-.53-.32A1.43,1.43,0,0,1,510.1,45.48Zm-9.44,1a2.92,2.92,0,0,0-2.53.88c-.12.15.09.29.24.21a4.16,4.16,0,0,1,2-.74,6.9,6.9,0,0,1-.79,1c-.74.68-1.74.44-2.68.35a8.8,8.8,0,0,0,.79-1,2.23,2.23,0,0,1,2.47-1,2.33,2.33,0,0,1,.47.24Zm-6.86-6.91c-.06-.15-.32-.09-.29.06a3.64,3.64,0,0,0,.68,1.85,1.78,1.78,0,0,1-.56-3,5.33,5.33,0,0,0,.79,1.27c.38.62.18,1.24.24,1.88h0C494.27,41,494.1,40.25,493.8,39.57Zm-23.39,6.74a5,5,0,0,0,1.18.38c.59.15,1.44.44,1.65,1.06a1.22,1.22,0,0,0,0,.32,2.37,2.37,0,0,0-.56-.38,1.54,1.54,0,0,0-1.24-.18.13.13,0,0,0,0,.24c.32.15.71.09,1.06.24a2.88,2.88,0,0,1,.71.44v.21s0,.06-.06.09h0c0-.12-.06-.24-.18-.24A2.46,2.46,0,0,1,470.41,46.31Zm2.47,2.79a2.92,2.92,0,0,1-.26.38,4.17,4.17,0,0,1-1.21.94.16.16,0,0,0,.09.29c.77-.06,1.3-.79,1.65-1.53v0A1.89,1.89,0,0,1,471.77,51a10.26,10.26,0,0,0-1.47.24C470.62,50,471.47,48.43,472.89,49.1Z" transform="translate(-34.5 -30.5)"/><path class="cls-2" d="M35,49H451" transform="translate(-34.5 -30.5)"/></svg>