<svg width="21" height="17" viewBox="0 0 21 17" fill="none" xmlns="http://www.w3.org/2000/svg">
<path d="M20.9991 6.30699C20.9991 6.42795 20.9991 6.54364 20.9991 6.66459C20.9676 6.77503 20.9308 6.89072 20.8992 7.00116C20.1735 9.49385 19.4425 11.9865 18.7168 14.4845C18.3855 15.6257 17.6756 16.1621 16.4818 16.1621C11.7857 16.1621 7.08425 16.1621 2.3881 16.1621C2.26189 16.1621 2.13042 16.1621 1.97266 16.1621C2.0305 16.1358 2.0568 16.12 2.08835 16.1095C2.94554 15.8991 3.43987 15.3417 3.68178 14.5055C4.42853 11.9129 5.18581 9.33083 5.94308 6.73822C6.24809 5.69697 6.88967 5.21315 7.97825 5.21315C11.4491 5.21315 14.9199 5.21315 18.3855 5.21315C18.8167 5.21315 19.2532 5.20789 19.6844 5.21315C20.2156 5.21841 20.6205 5.43928 20.8677 5.91784C20.9255 6.03879 20.9571 6.17552 20.9991 6.30699Z" fill="#090416"/>
<path d="M0.804688 1.61092C0.836241 1.50574 0.862535 1.39531 0.899347 1.29013C1.13599 0.622258 1.7355 0.175256 2.48226 0.169998C4.09146 0.15948 5.70067 0.15948 7.30987 0.169998C7.96197 0.175256 8.49837 0.459234 8.91382 0.964083C9.16099 1.26384 9.40815 1.55833 9.6448 1.8686C9.86041 2.15258 10.1391 2.27353 10.4967 2.27353C12.5687 2.26828 14.6354 2.26828 16.7074 2.27353C17.5541 2.27353 18.2062 2.73631 18.4008 3.49884C18.4691 3.7723 18.4691 4.0668 18.5007 4.37181C18.3797 4.37181 18.3009 4.37181 18.222 4.37181C14.7827 4.37181 11.3487 4.37181 7.90938 4.37181C6.52105 4.37181 5.52713 5.12383 5.13797 6.45957C4.37544 9.07847 3.60765 11.6974 2.84512 14.3163C2.66632 14.921 2.25613 15.2786 1.70921 15.2997C1.3148 15.3207 1.01504 15.1314 0.857276 14.7685C0.841499 14.7317 0.820464 14.7002 0.804688 14.6686C0.804688 10.3143 0.804688 5.96524 0.804688 1.61092Z" fill="#090416"/>
</svg>
