<svg width="21" height="21" viewBox="0 0 21 21" fill="none" xmlns="http://www.w3.org/2000/svg">
<path d="M15.2402 0.978882H5.99023C2.99023 0.978882 0.615234 3.35388 0.615234 6.35388V15.4789C0.615234 18.6039 2.99023 20.9789 5.99023 20.9789H15.1152C18.1152 20.9789 20.4902 18.6039 20.4902 15.6039V6.35388C20.6152 3.35388 18.2402 0.978882 15.2402 0.978882ZM10.6152 16.4789C7.61523 16.4789 5.11523 13.9789 5.11523 10.9789C5.11523 7.97888 7.61523 5.47888 10.6152 5.47888C13.6152 5.47888 16.1152 7.97888 16.1152 10.9789C16.1152 13.9789 13.6152 16.4789 10.6152 16.4789ZM16.2402 6.85388C15.3652 6.85388 14.6152 6.10388 14.6152 5.22888C14.6152 4.35388 15.3652 3.60388 16.2402 3.60388C17.1152 3.60388 17.8652 4.35388 17.8652 5.22888C17.8652 6.10388 17.1152 6.85388 16.2402 6.85388Z" fill="#090416"/>
<path d="M10.6152 6.72876C8.24023 6.72876 6.36523 8.60376 6.36523 10.9788C6.36523 13.3538 8.24023 15.2288 10.6152 15.2288C12.9902 15.2288 14.8652 13.3538 14.8652 10.9788C14.8652 8.60376 12.9902 6.72876 10.6152 6.72876Z" fill="#090416"/>
<path d="M16.2402 4.72888C15.9902 4.72888 15.7402 4.97888 15.7402 5.22888C15.7402 5.47888 15.9902 5.72888 16.2402 5.72888C16.4902 5.72888 16.7402 5.47888 16.7402 5.22888C16.6152 4.97888 16.4902 4.72888 16.2402 4.72888Z" fill="#090416"/>
</svg>
