<svg width="41" height="41" viewBox="0 0 41 41" fill="none" xmlns="http://www.w3.org/2000/svg">
<path d="M3.43875 3.44261C0.305067 6.69759 0.946426 10.1553 0.946426 20.6596C0.946426 29.3828 -0.575556 38.1275 7.38993 40.1862C9.87727 40.8259 31.9161 40.8259 34.4001 40.1828C37.7166 39.3271 40.4149 36.6371 40.7838 31.9465C40.8353 31.2919 40.8353 10.039 40.7821 9.37102C40.39 4.37474 37.3145 1.49527 33.262 0.912063C32.3331 0.777477 32.1471 0.7376 27.3817 0.729292C10.4788 0.7376 6.77349 -0.0150836 3.43875 3.44261Z" fill="url(#paint0_linear_313_664)"/>
<path d="M20.8801 5.94487C14.847 5.94487 9.11793 5.40819 6.92966 11.0242C6.02578 13.3438 6.15704 16.3562 6.15704 20.6696C6.15704 24.4546 6.03575 28.0119 6.92966 30.3132C9.11294 35.9326 14.8885 35.3942 20.8767 35.3942C26.6539 35.3942 32.6106 35.9957 34.8255 30.3132C35.731 27.9704 35.5981 25.0029 35.5981 20.6696C35.5981 14.9173 35.9154 11.2037 33.1257 8.4156C30.3011 5.59096 26.4811 5.94487 20.8734 5.94487H20.8801ZM19.5608 8.59837C32.1454 8.57843 33.7471 7.17941 32.8632 26.6146C32.5491 33.4884 27.3152 32.7341 20.8817 32.7341C9.15116 32.7341 8.81386 32.3984 8.81386 20.6629C8.81386 8.79111 9.74433 8.60502 19.5608 8.59505V8.59837ZM28.7392 11.0425C27.7639 11.0425 26.973 11.8334 26.973 12.8087C26.973 13.7841 27.7639 14.575 28.7392 14.575C29.7145 14.575 30.5054 13.7841 30.5054 12.8087C30.5054 11.8334 29.7145 11.0425 28.7392 11.0425ZM20.8801 13.1078C16.7046 13.1078 13.32 16.4941 13.32 20.6696C13.32 24.845 16.7046 28.2296 20.8801 28.2296C25.0555 28.2296 28.4385 24.845 28.4385 20.6696C28.4385 16.4941 25.0555 13.1078 20.8801 13.1078ZM20.8801 15.7613C27.3684 15.7613 27.3767 25.5778 20.8801 25.5778C14.3934 25.5778 14.3834 15.7613 20.8801 15.7613Z" fill="white"/>
<defs>
<linearGradient id="paint0_linear_313_664" x1="3.51522" y1="38.0595" x2="40.5769" y2="5.98308" gradientUnits="userSpaceOnUse">
<stop stop-color="#FFDD55"/>
<stop offset="0.5" stop-color="#FF543E"/>
<stop offset="1" stop-color="#C837AB"/>
</linearGradient>
</defs>
</svg>
