<svg width="194" height="81" viewBox="0 0 194 81" fill="none" xmlns="http://www.w3.org/2000/svg">
<path d="M12.4016 66.8713C16.5016 67.1713 20.5016 67.4713 24.6016 66.7713C20.5016 66.0713 16.5016 66.3713 12.4016 66.6713C12.4016 66.7713 12.4016 66.8713 12.4016 66.8713Z" fill="#090416"/>
<path d="M3.70165 41.0713C3.60165 41.0713 3.60165 41.2713 3.70165 41.2713C10.3016 41.7713 17.0017 41.4713 23.6017 41.5713C30.5017 41.6713 37.4016 41.9713 44.2016 41.1713C44.3016 41.1713 44.2016 41.0713 44.2016 41.0713C37.3016 40.2713 30.5017 40.5713 23.6017 40.6713C17.0017 40.8713 10.3016 40.5713 3.70165 41.0713Z" fill="#090416"/>
<path d="M48.3008 40.2713C48.2008 40.1713 48.1008 40.2713 48.1008 40.3713C47.8008 45.3713 55.4008 43.6713 58.3008 43.6713C55.1008 43.0713 50.5008 43.1713 48.3008 40.2713Z" fill="#090416"/>
<path d="M71.3008 40.2713C71.2008 40.1713 71.1008 40.2713 71.1008 40.3713C70.8008 45.3713 78.4008 43.6713 81.3008 43.6713C78.1008 43.0713 73.4008 43.1713 71.3008 40.2713Z" fill="#090416"/>
<path d="M93.8008 40.2713C93.7008 40.1713 93.6008 40.2713 93.6008 40.3713C93.3008 45.3713 100.901 43.6713 103.801 43.6713C100.601 43.0713 95.9008 43.1713 93.8008 40.2713Z" fill="#090416"/>
<path d="M176.801 19.9714C176.801 17.6714 174.901 15.3713 172.401 14.7713L171.701 14.5713L171.501 15.2713C171.201 16.4713 170.601 17.5713 169.601 18.5713C169.601 18.5713 169.601 18.5713 169.501 18.6713L168.501 19.6713L169.901 19.8713C171.701 20.1714 173.601 20.8713 175.301 22.0713L176.001 22.5713L176.301 21.7713C176.701 21.1713 176.801 20.5714 176.801 19.9714ZM171.401 18.6713C172.001 17.9713 172.401 17.1714 172.701 16.3714C174.301 17.0714 175.501 18.6713 175.301 20.2713C174.101 19.5713 172.701 18.9713 171.401 18.6713Z" fill="#090416"/>
<path d="M183 30.8713C184 30.0713 184.5 28.9713 184.5 27.7713C184.5 26.1713 183.5 24.3713 181.9 23.3713C180.6 22.4713 179.1 22.2713 177.9 22.7713L176.9 23.1713L177.7 23.9713C178.5 24.6713 179.1 25.4713 179.6 26.2713C180.4 27.5713 181.2 29.0713 181.7 30.6713L182.1 31.7713L183 30.8713C182.9 30.8713 183 30.8713 183 30.8713ZM180.8 25.4713C180.5 24.9713 180.1 24.4713 179.7 23.9713C180.1 24.0713 180.6 24.2713 181.1 24.5713C182.3 25.3713 183 26.6713 183 27.7713C183 28.1713 182.9 28.6713 182.7 28.9713C182.2 27.6713 181.5 26.4713 180.8 25.4713Z" fill="#090416"/>
<path d="M168.501 60.9714L169.501 61.9714C169.501 61.9714 169.501 61.9713 169.601 62.0713C170.601 63.0713 171.201 64.2713 171.501 65.3713L171.701 66.0714L172.401 65.8713C174.901 65.1713 176.801 62.9714 176.801 60.6714C176.801 60.0714 176.701 59.4713 176.501 58.8713L176.201 58.0714L175.501 58.5714C173.801 59.7714 171.901 60.4714 170.101 60.7714L168.501 60.9714ZM172.701 64.2714C172.401 63.4714 172.001 62.6714 171.401 61.9714C172.701 61.6714 174.001 61.0713 175.301 60.3713C175.501 61.9713 174.401 63.5714 172.701 64.2714Z" fill="#090416"/>
<path d="M120.101 51.3714C120.101 52.8714 120.001 54.4714 119.901 55.9714C119.801 57.1714 119.701 58.3714 119.701 59.5714C119.701 59.9714 119.701 60.3714 119.701 60.7714C119.701 67.2714 121.301 71.8714 124.701 75.2714C128.401 78.9714 133.401 80.8714 138.201 80.1714C141.401 79.7714 144.301 78.3714 146.601 76.3714C148.501 74.6714 150.001 72.2714 151.501 70.0714C152.301 68.7714 153.101 67.5714 154.001 66.4714C153.801 67.0714 153.701 67.7714 153.701 68.4714C153.701 70.9714 154.801 73.3714 156.601 74.5714C158.901 76.2714 162.301 76.7714 165.501 75.8714C169.501 74.6714 172.301 71.5714 173.101 68.0714C176.601 67.2714 179.301 64.0714 179.301 60.3714C181.001 60.3714 182.701 59.6714 184.201 58.4714C186.001 56.8714 187.201 54.6714 187.201 52.5714C187.201 51.5714 187.001 50.6714 186.501 49.7714C190.501 48.4714 193.301 44.8714 193.301 40.8714C193.301 40.6714 193.301 39.9714 193.301 39.7714C193.301 35.6714 190.601 32.1714 186.501 30.8714C187.001 29.9714 187.201 29.0714 187.201 28.0714C187.201 25.9714 186.101 23.7714 184.201 22.1714C182.701 20.8714 181.001 20.2714 179.301 20.2714C179.301 16.5714 176.701 13.2714 173.101 12.5714C172.301 9.17136 169.501 5.97136 165.501 4.77136C162.301 3.87136 158.901 4.37136 156.601 6.07136C154.801 7.37136 153.701 9.67136 153.701 12.1714C153.701 12.8714 153.801 13.4714 154.001 14.1714C153.101 13.0714 152.301 11.7714 151.501 10.5714C150.001 8.27136 148.501 5.97136 146.601 4.27136C144.401 2.27136 141.401 0.871362 138.201 0.471361C133.401 -0.228639 128.401 1.67136 124.701 5.37136C121.301 8.87136 119.701 13.4714 119.701 19.8714C119.701 20.2714 119.701 20.6714 119.701 21.0714C119.701 22.2714 119.801 23.4714 119.901 24.6714C120.001 26.1714 120.101 27.7714 120.101 29.2714C120.101 29.8714 120.101 30.4714 120.001 30.9714C119.901 31.7714 119.801 32.7714 119.201 33.4714C119.001 33.3714 118.701 33.3714 118.501 33.3714C117.801 33.3714 117.101 33.6714 116.701 34.2714C116.601 34.2714 116.601 34.2714 116.501 34.2714C116.301 34.1714 116.301 34.0714 116.301 34.0714C116.201 33.7714 116.401 33.4714 116.501 33.0714C116.701 32.6714 116.901 32.1714 116.901 31.5714C116.901 31.2714 116.901 31.0714 116.801 30.7714C116.301 29.3714 114.701 28.6714 113.201 29.0714C111.701 29.4714 110.801 30.8714 110.801 32.5714C110.801 33.6714 111.101 34.6714 111.701 35.4714C112.001 35.8714 112.401 36.2714 112.801 36.5714L108.001 36.5714C107.501 35.5714 106.101 34.7714 104.401 34.7714L95.0008 34.7714C93.3008 34.7714 91.9008 35.4714 91.4008 36.5714L85.3008 36.5714C84.8008 35.5714 83.4008 34.7714 81.7008 34.7714L72.2008 34.7714C70.5008 34.7714 69.1008 35.4714 68.6008 36.5714L62.5008 36.5714C62.0008 35.5714 60.6008 34.7714 58.9008 34.7714L49.4008 34.7714C47.7008 34.7714 46.3008 35.4714 45.8008 36.5714L3.00078 36.5714C1.60078 36.5714 0.500777 38.2714 0.500776 40.3714C0.500776 42.4714 1.60078 44.1714 3.00078 44.1714L11.0008 44.1714L11.0008 47.8714C9.60078 47.9714 8.40077 48.9714 8.40077 50.3714L8.40077 52.8714L2.70077 52.8714C1.60077 52.8714 0.700773 53.5714 0.700773 54.4714L0.700772 63.1714C0.700772 64.0714 1.60077 64.7714 2.70077 64.7714L8.40077 64.7714L8.40077 67.2714C8.40077 68.6714 9.60078 69.7714 11.1008 69.7714L26.2008 69.7714C27.7008 69.7714 28.9008 68.6714 28.9008 67.2714L28.9008 64.7714L33.8008 64.7714C34.9008 64.7714 35.8008 64.0714 35.8008 63.1714L35.8008 54.4714C35.8008 53.5714 34.9008 52.8714 33.8008 52.8714L28.9008 52.8714L28.9008 50.3714C28.9008 48.9714 27.7008 47.8714 26.2008 47.8714L25.2008 47.8714L25.2008 44.1714L45.8008 44.1714C46.2008 45.3714 47.7008 46.2714 49.5008 46.2714L59.0008 46.2714C60.8008 46.2714 62.3008 45.3714 62.7008 44.1714L68.5008 44.1714C68.9008 45.3714 70.4008 46.2714 72.2008 46.2714L81.7008 46.2714C83.5008 46.2714 85.0008 45.3714 85.4008 44.1714L91.2008 44.1714C91.6008 45.3714 93.1008 46.2714 94.9008 46.2714L104.401 46.2714C106.201 46.2714 107.701 45.3714 108.101 44.1714L112.701 44.1714C112.301 44.4714 112.001 44.8714 111.701 45.2714C111.101 46.0714 110.801 47.0714 110.801 48.1714C110.801 49.9714 111.701 51.2714 113.201 51.6714C114.701 52.0714 116.301 51.3714 116.801 49.9714C116.901 49.6714 116.901 49.4714 116.901 49.1714C116.901 48.5714 116.701 48.0714 116.501 47.6714C116.301 47.2714 116.201 46.9714 116.301 46.6714C116.301 46.6714 116.301 46.5714 116.501 46.4714C116.601 46.4714 116.601 46.4714 116.701 46.4714C117.201 46.9714 117.801 47.3714 118.501 47.3714C118.801 47.3714 119.001 47.3714 119.201 47.2714C119.701 47.9714 119.901 48.9714 120.001 49.7714C120.101 50.2714 120.101 50.7714 120.101 51.3714ZM137.501 17.7714C139.201 17.4714 140.301 16.3714 140.301 14.8714C140.301 13.8714 139.801 12.7714 138.901 11.9714C138.001 11.1714 136.601 10.8714 135.101 11.0714C133.301 11.3714 131.501 12.4714 130.701 13.7714C130.201 14.5714 130.001 15.4714 130.001 16.4714C130.001 18.4714 131.101 20.6714 132.801 22.1714C137.001 25.9714 143.601 24.6714 147.001 21.0714C147.901 20.1714 148.601 19.0714 149.101 17.9714C149.201 18.2714 149.301 18.5714 149.401 18.9714C149.601 19.9714 149.701 21.0714 149.701 22.2714C149.701 23.8714 149.501 25.4714 149.301 26.8714C148.801 30.6714 146.501 33.9714 142.201 35.6714C140.701 36.2714 139.201 36.6714 137.901 36.7714C137.701 35.5714 136.701 34.6714 135.401 34.6714C134.301 34.6714 133.401 35.3714 133.001 36.2714C132.101 35.9714 131.301 35.4714 130.501 34.8714C128.501 33.3714 126.901 30.4714 126.801 27.9714C126.801 27.7714 126.801 27.5714 126.901 27.3714C127.101 26.2714 128.001 25.3714 129.101 25.0714C130.201 24.7714 131.301 25.2714 130.901 26.3714C130.601 27.2714 129.401 27.8714 129.301 28.8714C129.001 31.1714 131.801 32.4714 133.701 31.3714C135.601 30.3714 136.001 27.8714 135.701 25.9714C135.501 24.7714 134.901 23.5714 133.901 22.8714C132.101 21.4714 129.601 20.8714 127.701 21.3714C126.101 21.7714 124.901 22.7714 124.101 24.1714C124.101 23.9714 124.101 23.7714 124.101 23.6714C124.001 22.0714 123.801 20.5714 123.801 18.9714C123.801 13.7714 125.501 9.67136 128.901 6.77136C132.101 4.07136 137.501 3.47136 141.601 5.37136C143.501 6.27136 146.601 8.37136 146.601 12.9714C146.601 16.8714 143.201 20.6714 139.401 21.0714C137.501 21.2714 134.701 19.8714 134.001 17.9714C133.901 17.6714 133.801 17.3714 133.801 17.0714C133.801 16.7714 133.901 15.7714 134.501 15.5714C134.601 15.6714 134.701 15.9714 134.801 16.1714C135.101 16.7714 135.701 18.0714 137.501 17.7714ZM138.801 68.6714C139.701 67.8714 140.201 66.8714 140.201 65.7714C140.201 64.2714 139.101 63.1714 137.401 62.8714C135.701 62.5714 135.001 63.8714 134.601 64.6714C134.501 64.8714 134.401 65.1714 134.301 65.2714C133.601 64.9714 133.601 64.0714 133.601 63.7714C133.601 63.4714 133.701 63.0714 133.801 62.8714C134.501 60.9714 137.401 59.5714 139.201 59.7714C143.001 60.1714 146.401 63.8714 146.401 67.8714C146.401 72.4714 143.301 74.5714 141.401 75.4714C137.301 77.3714 131.901 76.7714 128.701 74.0714C125.301 71.1714 123.601 67.0714 123.601 61.8714C123.601 60.3714 123.701 58.7714 123.901 57.1714C123.901 56.9714 123.901 56.7714 123.901 56.6714C124.701 58.0714 125.901 59.0714 127.501 59.4714C129.401 59.9714 131.901 59.3714 133.701 57.9714C134.701 57.1714 135.301 56.0714 135.501 54.8714C135.801 52.9714 135.401 50.4714 133.501 49.4714C131.601 48.4714 128.801 49.6714 129.101 51.9714C129.201 52.9714 130.401 53.5714 130.701 54.4714C131.101 55.5714 130.001 56.0714 128.901 55.7714C127.801 55.4714 127.001 54.5714 126.701 53.4714C126.701 53.2714 126.601 53.0714 126.601 52.8714C126.701 50.4714 128.301 47.5714 130.301 45.9714C131.101 45.3714 131.901 44.8714 132.801 44.5714C133.201 45.4714 134.101 46.1714 135.201 46.1714C136.501 46.1714 137.601 45.2714 137.701 44.0714C139.101 44.2714 140.501 44.5714 142.001 45.1714C146.301 46.8714 148.601 50.1714 149.101 53.9714C149.301 55.3714 149.501 56.9714 149.501 58.5714C149.501 59.7714 149.401 60.8714 149.201 61.8714C149.101 62.1714 149.001 62.4714 148.901 62.8714C148.401 61.7714 147.601 60.6714 146.801 59.7714C143.401 56.2714 136.801 54.9714 132.601 58.6714C130.901 60.2714 129.801 62.3714 129.801 64.3714C129.801 65.3714 130.001 66.2714 130.501 67.0714C131.301 68.3714 133.101 69.4714 134.901 69.7714C136.601 69.7714 137.901 69.4714 138.801 68.6714ZM130.201 44.6714C128.001 46.3714 125.701 47.9714 125.601 52.5714C125.601 54.2714 126.901 56.4714 128.601 56.9714L128.701 56.9714C129.901 57.2714 131.201 56.4714 131.801 55.3714C132.601 53.6714 131.301 53.0714 130.501 51.8714C130.101 51.2714 130.401 50.8714 130.901 50.3714C131.801 49.6714 132.701 49.9714 133.401 50.7714C134.701 52.3714 134.301 55.6714 132.701 56.8714C131.301 57.9714 129.201 58.4714 127.801 58.0714C124.601 57.2714 124.401 53.4714 124.401 52.3714C124.501 44.7714 129.601 42.5714 132.601 41.5714L132.601 43.0714C131.801 43.5714 131.001 44.0714 130.201 44.6714ZM135.201 44.5714C134.601 44.5714 134.001 44.0714 134.001 43.4714L134.001 37.0714C134.001 36.4714 134.501 35.9714 135.201 35.9714C135.801 35.9714 136.401 36.4714 136.401 37.0714L136.401 43.4714C136.301 44.1714 135.801 44.5714 135.201 44.5714ZM127.801 22.4714C129.201 22.0714 131.301 22.5714 132.701 23.6714C134.301 24.8714 134.701 28.2714 133.401 29.7714C132.701 30.6714 131.701 30.8714 130.901 30.1714C130.401 29.7714 130.101 29.2714 130.501 28.6714C131.301 27.4714 132.601 26.8714 131.801 25.1714C131.301 24.0714 130.001 23.2714 128.701 23.5714L128.601 23.5714C127.001 23.9714 125.601 26.2714 125.601 27.9714C125.701 32.6714 128.101 34.2714 130.201 35.8714C131.001 36.4714 131.801 36.9714 132.601 37.2714L132.601 38.7714C129.501 37.7714 124.401 35.5714 124.401 27.9714C124.301 27.1714 124.601 23.3714 127.801 22.4714ZM132.401 39.9714C132.501 39.9714 132.601 39.9714 132.601 40.0714L132.601 40.6714C132.501 40.6714 132.401 40.6714 132.401 40.7714C129.201 41.7714 125.801 42.6714 124.001 47.8714C123.601 45.6714 122.501 44.3714 121.101 43.5714L121.101 37.2714C122.501 36.4714 123.601 35.0714 124.001 32.9714C125.801 38.0714 129.201 38.9714 132.401 39.9714ZM119.701 44.3714C119.701 45.1714 119.201 45.8714 118.501 45.8714C117.901 45.8714 117.301 45.1714 117.301 44.3714L117.301 36.2714C117.301 35.4714 117.801 34.7714 118.501 34.7714C119.101 34.7714 119.701 35.4714 119.701 36.2714L119.701 44.3714ZM112.901 34.5714C112.501 34.0714 112.301 33.2714 112.301 32.5714C112.301 32.0714 112.401 30.7714 113.601 30.4714C114.301 30.2714 115.101 30.5714 115.401 31.2714C115.401 31.3714 115.501 31.4714 115.501 31.5714C115.501 31.8714 115.401 32.1714 115.201 32.4714C115.001 32.8714 114.801 33.3714 114.801 33.8714C114.801 34.0714 114.801 34.2714 114.901 34.4714C115.101 34.9714 115.401 35.3714 116.001 35.5714C116.001 35.5714 116.001 35.5714 116.101 35.5714C116.001 35.7714 116.001 35.9714 116.001 36.2714L116.001 36.4714C114.801 36.1714 113.701 35.5714 112.901 34.5714ZM85.6008 42.7714L85.6008 37.8714L91.2008 37.8714L91.2008 42.7714L85.6008 42.7714ZM62.9008 42.7714L62.9008 37.8714L68.5008 37.8714L68.5008 42.7714L62.9008 42.7714ZM3.20077 42.7714C2.60077 42.7714 2.00078 41.7714 2.00078 40.3714C2.00078 38.9714 2.60077 37.9714 3.20077 37.9714L45.8008 37.9714L45.8008 42.8714L3.20077 42.8714L3.20077 42.7714ZM24.0008 49.1714L26.3008 49.1714C27.1008 49.1714 27.7008 49.6714 27.7008 50.2714L27.7008 54.0714L33.9008 54.0714C34.3008 54.0714 34.6008 54.2714 34.6008 54.3714L34.6008 63.0714C34.6008 63.1714 34.3008 63.3714 33.9008 63.3714L27.7008 63.3714L27.7008 67.1714C27.7008 67.7714 27.1008 68.2714 26.3008 68.2714L11.2008 68.2714C10.4008 68.2714 9.80078 67.7714 9.80078 67.1714L9.80078 63.3714L2.70077 63.3714C2.30078 63.3714 2.00078 63.1714 2.00078 63.0714L2.00078 54.3714C2.00078 54.2714 2.30078 54.0714 2.70077 54.0714L9.80078 54.0714L9.80078 50.2714C9.80078 49.6714 10.4008 49.1714 11.2008 49.1714L12.4008 49.1714L12.4008 44.0714L15.5008 44.0714L15.5008 48.4714C15.5008 49.9714 14.6008 51.2714 13.3008 51.8714L12.9008 52.0714L12.9008 53.4714C12.9008 55.5714 11.2008 57.1714 9.20077 57.1714L5.20077 57.1714L5.20077 60.2714L9.20077 60.2714C11.3008 60.2714 12.9008 61.9714 12.9008 63.9714L12.9008 65.2714L24.6008 65.2714L24.6008 64.0714C24.6008 61.9714 26.3008 60.3714 28.3008 60.3714L31.4008 60.3714L31.4008 57.2714L28.3008 57.2714C26.2008 57.2714 24.6008 55.5714 24.6008 53.5714L24.6008 52.3714L24.0008 52.2714C22.2008 51.9714 20.9008 50.3714 20.9008 48.5714L20.9008 44.1714L24.0008 44.1714L24.0008 49.1714ZM23.2008 63.9714L14.2008 63.9714C14.1008 61.2714 11.9008 58.9714 9.10078 58.9714L6.40077 58.9714L6.40077 58.5714L9.10078 58.5714C11.9008 58.5714 14.2008 56.2714 14.2008 53.4714L14.2008 52.9714C15.8008 52.0714 16.8008 50.3714 16.8008 48.5714L16.8008 44.9714L19.6008 44.9714L19.6008 48.5714C19.6008 50.8714 21.1008 52.8714 23.3008 53.4714L23.3008 53.5714C23.3008 56.3714 25.6008 58.6714 28.4008 58.6714L30.2008 58.6714L30.2008 59.0714L28.4008 59.0714C25.5008 58.9714 23.3008 61.1714 23.2008 63.9714ZM59.1008 44.8714L49.6008 44.8714C48.2008 44.8714 47.2008 44.1714 47.2008 43.5714L47.2008 37.4714C47.2008 36.8714 48.2008 36.1714 49.6008 36.1714L59.1008 36.1714C60.5008 36.1714 61.5008 36.8714 61.5008 37.4714L61.5008 43.5714C61.5008 44.1714 60.5008 44.8714 59.1008 44.8714ZM81.8008 44.8714L72.3008 44.8714C70.9008 44.8714 69.9008 44.1714 69.9008 43.5714L69.9008 37.4714C69.9008 36.8714 70.9008 36.1714 72.3008 36.1714L81.8008 36.1714C83.2008 36.1714 84.2008 36.8714 84.2008 37.4714L84.2008 43.5714C84.2008 44.1714 83.2008 44.8714 81.8008 44.8714ZM104.501 44.8714L95.0008 44.8714C93.6008 44.8714 92.6008 44.1714 92.6008 43.5714L92.6008 37.4714C92.6008 36.8714 93.6008 36.1714 95.0008 36.1714L104.501 36.1714C105.901 36.1714 106.901 36.8714 106.901 37.4714L106.901 43.5714C106.901 44.1714 105.901 44.8714 104.501 44.8714ZM108.301 42.7714L108.301 37.8714L116.001 37.8714L116.001 42.6714C115.901 42.6714 115.801 42.6714 115.701 42.7714L108.301 42.7714ZM116.001 45.1714C115.401 45.3714 115.101 45.7714 114.901 46.2714C114.801 46.4714 114.801 46.6714 114.801 46.8714C114.801 47.3714 115.001 47.8714 115.201 48.2714C115.301 48.5714 115.501 48.8714 115.501 49.1714C115.501 49.2714 115.501 49.3714 115.401 49.4714C115.201 50.1714 114.401 50.4714 113.601 50.2714C112.401 49.8714 112.301 48.6714 112.301 48.1714C112.301 47.4714 112.501 46.6714 112.901 46.1714C113.701 45.1714 114.801 44.5714 116.001 44.3714L116.001 44.5714C116.001 44.6714 116.001 44.8714 116.001 45.1714C116.001 45.0714 116.001 45.1714 116.001 45.1714ZM120.501 46.3714C120.801 46.0714 121.001 45.6714 121.101 45.1714C124.101 47.5714 123.201 53.3714 122.901 56.6714C122.801 58.2714 122.601 59.8714 122.601 61.4714C122.601 67.1714 124.001 71.7714 127.701 74.9714C131.301 78.0714 137.301 78.7714 141.901 76.5714C145.601 74.8714 147.701 71.6714 147.701 67.6714C147.701 62.9714 143.801 58.5714 139.201 58.1714C136.701 57.9714 133.201 59.5714 132.301 62.2714C132.101 62.6714 132.101 63.1714 132.101 63.6714C132.101 65.0714 132.701 66.1714 133.801 66.5714C135.101 67.0714 135.701 65.9714 136.001 65.2714C136.401 64.4714 136.601 64.1714 137.301 64.2714C138.301 64.4714 138.801 64.9714 138.801 65.7714C138.801 66.3714 138.501 67.0714 137.901 67.5714C137.301 68.0714 136.101 68.6714 135.001 68.5714C133.601 68.3714 132.201 67.5714 131.601 66.5714C131.301 65.9714 131.101 65.3714 131.101 64.6714C131.101 63.1714 132.301 60.8714 133.701 59.6714C137.201 56.4714 142.901 57.5714 145.801 60.6714C147.001 61.8714 147.801 63.3714 148.301 65.0714L148.901 67.1714L149.701 65.1714C150.101 64.2714 150.501 63.2714 150.701 62.1714C150.901 61.0714 151.001 59.8714 151.001 58.5714C151.001 56.8714 150.801 55.1714 150.601 53.7714C150.001 49.4714 147.401 45.9714 142.601 44.1714C140.801 43.4714 139.201 42.9714 137.701 42.8714L137.701 41.2714C141.901 41.7714 146.001 44.2714 150.401 46.5714L150.601 46.6714C153.901 48.3714 157.301 50.1714 161.001 51.2714C165.001 52.3714 168.501 52.1714 171.401 50.4714C171.601 50.3714 171.801 50.2714 172.001 50.0714C172.101 49.9714 172.101 49.9714 172.201 49.8714C172.301 49.7714 172.401 49.6714 172.601 49.5714C172.701 49.4714 172.801 49.4714 172.901 49.3714C173.001 49.2714 173.101 49.2714 173.201 49.1714C173.301 49.0714 173.401 48.9714 173.501 48.8714C173.601 48.7714 173.701 48.7714 173.701 48.6714C173.801 48.5714 173.901 48.4714 174.001 48.3714C174.101 48.2714 174.101 48.2714 174.201 48.1714C174.301 48.0714 174.401 47.9714 174.501 47.7714C174.601 47.6714 174.601 47.6714 174.701 47.5714C174.801 47.4714 174.901 47.2714 175.001 47.1714C175.001 47.0714 175.101 47.0714 175.101 46.9714C175.201 46.8714 175.301 46.6714 175.401 46.5714L175.501 46.4714C175.601 46.2714 175.701 46.1714 175.801 45.9714C175.801 45.9714 175.801 45.8714 175.901 45.8714C176.001 45.6714 176.001 45.4714 176.101 45.2714L176.101 45.1714C176.201 44.9714 176.301 44.7714 176.401 44.5714L176.401 44.4714C176.501 44.2714 176.601 44.0714 176.601 43.8714C176.601 43.8714 176.601 43.8714 176.601 43.7714C176.701 43.5714 176.701 43.3714 176.801 43.0714C176.801 42.9714 176.901 42.8714 176.901 42.7714L177.901 42.7714C177.901 42.9714 177.801 43.1714 177.701 43.3714L177.701 43.4714C177.601 43.6714 177.601 43.8714 177.501 44.0714L177.501 44.1714C177.401 44.3714 177.401 44.4714 177.301 44.6714C177.301 44.6714 177.301 44.7714 177.201 44.7714C177.101 44.9714 177.101 45.0714 177.001 45.2714C177.001 45.3714 177.001 45.3714 176.901 45.4714C176.801 45.5714 176.801 45.7714 176.701 45.8714C176.701 45.9714 176.601 45.9714 176.601 46.0714C176.501 46.1714 176.501 46.3714 176.401 46.4714C176.401 46.5714 176.301 46.5714 176.301 46.6714C176.201 46.7714 176.201 46.8714 176.101 47.0714C176.101 47.1714 176.001 47.2714 176.001 47.2714C175.901 47.3714 175.901 47.4714 175.801 47.5714C175.701 47.6714 175.701 47.7714 175.601 47.8714C175.501 47.9714 175.501 48.0714 175.401 48.1714C175.301 48.2714 175.301 48.3714 175.201 48.4714C175.101 48.5714 175.101 48.6714 175.001 48.6714C174.901 48.7714 174.801 48.8714 174.801 48.9714C174.701 49.0714 174.701 49.0714 174.601 49.1714C174.501 49.2714 174.401 49.3714 174.301 49.4714L174.201 49.5714C174.101 49.7714 173.901 49.8714 173.801 49.9714C171.201 52.3714 167.901 53.4714 164.101 53.2714C159.501 52.9714 155.101 50.4714 150.801 48.1714L149.001 47.1714L150.201 49.3714C150.901 50.5714 151.301 51.7714 151.501 53.0714C151.801 55.2714 152.001 57.0714 152.001 58.7714C152.001 59.4714 152.001 60.1714 151.901 60.8714C151.801 61.6714 151.601 62.5714 151.301 63.5714L150.201 66.9714L152.601 64.3714C153.901 62.8714 155.301 61.7714 156.901 60.8714C159.201 59.5714 161.501 59.2714 165.001 59.5714C165.501 59.5714 165.901 59.6714 166.401 59.7714C168.601 60.0714 170.901 60.2714 173.001 59.2714C175.101 58.2714 177.201 56.3714 179.001 53.8714C180.901 51.1714 182.001 47.4714 182.001 43.6714C182.001 43.4714 182.001 43.2714 182.001 43.0714L183.001 43.0714L183.001 43.1714C183.001 44.4714 182.901 45.8714 182.601 47.1714L182.401 48.0714L183.401 47.9714C186.901 47.7714 190.701 45.2714 190.701 41.0714C190.701 40.8714 190.701 39.8714 190.701 39.6714C190.701 35.4714 187.001 32.9714 183.401 32.7714L182.401 32.6714L182.601 33.5714C182.901 34.9714 183.001 36.2714 183.001 37.5714L183.001 37.6714L182.001 37.6714C182.001 37.4714 182.001 37.2714 182.001 37.0714C182.001 33.2714 180.901 29.5714 179.001 26.8714C177.201 24.3714 175.101 22.4714 173.001 21.4714C170.901 20.4714 168.601 20.6714 166.401 20.9714C165.901 21.0714 165.501 21.0714 165.001 21.1714C161.501 21.4714 159.201 21.0714 156.901 19.8714C155.301 18.9714 153.901 17.8714 152.601 16.3714L150.201 13.7714L151.301 17.1714C151.601 18.1714 151.801 19.0714 151.901 19.8714C152.001 20.5714 152.001 21.2714 152.001 21.9714C152.001 23.6714 151.801 25.4714 151.501 27.6714C151.301 28.9714 150.901 30.1714 150.201 31.3714L149.001 33.5714L151.201 32.2714C155.501 29.9714 159.801 27.4714 164.501 27.1714C168.201 26.9714 171.601 28.0714 174.201 30.4714C174.401 30.5714 174.501 30.7714 174.601 30.8714C174.701 30.9714 174.701 30.9714 174.701 31.0714C174.801 31.1714 174.901 31.2714 175.001 31.3714C175.101 31.4714 175.101 31.4714 175.201 31.5714C175.301 31.6714 175.401 31.7714 175.401 31.8714C175.501 31.9714 175.501 32.0714 175.601 32.0714C175.701 32.1714 175.701 32.2714 175.801 32.3714C175.901 32.4714 175.901 32.5714 176.001 32.6714C176.101 32.7714 176.101 32.8714 176.201 32.9714C176.301 33.0714 176.301 33.1714 176.401 33.2714C176.501 33.3714 176.501 33.4714 176.601 33.5714C176.701 33.6714 176.701 33.7714 176.801 33.8714C176.801 33.9714 176.901 34.0714 176.901 34.1714C177.001 34.2714 177.001 34.3714 177.101 34.4714C177.101 34.5714 177.201 34.6714 177.201 34.7714C177.301 34.8714 177.301 34.9714 177.301 35.0714C177.301 35.1714 177.401 35.2714 177.401 35.3714C177.401 35.4714 177.501 35.5714 177.501 35.7714C177.501 35.8714 177.601 35.9714 177.601 36.0714C177.601 36.1714 177.701 36.3714 177.701 36.4714C177.701 36.5714 177.801 36.6714 177.801 36.6714C177.801 36.7714 177.901 36.9714 177.901 37.0714C177.901 37.1714 177.901 37.1714 178.001 37.2714C178.001 37.3714 178.101 37.5714 178.101 37.6714C178.101 37.7714 178.101 37.7714 178.101 37.8714L177.101 37.8714C177.101 37.7714 177.001 37.6714 177.001 37.5714L177.001 37.4714C176.901 37.2714 176.901 37.0714 176.801 36.8714C176.801 36.8714 176.801 36.7714 176.701 36.7714C176.601 36.5714 176.601 36.3714 176.501 36.2714C176.501 36.1714 176.501 36.1714 176.401 36.0714C176.301 35.8714 176.301 35.7714 176.201 35.5714C176.201 35.4714 176.101 35.4714 176.101 35.3714C176.001 35.1714 175.901 35.0714 175.901 34.8714C175.901 34.7714 175.801 34.7714 175.801 34.6714C175.701 34.5714 175.601 34.3714 175.501 34.2714C175.501 34.1714 175.401 34.1714 175.401 34.0714C175.301 33.9714 175.201 33.7714 175.101 33.6714C175.001 33.5714 175.001 33.5714 174.901 33.4714C174.801 33.3714 174.701 33.2714 174.601 33.1714C174.501 33.0714 174.501 33.0714 174.401 32.9714C174.301 32.8714 174.201 32.7714 174.101 32.6714C174.001 32.5714 174.001 32.4714 173.901 32.4714C173.801 32.3714 173.701 32.2714 173.601 32.1714C173.501 32.0714 173.401 31.9714 173.301 31.9714C173.201 31.8714 173.101 31.7714 173.001 31.7714C172.901 31.6714 172.801 31.5714 172.701 31.5714C172.601 31.4714 172.501 31.4714 172.401 31.3714C172.301 31.2714 172.201 31.1714 172.001 31.0714C171.901 31.0714 171.901 30.9714 171.801 30.8714C171.601 30.7714 171.401 30.5714 171.201 30.4714C168.301 28.7714 164.801 28.5714 160.801 29.6714C157.101 30.7714 153.701 32.4714 150.401 34.2714L150.201 34.3714C145.801 36.6714 141.701 39.1714 137.501 39.6714L137.501 38.2714C139.001 38.0714 140.601 37.5714 142.401 36.9714C147.201 35.0714 149.801 31.6714 150.401 27.3714C150.801 25.6714 151.001 23.9714 151.001 22.2714C151.001 20.9714 150.901 19.7714 150.701 18.6714C150.501 17.5714 150.101 16.5714 149.701 15.6714L148.901 13.6714L148.301 15.7714C147.801 17.4714 147.001 18.9714 145.801 20.1714C142.901 23.2714 137.201 24.3714 133.701 21.1714C132.301 19.8714 131.101 17.6714 131.101 16.1714C131.101 15.4714 131.301 14.7714 131.601 14.2714C132.201 13.2714 133.601 12.4714 135.001 12.2714C136.101 12.0714 137.301 12.6714 137.901 13.2714C138.501 13.7714 138.801 14.4714 138.801 15.0714C138.801 15.8714 138.201 16.3714 137.301 16.5714C136.701 16.6714 136.501 16.3714 136.001 15.5714C135.701 14.9714 135.101 13.7714 133.801 14.2714C132.801 14.6714 132.101 15.7714 132.101 17.1714C132.101 17.6714 132.201 18.1714 132.301 18.5714C133.301 21.1714 136.701 22.8714 139.201 22.6714C143.801 22.1714 147.701 17.8714 147.701 13.1714C147.701 9.27136 145.601 6.07136 141.901 4.27136C137.301 2.17136 131.301 2.77136 127.701 5.87136C124.001 9.07136 122.601 13.6714 122.601 19.3714C122.601 20.9714 122.701 22.5714 122.901 24.1714C123.201 27.4714 124.001 33.2714 121.101 35.6714C121.001 35.2714 120.801 34.8714 120.501 34.4714C121.101 33.6714 121.401 32.5714 121.501 31.1714C121.501 30.5714 121.601 29.9714 121.601 29.3714C121.601 27.7714 121.501 26.1714 121.401 24.6714C121.301 23.4714 121.201 22.2714 121.201 21.0714C121.201 20.6714 121.201 20.2714 121.201 19.8714C121.201 13.8714 122.601 9.57136 125.701 6.37136C129.001 2.87136 133.501 0.871361 137.901 1.47136C140.801 1.87136 143.801 3.47136 145.801 5.27136C147.601 6.87136 148.801 8.67136 150.301 10.9714C153.401 15.7714 156.501 20.9714 163.101 20.6714C166.601 20.4714 170.801 17.3714 170.801 13.6714C170.801 12.3714 170.301 11.1714 169.301 10.0714C167.201 7.77136 163.301 5.97136 159.701 6.97136C157.801 7.57136 155.501 10.0714 155.701 12.1714C156.001 14.5714 158.001 14.4714 159.201 14.4714C159.801 14.4714 160.401 14.3714 160.601 14.5714C161.001 14.7714 161.101 15.0714 161.101 15.4714C161.101 16.0714 160.701 16.6714 160.101 17.1714C159.601 17.5714 159.101 17.6714 158.601 17.5714C157.301 17.2714 156.101 16.0714 155.401 14.5714C155.101 13.8714 154.901 13.0714 154.901 12.1714C154.901 10.1714 155.801 8.17136 157.201 7.17136C159.201 5.77136 162.201 4.97136 164.901 5.77136C168.501 6.87136 171.001 10.1714 171.501 13.1714L171.601 13.6714L172.101 13.7714C175.101 14.2714 177.501 17.0714 177.501 20.1714C177.501 20.3714 177.501 20.6714 177.501 20.8714L177.401 21.8714L178.401 21.6714C179.901 21.4714 181.901 21.5714 183.301 22.7714C184.801 24.0714 185.701 25.8714 185.701 27.5714C185.701 28.5714 185.101 29.8714 184.501 30.6714L183.801 31.5714L184.901 31.7714C185.101 31.8714 185.401 31.8714 185.601 31.9714C185.701 31.9714 185.701 32.0714 185.801 32.0714C185.901 32.0714 186.101 32.1714 186.201 32.2714C186.301 32.2714 186.401 32.3714 186.501 32.3714C186.601 32.4714 186.801 32.4714 186.901 32.5714C187.001 32.5714 187.101 32.6714 187.201 32.6714C187.301 32.7714 187.401 32.7714 187.501 32.8714C187.601 32.8714 187.701 32.9714 187.801 33.0714C187.901 33.2714 188.001 33.2714 188.101 33.3714C188.201 33.4714 188.301 33.4714 188.301 33.5714C188.401 33.6714 188.501 33.6714 188.601 33.7714C188.701 33.8714 188.801 33.8714 188.801 33.9714C189.001 34.0714 189.001 34.1714 189.101 34.2714C189.201 34.3714 189.201 34.3714 189.301 34.4714C189.401 34.5714 189.501 34.6714 189.501 34.7714C189.601 34.8714 189.601 34.9714 189.701 34.9714C189.801 35.0714 189.801 35.1714 189.901 35.2714C190.001 35.3714 190.001 35.4714 190.101 35.4714C190.201 35.5714 190.201 35.6714 190.301 35.7714C190.401 35.8714 190.401 35.9714 190.501 36.0714C190.601 36.1714 190.601 36.2714 190.701 36.3714C190.701 36.4714 190.801 36.5714 190.801 36.6714C190.901 36.7714 190.901 36.8714 190.901 36.9714C190.901 37.0714 191.001 37.1714 191.001 37.2714C191.001 37.3714 191.101 37.4714 191.101 37.6714C191.101 37.7714 191.201 37.8714 191.201 37.9714C191.201 38.0714 191.301 38.2714 191.301 38.3714C191.301 38.4714 191.301 38.5714 191.401 38.6714C191.401 38.8714 191.501 38.9714 191.501 39.1714L191.501 39.2714C191.501 39.4714 191.501 39.6714 191.501 39.9714L191.501 40.9714C191.501 44.6714 188.801 47.8714 184.901 48.7714L183.801 48.9714L184.501 49.8714C185.101 50.6714 185.701 51.9714 185.701 52.9714C185.701 54.6714 184.801 56.4714 183.301 57.7714C181.901 58.9714 179.901 59.1714 178.401 58.8714L177.401 58.6714L177.501 59.6714C177.501 59.8714 177.501 60.1714 177.501 60.3714C177.501 63.4714 175.101 66.2714 172.101 66.7714L171.601 66.8714L171.501 67.3714C171.001 70.4714 168.501 73.7714 164.901 74.7714C162.201 75.5714 159.201 74.7714 157.201 73.3714C155.801 72.3714 154.901 70.4714 154.901 68.3714C154.901 67.4714 155.101 66.6714 155.401 65.9714C156.101 64.4714 157.401 63.3714 158.601 62.9714C159.101 62.8714 159.601 62.9714 160.101 63.3714C160.701 63.7714 161.101 64.4714 161.101 65.0714C161.101 65.4714 160.901 65.7714 160.601 65.9714C160.301 66.1714 159.701 66.0714 159.201 66.0714C158.001 65.9714 156.001 65.8714 155.701 68.3714C155.501 70.4714 157.801 72.9714 159.701 73.5714C163.201 74.6714 167.201 72.8714 169.301 70.4714C170.301 69.3714 170.801 68.1714 170.801 66.8714C170.801 63.1714 166.701 60.0714 163.101 59.8714C156.501 59.5714 153.401 64.7714 150.301 69.5714C148.801 71.8714 147.501 73.6714 145.801 75.2714C143.801 77.0714 140.801 78.6714 137.901 79.0714C133.601 79.6714 129.001 77.6714 125.701 74.2714C122.601 71.0714 121.201 66.8714 121.201 60.7714C121.201 60.3714 121.201 59.9714 121.201 59.5714C121.201 58.3714 121.301 57.1714 121.401 55.9714C121.501 54.4714 121.601 52.8714 121.601 51.2714C121.601 50.6714 121.601 50.0714 121.501 49.4714C121.401 48.1714 121.001 47.0714 120.501 46.3714ZM164.301 26.1714C160.101 26.4714 156.201 28.0714 152.401 30.0714C152.701 29.3714 152.801 28.5714 152.901 27.8714C153.201 25.6714 153.401 23.7714 153.401 21.9714C153.401 21.1714 153.401 20.4714 153.301 19.7714C153.301 19.5714 153.301 19.4714 153.201 19.2714C154.101 20.0714 155.001 20.6714 156.001 21.2714C159.201 22.9714 162.301 22.9714 164.901 22.7714C165.401 22.7714 165.801 22.6714 166.301 22.5714C168.301 22.3714 170.401 22.0714 172.101 22.9714C174.001 23.8714 175.901 25.5714 177.601 27.8714C179.301 30.2714 180.401 33.7714 180.401 37.1714C180.401 37.3714 180.401 37.5714 180.401 37.7714L179.401 37.7714C178.701 34.6714 177.101 31.8714 174.901 29.8714C172.101 27.1714 168.401 25.8714 164.301 26.1714ZM156.101 59.4714C155.101 59.9714 154.201 60.6714 153.301 61.4714C153.301 61.2714 153.301 61.1714 153.401 60.9714C153.501 60.2714 153.501 59.4714 153.501 58.7714C153.501 56.9714 153.301 55.1714 153.001 52.8714C152.901 52.0714 152.701 51.3714 152.501 50.6714C156.301 52.6714 160.201 54.2714 164.401 54.5714C168.501 54.8714 172.301 53.5714 175.101 50.8714C177.301 48.8714 178.901 46.0714 179.601 42.9714L180.601 42.9714C180.601 43.1714 180.601 43.3714 180.601 43.5714C180.601 46.9714 179.601 50.4714 177.801 52.8714C176.101 55.1714 174.301 56.8714 172.301 57.7714C170.501 58.6714 168.501 58.3714 166.501 58.1714C166.001 58.0714 165.501 58.0714 165.101 57.9714C162.401 57.7714 159.301 57.7714 156.101 59.4714ZM184.401 42.5714C185.101 42.1714 185.601 41.2714 185.601 40.3714C185.601 39.4714 185.101 38.6714 184.401 38.1714C184.401 37.9714 184.401 37.8714 184.401 37.6714C184.401 36.5714 184.301 35.4714 184.101 34.3714C186.601 34.8714 189.001 36.7714 189.001 39.6714C189.001 39.9714 189.001 40.7714 189.001 41.0714C189.001 43.9714 186.601 45.8714 184.101 46.3714C184.301 45.2714 184.401 44.1714 184.401 43.0714C184.401 42.8714 184.401 42.6714 184.401 42.5714ZM183.201 41.4714L176.801 41.4714C176.201 41.4714 175.701 40.9714 175.701 40.2714C175.701 39.6714 176.201 39.0714 176.801 39.0714L183.201 39.0714C183.801 39.0714 184.301 39.5714 184.301 40.2714C184.201 40.9714 183.701 41.4714 183.201 41.4714ZM176.001 37.8714C175.001 38.1714 174.301 39.1714 174.301 40.3714C174.301 41.5714 175.001 42.4714 176.001 42.8714C175.101 45.7714 173.301 48.2714 170.901 49.5714C168.401 51.0714 165.201 51.2714 161.701 50.1714C158.101 49.1714 154.601 47.0714 151.401 45.3714L151.101 45.2714C147.101 43.1714 143.201 41.0714 139.101 40.3714C143.201 39.6714 147.201 37.5714 151.101 35.4714L151.301 35.3714C154.601 33.6714 158.101 31.5714 161.601 30.5714C165.201 29.5714 168.301 29.7714 170.801 31.1714C173.301 32.4714 175.101 34.9714 176.001 37.8714ZM159.201 13.0714C157.701 13.1714 157.301 13.0714 157.201 12.0714C157.001 10.7714 158.801 8.87136 160.101 8.47136C163.001 7.57136 166.401 9.17136 168.201 11.1714C168.901 11.9714 169.301 12.8714 169.301 13.7714C169.301 16.6714 165.901 19.1714 163.001 19.2714C161.901 19.3714 160.901 19.1714 160.001 18.9714C160.401 18.8714 160.801 18.6714 161.101 18.3714C162.101 17.6714 162.601 16.5714 162.601 15.5714C162.601 14.6714 162.201 13.9714 161.401 13.4714C160.801 12.9714 160.001 13.0714 159.201 13.0714ZM161.501 67.2714C162.301 66.7714 162.701 65.9714 162.701 65.1714C162.701 64.1714 162.101 63.0714 161.201 62.3714C160.801 62.0714 160.501 61.8714 160.101 61.7714C161.001 61.4714 162.001 61.3714 163.101 61.4714C165.901 61.5714 169.401 64.0714 169.401 66.9714C169.401 67.8714 169.001 68.7714 168.301 69.5714C166.601 71.4714 163.101 73.0714 160.201 72.2714C158.901 71.8714 157.101 69.9714 157.301 68.6714C157.401 67.6714 157.801 67.6714 159.301 67.6714C160.001 67.6714 160.801 67.6714 161.501 67.2714Z" fill="#090416"/>
<path d="M181.9 57.3713C183.5 56.2713 184.5 54.5714 184.5 52.9714C184.5 51.7714 184 50.6713 183 49.8713L182.2 49.0713L181.8 50.1714C181.2 51.7714 180.5 53.2713 179.7 54.5713C179.2 55.3714 178.5 56.1713 177.8 56.8713L177 57.6714L178 58.0713C179.1 58.4713 180.6 58.2713 181.9 57.3713ZM180.8 55.2714C181.5 54.1714 182.1 52.9714 182.7 51.7714C182.9 52.1714 183 52.5714 183 52.9714C183 54.0714 182.2 55.3714 181.1 56.1714C180.6 56.4714 180.2 56.6714 179.7 56.7714C180.1 56.2714 180.5 55.7714 180.8 55.2714Z" fill="#090416"/>
<path d="M132.501 51.3713C132.101 50.9713 131.401 51.3713 131.701 51.8713C132.301 53.1713 133.101 54.4713 132.401 55.9713C133.401 54.7713 133.601 52.6713 132.501 51.3713Z" fill="#090416"/>
<path d="M112.9 47.0714C112.6 47.8713 112.6 48.9714 113.4 49.4714C114 49.8714 114.6 48.9714 114.1 48.4714C113.8 48.1714 113.8 47.5714 113.8 47.1714C113.8 46.4714 113.9 45.9714 114.5 45.5714C113.8 45.5714 113.2 46.4714 112.9 47.0714Z" fill="#090416"/>
<path d="M159.501 65.1714C159.801 65.2714 160.101 65.1714 160.201 64.8714C160.301 64.6714 160.301 64.5714 160.301 64.3714C160.201 64.0714 160.001 63.8714 159.701 63.8714C158.401 63.7714 156.801 64.5714 156.401 65.8714C156.401 65.9714 156.501 65.9714 156.501 65.8714C157.401 65.0714 158.301 64.9714 159.501 65.1714Z" fill="#090416"/>
<path d="M148.402 71.7713C149.002 70.8713 149.202 69.9713 149.402 68.8713C149.402 68.8713 149.402 68.8713 149.302 68.8713C148.502 70.5713 147.102 71.9713 146.102 73.4713C146.102 73.5713 146.102 73.6713 146.202 73.5713C147.202 73.2713 147.902 72.5713 148.402 71.7713Z" fill="#090416"/>
<path d="M148.801 47.3714C148.601 45.8714 146.701 45.2714 145.501 44.6714C146.601 45.5714 147.601 46.5714 148.701 47.4714C148.701 47.4714 148.801 47.4714 148.801 47.3714Z" fill="#090416"/>
<path d="M161.999 74.2714C161.899 74.2714 161.799 74.4714 161.999 74.5714C164.099 75.1714 167.099 74.5714 168.199 72.4714C166.599 74.0714 164.099 73.6714 161.999 74.2714Z" fill="#090416"/>
<path d="M156.402 50.0714C158.202 51.2714 160.202 52.4714 162.302 52.8714C164.602 53.2714 166.802 52.8714 169.102 52.2714C164.602 52.9714 160.602 51.6714 156.502 49.9714C156.402 49.8714 156.302 49.9714 156.402 50.0714Z" fill="#090416"/>
<path d="M165.199 28.0714C165.199 28.0714 165.199 27.9714 165.199 28.0714C160.199 27.8714 155.799 30.0714 151.799 32.6714C151.699 32.6714 151.799 32.7714 151.799 32.7714C156.099 30.9714 160.499 28.4714 165.199 28.0714Z" fill="#090416"/>
<path d="M137.701 14.9714C137.801 14.9714 137.801 14.9714 137.801 14.8714C137.301 12.8714 134.401 12.3714 133.101 13.8714C134.801 12.7714 136.301 14.2714 137.701 14.9714Z" fill="#090416"/>
<path d="M159.6 16.7714C159.8 16.7714 159.9 16.5714 160 16.3714L160 16.2714C160.1 16.0714 160 15.8714 159.8 15.7714C159.6 15.6714 159.4 15.5714 159.2 15.6714C158.8 15.7714 158.4 15.6714 158 15.5714C157.3 15.2714 156.6 14.7714 156.1 14.2714C156.7 15.6714 158 16.9714 159.6 16.7714Z" fill="#090416"/>
<path d="M149.602 11.7713C149.002 9.07134 147.202 6.87134 145.002 5.37134C147.102 7.17134 147.602 9.97134 149.402 11.8713C149.502 11.9713 149.602 11.8713 149.602 11.7713Z" fill="#090416"/>
<path d="M121.8 30.6714C121.8 30.7714 121.9 30.7714 122 30.6714C123.4 27.3714 122.1 23.5714 121.8 20.1714C121.5 23.6714 121.8 27.1714 121.8 30.6714Z" fill="#090416"/>
<path d="M125.002 72.5714C125.002 72.5714 125.102 72.4714 125.002 72.5714C123.202 70.0714 122.202 66.5713 121.902 63.5713C121.602 66.7713 122.202 70.4714 125.002 72.5714Z" fill="#090416"/>
<path d="M167.699 7.97135C165.999 5.87135 162.799 5.57135 160.399 6.47135C160.299 6.47135 160.399 6.57135 160.399 6.57135C162.699 6.37135 165.799 6.57135 167.699 7.97135Z" fill="#090416"/>
<path d="M180 58.3714L180 58.4714C180.7 58.5714 181.4 58.5714 182.1 58.3714C183.1 58.0714 183.5 57.2714 184 56.4714C183.4 56.8714 182.7 57.3714 182 57.7714C181.4 58.0714 180.7 58.0714 180 58.3714Z" fill="#090416"/>
<path d="M176.402 40.1714C177.702 41.5714 179.802 41.0714 181.502 40.7714C181.602 40.7714 181.502 40.6714 181.502 40.6714C179.802 40.4714 178.102 40.4714 176.402 40.1714Z" fill="#090416"/>
<path d="M132.402 26.6713C132.402 27.4713 131.702 28.4713 131.302 29.1713C131.302 29.2713 131.302 29.3713 131.402 29.2713C132.402 28.9713 133.402 28.4713 133.402 27.2713C133.402 26.0713 132.902 25.1713 132.102 24.3713C132.202 25.0713 132.402 25.8713 132.402 26.6713Z" fill="#090416"/>
<path d="M130.099 37.1714C130.199 37.1714 130.199 37.0714 130.199 36.9714C128.399 35.8714 127.099 34.3713 125.999 32.5713C126.399 34.8713 127.699 36.9714 130.099 37.1714Z" fill="#090416"/>
<path d="M11.5233 16.5615C11.9433 16.5615 12.3133 16.5115 12.6333 16.4115C12.9583 16.3065 13.2283 16.1615 13.4433 15.9765C13.6633 15.7865 13.8283 15.5615 13.9383 15.3015C14.0483 15.0415 14.1033 14.754 14.1033 14.439C14.1033 13.799 13.8933 13.3165 13.4733 12.9915C13.0533 12.6665 12.4233 12.504 11.5833 12.504H9.99334V16.5615H11.5233ZM16.4883 22.104H15.1983C14.9333 22.104 14.7383 22.0015 14.6133 21.7965L11.8233 17.9565C11.7383 17.8365 11.6458 17.7515 11.5458 17.7015C11.4508 17.6465 11.3008 17.619 11.0958 17.619H9.99334V22.104H8.54584V11.3565H11.5833C12.2633 11.3565 12.8508 11.4265 13.3458 11.5665C13.8408 11.7015 14.2483 11.899 14.5683 12.159C14.8933 12.419 15.1333 12.734 15.2883 13.104C15.4433 13.469 15.5208 13.879 15.5208 14.334C15.5208 14.714 15.4608 15.069 15.3408 15.399C15.2208 15.729 15.0458 16.0265 14.8158 16.2915C14.5908 16.5515 14.3133 16.774 13.9833 16.959C13.6583 17.144 13.2883 17.284 12.8733 17.379C13.0583 17.484 13.2183 17.6365 13.3533 17.8365L16.4883 22.104ZM22.2367 17.4765C22.2367 17.1665 22.1917 16.884 22.1017 16.629C22.0167 16.369 21.8892 16.1465 21.7192 15.9615C21.5542 15.7715 21.3517 15.6265 21.1117 15.5265C20.8717 15.4215 20.5992 15.369 20.2942 15.369C19.6542 15.369 19.1467 15.5565 18.7717 15.9315C18.4017 16.3015 18.1717 16.8165 18.0817 17.4765H22.2367ZM23.3167 21.039C23.1517 21.239 22.9542 21.414 22.7242 21.564C22.4942 21.709 22.2467 21.829 21.9817 21.924C21.7217 22.019 21.4517 22.089 21.1717 22.134C20.8917 22.184 20.6142 22.209 20.3392 22.209C19.8142 22.209 19.3292 22.1215 18.8842 21.9465C18.4442 21.7665 18.0617 21.5065 17.7367 21.1665C17.4167 20.8215 17.1667 20.3965 16.9867 19.8915C16.8067 19.3865 16.7167 18.8065 16.7167 18.1515C16.7167 17.6215 16.7967 17.1265 16.9567 16.6665C17.1217 16.2065 17.3567 15.809 17.6617 15.474C17.9667 15.134 18.3392 14.869 18.7792 14.679C19.2192 14.484 19.7142 14.3865 20.2642 14.3865C20.7192 14.3865 21.1392 14.464 21.5242 14.619C21.9142 14.769 22.2492 14.989 22.5292 15.279C22.8142 15.564 23.0367 15.919 23.1967 16.344C23.3567 16.764 23.4367 17.244 23.4367 17.784C23.4367 17.994 23.4142 18.134 23.3692 18.204C23.3242 18.274 23.2392 18.309 23.1142 18.309H18.0367C18.0517 18.789 18.1167 19.2065 18.2317 19.5615C18.3517 19.9165 18.5167 20.214 18.7267 20.454C18.9367 20.689 19.1867 20.8665 19.4767 20.9865C19.7667 21.1015 20.0917 21.159 20.4517 21.159C20.7867 21.159 21.0742 21.1215 21.3142 21.0465C21.5592 20.9665 21.7692 20.8815 21.9442 20.7915C22.1192 20.7015 22.2642 20.619 22.3792 20.544C22.4992 20.464 22.6017 20.424 22.6867 20.424C22.7967 20.424 22.8817 20.4665 22.9417 20.5515L23.3167 21.039ZM30.0265 16.3065C29.7865 15.9865 29.519 15.759 29.224 15.624C28.929 15.484 28.6015 15.414 28.2415 15.414C27.5365 15.414 26.994 15.6665 26.614 16.1715C26.234 16.6765 26.044 17.3965 26.044 18.3315C26.044 18.8265 26.0865 19.2515 26.1715 19.6065C26.2565 19.9565 26.3815 20.2465 26.5465 20.4765C26.7115 20.7015 26.914 20.8665 27.154 20.9715C27.394 21.0765 27.6665 21.129 27.9715 21.129C28.4115 21.129 28.794 21.029 29.119 20.829C29.449 20.629 29.7515 20.3465 30.0265 19.9815V16.3065ZM31.3615 14.5065V24.6765H30.0265V20.9715C29.7115 21.3415 29.349 21.6415 28.939 21.8715C28.529 22.0965 28.0615 22.209 27.5365 22.209C27.1015 22.209 26.7065 22.1265 26.3515 21.9615C25.9965 21.7915 25.694 21.544 25.444 21.219C25.194 20.894 25.0015 20.489 24.8665 20.004C24.7315 19.519 24.664 18.9615 24.664 18.3315C24.664 17.7715 24.739 17.2515 24.889 16.7715C25.039 16.2865 25.254 15.8665 25.534 15.5115C25.814 15.1565 26.1565 14.879 26.5615 14.679C26.9715 14.474 27.4315 14.3715 27.9415 14.3715C28.4365 14.3715 28.8565 14.459 29.2015 14.634C29.5465 14.809 29.8515 15.054 30.1165 15.369L30.2065 14.784C30.2565 14.599 30.3765 14.5065 30.5665 14.5065H31.3615ZM39.7176 14.5065V22.104H38.9226C38.7326 22.104 38.6126 22.0115 38.5626 21.8265L38.4576 21.009C38.1276 21.374 37.7576 21.669 37.3476 21.894C36.9376 22.114 36.4676 22.224 35.9376 22.224C35.5226 22.224 35.1551 22.1565 34.8351 22.0215C34.5201 21.8815 34.2551 21.6865 34.0401 21.4365C33.8251 21.1865 33.6626 20.884 33.5526 20.529C33.4476 20.174 33.3951 19.7815 33.3951 19.3515V14.5065H34.7301V19.3515C34.7301 19.9265 34.8601 20.3715 35.1201 20.6865C35.3851 21.0015 35.7876 21.159 36.3276 21.159C36.7226 21.159 37.0901 21.0665 37.4301 20.8815C37.7751 20.6915 38.0926 20.4315 38.3826 20.1015V14.5065H39.7176ZM46.9194 17.4765C46.9194 17.1665 46.8744 16.884 46.7844 16.629C46.6994 16.369 46.5719 16.1465 46.4019 15.9615C46.2369 15.7715 46.0344 15.6265 45.7944 15.5265C45.5544 15.4215 45.2819 15.369 44.9769 15.369C44.3369 15.369 43.8294 15.5565 43.4544 15.9315C43.0844 16.3015 42.8544 16.8165 42.7644 17.4765H46.9194ZM47.9994 21.039C47.8344 21.239 47.6369 21.414 47.4069 21.564C47.1769 21.709 46.9294 21.829 46.6644 21.924C46.4044 22.019 46.1344 22.089 45.8544 22.134C45.5744 22.184 45.2969 22.209 45.0219 22.209C44.4969 22.209 44.0119 22.1215 43.5669 21.9465C43.1269 21.7665 42.7444 21.5065 42.4194 21.1665C42.0994 20.8215 41.8494 20.3965 41.6694 19.8915C41.4894 19.3865 41.3994 18.8065 41.3994 18.1515C41.3994 17.6215 41.4794 17.1265 41.6394 16.6665C41.8044 16.2065 42.0394 15.809 42.3444 15.474C42.6494 15.134 43.0219 14.869 43.4619 14.679C43.9019 14.484 44.3969 14.3865 44.9469 14.3865C45.4019 14.3865 45.8219 14.464 46.2069 14.619C46.5969 14.769 46.9319 14.989 47.2119 15.279C47.4969 15.564 47.7194 15.919 47.8794 16.344C48.0394 16.764 48.1194 17.244 48.1194 17.784C48.1194 17.994 48.0969 18.134 48.0519 18.204C48.0069 18.274 47.9219 18.309 47.7969 18.309H42.7194C42.7344 18.789 42.7994 19.2065 42.9144 19.5615C43.0344 19.9165 43.1994 20.214 43.4094 20.454C43.6194 20.689 43.8694 20.8665 44.1594 20.9865C44.4494 21.1015 44.7744 21.159 45.1344 21.159C45.4694 21.159 45.7569 21.1215 45.9969 21.0465C46.2419 20.9665 46.4519 20.8815 46.6269 20.7915C46.8019 20.7015 46.9469 20.619 47.0619 20.544C47.1819 20.464 47.2844 20.424 47.3694 20.424C47.4794 20.424 47.5644 20.4665 47.6244 20.5515L47.9994 21.039ZM54.1842 15.759C54.1242 15.869 54.0317 15.924 53.9067 15.924C53.8317 15.924 53.7467 15.8965 53.6517 15.8415C53.5567 15.7865 53.4392 15.7265 53.2992 15.6615C53.1642 15.5915 53.0017 15.529 52.8117 15.474C52.6217 15.414 52.3967 15.384 52.1367 15.384C51.9117 15.384 51.7092 15.414 51.5292 15.474C51.3492 15.529 51.1942 15.6065 51.0642 15.7065C50.9392 15.8065 50.8417 15.924 50.7717 16.059C50.7067 16.189 50.6742 16.3315 50.6742 16.4865C50.6742 16.6815 50.7292 16.844 50.8392 16.974C50.9542 17.104 51.1042 17.2165 51.2892 17.3115C51.4742 17.4065 51.6842 17.4915 51.9192 17.5665C52.1542 17.6365 52.3942 17.714 52.6392 17.799C52.8892 17.879 53.1317 17.969 53.3667 18.069C53.6017 18.169 53.8117 18.294 53.9967 18.444C54.1817 18.594 54.3292 18.779 54.4392 18.999C54.5542 19.214 54.6117 19.474 54.6117 19.779C54.6117 20.129 54.5492 20.454 54.4242 20.754C54.2992 21.049 54.1142 21.3065 53.8692 21.5265C53.6242 21.7415 53.3242 21.9115 52.9692 22.0365C52.6142 22.1615 52.2042 22.224 51.7392 22.224C51.2092 22.224 50.7292 22.139 50.2992 21.969C49.8692 21.794 49.5042 21.5715 49.2042 21.3015L49.5192 20.7915C49.5592 20.7265 49.6067 20.6765 49.6617 20.6415C49.7167 20.6065 49.7867 20.589 49.8717 20.589C49.9617 20.589 50.0567 20.624 50.1567 20.694C50.2567 20.764 50.3767 20.8415 50.5167 20.9265C50.6617 21.0115 50.8367 21.089 51.0417 21.159C51.2467 21.229 51.5017 21.264 51.8067 21.264C52.0667 21.264 52.2942 21.2315 52.4892 21.1665C52.6842 21.0965 52.8467 21.004 52.9767 20.889C53.1067 20.774 53.2017 20.6415 53.2617 20.4915C53.3267 20.3415 53.3592 20.1815 53.3592 20.0115C53.3592 19.8015 53.3017 19.629 53.1867 19.494C53.0767 19.354 52.9292 19.2365 52.7442 19.1415C52.5592 19.0415 52.3467 18.9565 52.1067 18.8865C51.8717 18.8115 51.6292 18.734 51.3792 18.654C51.1342 18.574 50.8917 18.484 50.6517 18.384C50.4167 18.279 50.2067 18.149 50.0217 17.994C49.8367 17.839 49.6867 17.649 49.5717 17.424C49.4617 17.194 49.4067 16.9165 49.4067 16.5915C49.4067 16.3015 49.4667 16.024 49.5867 15.759C49.7067 15.489 49.8817 15.254 50.1117 15.054C50.3417 14.849 50.6242 14.6865 50.9592 14.5665C51.2942 14.4465 51.6767 14.3865 52.1067 14.3865C52.6067 14.3865 53.0542 14.4665 53.4492 14.6265C53.8492 14.7815 54.1942 14.9965 54.4842 15.2715L54.1842 15.759ZM58.5809 22.224C57.9809 22.224 57.5184 22.0565 57.1934 21.7215C56.8734 21.3865 56.7134 20.904 56.7134 20.274V15.624H55.7984C55.7184 15.624 55.6509 15.6015 55.5959 15.5565C55.5409 15.5065 55.5134 15.4315 55.5134 15.3315V14.799L56.7584 14.6415L57.0659 12.294C57.0809 12.219 57.1134 12.159 57.1634 12.114C57.2184 12.064 57.2884 12.039 57.3734 12.039H58.0484V14.6565H60.2459V15.624H58.0484V20.184C58.0484 20.504 58.1259 20.7415 58.2809 20.8965C58.4359 21.0515 58.6359 21.129 58.8809 21.129C59.0209 21.129 59.1409 21.1115 59.2409 21.0765C59.3459 21.0365 59.4359 20.994 59.5109 20.949C59.5859 20.904 59.6484 20.864 59.6984 20.829C59.7534 20.789 59.8009 20.769 59.8409 20.769C59.9109 20.769 59.9734 20.8115 60.0284 20.8965L60.4184 21.534C60.1884 21.749 59.9109 21.919 59.5859 22.044C59.2609 22.164 58.9259 22.224 58.5809 22.224ZM69.5798 18.684C68.9648 18.704 68.4398 18.754 68.0048 18.834C67.5748 18.909 67.2223 19.009 66.9473 19.134C66.6773 19.259 66.4798 19.4065 66.3548 19.5765C66.2348 19.7465 66.1748 19.9365 66.1748 20.1465C66.1748 20.3465 66.2073 20.519 66.2723 20.664C66.3373 20.809 66.4248 20.929 66.5348 21.024C66.6498 21.114 66.7823 21.1815 66.9323 21.2265C67.0873 21.2665 67.2523 21.2865 67.4273 21.2865C67.6623 21.2865 67.8773 21.264 68.0723 21.219C68.2673 21.169 68.4498 21.099 68.6198 21.009C68.7948 20.919 68.9598 20.8115 69.1148 20.6865C69.2748 20.5615 69.4298 20.419 69.5798 20.259V18.684ZM65.2673 15.579C65.6873 15.174 66.1398 14.8715 66.6248 14.6715C67.1098 14.4715 67.6473 14.3715 68.2373 14.3715C68.6623 14.3715 69.0398 14.4415 69.3698 14.5815C69.6998 14.7215 69.9773 14.9165 70.2023 15.1665C70.4273 15.4165 70.5973 15.719 70.7123 16.074C70.8273 16.429 70.8848 16.819 70.8848 17.244V22.104H70.2923C70.1623 22.104 70.0623 22.084 69.9923 22.044C69.9223 21.999 69.8673 21.914 69.8273 21.789L69.6773 21.069C69.4773 21.254 69.2823 21.419 69.0923 21.564C68.9023 21.704 68.7023 21.824 68.4923 21.924C68.2823 22.019 68.0573 22.0915 67.8173 22.1415C67.5823 22.1965 67.3198 22.224 67.0298 22.224C66.7348 22.224 66.4573 22.184 66.1973 22.104C65.9373 22.019 65.7098 21.894 65.5148 21.729C65.3248 21.564 65.1723 21.3565 65.0573 21.1065C64.9473 20.8515 64.8923 20.5515 64.8923 20.2065C64.8923 19.9065 64.9748 19.619 65.1398 19.344C65.3048 19.064 65.5723 18.8165 65.9423 18.6015C66.3123 18.3865 66.7948 18.2115 67.3898 18.0765C67.9848 17.9365 68.7148 17.8565 69.5798 17.8365V17.244C69.5798 16.654 69.4523 16.209 69.1973 15.909C68.9423 15.604 68.5698 15.4515 68.0798 15.4515C67.7498 15.4515 67.4723 15.494 67.2473 15.579C67.0273 15.659 66.8348 15.7515 66.6698 15.8565C66.5098 15.9565 66.3698 16.049 66.2498 16.134C66.1348 16.214 66.0198 16.254 65.9048 16.254C65.8148 16.254 65.7373 16.2315 65.6723 16.1865C65.6073 16.1365 65.5523 16.0765 65.5073 16.0065L65.2673 15.579ZM78.2058 15.8565C78.1658 15.9115 78.1258 15.954 78.0858 15.984C78.0458 16.014 77.9908 16.029 77.9208 16.029C77.8458 16.029 77.7633 15.999 77.6733 15.939C77.5833 15.874 77.4708 15.804 77.3358 15.729C77.2058 15.654 77.0433 15.5865 76.8483 15.5265C76.6583 15.4615 76.4233 15.429 76.1433 15.429C75.7683 15.429 75.4383 15.4965 75.1533 15.6315C74.8683 15.7615 74.6283 15.9515 74.4333 16.2015C74.2433 16.4515 74.0983 16.754 73.9983 17.109C73.9033 17.464 73.8558 17.8615 73.8558 18.3015C73.8558 18.7615 73.9083 19.1715 74.0133 19.5315C74.1183 19.8865 74.2658 20.1865 74.4558 20.4315C74.6508 20.6715 74.8833 20.8565 75.1533 20.9865C75.4283 21.1115 75.7358 21.174 76.0758 21.174C76.4008 21.174 76.6683 21.1365 76.8783 21.0615C77.0883 20.9815 77.2608 20.894 77.3958 20.799C77.5358 20.704 77.6508 20.619 77.7408 20.544C77.8358 20.464 77.9283 20.424 78.0183 20.424C78.1283 20.424 78.2133 20.4665 78.2733 20.5515L78.6483 21.039C78.4833 21.244 78.2958 21.419 78.0858 21.564C77.8758 21.709 77.6483 21.8315 77.4033 21.9315C77.1633 22.0265 76.9108 22.0965 76.6458 22.1415C76.3808 22.1865 76.1108 22.209 75.8358 22.209C75.3608 22.209 74.9183 22.1215 74.5083 21.9465C74.1033 21.7715 73.7508 21.519 73.4508 21.189C73.1508 20.854 72.9158 20.444 72.7458 19.959C72.5758 19.474 72.4908 18.9215 72.4908 18.3015C72.4908 17.7365 72.5683 17.214 72.7233 16.734C72.8833 16.254 73.1133 15.8415 73.4133 15.4965C73.7183 15.1465 74.0908 14.874 74.5308 14.679C74.9758 14.484 75.4858 14.3865 76.0608 14.3865C76.5958 14.3865 77.0658 14.474 77.4708 14.649C77.8808 14.819 78.2433 15.0615 78.5583 15.3765L78.2058 15.8565ZM85.2371 15.8565C85.1971 15.9115 85.1571 15.954 85.1171 15.984C85.0771 16.014 85.0221 16.029 84.9521 16.029C84.8771 16.029 84.7946 15.999 84.7046 15.939C84.6146 15.874 84.5021 15.804 84.3671 15.729C84.2371 15.654 84.0746 15.5865 83.8796 15.5265C83.6896 15.4615 83.4546 15.429 83.1746 15.429C82.7996 15.429 82.4696 15.4965 82.1846 15.6315C81.8996 15.7615 81.6596 15.9515 81.4646 16.2015C81.2746 16.4515 81.1296 16.754 81.0296 17.109C80.9346 17.464 80.8871 17.8615 80.8871 18.3015C80.8871 18.7615 80.9396 19.1715 81.0446 19.5315C81.1496 19.8865 81.2971 20.1865 81.4871 20.4315C81.6821 20.6715 81.9146 20.8565 82.1846 20.9865C82.4596 21.1115 82.7671 21.174 83.1071 21.174C83.4321 21.174 83.6996 21.1365 83.9096 21.0615C84.1196 20.9815 84.2921 20.894 84.4271 20.799C84.5671 20.704 84.6821 20.619 84.7721 20.544C84.8671 20.464 84.9596 20.424 85.0496 20.424C85.1596 20.424 85.2446 20.4665 85.3046 20.5515L85.6796 21.039C85.5146 21.244 85.3271 21.419 85.1171 21.564C84.9071 21.709 84.6796 21.8315 84.4346 21.9315C84.1946 22.0265 83.9421 22.0965 83.6771 22.1415C83.4121 22.1865 83.1421 22.209 82.8671 22.209C82.3921 22.209 81.9496 22.1215 81.5396 21.9465C81.1346 21.7715 80.7821 21.519 80.4821 21.189C80.1821 20.854 79.9471 20.444 79.7771 19.959C79.6071 19.474 79.5221 18.9215 79.5221 18.3015C79.5221 17.7365 79.5996 17.214 79.7546 16.734C79.9146 16.254 80.1446 15.8415 80.4446 15.4965C80.7496 15.1465 81.1221 14.874 81.5621 14.679C82.0071 14.484 82.5171 14.3865 83.0921 14.3865C83.6271 14.3865 84.0971 14.474 84.5021 14.649C84.9121 14.819 85.2746 15.0615 85.5896 15.3765L85.2371 15.8565ZM92.0658 17.4765C92.0658 17.1665 92.0208 16.884 91.9308 16.629C91.8458 16.369 91.7183 16.1465 91.5483 15.9615C91.3833 15.7715 91.1808 15.6265 90.9408 15.5265C90.7008 15.4215 90.4283 15.369 90.1233 15.369C89.4833 15.369 88.9758 15.5565 88.6008 15.9315C88.2308 16.3015 88.0008 16.8165 87.9108 17.4765H92.0658ZM93.1458 21.039C92.9808 21.239 92.7833 21.414 92.5533 21.564C92.3233 21.709 92.0758 21.829 91.8108 21.924C91.5508 22.019 91.2808 22.089 91.0008 22.134C90.7208 22.184 90.4433 22.209 90.1683 22.209C89.6433 22.209 89.1583 22.1215 88.7133 21.9465C88.2733 21.7665 87.8908 21.5065 87.5658 21.1665C87.2458 20.8215 86.9958 20.3965 86.8158 19.8915C86.6358 19.3865 86.5458 18.8065 86.5458 18.1515C86.5458 17.6215 86.6258 17.1265 86.7858 16.6665C86.9508 16.2065 87.1858 15.809 87.4908 15.474C87.7958 15.134 88.1683 14.869 88.6083 14.679C89.0483 14.484 89.5433 14.3865 90.0933 14.3865C90.5483 14.3865 90.9683 14.464 91.3533 14.619C91.7433 14.769 92.0783 14.989 92.3583 15.279C92.6433 15.564 92.8658 15.919 93.0258 16.344C93.1858 16.764 93.2658 17.244 93.2658 17.784C93.2658 17.994 93.2433 18.134 93.1983 18.204C93.1533 18.274 93.0683 18.309 92.9433 18.309H87.8658C87.8808 18.789 87.9458 19.2065 88.0608 19.5615C88.1808 19.9165 88.3458 20.214 88.5558 20.454C88.7658 20.689 89.0158 20.8665 89.3058 20.9865C89.5958 21.1015 89.9208 21.159 90.2808 21.159C90.6158 21.159 90.9033 21.1215 91.1433 21.0465C91.3883 20.9665 91.5983 20.8815 91.7733 20.7915C91.9483 20.7015 92.0933 20.619 92.2083 20.544C92.3283 20.464 92.4308 20.424 92.5158 20.424C92.6258 20.424 92.7108 20.4665 92.7708 20.5515L93.1458 21.039ZM99.3306 15.759C99.2706 15.869 99.1781 15.924 99.0531 15.924C98.9781 15.924 98.8931 15.8965 98.7981 15.8415C98.7031 15.7865 98.5856 15.7265 98.4456 15.6615C98.3106 15.5915 98.1481 15.529 97.9581 15.474C97.7681 15.414 97.5431 15.384 97.2831 15.384C97.0581 15.384 96.8556 15.414 96.6756 15.474C96.4956 15.529 96.3406 15.6065 96.2106 15.7065C96.0856 15.8065 95.9881 15.924 95.9181 16.059C95.8531 16.189 95.8206 16.3315 95.8206 16.4865C95.8206 16.6815 95.8756 16.844 95.9856 16.974C96.1006 17.104 96.2506 17.2165 96.4356 17.3115C96.6206 17.4065 96.8306 17.4915 97.0656 17.5665C97.3006 17.6365 97.5406 17.714 97.7856 17.799C98.0356 17.879 98.2781 17.969 98.5131 18.069C98.7481 18.169 98.9581 18.294 99.1431 18.444C99.3281 18.594 99.4756 18.779 99.5856 18.999C99.7006 19.214 99.7581 19.474 99.7581 19.779C99.7581 20.129 99.6956 20.454 99.5706 20.754C99.4456 21.049 99.2606 21.3065 99.0156 21.5265C98.7706 21.7415 98.4706 21.9115 98.1156 22.0365C97.7606 22.1615 97.3506 22.224 96.8856 22.224C96.3556 22.224 95.8756 22.139 95.4456 21.969C95.0156 21.794 94.6506 21.5715 94.3506 21.3015L94.6656 20.7915C94.7056 20.7265 94.7531 20.6765 94.8081 20.6415C94.8631 20.6065 94.9331 20.589 95.0181 20.589C95.1081 20.589 95.2031 20.624 95.3031 20.694C95.4031 20.764 95.5231 20.8415 95.6631 20.9265C95.8081 21.0115 95.9831 21.089 96.1881 21.159C96.3931 21.229 96.6481 21.264 96.9531 21.264C97.2131 21.264 97.4406 21.2315 97.6356 21.1665C97.8306 21.0965 97.9931 21.004 98.1231 20.889C98.2531 20.774 98.3481 20.6415 98.4081 20.4915C98.4731 20.3415 98.5056 20.1815 98.5056 20.0115C98.5056 19.8015 98.4481 19.629 98.3331 19.494C98.2231 19.354 98.0756 19.2365 97.8906 19.1415C97.7056 19.0415 97.4931 18.9565 97.2531 18.8865C97.0181 18.8115 96.7756 18.734 96.5256 18.654C96.2806 18.574 96.0381 18.484 95.7981 18.384C95.5631 18.279 95.3531 18.149 95.1681 17.994C94.9831 17.839 94.8331 17.649 94.7181 17.424C94.6081 17.194 94.5531 16.9165 94.5531 16.5915C94.5531 16.3015 94.6131 16.024 94.7331 15.759C94.8531 15.489 95.0281 15.254 95.2581 15.054C95.4881 14.849 95.7706 14.6865 96.1056 14.5665C96.4406 14.4465 96.8231 14.3865 97.2531 14.3865C97.7531 14.3865 98.2006 14.4665 98.5956 14.6265C98.9956 14.7815 99.3406 14.9965 99.6306 15.2715L99.3306 15.759ZM105.82 15.759C105.76 15.869 105.667 15.924 105.542 15.924C105.467 15.924 105.382 15.8965 105.287 15.8415C105.192 15.7865 105.075 15.7265 104.935 15.6615C104.8 15.5915 104.637 15.529 104.447 15.474C104.257 15.414 104.032 15.384 103.772 15.384C103.547 15.384 103.345 15.414 103.165 15.474C102.985 15.529 102.83 15.6065 102.7 15.7065C102.575 15.8065 102.477 15.924 102.407 16.059C102.342 16.189 102.31 16.3315 102.31 16.4865C102.31 16.6815 102.365 16.844 102.475 16.974C102.59 17.104 102.74 17.2165 102.925 17.3115C103.11 17.4065 103.32 17.4915 103.555 17.5665C103.79 17.6365 104.03 17.714 104.275 17.799C104.525 17.879 104.767 17.969 105.002 18.069C105.237 18.169 105.447 18.294 105.632 18.444C105.817 18.594 105.965 18.779 106.075 18.999C106.19 19.214 106.247 19.474 106.247 19.779C106.247 20.129 106.185 20.454 106.06 20.754C105.935 21.049 105.75 21.3065 105.505 21.5265C105.26 21.7415 104.96 21.9115 104.605 22.0365C104.25 22.1615 103.84 22.224 103.375 22.224C102.845 22.224 102.365 22.139 101.935 21.969C101.505 21.794 101.14 21.5715 100.84 21.3015L101.155 20.7915C101.195 20.7265 101.242 20.6765 101.297 20.6415C101.352 20.6065 101.422 20.589 101.507 20.589C101.597 20.589 101.692 20.624 101.792 20.694C101.892 20.764 102.012 20.8415 102.152 20.9265C102.297 21.0115 102.472 21.089 102.677 21.159C102.882 21.229 103.137 21.264 103.442 21.264C103.702 21.264 103.93 21.2315 104.125 21.1665C104.32 21.0965 104.482 21.004 104.612 20.889C104.742 20.774 104.837 20.6415 104.897 20.4915C104.962 20.3415 104.995 20.1815 104.995 20.0115C104.995 19.8015 104.937 19.629 104.822 19.494C104.712 19.354 104.565 19.2365 104.38 19.1415C104.195 19.0415 103.982 18.9565 103.742 18.8865C103.507 18.8115 103.265 18.734 103.015 18.654C102.77 18.574 102.527 18.484 102.287 18.384C102.052 18.279 101.842 18.149 101.657 17.994C101.472 17.839 101.322 17.649 101.207 17.424C101.097 17.194 101.042 16.9165 101.042 16.5915C101.042 16.3015 101.102 16.024 101.222 15.759C101.342 15.489 101.517 15.254 101.747 15.054C101.977 14.849 102.26 14.6865 102.595 14.5665C102.93 14.4465 103.312 14.3865 103.742 14.3865C104.242 14.3865 104.69 14.4665 105.085 14.6265C105.485 14.7815 105.83 14.9965 106.12 15.2715L105.82 15.759Z" fill="#090416"/>
</svg>
