<svg width="21" height="21" viewBox="0 0 21 21" fill="none" xmlns="http://www.w3.org/2000/svg">
<path d="M12.0928 15.1012C12.0117 15.1948 11.9618 15.2447 11.9119 15.2947C10.714 16.4926 9.52229 17.703 8.31189 18.8884C6.95799 20.2174 5.32957 20.6666 3.52645 20.1051C1.6859 19.5373 0.519172 18.2333 0.144822 16.3366C-0.154658 14.8142 0.23217 13.4042 1.31155 12.2749C2.70912 10.8087 4.13789 9.36745 5.61033 7.97612C7.72541 5.97335 11.2318 6.42257 12.829 8.85584C12.9289 9.00558 12.9289 9.09917 12.7916 9.22395C12.542 9.4548 12.3112 9.71061 12.0616 9.94769C11.5937 10.3782 10.9635 10.4094 10.5143 9.96641C9.58468 9.04302 8.05608 8.98686 6.99543 10.1099C5.80374 11.3702 4.54343 12.5681 3.3268 13.8035C1.99785 15.1449 2.57186 17.2538 4.40617 17.7217C5.22974 17.9338 5.96596 17.6967 6.5774 17.0915C7.3261 16.3553 8.06232 15.6129 8.80478 14.8642C8.92333 14.7394 9.02315 14.6957 9.21033 14.7581C10.1025 15.0825 11.0134 15.2323 11.9618 15.0888C11.9805 15.0825 12.0117 15.095 12.0928 15.1012Z" fill="#848198"/>
<path d="M8.01337 5.51777C8.31285 5.23077 8.61233 4.95001 8.90557 4.65677C9.87264 3.69594 10.821 2.72263 11.8005 1.77427C13.1544 0.464049 14.7704 0.0210684 16.561 0.576354C18.4016 1.14412 19.5683 2.4481 19.9427 4.34481C20.2484 5.89212 19.8428 7.30841 18.7385 8.45642C17.3596 9.88519 15.9558 11.289 14.5271 12.6679C12.543 14.5895 9.12394 14.4647 7.26467 11.8318C7.15861 11.6821 7.16485 11.5885 7.30211 11.4637C7.5392 11.2453 7.75757 11.0082 7.98842 10.7836C8.48755 10.3032 9.08651 10.2907 9.6106 10.74C10.7648 11.7257 11.994 11.6758 13.0733 10.5965C14.3149 9.35486 15.5628 8.1195 16.7981 6.86543C17.9836 5.66127 17.603 3.6897 16.0557 3.07826C15.1198 2.70391 14.2525 2.89108 13.5288 3.60235C12.7801 4.32609 12.0439 5.08103 11.2952 5.81101C11.2203 5.88588 11.0706 5.96699 10.9895 5.9358C10.0349 5.59264 9.06155 5.4429 8.05081 5.59264C8.03833 5.56769 8.02585 5.54273 8.01337 5.51777Z" fill="#848198"/>
</svg>
