<svg width="31" height="31" viewBox="0 0 31 31" fill="none" xmlns="http://www.w3.org/2000/svg">
<path d="M14.7801 0.682373C15.4072 0.682373 16.0284 0.682373 16.6555 0.682373C16.7316 0.699955 16.8078 0.723397 16.8782 0.729257C19.2165 0.905073 21.4025 1.57317 23.3951 2.80388C27.2689 5.18911 29.6541 8.61752 30.4863 13.1008C30.5859 13.6458 30.6387 14.1967 30.7148 14.7476C30.7148 15.3747 30.7148 15.9959 30.7148 16.623C30.6914 16.8164 30.6621 17.0098 30.6445 17.1973C30.3222 20.1627 29.2497 22.8293 27.3568 25.1325C25.0008 28.0041 21.9885 29.7857 18.3316 30.448C17.7748 30.5476 17.2122 30.6062 16.6555 30.6824C16.0284 30.6824 15.4072 30.6824 14.7801 30.6824C14.4167 30.6355 14.0475 30.6003 13.6842 30.5476C10.918 30.1549 8.42729 29.1 6.27062 27.3243C3.40482 24.9684 1.61736 21.9561 0.949265 18.2991C0.849636 17.7423 0.791031 17.1797 0.714844 16.623C0.714844 15.9959 0.714844 15.3747 0.714844 14.7476C0.738286 14.5542 0.767588 14.3608 0.78517 14.1733C1.13094 10.991 2.33235 8.18384 4.45386 5.78689C6.78634 3.14965 9.6873 1.51457 13.1626 0.910933C13.6959 0.817165 14.2409 0.75856 14.7801 0.682373ZM17.0305 23.3509C17.0305 22.4073 17.0305 21.4872 17.0305 20.573C17.0364 19.3305 17.0305 18.094 17.0598 16.8515C17.0774 16.1776 17.429 15.6619 17.9799 15.2985C19.0407 14.5894 20.371 15.0641 20.7168 16.2831C20.834 16.6875 20.8692 17.127 20.875 17.5548C20.8926 19.3833 20.8809 21.2059 20.8809 23.0344C20.8809 23.1399 20.8809 23.2395 20.8809 23.3391C22.1175 23.3391 23.3189 23.3391 24.5203 23.3391C24.5261 23.2454 24.532 23.1633 24.532 23.0871C24.532 21.0828 24.5379 19.0844 24.5261 17.0801C24.5261 16.6816 24.4968 16.2772 24.4499 15.8846C24.1921 13.7338 22.9086 12.3741 20.834 12.1338C19.3396 11.9639 18.0796 12.4151 17.1888 13.6986C17.1595 13.7396 17.1184 13.7748 17.0364 13.8627C17.0364 13.4114 17.0247 13.0246 17.0423 12.6378C17.0481 12.421 16.9836 12.3507 16.7609 12.3565C15.7178 12.3682 14.6687 12.3624 13.6256 12.3624C13.5494 12.3624 13.4732 12.38 13.4029 12.3858C13.4029 16.0545 13.4029 19.6998 13.4029 23.3509C14.6101 23.3509 15.7998 23.3509 17.0305 23.3509ZM11.3458 23.3567C11.3517 23.2805 11.3575 23.2337 11.3575 23.1868C11.3575 19.6587 11.3575 16.1366 11.3634 12.6085C11.3634 12.38 11.2638 12.3624 11.0821 12.3624C10.0448 12.3682 9.01334 12.3624 7.97603 12.3682C7.89398 12.3682 7.80607 12.38 7.71816 12.3858C7.71816 16.0545 7.71816 19.6998 7.71816 23.3567C8.93715 23.3567 10.1268 23.3567 11.3458 23.3567ZM7.49546 8.97501C7.49546 10.0885 8.3511 10.8797 9.53493 10.8738C10.7305 10.868 11.6037 10.0709 11.5978 8.98673C11.5978 7.87323 10.7422 7.0762 9.55837 7.0762C8.34524 7.07034 7.49546 7.84979 7.49546 8.97501Z" fill="#0A66C2"/>
</svg>
