<svg width="20" height="21" viewBox="0 0 20 21" fill="none" xmlns="http://www.w3.org/2000/svg">
<path d="M9.37683 0.0518799C9.79488 0.0518799 10.209 0.0518799 10.6271 0.0518799C10.6779 0.0636009 10.7287 0.079229 10.7755 0.083136C12.3344 0.200346 13.7918 0.645746 15.1201 1.46622C17.7027 3.05637 19.2928 5.34198 19.8476 8.33084C19.914 8.69419 19.9492 9.06145 20 9.42871C20 9.84676 20 10.2609 20 10.679C19.9844 10.8079 19.9648 10.9368 19.9531 11.0618C19.7382 13.0388 19.0232 14.8165 17.7613 16.3519C16.1907 18.2664 14.1825 19.4541 11.7445 19.8956C11.3733 19.962 10.9982 20.0011 10.6271 20.0519C10.209 20.0519 9.79488 20.0519 9.37683 20.0519C9.1346 20.0206 8.88846 19.9972 8.64622 19.962C6.80211 19.7003 5.14163 18.997 3.70385 17.8132C1.79332 16.2425 0.60168 14.2343 0.156281 11.7964C0.0898613 11.4252 0.0507912 11.0501 0 10.679C0 10.2609 0 9.84676 0 9.42871C0.0156281 9.29978 0.0351631 9.17085 0.0468842 9.04582C0.277398 6.92432 1.07834 5.05286 2.49267 3.45489C4.04767 1.69673 5.98164 0.606676 8.2985 0.204253C8.65403 0.141741 9.01739 0.102671 9.37683 0.0518799ZM10.8771 15.1642C10.8771 14.5352 10.8771 13.9218 10.8771 13.3123C10.881 12.484 10.8771 11.6596 10.8967 10.8313C10.9084 10.382 11.1428 10.0382 11.5101 9.79597C12.2172 9.32322 13.1041 9.63969 13.3346 10.4523C13.4128 10.7219 13.4362 11.015 13.4401 11.3002C13.4518 12.5192 13.444 13.7342 13.444 14.9532C13.444 15.0236 13.444 15.09 13.444 15.1564C14.2684 15.1564 15.0694 15.1564 15.8703 15.1564C15.8742 15.0939 15.8781 15.0392 15.8781 14.9884C15.8781 13.6522 15.882 12.3199 15.8742 10.9837C15.8742 10.718 15.8547 10.4484 15.8234 10.1867C15.6515 8.7528 14.7959 7.84637 13.4128 7.68618C12.4165 7.57288 11.5765 7.87372 10.9826 8.72936C10.9631 8.75671 10.9357 8.78015 10.881 8.83875C10.881 8.53791 10.8732 8.28005 10.8849 8.02219C10.8888 7.87763 10.8459 7.83074 10.6974 7.83465C10.002 7.84246 9.3026 7.83856 8.60715 7.83856C8.55636 7.83856 8.50557 7.85028 8.45868 7.85419C8.45868 10.3 8.45868 12.7301 8.45868 15.1642C9.26353 15.1642 10.0567 15.1642 10.8771 15.1642ZM7.08732 15.1681C7.09123 15.1173 7.09514 15.0861 7.09514 15.0548C7.09514 12.7028 7.09514 10.3547 7.09904 8.00265C7.09904 7.85028 7.03262 7.83856 6.91151 7.83856C6.21996 7.84246 5.53233 7.83856 4.84079 7.84246C4.78609 7.84246 4.72749 7.85028 4.66888 7.85419C4.66888 10.3 4.66888 12.7301 4.66888 15.1681C5.48154 15.1681 6.27466 15.1681 7.08732 15.1681ZM4.52041 5.5803C4.52041 6.32264 5.09084 6.85008 5.88005 6.84618C6.67709 6.84227 7.25923 6.31091 7.25532 5.58812C7.25532 4.84579 6.6849 4.31443 5.89568 4.31443C5.08693 4.31052 4.52041 4.83016 4.52041 5.5803Z" fill="#090416"/>
</svg>
