<svg width="19" height="26" viewBox="0 0 19 26" fill="none" xmlns="http://www.w3.org/2000/svg">
<path d="M1.78125 26C1.28646 26 0.865885 25.8194 0.519531 25.4583C0.173177 25.0972 0 24.6587 0 24.1429V10.7095C0 10.1937 0.173177 9.75516 0.519531 9.39405C0.865885 9.03294 1.28646 8.85238 1.78125 8.85238H3.85938V5.88095C3.85938 4.25079 4.40859 2.8631 5.50703 1.71786C6.60547 0.572619 7.93646 0 9.5 0C11.0635 0 12.3945 0.572619 13.493 1.71786C14.5914 2.8631 15.1406 4.25079 15.1406 5.88095V8.85238H17.2188C17.7135 8.85238 18.1341 9.03294 18.4805 9.39405C18.8268 9.75516 19 10.1937 19 10.7095V24.1429C19 24.6587 18.8268 25.0972 18.4805 25.4583C18.1341 25.8194 17.7135 26 17.2188 26H1.78125ZM1.78125 24.1429H17.2188V10.7095H1.78125V24.1429ZM9.5 19.8095C10.1333 19.8095 10.6727 19.5825 11.118 19.1286C11.5633 18.6746 11.7859 18.1278 11.7859 17.4881C11.7859 16.869 11.5633 16.3067 11.118 15.8012C10.6727 15.2956 10.1333 15.0429 9.5 15.0429C8.86667 15.0429 8.32734 15.2956 7.88203 15.8012C7.43672 16.3067 7.21406 16.869 7.21406 17.4881C7.21406 18.1278 7.43672 18.6746 7.88203 19.1286C8.32734 19.5825 8.86667 19.8095 9.5 19.8095ZM5.64062 8.85238H13.3594V5.88095C13.3594 4.76667 12.9833 3.81746 12.2312 3.03333C11.4792 2.24921 10.5688 1.85714 9.5 1.85714C8.43125 1.85714 7.52083 2.24921 6.76875 3.03333C6.01667 3.81746 5.64062 4.76667 5.64062 5.88095V8.85238ZM1.78125 24.1429V10.7095V24.1429Z" fill="white"/>
</svg>
