<svg width="22" height="30" viewBox="0 0 22 30" fill="none" xmlns="http://www.w3.org/2000/svg">
<path d="M1.95761 12.9093V14.296C1.95761 14.3589 1.92225 14.4178 1.8594 14.4335C1.79654 14.4453 1.7219 14.3982 1.7219 14.3353V12.9485C1.7219 12.8857 1.75725 12.8268 1.82011 12.811C1.88297 12.7993 1.95761 12.8464 1.95761 12.9093ZM2.49975 12.9721V13.9464C2.49975 14.0093 2.46439 14.0682 2.40154 14.0839C2.33868 14.0957 2.26404 14.0485 2.26404 13.9857V13.0075C2.26404 12.9446 2.29939 12.8857 2.36225 12.87C2.41332 12.8582 2.49975 12.8975 2.49975 12.9721ZM2.97118 12.9721V13.801C2.97118 13.8639 2.93582 13.9228 2.87296 13.9385C2.81011 13.9503 2.73547 13.9032 2.73547 13.8403V13.0114C2.73547 12.9485 2.77082 12.8896 2.83368 12.8739C2.89654 12.8582 2.97118 12.8975 2.97118 12.9721ZM1.69832 11.6993C1.69832 11.5264 1.76118 11.3653 1.88297 11.2435C2.00475 11.1218 2.16582 11.0589 2.33868 11.0589C2.42511 11.0589 2.51154 11.0707 2.58618 11.11C2.66082 11.1453 2.73547 11.1846 2.79832 11.2475C2.92011 11.3693 2.98296 11.5303 2.98296 11.7032V11.7543C2.98296 11.9271 2.92011 12.0882 2.79832 12.21C2.67654 12.3318 2.51547 12.3946 2.34261 12.3946C2.25618 12.3946 2.16975 12.3828 2.09511 12.3435C2.02047 12.3082 1.94582 12.2689 1.88297 12.206C1.76118 12.0843 1.69832 11.9232 1.69832 11.7503V11.6993ZM3.36796 13.8757V13.3689C3.36796 13.1096 3.29332 12.8739 3.17154 12.701C3.44261 12.4771 3.60368 12.1314 3.60368 11.7621C3.60368 11.3182 3.36796 10.9332 3.02225 10.7093C3.08511 9.60926 3.28154 8.54462 3.62725 7.53105C3.82368 6.94963 4.07118 6.39177 4.35796 5.86142C4.64082 5.34284 4.96296 4.84785 5.32439 4.40392C5.68582 3.95999 6.07867 3.55142 6.49903 3.20571C6.91938 2.84821 7.3751 2.54964 7.84653 2.30214C8.82081 1.79142 9.85795 1.53214 10.9226 1.53214C11.9872 1.53214 13.0244 1.79142 14.0026 2.29821C14.474 2.54571 14.9297 2.85607 15.3501 3.20178C15.7704 3.54749 16.1672 3.95606 16.5247 4.39999C16.8822 4.84392 17.2044 5.33892 17.4911 5.85749C17.774 6.37606 18.0215 6.9457 18.2219 7.52713C18.5794 8.56427 18.7797 9.65248 18.8269 10.78C18.544 11.0039 18.3554 11.3614 18.3554 11.7582C18.379 12.1275 18.5401 12.4614 18.8111 12.6971C18.6894 12.87 18.6147 13.1057 18.6147 13.365V13.8718L3.36796 13.8757ZM2.94761 7.07141C3.37975 5.79856 4.01225 4.64749 4.80189 3.66928C5.60724 2.67928 6.53439 1.91321 7.55974 1.37107C8.63617 0.813213 9.77152 0.530356 10.9462 0.530356C12.1208 0.530356 13.2719 0.813213 14.3326 1.37107C15.3697 1.91321 16.2969 2.68321 17.0904 3.66928C17.8801 4.64749 18.5126 5.79463 18.9447 7.07141C19.3415 8.22248 19.5615 9.43248 19.6126 10.6818H19.3415C19.2904 9.45605 19.0704 8.28141 18.6854 7.15784C18.2651 5.90856 17.6483 4.79677 16.8665 3.84213C16.0847 2.88749 15.1851 2.13714 14.1833 1.61464C13.1462 1.0725 12.0422 0.797498 10.9187 0.797498C9.77938 0.797498 8.67938 1.06857 7.65403 1.61464C6.65224 2.13321 5.74867 2.88749 4.97082 3.84213C4.22832 4.79285 3.62332 5.90856 3.19118 7.15784C2.80618 8.28141 2.58618 9.47176 2.53511 10.6818H2.26404C2.32689 9.43641 2.55082 8.22248 2.94761 7.07141ZM19.1686 12.9957V13.8246C19.1686 13.8875 19.094 13.9346 19.0311 13.9228C18.9565 13.911 18.9329 13.8482 18.9329 13.7853V12.9564C18.9329 12.8935 19.0076 12.8464 19.0704 12.8582C19.1333 12.87 19.1686 12.9328 19.1686 12.9957ZM19.6401 12.9957V13.9739C19.6401 14.0368 19.5654 14.0839 19.5026 14.0721C19.4279 14.0603 19.4044 13.9975 19.4044 13.9346V12.9564C19.4044 12.8935 19.479 12.8464 19.5419 12.8582C19.6165 12.8739 19.6401 12.9328 19.6401 12.9957ZM20.1822 12.9446V14.3314C20.1822 14.3943 20.1076 14.4414 20.0447 14.4296C19.9701 14.4178 19.9465 14.355 19.9465 14.2921V12.9053C19.9465 12.8425 20.0211 12.7953 20.084 12.8071C20.1469 12.811 20.1822 12.8739 20.1822 12.9446ZM20.194 11.7464C20.194 12.0921 19.8954 12.3907 19.5497 12.3907C19.4633 12.3907 19.3769 12.3789 19.3022 12.3396C19.0665 12.2414 18.9054 12.0175 18.9054 11.7464C18.9054 11.4007 19.204 11.1021 19.5497 11.1021C19.6244 11.1021 19.699 11.1139 19.7736 11.1375C20.0211 11.2396 20.194 11.4753 20.194 11.7464ZM20.579 14.74C20.5908 14.6653 20.6026 14.5907 20.6026 14.5043V13.365C20.6026 13.1057 20.5279 12.87 20.4061 12.6971C20.6772 12.4732 20.8383 12.1275 20.8383 11.7582C20.8383 11.2396 20.5161 10.7918 20.0604 10.6071C19.9976 9.33426 19.7619 8.10855 19.3572 6.93391C19.1215 6.26606 18.8504 5.60999 18.5165 5.00499C18.1944 4.39999 17.8133 3.84213 17.4047 3.32356C16.9961 2.80499 16.5404 2.34535 16.0572 1.93678C15.5583 1.53214 15.0397 1.17464 14.4937 0.891784C13.3819 0.298571 12.1837 0 10.9462 0C9.70866 0 8.51045 0.298571 7.38688 0.891784C6.84474 1.17464 6.32224 1.52428 5.82724 1.94464C5.34403 2.34928 4.88832 2.82071 4.47975 3.32749C4.07118 3.84606 3.69011 4.40392 3.36796 5.00892C3.03404 5.61392 2.75118 6.26999 2.52725 6.93784C2.11868 8.12427 1.88297 9.37355 1.82404 10.6739C1.42725 10.886 1.16797 11.2907 1.16797 11.7621C1.16797 12.1314 1.34083 12.481 1.60011 12.701C1.47833 12.8739 1.40368 13.1096 1.40368 13.3689V14.5082C1.40368 14.5946 1.41547 14.6693 1.42725 14.7439" fill="#090416"/>
<path d="M19.3881 11.3495C19.3135 11.381 19.2467 11.4242 19.2035 11.491C19.1288 11.5892 19.0974 11.707 19.1171 11.8249C19.1288 11.9428 19.1917 12.0528 19.2899 12.1274C19.3213 12.147 19.3528 12.1706 19.396 12.1903C19.4706 12.2217 19.5374 12.2217 19.6121 12.2217C19.6435 12.2099 19.6867 12.202 19.7181 12.1903C19.7928 12.1588 19.8595 12.1156 19.9028 12.0488C19.9774 11.9506 20.0088 11.8328 19.9892 11.7149C19.9774 11.597 19.9145 11.487 19.8163 11.4124C19.7849 11.3928 19.7535 11.3692 19.7103 11.3495C19.6356 11.3181 19.5688 11.3181 19.4942 11.3181C19.4628 11.3299 19.4196 11.3378 19.3881 11.3495Z" fill="#090416"/>
<path d="M2.16937 11.3063C2.09473 11.3378 2.02794 11.381 1.98473 11.4478C1.91009 11.546 1.87866 11.6638 1.8983 11.7817C1.91009 11.8995 1.97294 12.0095 2.07116 12.0842C2.10259 12.1038 2.13402 12.1274 2.17723 12.147C2.25187 12.1785 2.31866 12.1785 2.3933 12.1785C2.42473 12.1667 2.46794 12.1588 2.49937 12.147C2.57401 12.1156 2.6408 12.0724 2.68401 12.0056C2.75866 11.9074 2.79009 11.7895 2.77044 11.6717C2.75866 11.5538 2.6958 11.4438 2.59759 11.3692C2.56616 11.3495 2.53473 11.326 2.49151 11.3063C2.41687 11.2749 2.35009 11.2749 2.27544 11.2749C2.24402 11.2828 2.2008 11.2945 2.16937 11.3063Z" fill="#090416"/>
<path d="M21.4892 29.9789H0.510713C0.227857 29.9789 0 29.751 0 29.4681V15.1917C0 14.9089 0.227857 14.681 0.510713 14.681H21.4892C21.7721 14.681 21.9999 14.9089 21.9999 15.1917V29.4681C22.0039 29.751 21.7721 29.9789 21.4892 29.9789ZM0.510713 15.1525C0.49107 15.1525 0.471427 15.1682 0.471427 15.1917V29.4681C0.471427 29.4878 0.487142 29.5074 0.510713 29.5074H21.4892C21.5089 29.5074 21.5285 29.4917 21.5285 29.4681V15.1917C21.5285 15.1721 21.5128 15.1525 21.4892 15.1525H0.510713Z" fill="#090416"/>
<path d="M20.8598 29.1302H1.1423C0.981227 29.1302 0.847656 28.9967 0.847656 28.8356V15.8242C0.847656 15.6631 0.981227 15.5295 1.1423 15.5295H20.8598C21.0208 15.5295 21.1544 15.6631 21.1544 15.8242V28.8356C21.1544 28.9967 21.0208 29.1302 20.8598 29.1302ZM1.1423 15.8045C1.13051 15.8045 1.12266 15.8124 1.12266 15.8242V28.8356C1.12266 28.8474 1.13051 28.8552 1.1423 28.8552H20.8598C20.8715 28.8552 20.8794 28.8474 20.8794 28.8356V15.8242C20.8794 15.8124 20.8715 15.8045 20.8598 15.8045H1.1423Z" fill="#090416"/>
<path d="M11.0029 21.2654C11.6647 21.2654 12.2011 20.729 12.2011 20.0672C12.2011 19.4055 11.6647 18.869 11.0029 18.869C10.3411 18.869 9.80469 19.4055 9.80469 20.0672C9.80469 20.729 10.3411 21.2654 11.0029 21.2654Z" fill="#090416"/>
<path d="M12.6249 25.0055H9.38384C9.28563 25.0055 9.20312 24.9191 9.20312 24.813L10.2874 20.637C10.2874 20.5309 10.3699 20.4445 10.4681 20.4445H11.5406C11.6388 20.4445 11.7213 20.5309 11.7213 20.637L12.8056 24.813C12.8056 24.9191 12.7231 25.0055 12.6249 25.0055Z" fill="#090416"/>
</svg>
