<svg width="21" height="23" viewBox="0 0 21 23" fill="none" xmlns="http://www.w3.org/2000/svg">
<path d="M17.5144 0.472534C18.5723 0.67535 19.2959 1.35506 19.8495 2.21565C20.5018 3.23521 20.299 4.59463 19.4165 5.42781C19.1205 5.70737 18.7149 5.71833 18.4243 5.4607C18.1393 5.20307 18.1064 4.79196 18.3531 4.47403C18.3969 4.41374 18.4463 4.35892 18.4901 4.30411C18.8464 3.87107 18.9067 3.36129 18.5778 2.9118C18.3476 2.59936 18.0571 2.31432 17.7446 2.0841C17.3226 1.76617 16.8676 1.90869 16.4784 2.18276C16.0892 2.45684 15.7384 2.79121 15.3711 3.09818C15.3602 3.13106 15.3492 3.16395 15.3382 3.19684C15.4095 3.23521 15.4917 3.26262 15.5465 3.31744C16.3523 4.11774 17.1471 4.91804 17.9529 5.71833C18.1338 5.89922 18.2544 6.09656 18.2325 6.35967C18.2051 6.64471 18.0571 6.85301 17.7885 6.96264C17.5254 7.06679 17.2732 7.02841 17.0485 6.84204C16.9991 6.79819 16.9498 6.75434 16.906 6.70501C15.9193 5.71833 14.9326 4.73166 13.9459 3.74499C13.5294 3.3284 13.5294 2.95017 13.9405 2.53358C14.1104 2.36365 14.2858 2.19373 14.4502 2.0238C15.1628 1.30024 15.9138 0.664387 16.9443 0.472534C17.1362 0.472534 17.3226 0.472534 17.5144 0.472534Z" fill="#D5D2DF"/>
<path d="M16.7225 7.83424C16.6567 7.98224 16.5964 8.13572 16.5197 8.27824C16.4758 8.36046 16.3936 8.42076 16.3278 8.48654C13.0718 11.7426 9.81577 14.9931 6.56524 18.2546C6.36242 18.4574 6.1322 18.5835 5.84716 18.6438C4.70701 18.8795 3.56685 19.1316 2.4267 19.3838C2.33352 19.4057 2.24033 19.4605 2.16907 19.5263C1.94433 19.7346 1.73603 19.9593 1.51677 20.1731C1.18788 20.4965 0.754843 20.513 0.458841 20.2224C0.151877 19.921 0.140914 19.4605 0.508175 19.159C1.10566 18.6767 1.38522 18.0627 1.50033 17.3172C1.63736 16.4676 1.85663 15.6344 2.03203 14.7903C2.08685 14.5217 2.20744 14.3079 2.39929 14.1106C5.66627 10.8491 8.93325 7.58209 12.1947 4.32059C12.6607 3.85467 13.017 3.86015 13.4829 4.32608C14.4476 5.29082 15.4179 6.25557 16.3826 7.22031C16.5525 7.39024 16.6841 7.57113 16.7225 7.83424ZM11.1313 7.43409C11.0875 7.47794 11.0601 7.49987 11.0327 7.52179C8.53858 10.0159 6.03901 12.51 3.54493 15.0095C3.47367 15.0808 3.41885 15.1904 3.39693 15.2891C3.2873 15.7441 3.19411 16.199 3.09545 16.6595C3.01322 17.0322 2.93648 17.4049 2.85426 17.7996C2.931 17.7887 2.97485 17.7887 3.0187 17.7832C3.78063 17.6187 4.54804 17.4543 5.30449 17.2789C5.45249 17.246 5.60597 17.1638 5.71012 17.0596C8.72495 14.0503 11.7398 11.0354 14.7546 8.02609C14.8149 7.9658 14.9026 7.92742 14.9574 7.88905C14.2119 7.14357 13.5158 6.44742 12.8361 5.76771C12.6223 5.98149 12.3976 6.20623 12.1509 6.4529C12.2057 6.49675 12.2715 6.54609 12.3263 6.6009C12.6936 6.96816 13.0608 7.32994 13.4226 7.70268C13.6254 7.91098 13.6967 8.16861 13.598 8.44817C13.5048 8.71128 13.313 8.87024 13.0389 8.91958C12.7703 8.96891 12.5565 8.85928 12.3702 8.67291C11.959 8.2618 11.5534 7.85617 11.1313 7.43409Z" fill="#D5D2DF"/>
<path d="M15.8083 22.9413C15.1286 22.9193 14.4927 22.7549 13.8898 22.4534C13.38 22.2013 12.8647 21.9601 12.344 21.7244C11.2477 21.2256 10.1568 21.3462 9.06603 21.7628C8.30958 22.0533 7.55861 22.3548 6.7912 22.6124C5.28379 23.1276 3.85312 22.9139 2.52111 22.0533C2.25252 21.8779 1.9894 21.697 1.73177 21.4996C1.38096 21.231 1.31518 20.798 1.56185 20.4746C1.80303 20.1567 2.21963 20.1019 2.58141 20.343C2.87193 20.5404 3.15148 20.7487 3.45297 20.935C4.3629 21.4942 5.33312 21.5928 6.33624 21.253C7.10913 20.9899 7.8601 20.6719 8.62751 20.3924C9.49907 20.0744 10.3871 19.8662 11.3299 19.9703C11.9164 20.0361 12.4755 20.2005 13.0072 20.4417C13.506 20.6664 14.0103 20.8857 14.4872 21.1488C15.5726 21.7518 17.239 21.4777 17.9954 20.5842C18.1873 20.3595 18.4394 20.2773 18.7299 20.354C19.004 20.4307 19.1794 20.6171 19.2452 20.8967C19.3055 21.1543 19.2178 21.3681 19.0478 21.5599C18.4175 22.2616 17.6062 22.6398 16.7018 22.8207C16.4058 22.8919 16.1043 22.9084 15.8083 22.9413Z" fill="#D5D2DF"/>
</svg>
