<svg width="16" height="17" viewBox="0 0 16 17" fill="none" xmlns="http://www.w3.org/2000/svg">
<path d="M11.4351 11.0151H10.7078L10.4563 10.7635C11.3528 9.72518 11.8925 8.37582 11.8925 6.89842C11.8925 3.61424 9.2304 0.952148 5.94627 0.952148C2.66214 0.952148 0 3.61424 0 6.89842C0 10.1826 2.66209 12.8447 5.94627 12.8447C7.42367 12.8447 8.77303 12.3049 9.81132 11.413L10.0629 11.6646V12.3873L14.6369 16.9521L16 15.5891L11.4351 11.0151ZM5.94627 11.0151C3.67299 11.0151 1.82963 9.1717 1.82963 6.89842C1.82963 4.62513 3.67299 2.78178 5.94627 2.78178C8.21955 2.78178 10.0629 4.62513 10.0629 6.89842C10.0629 9.1717 8.21955 11.0151 5.94627 11.0151Z" fill="#090416"/>
</svg>
