<svg width="194" height="80" viewBox="0 0 194 80" fill="none" xmlns="http://www.w3.org/2000/svg">
<path d="M12.5012 66.5463C16.6012 66.8463 20.6012 67.1463 24.7012 66.4463C20.6012 65.7463 16.6012 66.0463 12.5012 66.3463C12.5012 66.4463 12.5012 66.5463 12.5012 66.5463Z" fill="#090416"/>
<path d="M3.80126 40.7463C3.70126 40.7463 3.70126 40.9463 3.80126 40.9463C10.4013 41.4463 17.1013 41.1463 23.7013 41.2463C30.6013 41.3463 37.5013 41.6463 44.3013 40.8463C44.4013 40.8463 44.3013 40.7463 44.3013 40.7463C37.4013 39.9463 30.6013 40.2463 23.7013 40.3463C17.1013 40.5463 10.4013 40.2463 3.80126 40.7463Z" fill="#090416"/>
<path d="M48.4004 39.9463C48.3004 39.8463 48.2004 39.9463 48.2004 40.0463C47.9004 45.0463 55.5004 43.3463 58.4004 43.3463C55.2004 42.7463 50.6004 42.8463 48.4004 39.9463Z" fill="#090416"/>
<path d="M71.4004 39.9463C71.3004 39.8463 71.2004 39.9463 71.2004 40.0463C70.9004 45.0463 78.5004 43.3463 81.4004 43.3463C78.2004 42.7463 73.5004 42.8463 71.4004 39.9463Z" fill="#090416"/>
<path d="M93.9004 39.9463C93.8004 39.8463 93.7004 39.9463 93.7004 40.0463C93.4004 45.0463 101 43.3463 103.9 43.3463C100.7 42.7463 96.0004 42.8463 93.9004 39.9463Z" fill="#090416"/>
<path d="M176.9 19.6463C176.9 17.3463 175 15.0463 172.5 14.4463L171.8 14.2463L171.6 14.9463C171.3 16.1463 170.7 17.2463 169.7 18.2463C169.7 18.2463 169.7 18.2463 169.6 18.3463L168.6 19.3463L170 19.5463C171.8 19.8463 173.7 20.5463 175.4 21.7463L176.1 22.2463L176.4 21.4463C176.8 20.8463 176.9 20.2463 176.9 19.6463ZM171.5 18.3463C172.1 17.6463 172.5 16.8463 172.8 16.0463C174.4 16.7463 175.6 18.3463 175.4 19.9463C174.2 19.2463 172.8 18.6463 171.5 18.3463Z" fill="#090416"/>
<path d="M183.1 30.5463C184.1 29.7463 184.6 28.6463 184.6 27.4463C184.6 25.8463 183.6 24.0463 182 23.0463C180.7 22.1463 179.2 21.9463 178 22.4463L177 22.8463L177.8 23.6463C178.6 24.3463 179.2 25.1463 179.7 25.9463C180.5 27.2463 181.3 28.7463 181.8 30.3463L182.2 31.4463L183.1 30.5463C183 30.5463 183.1 30.5463 183.1 30.5463ZM180.9 25.1463C180.6 24.6463 180.2 24.1463 179.8 23.6463C180.2 23.7463 180.7 23.9463 181.2 24.2463C182.4 25.0463 183.1 26.3463 183.1 27.4463C183.1 27.8463 183 28.3463 182.8 28.6463C182.3 27.3463 181.6 26.1463 180.9 25.1463Z" fill="#090416"/>
<path d="M168.6 60.6463L169.6 61.6463C169.6 61.6463 169.6 61.6463 169.7 61.7463C170.7 62.7463 171.3 63.9463 171.6 65.0463L171.8 65.7463L172.5 65.5463C175 64.8463 176.9 62.6463 176.9 60.3463C176.9 59.7463 176.8 59.1463 176.6 58.5463L176.3 57.7463L175.6 58.2463C173.9 59.4463 172 60.1463 170.2 60.4463L168.6 60.6463ZM172.8 63.9463C172.5 63.1463 172.1 62.3463 171.5 61.6463C172.8 61.3463 174.1 60.7463 175.4 60.0463C175.6 61.6463 174.5 63.2463 172.8 63.9463Z" fill="#090416"/>
<path d="M120.2 51.0463C120.2 52.5463 120.1 54.1463 120 55.6463C119.9 56.8463 119.8 58.0463 119.8 59.2463C119.8 59.6463 119.8 60.0463 119.8 60.4463C119.8 66.9463 121.4 71.5463 124.8 74.9463C128.5 78.6463 133.5 80.5463 138.3 79.8463C141.5 79.4463 144.4 78.0463 146.7 76.0463C148.6 74.3463 150.1 71.9463 151.6 69.7463C152.4 68.4463 153.2 67.2463 154.1 66.1463C153.9 66.7463 153.8 67.4463 153.8 68.1463C153.8 70.6463 154.9 73.0463 156.7 74.2463C159 75.9463 162.4 76.4463 165.6 75.5463C169.6 74.3463 172.4 71.2463 173.2 67.7463C176.7 66.9463 179.4 63.7463 179.4 60.0463C181.1 60.0463 182.8 59.3463 184.3 58.1463C186.1 56.5463 187.3 54.3463 187.3 52.2463C187.3 51.2463 187.1 50.3463 186.6 49.4463C190.6 48.1463 193.4 44.5463 193.4 40.5463C193.4 40.3463 193.4 39.6463 193.4 39.4463C193.4 35.3463 190.7 31.8463 186.6 30.5463C187.1 29.6463 187.3 28.7463 187.3 27.7463C187.3 25.6463 186.2 23.4463 184.3 21.8463C182.8 20.5463 181.1 19.9463 179.4 19.9463C179.4 16.2463 176.8 12.9463 173.2 12.2463C172.4 8.84629 169.6 5.64629 165.6 4.44629C162.4 3.54629 159 4.04629 156.7 5.74629C154.9 7.04629 153.8 9.34629 153.8 11.8463C153.8 12.5463 153.9 13.1463 154.1 13.8463C153.2 12.7463 152.4 11.4463 151.6 10.2463C150.1 7.94629 148.6 5.64629 146.7 3.94629C144.5 1.94629 141.5 0.546288 138.3 0.146288C133.5 -0.553712 128.5 1.34629 124.8 5.04629C121.4 8.54629 119.8 13.1463 119.8 19.5463C119.8 19.9463 119.8 20.3463 119.8 20.7463C119.8 21.9463 119.9 23.1463 120 24.3463C120.1 25.8463 120.2 27.4463 120.2 28.9463C120.2 29.5463 120.2 30.1463 120.1 30.6463C120 31.4463 119.9 32.4463 119.3 33.1463C119.1 33.0463 118.8 33.0463 118.6 33.0463C117.9 33.0463 117.2 33.3463 116.8 33.9463C116.7 33.9463 116.7 33.9463 116.6 33.9463C116.4 33.8463 116.4 33.7463 116.4 33.7463C116.3 33.4463 116.5 33.1463 116.6 32.7463C116.8 32.3463 117 31.8463 117 31.2463C117 30.9463 117 30.7463 116.9 30.4463C116.4 29.0463 114.8 28.3463 113.3 28.7463C111.8 29.1463 110.9 30.5463 110.9 32.2463C110.9 33.3463 111.2 34.3463 111.8 35.1463C112.1 35.5463 112.5 35.9463 112.9 36.2463L108.1 36.2463C107.6 35.2463 106.2 34.4463 104.5 34.4463L95.1004 34.4463C93.4004 34.4463 92.0004 35.1463 91.5004 36.2463L85.4004 36.2463C84.9004 35.2463 83.5004 34.4463 81.8004 34.4463L72.3004 34.4463C70.6004 34.4463 69.2004 35.1463 68.7004 36.2463L62.6004 36.2463C62.1004 35.2463 60.7004 34.4463 59.0004 34.4463L49.5004 34.4463C47.8004 34.4463 46.4004 35.1463 45.9004 36.2463L3.10039 36.2463C1.70039 36.2463 0.600386 37.9463 0.600386 40.0463C0.600386 42.1463 1.70039 43.8463 3.10039 43.8463L11.1004 43.8463L11.1004 47.5463C9.70039 47.6463 8.50038 48.6463 8.50038 50.0463L8.50038 52.5463L2.80038 52.5463C1.70038 52.5463 0.800382 53.2463 0.800382 54.1463L0.800382 62.8463C0.800382 63.7463 1.70038 64.4463 2.80038 64.4463L8.50038 64.4463L8.50038 66.9463C8.50038 68.3463 9.70039 69.4463 11.2004 69.4463L26.3004 69.4463C27.8004 69.4463 29.0004 68.3463 29.0004 66.9463L29.0004 64.4463L33.9004 64.4463C35.0004 64.4463 35.9004 63.7463 35.9004 62.8463L35.9004 54.1463C35.9004 53.2463 35.0004 52.5463 33.9004 52.5463L29.0004 52.5463L29.0004 50.0463C29.0004 48.6463 27.8004 47.5463 26.3004 47.5463L25.3004 47.5463L25.3004 43.8463L45.9004 43.8463C46.3004 45.0463 47.8004 45.9463 49.6004 45.9463L59.1004 45.9463C60.9004 45.9463 62.4004 45.0463 62.8004 43.8463L68.6004 43.8463C69.0004 45.0463 70.5004 45.9463 72.3004 45.9463L81.8004 45.9463C83.6004 45.9463 85.1004 45.0463 85.5004 43.8463L91.3004 43.8463C91.7004 45.0463 93.2004 45.9463 95.0004 45.9463L104.5 45.9463C106.3 45.9463 107.8 45.0463 108.2 43.8463L112.8 43.8463C112.4 44.1463 112.1 44.5463 111.8 44.9463C111.2 45.7463 110.9 46.7463 110.9 47.8463C110.9 49.6463 111.8 50.9463 113.3 51.3463C114.8 51.7463 116.4 51.0463 116.9 49.6463C117 49.3463 117 49.1463 117 48.8463C117 48.2463 116.8 47.7463 116.6 47.3463C116.4 46.9463 116.3 46.6463 116.4 46.3463C116.4 46.3463 116.4 46.2463 116.6 46.1463C116.7 46.1463 116.7 46.1463 116.8 46.1463C117.3 46.6463 117.9 47.0463 118.6 47.0463C118.9 47.0463 119.1 47.0463 119.3 46.9463C119.8 47.6463 120 48.6463 120.1 49.4463C120.2 49.9463 120.2 50.4463 120.2 51.0463ZM137.6 17.4463C139.3 17.1463 140.4 16.0463 140.4 14.5463C140.4 13.5463 139.9 12.4463 139 11.6463C138.1 10.8463 136.7 10.5463 135.2 10.7463C133.4 11.0463 131.6 12.1463 130.8 13.4463C130.3 14.2463 130.1 15.1463 130.1 16.1463C130.1 18.1463 131.2 20.3463 132.9 21.8463C137.1 25.6463 143.7 24.3463 147.1 20.7463C148 19.8463 148.7 18.7463 149.2 17.6463C149.3 17.9463 149.4 18.2463 149.5 18.6463C149.7 19.6463 149.8 20.7463 149.8 21.9463C149.8 23.5463 149.6 25.1463 149.4 26.5463C148.9 30.3463 146.6 33.6463 142.3 35.3463C140.8 35.9463 139.3 36.3463 138 36.4463C137.8 35.2463 136.8 34.3463 135.5 34.3463C134.4 34.3463 133.5 35.0463 133.1 35.9463C132.2 35.6463 131.4 35.1463 130.6 34.5463C128.6 33.0463 127 30.1463 126.9 27.6463C126.9 27.4463 126.9 27.2463 127 27.0463C127.2 25.9463 128.1 25.0463 129.2 24.7463C130.3 24.4463 131.4 24.9463 131 26.0463C130.7 26.9463 129.5 27.5463 129.4 28.5463C129.1 30.8463 131.9 32.1463 133.8 31.0463C135.7 30.0463 136.1 27.5463 135.8 25.6463C135.6 24.4463 135 23.2463 134 22.5463C132.2 21.1463 129.7 20.5463 127.8 21.0463C126.2 21.4463 125 22.4463 124.2 23.8463C124.2 23.6463 124.2 23.4463 124.2 23.3463C124.1 21.7463 123.9 20.2463 123.9 18.6463C123.9 13.4463 125.6 9.34629 129 6.44629C132.2 3.74629 137.6 3.14629 141.7 5.04629C143.6 5.94629 146.7 8.04629 146.7 12.6463C146.7 16.5463 143.3 20.3463 139.5 20.7463C137.6 20.9463 134.8 19.5463 134.1 17.6463C134 17.3463 133.9 17.0463 133.9 16.7463C133.9 16.4463 134 15.4463 134.6 15.2463C134.7 15.3463 134.8 15.6463 134.9 15.8463C135.2 16.4463 135.8 17.7463 137.6 17.4463ZM138.9 68.3463C139.8 67.5463 140.3 66.5463 140.3 65.4463C140.3 63.9463 139.2 62.8463 137.5 62.5463C135.8 62.2463 135.1 63.5463 134.7 64.3463C134.6 64.5463 134.5 64.8463 134.4 64.9463C133.7 64.6463 133.7 63.7463 133.7 63.4463C133.7 63.1463 133.8 62.7463 133.9 62.5463C134.6 60.6463 137.5 59.2463 139.3 59.4463C143.1 59.8463 146.5 63.5463 146.5 67.5463C146.5 72.1463 143.4 74.2463 141.5 75.1463C137.4 77.0463 132 76.4463 128.8 73.7463C125.4 70.8463 123.7 66.7463 123.7 61.5463C123.7 60.0463 123.8 58.4463 124 56.8463C124 56.6463 124 56.4463 124 56.3463C124.8 57.7463 126 58.7463 127.6 59.1463C129.5 59.6463 132 59.0463 133.8 57.6463C134.8 56.8463 135.4 55.7463 135.6 54.5463C135.9 52.6463 135.5 50.1463 133.6 49.1463C131.7 48.1463 128.9 49.3463 129.2 51.6463C129.3 52.6463 130.5 53.2463 130.8 54.1463C131.2 55.2463 130.1 55.7463 129 55.4463C127.9 55.1463 127.1 54.2463 126.8 53.1463C126.8 52.9463 126.7 52.7463 126.7 52.5463C126.8 50.1463 128.4 47.2463 130.4 45.6463C131.2 45.0463 132 44.5463 132.9 44.2463C133.3 45.1463 134.2 45.8463 135.3 45.8463C136.6 45.8463 137.7 44.9463 137.8 43.7463C139.2 43.9463 140.6 44.2463 142.1 44.8463C146.4 46.5463 148.7 49.8463 149.2 53.6463C149.4 55.0463 149.6 56.6463 149.6 58.2463C149.6 59.4463 149.5 60.5463 149.3 61.5463C149.2 61.8463 149.1 62.1463 149 62.5463C148.5 61.4463 147.7 60.3463 146.9 59.4463C143.5 55.9463 136.9 54.6463 132.7 58.3463C131 59.9463 129.9 62.0463 129.9 64.0463C129.9 65.0463 130.1 65.9463 130.6 66.7463C131.4 68.0463 133.2 69.1463 135 69.4463C136.7 69.4463 138 69.1463 138.9 68.3463ZM130.3 44.3463C128.1 46.0463 125.8 47.6463 125.7 52.2463C125.7 53.9463 127 56.1463 128.7 56.6463L128.8 56.6463C130 56.9463 131.3 56.1463 131.9 55.0463C132.7 53.3463 131.4 52.7463 130.6 51.5463C130.2 50.9463 130.5 50.5463 131 50.0463C131.9 49.3463 132.8 49.6463 133.5 50.4463C134.8 52.0463 134.4 55.3463 132.8 56.5463C131.4 57.6463 129.3 58.1463 127.9 57.7463C124.7 56.9463 124.5 53.1463 124.5 52.0463C124.6 44.4463 129.7 42.2463 132.7 41.2463L132.7 42.7463C131.9 43.2463 131.1 43.7463 130.3 44.3463ZM135.3 44.2463C134.7 44.2463 134.1 43.7463 134.1 43.1463L134.1 36.7463C134.1 36.1463 134.6 35.6463 135.3 35.6463C135.9 35.6463 136.5 36.1463 136.5 36.7463L136.5 43.1463C136.4 43.8463 135.9 44.2463 135.3 44.2463ZM127.9 22.1463C129.3 21.7463 131.4 22.2463 132.8 23.3463C134.4 24.5463 134.8 27.9463 133.5 29.4463C132.8 30.3463 131.8 30.5463 131 29.8463C130.5 29.4463 130.2 28.9463 130.6 28.3463C131.4 27.1463 132.7 26.5463 131.9 24.8463C131.4 23.7463 130.1 22.9463 128.8 23.2463L128.7 23.2463C127.1 23.6463 125.7 25.9463 125.7 27.6463C125.8 32.3463 128.2 33.9463 130.3 35.5463C131.1 36.1463 131.9 36.6463 132.7 36.9463L132.7 38.4463C129.6 37.4463 124.5 35.2463 124.5 27.6463C124.4 26.8463 124.7 23.0463 127.9 22.1463ZM132.5 39.6463C132.6 39.6463 132.7 39.6463 132.7 39.7463L132.7 40.3463C132.6 40.3463 132.5 40.3463 132.5 40.4463C129.3 41.4463 125.9 42.3463 124.1 47.5463C123.7 45.3463 122.6 44.0463 121.2 43.2463L121.2 36.9463C122.6 36.1463 123.7 34.7463 124.1 32.6463C125.9 37.7463 129.3 38.6463 132.5 39.6463ZM119.8 44.0463C119.8 44.8463 119.3 45.5463 118.6 45.5463C118 45.5463 117.4 44.8463 117.4 44.0463L117.4 35.9463C117.4 35.1463 117.9 34.4463 118.6 34.4463C119.2 34.4463 119.8 35.1463 119.8 35.9463L119.8 44.0463ZM113 34.2463C112.6 33.7463 112.4 32.9463 112.4 32.2463C112.4 31.7463 112.5 30.4463 113.7 30.1463C114.4 29.9463 115.2 30.2463 115.5 30.9463C115.5 31.0463 115.6 31.1463 115.6 31.2463C115.6 31.5463 115.5 31.8463 115.3 32.1463C115.1 32.5463 114.9 33.0463 114.9 33.5463C114.9 33.7463 114.9 33.9463 115 34.1463C115.2 34.6463 115.5 35.0463 116.1 35.2463C116.1 35.2463 116.1 35.2463 116.2 35.2463C116.1 35.4463 116.1 35.6463 116.1 35.9463L116.1 36.1463C114.9 35.8463 113.8 35.2463 113 34.2463ZM85.7004 42.4463L85.7004 37.5463L91.3004 37.5463L91.3004 42.4463L85.7004 42.4463ZM63.0004 42.4463L63.0004 37.5463L68.6004 37.5463L68.6004 42.4463L63.0004 42.4463ZM3.30038 42.4463C2.70038 42.4463 2.10039 41.4463 2.10039 40.0463C2.10039 38.6463 2.70038 37.6463 3.30038 37.6463L45.9004 37.6463L45.9004 42.5463L3.30038 42.5463L3.30038 42.4463ZM24.1004 48.8463L26.4004 48.8463C27.2004 48.8463 27.8004 49.3463 27.8004 49.9463L27.8004 53.7463L34.0004 53.7463C34.4004 53.7463 34.7004 53.9463 34.7004 54.0463L34.7004 62.7463C34.7004 62.8463 34.4004 63.0463 34.0004 63.0463L27.8004 63.0463L27.8004 66.8463C27.8004 67.4463 27.2004 67.9463 26.4004 67.9463L11.3004 67.9463C10.5004 67.9463 9.90039 67.4463 9.90039 66.8463L9.90039 63.0463L2.80038 63.0463C2.40039 63.0463 2.10038 62.8463 2.10038 62.7463L2.10039 54.0463C2.10039 53.9463 2.40039 53.7463 2.80038 53.7463L9.90039 53.7463L9.90039 49.9463C9.90039 49.3463 10.5004 48.8463 11.3004 48.8463L12.5004 48.8463L12.5004 43.7463L15.6004 43.7463L15.6004 48.1463C15.6004 49.6463 14.7004 50.9463 13.4004 51.5463L13.0004 51.7463L13.0004 53.1463C13.0004 55.2463 11.3004 56.8463 9.30038 56.8463L5.30038 56.8463L5.30038 59.9463L9.30038 59.9463C11.4004 59.9463 13.0004 61.6463 13.0004 63.6463L13.0004 64.9463L24.7004 64.9463L24.7004 63.7463C24.7004 61.6463 26.4004 60.0463 28.4004 60.0463L31.5004 60.0463L31.5004 56.9463L28.4004 56.9463C26.3004 56.9463 24.7004 55.2463 24.7004 53.2463L24.7004 52.0463L24.1004 51.9463C22.3004 51.6463 21.0004 50.0463 21.0004 48.2463L21.0004 43.8463L24.1004 43.8463L24.1004 48.8463ZM23.3004 63.6463L14.3004 63.6463C14.2004 60.9463 12.0004 58.6463 9.20039 58.6463L6.50038 58.6463L6.50038 58.2463L9.20039 58.2463C12.0004 58.2463 14.3004 55.9463 14.3004 53.1463L14.3004 52.6463C15.9004 51.7463 16.9004 50.0463 16.9004 48.2463L16.9004 44.6463L19.7004 44.6463L19.7004 48.2463C19.7004 50.5463 21.2004 52.5463 23.4004 53.1463L23.4004 53.2463C23.4004 56.0463 25.7004 58.3463 28.5004 58.3463L30.3004 58.3463L30.3004 58.7463L28.5004 58.7463C25.6004 58.6463 23.4004 60.8463 23.3004 63.6463ZM59.2004 44.5463L49.7004 44.5463C48.3004 44.5463 47.3004 43.8463 47.3004 43.2463L47.3004 37.1463C47.3004 36.5463 48.3004 35.8463 49.7004 35.8463L59.2004 35.8463C60.6004 35.8463 61.6004 36.5463 61.6004 37.1463L61.6004 43.2463C61.6004 43.8463 60.6004 44.5463 59.2004 44.5463ZM81.9004 44.5463L72.4004 44.5463C71.0004 44.5463 70.0004 43.8463 70.0004 43.2463L70.0004 37.1463C70.0004 36.5463 71.0004 35.8463 72.4004 35.8463L81.9004 35.8463C83.3004 35.8463 84.3004 36.5463 84.3004 37.1463L84.3004 43.2463C84.3004 43.8463 83.3004 44.5463 81.9004 44.5463ZM104.6 44.5463L95.1004 44.5463C93.7004 44.5463 92.7004 43.8463 92.7004 43.2463L92.7004 37.1463C92.7004 36.5463 93.7004 35.8463 95.1004 35.8463L104.6 35.8463C106 35.8463 107 36.5463 107 37.1463L107 43.2463C107 43.8463 106 44.5463 104.6 44.5463ZM108.4 42.4463L108.4 37.5463L116.1 37.5463L116.1 42.3463C116 42.3463 115.9 42.3463 115.8 42.4463L108.4 42.4463ZM116.1 44.8463C115.5 45.0463 115.2 45.4463 115 45.9463C114.9 46.1463 114.9 46.3463 114.9 46.5463C114.9 47.0463 115.1 47.5463 115.3 47.9463C115.4 48.2463 115.6 48.5463 115.6 48.8463C115.6 48.9463 115.6 49.0463 115.5 49.1463C115.3 49.8463 114.5 50.1463 113.7 49.9463C112.5 49.5463 112.4 48.3463 112.4 47.8463C112.4 47.1463 112.6 46.3463 113 45.8463C113.8 44.8463 114.9 44.2463 116.1 44.0463L116.1 44.2463C116.1 44.3463 116.1 44.5463 116.1 44.8463C116.1 44.7463 116.1 44.8463 116.1 44.8463ZM120.6 46.0463C120.9 45.7463 121.1 45.3463 121.2 44.8463C124.2 47.2463 123.3 53.0463 123 56.3463C122.9 57.9463 122.7 59.5463 122.7 61.1463C122.7 66.8463 124.1 71.4463 127.8 74.6463C131.4 77.7463 137.4 78.4463 142 76.2463C145.7 74.5463 147.8 71.3463 147.8 67.3463C147.8 62.6463 143.9 58.2463 139.3 57.8463C136.8 57.6463 133.3 59.2463 132.4 61.9463C132.2 62.3463 132.2 62.8463 132.2 63.3463C132.2 64.7463 132.8 65.8463 133.9 66.2463C135.2 66.7463 135.8 65.6463 136.1 64.9463C136.5 64.1463 136.7 63.8463 137.4 63.9463C138.4 64.1463 138.9 64.6463 138.9 65.4463C138.9 66.0463 138.6 66.7463 138 67.2463C137.4 67.7463 136.2 68.3463 135.1 68.2463C133.7 68.0463 132.3 67.2463 131.7 66.2463C131.4 65.6463 131.2 65.0463 131.2 64.3463C131.2 62.8463 132.4 60.5463 133.8 59.3463C137.3 56.1463 143 57.2463 145.9 60.3463C147.1 61.5463 147.9 63.0463 148.4 64.7463L149 66.8463L149.8 64.8463C150.2 63.9463 150.6 62.9463 150.8 61.8463C151 60.7463 151.1 59.5463 151.1 58.2463C151.1 56.5463 150.9 54.8463 150.7 53.4463C150.1 49.1463 147.5 45.6463 142.7 43.8463C140.9 43.1463 139.3 42.6463 137.8 42.5463L137.8 40.9463C142 41.4463 146.1 43.9463 150.5 46.2463L150.7 46.3463C154 48.0463 157.4 49.8463 161.1 50.9463C165.1 52.0463 168.6 51.8463 171.5 50.1463C171.7 50.0463 171.9 49.9463 172.1 49.7463C172.2 49.6463 172.2 49.6463 172.3 49.5463C172.4 49.4463 172.5 49.3463 172.7 49.2463C172.8 49.1463 172.9 49.1463 173 49.0463C173.1 48.9463 173.2 48.9463 173.3 48.8463C173.4 48.7463 173.5 48.6463 173.6 48.5463C173.7 48.4463 173.8 48.4463 173.8 48.3463C173.9 48.2463 174 48.1463 174.1 48.0463C174.2 47.9463 174.2 47.9463 174.3 47.8463C174.4 47.7463 174.5 47.6463 174.6 47.4463C174.7 47.3463 174.7 47.3463 174.8 47.2463C174.9 47.1463 175 46.9463 175.1 46.8463C175.1 46.7463 175.2 46.7463 175.2 46.6463C175.3 46.5463 175.4 46.3463 175.5 46.2463L175.6 46.1463C175.7 45.9463 175.8 45.8463 175.9 45.6463C175.9 45.6463 175.9 45.5463 176 45.5463C176.1 45.3463 176.1 45.1463 176.2 44.9463L176.2 44.8463C176.3 44.6463 176.4 44.4463 176.5 44.2463L176.5 44.1463C176.6 43.9463 176.7 43.7463 176.7 43.5463C176.7 43.5463 176.7 43.5463 176.7 43.4463C176.8 43.2463 176.8 43.0463 176.9 42.7463C176.9 42.6463 177 42.5463 177 42.4463L178 42.4463C178 42.6463 177.9 42.8463 177.8 43.0463L177.8 43.1463C177.7 43.3463 177.7 43.5463 177.6 43.7463L177.6 43.8463C177.5 44.0463 177.5 44.1463 177.4 44.3463C177.4 44.3463 177.4 44.4463 177.3 44.4463C177.2 44.6463 177.2 44.7463 177.1 44.9463C177.1 45.0463 177.1 45.0463 177 45.1463C176.9 45.2463 176.9 45.4463 176.8 45.5463C176.8 45.6463 176.7 45.6463 176.7 45.7463C176.6 45.8463 176.6 46.0463 176.5 46.1463C176.5 46.2463 176.4 46.2463 176.4 46.3463C176.3 46.4463 176.3 46.5463 176.2 46.7463C176.2 46.8463 176.1 46.9463 176.1 46.9463C176 47.0463 176 47.1463 175.9 47.2463C175.8 47.3463 175.8 47.4463 175.7 47.5463C175.6 47.6463 175.6 47.7463 175.5 47.8463C175.4 47.9463 175.4 48.0463 175.3 48.1463C175.2 48.2463 175.2 48.3463 175.1 48.3463C175 48.4463 174.9 48.5463 174.9 48.6463C174.8 48.7463 174.8 48.7463 174.7 48.8463C174.6 48.9463 174.5 49.0463 174.4 49.1463L174.3 49.2463C174.2 49.4463 174 49.5463 173.9 49.6463C171.3 52.0463 168 53.1463 164.2 52.9463C159.6 52.6463 155.2 50.1463 150.9 47.8463L149.1 46.8463L150.3 49.0463C151 50.2463 151.4 51.4463 151.6 52.7463C151.9 54.9463 152.1 56.7463 152.1 58.4463C152.1 59.1463 152.1 59.8463 152 60.5463C151.9 61.3463 151.7 62.2463 151.4 63.2463L150.3 66.6463L152.7 64.0463C154 62.5463 155.4 61.4463 157 60.5463C159.3 59.2463 161.6 58.9463 165.1 59.2463C165.6 59.2463 166 59.3463 166.5 59.4463C168.7 59.7463 171 59.9463 173.1 58.9463C175.2 57.9463 177.3 56.0463 179.1 53.5463C181 50.8463 182.1 47.1463 182.1 43.3463C182.1 43.1463 182.1 42.9463 182.1 42.7463L183.1 42.7463L183.1 42.8463C183.1 44.1463 183 45.5463 182.7 46.8463L182.5 47.7463L183.5 47.6463C187 47.4463 190.8 44.9463 190.8 40.7463C190.8 40.5463 190.8 39.5463 190.8 39.3463C190.8 35.1463 187.1 32.6463 183.5 32.4463L182.5 32.3463L182.7 33.2463C183 34.6463 183.1 35.9463 183.1 37.2463L183.1 37.3463L182.1 37.3463C182.1 37.1463 182.1 36.9463 182.1 36.7463C182.1 32.9463 181 29.2463 179.1 26.5463C177.3 24.0463 175.2 22.1463 173.1 21.1463C171 20.1463 168.7 20.3463 166.5 20.6463C166 20.7463 165.6 20.7463 165.1 20.8463C161.6 21.1463 159.3 20.7463 157 19.5463C155.4 18.6463 154 17.5463 152.7 16.0463L150.3 13.4463L151.4 16.8463C151.7 17.8463 151.9 18.7463 152 19.5463C152.1 20.2463 152.1 20.9463 152.1 21.6463C152.1 23.3463 151.9 25.1463 151.6 27.3463C151.4 28.6463 151 29.8463 150.3 31.0463L149.1 33.2463L151.3 31.9463C155.6 29.6463 159.9 27.1463 164.6 26.8463C168.3 26.6463 171.7 27.7463 174.3 30.1463C174.5 30.2463 174.6 30.4463 174.7 30.5463C174.8 30.6463 174.8 30.6463 174.8 30.7463C174.9 30.8463 175 30.9463 175.1 31.0463C175.2 31.1463 175.2 31.1463 175.3 31.2463C175.4 31.3463 175.5 31.4463 175.5 31.5463C175.6 31.6463 175.6 31.7463 175.7 31.7463C175.8 31.8463 175.8 31.9463 175.9 32.0463C176 32.1463 176 32.2463 176.1 32.3463C176.2 32.4463 176.2 32.5463 176.3 32.6463C176.4 32.7463 176.4 32.8463 176.5 32.9463C176.6 33.0463 176.6 33.1463 176.7 33.2463C176.8 33.3463 176.8 33.4463 176.9 33.5463C176.9 33.6463 177 33.7463 177 33.8463C177.1 33.9463 177.1 34.0463 177.2 34.1463C177.2 34.2463 177.3 34.3463 177.3 34.4463C177.4 34.5463 177.4 34.6463 177.4 34.7463C177.4 34.8463 177.5 34.9463 177.5 35.0463C177.5 35.1463 177.6 35.2463 177.6 35.4463C177.6 35.5463 177.7 35.6463 177.7 35.7463C177.7 35.8463 177.8 36.0463 177.8 36.1463C177.8 36.2463 177.9 36.3463 177.9 36.3463C177.9 36.4463 178 36.6463 178 36.7463C178 36.8463 178 36.8463 178.1 36.9463C178.1 37.0463 178.2 37.2463 178.2 37.3463C178.2 37.4463 178.2 37.4463 178.2 37.5463L177.2 37.5463C177.2 37.4463 177.1 37.3463 177.1 37.2463L177.1 37.1463C177 36.9463 177 36.7463 176.9 36.5463C176.9 36.5463 176.9 36.4463 176.8 36.4463C176.7 36.2463 176.7 36.0463 176.6 35.9463C176.6 35.8463 176.6 35.8463 176.5 35.7463C176.4 35.5463 176.4 35.4463 176.3 35.2463C176.3 35.1463 176.2 35.1463 176.2 35.0463C176.1 34.8463 176 34.7463 176 34.5463C176 34.4463 175.9 34.4463 175.9 34.3463C175.8 34.2463 175.7 34.0463 175.6 33.9463C175.6 33.8463 175.5 33.8463 175.5 33.7463C175.4 33.6463 175.3 33.4463 175.2 33.3463C175.1 33.2463 175.1 33.2463 175 33.1463C174.9 33.0463 174.8 32.9463 174.7 32.8463C174.6 32.7463 174.6 32.7463 174.5 32.6463C174.4 32.5463 174.3 32.4463 174.2 32.3463C174.1 32.2463 174.1 32.1463 174 32.1463C173.9 32.0463 173.8 31.9463 173.7 31.8463C173.6 31.7463 173.5 31.6463 173.4 31.6463C173.3 31.5463 173.2 31.4463 173.1 31.4463C173 31.3463 172.9 31.2463 172.8 31.2463C172.7 31.1463 172.6 31.1463 172.5 31.0463C172.4 30.9463 172.3 30.8463 172.1 30.7463C172 30.7463 172 30.6463 171.9 30.5463C171.7 30.4463 171.5 30.2463 171.3 30.1463C168.4 28.4463 164.9 28.2463 160.9 29.3463C157.2 30.4463 153.8 32.1463 150.5 33.9463L150.3 34.0463C145.9 36.3463 141.8 38.8463 137.6 39.3463L137.6 37.9463C139.1 37.7463 140.7 37.2463 142.5 36.6463C147.3 34.7463 149.9 31.3463 150.5 27.0463C150.9 25.3463 151.1 23.6463 151.1 21.9463C151.1 20.6463 151 19.4463 150.8 18.3463C150.6 17.2463 150.2 16.2463 149.8 15.3463L149 13.3463L148.4 15.4463C147.9 17.1463 147.1 18.6463 145.9 19.8463C143 22.9463 137.3 24.0463 133.8 20.8463C132.4 19.5463 131.2 17.3463 131.2 15.8463C131.2 15.1463 131.4 14.4463 131.7 13.9463C132.3 12.9463 133.7 12.1463 135.1 11.9463C136.2 11.7463 137.4 12.3463 138 12.9463C138.6 13.4463 138.9 14.1463 138.9 14.7463C138.9 15.5463 138.3 16.0463 137.4 16.2463C136.8 16.3463 136.6 16.0463 136.1 15.2463C135.8 14.6463 135.2 13.4463 133.9 13.9463C132.9 14.3463 132.2 15.4463 132.2 16.8463C132.2 17.3463 132.3 17.8463 132.4 18.2463C133.4 20.8463 136.8 22.5463 139.3 22.3463C143.9 21.8463 147.8 17.5463 147.8 12.8463C147.8 8.94629 145.7 5.74629 142 3.94629C137.4 1.84629 131.4 2.44629 127.8 5.54629C124.1 8.74629 122.7 13.3463 122.7 19.0463C122.7 20.6463 122.8 22.2463 123 23.8463C123.3 27.1463 124.1 32.9463 121.2 35.3463C121.1 34.9463 120.9 34.5463 120.6 34.1463C121.2 33.3463 121.5 32.2463 121.6 30.8463C121.6 30.2463 121.7 29.6463 121.7 29.0463C121.7 27.4463 121.6 25.8463 121.5 24.3463C121.4 23.1463 121.3 21.9463 121.3 20.7463C121.3 20.3463 121.3 19.9463 121.3 19.5463C121.3 13.5463 122.7 9.24629 125.8 6.04629C129.1 2.54629 133.6 0.546288 138 1.14629C140.9 1.54629 143.9 3.14629 145.9 4.94629C147.7 6.54629 148.9 8.34629 150.4 10.6463C153.5 15.4463 156.6 20.6463 163.2 20.3463C166.7 20.1463 170.9 17.0463 170.9 13.3463C170.9 12.0463 170.4 10.8463 169.4 9.74629C167.3 7.44629 163.4 5.64629 159.8 6.64629C157.9 7.24629 155.6 9.74629 155.8 11.8463C156.1 14.2463 158.1 14.1463 159.3 14.1463C159.9 14.1463 160.5 14.0463 160.7 14.2463C161.1 14.4463 161.2 14.7463 161.2 15.1463C161.2 15.7463 160.8 16.3463 160.2 16.8463C159.7 17.2463 159.2 17.3463 158.7 17.2463C157.4 16.9463 156.2 15.7463 155.5 14.2463C155.2 13.5463 155 12.7463 155 11.8463C155 9.84629 155.9 7.84629 157.3 6.84629C159.3 5.44629 162.3 4.64629 165 5.44629C168.6 6.54629 171.1 9.84629 171.6 12.8463L171.7 13.3463L172.2 13.4463C175.2 13.9463 177.6 16.7463 177.6 19.8463C177.6 20.0463 177.6 20.3463 177.6 20.5463L177.5 21.5463L178.5 21.3463C180 21.1463 182 21.2463 183.4 22.4463C184.9 23.7463 185.8 25.5463 185.8 27.2463C185.8 28.2463 185.2 29.5463 184.6 30.3463L183.9 31.2463L185 31.4463C185.2 31.5463 185.5 31.5463 185.7 31.6463C185.8 31.6463 185.8 31.7463 185.9 31.7463C186 31.7463 186.2 31.8463 186.3 31.9463C186.4 31.9463 186.5 32.0463 186.6 32.0463C186.7 32.1463 186.9 32.1463 187 32.2463C187.1 32.2463 187.2 32.3463 187.3 32.3463C187.4 32.4463 187.5 32.4463 187.6 32.5463C187.7 32.5463 187.8 32.6463 187.9 32.7463C188 32.9463 188.1 32.9463 188.2 33.0463C188.3 33.1463 188.4 33.1463 188.4 33.2463C188.5 33.3463 188.6 33.3463 188.7 33.4463C188.8 33.5463 188.9 33.5463 188.9 33.6463C189.1 33.7463 189.1 33.8463 189.2 33.9463C189.3 34.0463 189.3 34.0463 189.4 34.1463C189.5 34.2463 189.6 34.3463 189.6 34.4463C189.7 34.5463 189.7 34.6463 189.8 34.6463C189.9 34.7463 189.9 34.8463 190 34.9463C190.1 35.0463 190.1 35.1463 190.2 35.1463C190.3 35.2463 190.3 35.3463 190.4 35.4463C190.5 35.5463 190.5 35.6463 190.6 35.7463C190.7 35.8463 190.7 35.9463 190.8 36.0463C190.8 36.1463 190.9 36.2463 190.9 36.3463C191 36.4463 191 36.5463 191 36.6463C191 36.7463 191.1 36.8463 191.1 36.9463C191.1 37.0463 191.2 37.1463 191.2 37.3463C191.2 37.4463 191.3 37.5463 191.3 37.6463C191.3 37.7463 191.4 37.9463 191.4 38.0463C191.4 38.1463 191.4 38.2463 191.5 38.3463C191.5 38.5463 191.6 38.6463 191.6 38.8463L191.6 38.9463C191.6 39.1463 191.6 39.3463 191.6 39.6463L191.6 40.6463C191.6 44.3463 188.9 47.5463 185 48.4463L183.9 48.6463L184.6 49.5463C185.2 50.3463 185.8 51.6463 185.8 52.6463C185.8 54.3463 184.9 56.1463 183.4 57.4463C182 58.6463 180 58.8463 178.5 58.5463L177.5 58.3463L177.6 59.3463C177.6 59.5463 177.6 59.8463 177.6 60.0463C177.6 63.1463 175.2 65.9463 172.2 66.4463L171.7 66.5463L171.6 67.0463C171.1 70.1463 168.6 73.4463 165 74.4463C162.3 75.2463 159.3 74.4463 157.3 73.0463C155.9 72.0463 155 70.1463 155 68.0463C155 67.1463 155.2 66.3463 155.5 65.6463C156.2 64.1463 157.5 63.0463 158.7 62.6463C159.2 62.5463 159.7 62.6463 160.2 63.0463C160.8 63.4463 161.2 64.1463 161.2 64.7463C161.2 65.1463 161 65.4463 160.7 65.6463C160.4 65.8463 159.8 65.7463 159.3 65.7463C158.1 65.6463 156.1 65.5463 155.8 68.0463C155.6 70.1463 157.9 72.6463 159.8 73.2463C163.3 74.3463 167.3 72.5463 169.4 70.1463C170.4 69.0463 170.9 67.8463 170.9 66.5463C170.9 62.8463 166.8 59.7463 163.2 59.5463C156.6 59.2463 153.5 64.4463 150.4 69.2463C148.9 71.5463 147.6 73.3463 145.9 74.9463C143.9 76.7463 140.9 78.3463 138 78.7463C133.7 79.3463 129.1 77.3463 125.8 73.9463C122.7 70.7463 121.3 66.5463 121.3 60.4463C121.3 60.0463 121.3 59.6463 121.3 59.2463C121.3 58.0463 121.4 56.8463 121.5 55.6463C121.6 54.1463 121.7 52.5463 121.7 50.9463C121.7 50.3463 121.7 49.7463 121.6 49.1463C121.5 47.8463 121.1 46.7463 120.6 46.0463ZM164.4 25.8463C160.2 26.1463 156.3 27.7463 152.5 29.7463C152.8 29.0463 152.9 28.2463 153 27.5463C153.3 25.3463 153.5 23.4463 153.5 21.6463C153.5 20.8463 153.5 20.1463 153.4 19.4463C153.4 19.2463 153.4 19.1463 153.3 18.9463C154.2 19.7463 155.1 20.3463 156.1 20.9463C159.3 22.6463 162.4 22.6463 165 22.4463C165.5 22.4463 165.9 22.3463 166.4 22.2463C168.4 22.0463 170.5 21.7463 172.2 22.6463C174.1 23.5463 176 25.2463 177.7 27.5463C179.4 29.9463 180.5 33.4463 180.5 36.8463C180.5 37.0463 180.5 37.2463 180.5 37.4463L179.5 37.4463C178.8 34.3463 177.2 31.5463 175 29.5463C172.2 26.8463 168.5 25.5463 164.4 25.8463ZM156.2 59.1463C155.2 59.6463 154.3 60.3463 153.4 61.1463C153.4 60.9463 153.4 60.8463 153.5 60.6463C153.6 59.9463 153.6 59.1463 153.6 58.4463C153.6 56.6463 153.4 54.8463 153.1 52.5463C153 51.7463 152.8 51.0463 152.6 50.3463C156.4 52.3463 160.3 53.9463 164.5 54.2463C168.6 54.5463 172.4 53.2463 175.2 50.5463C177.4 48.5463 179 45.7463 179.7 42.6463L180.7 42.6463C180.7 42.8463 180.7 43.0463 180.7 43.2463C180.7 46.6463 179.7 50.1463 177.9 52.5463C176.2 54.8463 174.4 56.5463 172.4 57.4463C170.6 58.3463 168.6 58.0463 166.6 57.8463C166.1 57.7463 165.6 57.7463 165.2 57.6463C162.5 57.4463 159.4 57.4463 156.2 59.1463ZM184.5 42.2463C185.2 41.8463 185.7 40.9463 185.7 40.0463C185.7 39.1463 185.2 38.3463 184.5 37.8463C184.5 37.6463 184.5 37.5463 184.5 37.3463C184.5 36.2463 184.4 35.1463 184.2 34.0463C186.7 34.5463 189.1 36.4463 189.1 39.3463C189.1 39.6463 189.1 40.4463 189.1 40.7463C189.1 43.6463 186.7 45.5463 184.2 46.0463C184.4 44.9463 184.5 43.8463 184.5 42.7463C184.5 42.5463 184.5 42.3463 184.5 42.2463ZM183.3 41.1463L176.9 41.1463C176.3 41.1463 175.8 40.6463 175.8 39.9463C175.8 39.3463 176.3 38.7463 176.9 38.7463L183.3 38.7463C183.9 38.7463 184.4 39.2463 184.4 39.9463C184.3 40.6463 183.8 41.1463 183.3 41.1463ZM176.1 37.5463C175.1 37.8463 174.4 38.8463 174.4 40.0463C174.4 41.2463 175.1 42.1463 176.1 42.5463C175.2 45.4463 173.4 47.9463 171 49.2463C168.5 50.7463 165.3 50.9463 161.8 49.8463C158.2 48.8463 154.7 46.7463 151.5 45.0463L151.2 44.9463C147.2 42.8463 143.3 40.7463 139.2 40.0463C143.3 39.3463 147.3 37.2463 151.2 35.1463L151.4 35.0463C154.7 33.3463 158.2 31.2463 161.7 30.2463C165.3 29.2463 168.4 29.4463 170.9 30.8463C173.4 32.1463 175.2 34.6463 176.1 37.5463ZM159.3 12.7463C157.8 12.8463 157.4 12.7463 157.3 11.7463C157.1 10.4463 158.9 8.54629 160.2 8.14629C163.1 7.24629 166.5 8.84629 168.3 10.8463C169 11.6463 169.4 12.5463 169.4 13.4463C169.4 16.3463 166 18.8463 163.1 18.9463C162 19.0463 161 18.8463 160.1 18.6463C160.5 18.5463 160.9 18.3463 161.2 18.0463C162.2 17.3463 162.7 16.2463 162.7 15.2463C162.7 14.3463 162.3 13.6463 161.5 13.1463C160.9 12.6463 160.1 12.7463 159.3 12.7463ZM161.6 66.9463C162.4 66.4463 162.8 65.6463 162.8 64.8463C162.8 63.8463 162.2 62.7463 161.3 62.0463C160.9 61.7463 160.6 61.5463 160.2 61.4463C161.1 61.1463 162.1 61.0463 163.2 61.1463C166 61.2463 169.5 63.7463 169.5 66.6463C169.5 67.5463 169.1 68.4463 168.4 69.2463C166.7 71.1463 163.2 72.7463 160.3 71.9463C159 71.5463 157.2 69.6463 157.4 68.3463C157.5 67.3463 157.9 67.3463 159.4 67.3463C160.1 67.3463 160.9 67.3463 161.6 66.9463Z" fill="#090416"/>
<path d="M182 57.0463C183.6 55.9463 184.6 54.2463 184.6 52.6463C184.6 51.4463 184.1 50.3463 183.1 49.5463L182.3 48.7463L181.9 49.8463C181.3 51.4463 180.6 52.9463 179.8 54.2463C179.3 55.0463 178.6 55.8463 177.9 56.5463L177.1 57.3463L178.1 57.7463C179.2 58.1463 180.7 57.9463 182 57.0463ZM180.9 54.9463C181.6 53.8463 182.2 52.6463 182.8 51.4463C183 51.8463 183.1 52.2463 183.1 52.6463C183.1 53.7463 182.3 55.0463 181.2 55.8463C180.7 56.1463 180.3 56.3463 179.8 56.4463C180.2 55.9463 180.6 55.4463 180.9 54.9463Z" fill="#090416"/>
<path d="M132.6 51.0463C132.2 50.6463 131.5 51.0463 131.8 51.5463C132.4 52.8463 133.2 54.1463 132.5 55.6463C133.5 54.4463 133.7 52.3463 132.6 51.0463Z" fill="#090416"/>
<path d="M113 46.7463C112.7 47.5463 112.7 48.6463 113.5 49.1463C114.1 49.5463 114.7 48.6463 114.2 48.1463C113.9 47.8463 113.9 47.2463 113.9 46.8463C113.9 46.1463 114 45.6463 114.6 45.2463C113.9 45.2463 113.3 46.1463 113 46.7463Z" fill="#090416"/>
<path d="M159.6 64.8462C159.9 64.9462 160.2 64.8462 160.3 64.5462C160.4 64.3462 160.4 64.2462 160.4 64.0462C160.3 63.7462 160.1 63.5462 159.8 63.5462C158.5 63.4462 156.9 64.2462 156.5 65.5462C156.5 65.6462 156.6 65.6462 156.6 65.5462C157.5 64.7462 158.4 64.6462 159.6 64.8462Z" fill="#090416"/>
<path d="M148.502 71.4463C149.102 70.5463 149.302 69.6463 149.502 68.5463C149.502 68.5463 149.502 68.5463 149.402 68.5463C148.602 70.2463 147.202 71.6463 146.202 73.1463C146.202 73.2463 146.202 73.3463 146.302 73.2463C147.302 72.9463 148.002 72.2463 148.502 71.4463Z" fill="#090416"/>
<path d="M148.9 47.0463C148.7 45.5463 146.8 44.9463 145.6 44.3463C146.7 45.2463 147.7 46.2463 148.8 47.1463C148.8 47.1463 148.9 47.1463 148.9 47.0463Z" fill="#090416"/>
<path d="M162.099 73.9462C161.999 73.9462 161.899 74.1462 162.099 74.2462C164.199 74.8462 167.199 74.2462 168.299 72.1462C166.699 73.7462 164.199 73.3462 162.099 73.9462Z" fill="#090416"/>
<path d="M156.501 49.7463C158.301 50.9463 160.301 52.1463 162.401 52.5463C164.701 52.9463 166.901 52.5463 169.201 51.9463C164.701 52.6463 160.701 51.3463 156.601 49.6463C156.501 49.5463 156.401 49.6463 156.501 49.7463Z" fill="#090416"/>
<path d="M165.299 27.7463C165.299 27.7463 165.299 27.6463 165.299 27.7463C160.299 27.5463 155.899 29.7464 151.899 32.3464C151.799 32.3464 151.899 32.4463 151.899 32.4463C156.199 30.6463 160.599 28.1463 165.299 27.7463Z" fill="#090416"/>
<path d="M137.8 14.6462C137.9 14.6462 137.9 14.6462 137.9 14.5462C137.4 12.5462 134.5 12.0462 133.2 13.5462C134.9 12.4462 136.4 13.9462 137.8 14.6462Z" fill="#090416"/>
<path d="M159.699 16.4463C159.899 16.4463 159.999 16.2463 160.099 16.0463L160.099 15.9463C160.199 15.7463 160.099 15.5463 159.899 15.4463C159.699 15.3463 159.499 15.2463 159.299 15.3463C158.899 15.4463 158.499 15.3463 158.099 15.2463C157.399 14.9463 156.699 14.4463 156.199 13.9463C156.799 15.3463 158.099 16.6463 159.699 16.4463Z" fill="#090416"/>
<path d="M149.701 11.4463C149.101 8.74626 147.301 6.54626 145.101 5.04626C147.201 6.84626 147.701 9.64626 149.501 11.5463C149.601 11.6463 149.701 11.5463 149.701 11.4463Z" fill="#090416"/>
<path d="M121.899 30.3463C121.899 30.4463 121.999 30.4463 122.099 30.3463C123.499 27.0463 122.199 23.2463 121.899 19.8463C121.599 23.3463 121.899 26.8463 121.899 30.3463Z" fill="#090416"/>
<path d="M125.102 72.2463C125.102 72.2463 125.202 72.1463 125.102 72.2463C123.302 69.7463 122.302 66.2463 122.002 63.2463C121.702 66.4463 122.302 70.1463 125.102 72.2463Z" fill="#090416"/>
<path d="M167.799 7.64634C166.099 5.54634 162.899 5.24634 160.499 6.14634C160.399 6.14634 160.499 6.24634 160.499 6.24634C162.799 6.04634 165.899 6.24634 167.799 7.64634Z" fill="#090416"/>
<path d="M180.1 58.0462L180.1 58.1462C180.8 58.2462 181.5 58.2462 182.2 58.0462C183.2 57.7462 183.6 56.9462 184.1 56.1462C183.5 56.5462 182.8 57.0462 182.1 57.4462C181.5 57.7462 180.8 57.7462 180.1 58.0462Z" fill="#090416"/>
<path d="M176.502 39.8463C177.802 41.2463 179.902 40.7463 181.602 40.4463C181.702 40.4463 181.602 40.3463 181.602 40.3463C179.902 40.1463 178.202 40.1463 176.502 39.8463Z" fill="#090416"/>
<path d="M132.502 26.3463C132.502 27.1463 131.802 28.1463 131.402 28.8463C131.402 28.9463 131.402 29.0463 131.502 28.9463C132.502 28.6463 133.502 28.1463 133.502 26.9463C133.502 25.7463 133.002 24.8463 132.202 24.0463C132.302 24.7463 132.502 25.5463 132.502 26.3463Z" fill="#090416"/>
<path d="M130.199 36.8463C130.299 36.8463 130.299 36.7463 130.299 36.6463C128.499 35.5463 127.199 34.0463 126.099 32.2463C126.499 34.5463 127.799 36.6463 130.199 36.8463Z" fill="#090416"/>
<path d="M48.078 12.7114C48.033 12.7864 47.983 12.8439 47.928 12.8839C47.878 12.9189 47.8155 12.9364 47.7405 12.9364C47.6555 12.9364 47.5555 12.8939 47.4405 12.8089C47.3255 12.7239 47.1805 12.6314 47.0055 12.5314C46.8355 12.4264 46.628 12.3314 46.383 12.2464C46.143 12.1614 45.8505 12.1189 45.5055 12.1189C45.1805 12.1189 44.893 12.1639 44.643 12.2539C44.398 12.3389 44.1905 12.4564 44.0205 12.6064C43.8555 12.7564 43.7305 12.9339 43.6455 13.1389C43.5605 13.3389 43.518 13.5564 43.518 13.7914C43.518 14.0914 43.5905 14.3414 43.7355 14.5414C43.8855 14.7364 44.0805 14.9039 44.3205 15.0439C44.5655 15.1839 44.8405 15.3064 45.1455 15.4114C45.4555 15.5114 45.7705 15.6164 46.0905 15.7264C46.4155 15.8364 46.7305 15.9614 47.0355 16.1014C47.3455 16.2364 47.6205 16.4089 47.8605 16.6189C48.1055 16.8289 48.3005 17.0864 48.4455 17.3914C48.5955 17.6964 48.6705 18.0714 48.6705 18.5164C48.6705 18.9864 48.5905 19.4289 48.4305 19.8439C48.2705 20.2539 48.0355 20.6114 47.7255 20.9164C47.4205 21.2214 47.043 21.4614 46.593 21.6364C46.148 21.8114 45.6405 21.8989 45.0705 21.8989C44.3705 21.8989 43.7355 21.7739 43.1655 21.5239C42.5955 21.2689 42.108 20.9264 41.703 20.4964L42.123 19.8064C42.163 19.7514 42.2105 19.7064 42.2655 19.6714C42.3255 19.6314 42.3905 19.6114 42.4605 19.6114C42.5255 19.6114 42.598 19.6389 42.678 19.6939C42.763 19.7439 42.858 19.8089 42.963 19.8889C43.068 19.9689 43.188 20.0564 43.323 20.1514C43.458 20.2464 43.6105 20.3339 43.7805 20.4139C43.9555 20.4939 44.153 20.5614 44.373 20.6164C44.593 20.6664 44.8405 20.6914 45.1155 20.6914C45.4605 20.6914 45.768 20.6439 46.038 20.5489C46.308 20.4539 46.5355 20.3214 46.7205 20.1514C46.9105 19.9764 47.0555 19.7689 47.1555 19.5289C47.2555 19.2889 47.3055 19.0214 47.3055 18.7264C47.3055 18.4014 47.2305 18.1364 47.0805 17.9314C46.9355 17.7214 46.743 17.5464 46.503 17.4064C46.263 17.2664 45.988 17.1489 45.678 17.0539C45.368 16.9539 45.053 16.8539 44.733 16.7539C44.413 16.6489 44.098 16.5289 43.788 16.3939C43.478 16.2589 43.203 16.0839 42.963 15.8689C42.723 15.6539 42.528 15.3864 42.378 15.0664C42.233 14.7414 42.1605 14.3414 42.1605 13.8664C42.1605 13.4864 42.233 13.1189 42.378 12.7639C42.528 12.4089 42.743 12.0939 43.023 11.8189C43.308 11.5439 43.6555 11.3239 44.0655 11.1589C44.4805 10.9939 44.9555 10.9114 45.4905 10.9114C46.0905 10.9114 46.6355 11.0064 47.1255 11.1964C47.6205 11.3864 48.0555 11.6614 48.4305 12.0214L48.078 12.7114ZM55.4511 17.1514C55.4511 16.8414 55.4061 16.5589 55.3161 16.3039C55.2311 16.0439 55.1036 15.8214 54.9336 15.6364C54.7686 15.4464 54.5661 15.3014 54.3261 15.2014C54.0861 15.0964 53.8136 15.0439 53.5086 15.0439C52.8686 15.0439 52.3611 15.2314 51.9861 15.6064C51.6161 15.9764 51.3861 16.4914 51.2961 17.1514H55.4511ZM56.5311 20.7139C56.3661 20.9139 56.1686 21.0889 55.9386 21.2389C55.7086 21.3839 55.4611 21.5039 55.1961 21.5989C54.9361 21.6939 54.6661 21.7639 54.3861 21.8089C54.1061 21.8589 53.8286 21.8839 53.5536 21.8839C53.0286 21.8839 52.5436 21.7964 52.0986 21.6214C51.6586 21.4414 51.2761 21.1814 50.9511 20.8414C50.6311 20.4964 50.3811 20.0714 50.2011 19.5664C50.0211 19.0614 49.9311 18.4814 49.9311 17.8264C49.9311 17.2964 50.0111 16.8014 50.1711 16.3414C50.3361 15.8814 50.5711 15.4839 50.8761 15.1489C51.1811 14.8089 51.5536 14.5439 51.9936 14.3539C52.4336 14.1589 52.9286 14.0614 53.4786 14.0614C53.9336 14.0614 54.3536 14.1389 54.7386 14.2939C55.1286 14.4439 55.4636 14.6639 55.7436 14.9539C56.0286 15.2389 56.2511 15.5939 56.4111 16.0189C56.5711 16.4389 56.6511 16.9189 56.6511 17.4589C56.6511 17.6689 56.6286 17.8089 56.5836 17.8789C56.5386 17.9489 56.4536 17.9839 56.3286 17.9839H51.2511C51.2661 18.4639 51.3311 18.8814 51.4461 19.2364C51.5661 19.5914 51.7311 19.8889 51.9411 20.1289C52.1511 20.3639 52.4011 20.5414 52.6911 20.6614C52.9811 20.7764 53.3061 20.8339 53.6661 20.8339C54.0011 20.8339 54.2886 20.7964 54.5286 20.7214C54.7736 20.6414 54.9836 20.5564 55.1586 20.4664C55.3336 20.3764 55.4786 20.2939 55.5936 20.2189C55.7136 20.1389 55.8161 20.0989 55.9011 20.0989C56.0111 20.0989 56.0961 20.1414 56.1561 20.2264L56.5311 20.7139ZM59.5509 15.2839C59.7159 15.0989 59.8909 14.9314 60.0759 14.7814C60.2609 14.6314 60.4559 14.5039 60.6609 14.3989C60.8709 14.2889 61.0909 14.2064 61.3209 14.1514C61.5559 14.0914 61.8084 14.0614 62.0784 14.0614C62.4934 14.0614 62.8584 14.1314 63.1734 14.2714C63.4934 14.4064 63.7584 14.6014 63.9684 14.8564C64.1834 15.1064 64.3459 15.4089 64.4559 15.7639C64.5659 16.1189 64.6209 16.5114 64.6209 16.9414V21.7789H63.2784V16.9414C63.2784 16.3664 63.1459 15.9214 62.8809 15.6064C62.6209 15.2864 62.2234 15.1264 61.6884 15.1264C61.2934 15.1264 60.9234 15.2214 60.5784 15.4114C60.2384 15.6014 59.9234 15.8589 59.6334 16.1839V21.7789H58.2909V14.1814H59.0934C59.2834 14.1814 59.4009 14.2739 59.4459 14.4589L59.5509 15.2839ZM71.6052 15.9889C71.3552 15.6539 71.0852 15.4214 70.7952 15.2914C70.5052 15.1564 70.1802 15.0889 69.8202 15.0889C69.1152 15.0889 68.5727 15.3414 68.1927 15.8464C67.8127 16.3514 67.6227 17.0714 67.6227 18.0064C67.6227 18.5014 67.6652 18.9264 67.7502 19.2814C67.8352 19.6314 67.9602 19.9214 68.1252 20.1514C68.2902 20.3764 68.4927 20.5414 68.7327 20.6464C68.9727 20.7514 69.2452 20.8039 69.5502 20.8039C69.9902 20.8039 70.3727 20.7039 70.6977 20.5039C71.0277 20.3039 71.3302 20.0214 71.6052 19.6564V15.9889ZM72.9402 10.7314V21.7789H72.1452C71.9552 21.7789 71.8352 21.6864 71.7852 21.5014L71.6652 20.5789C71.3402 20.9689 70.9702 21.2839 70.5552 21.5239C70.1402 21.7639 69.6602 21.8839 69.1152 21.8839C68.6802 21.8839 68.2852 21.8014 67.9302 21.6364C67.5752 21.4664 67.2727 21.2189 67.0227 20.8939C66.7727 20.5689 66.5802 20.1639 66.4452 19.6789C66.3102 19.1939 66.2427 18.6364 66.2427 18.0064C66.2427 17.4464 66.3177 16.9264 66.4677 16.4464C66.6177 15.9614 66.8327 15.5414 67.1127 15.1864C67.3927 14.8314 67.7352 14.5539 68.1402 14.3539C68.5502 14.1489 69.0102 14.0464 69.5202 14.0464C69.9852 14.0464 70.3827 14.1264 70.7127 14.2864C71.0477 14.4414 71.3452 14.6589 71.6052 14.9389V10.7314H72.9402Z" fill="#090416"/>
</svg>
