<svg width="31" height="31" viewBox="0 0 31 31" fill="none" xmlns="http://www.w3.org/2000/svg">
<rect x="0.287109" y="0.682373" width="30" height="30" rx="3" fill="#28A9E0"/>
<path d="M23.9814 10.1964C23.3234 10.485 22.6224 10.6763 21.8915 10.7692C22.6434 10.3203 23.2173 9.61477 23.4871 8.76444C22.786 9.18242 22.012 9.47766 21.1871 9.64242C20.5214 8.93362 19.5727 8.49463 18.5377 8.49463C16.5296 8.49463 14.913 10.1245 14.913 12.1227C14.913 12.4102 14.9373 12.6866 14.997 12.9498C11.9816 12.8027 9.31334 11.3575 7.52089 9.15588C7.20796 9.69881 7.0244 10.3203 7.0244 10.9892C7.0244 12.2454 7.67127 13.3589 8.6355 14.0036C8.05276 13.9925 7.48108 13.8233 6.99675 13.5568C6.99675 13.5679 6.99675 13.5823 6.99675 13.5966C6.99675 15.3592 8.25401 16.8233 9.90272 17.1605C9.60748 17.2413 9.2857 17.28 8.95175 17.28C8.71954 17.28 8.48512 17.2667 8.26507 17.218C8.73502 18.6544 10.0686 19.7104 11.6543 19.7447C10.4202 20.7101 8.85334 21.2917 7.15709 21.2917C6.85964 21.2917 6.57435 21.2784 6.28906 21.2419C7.89575 22.278 9.79988 22.8696 11.8533 22.8696C18.5277 22.8696 22.1768 17.3408 22.1768 12.5484C22.1768 12.388 22.1712 12.2332 22.1635 12.0795C22.8833 11.5687 23.4882 10.9306 23.9814 10.1964Z" fill="white"/>
</svg>
