<svg width="25" height="21" viewBox="0 0 25 21" fill="none" xmlns="http://www.w3.org/2000/svg">
<path d="M24.6154 3.34645C23.7 3.74799 22.7246 4.01414 21.7077 4.14338C22.7538 3.51876 23.5523 2.53722 23.9277 1.35414C22.9523 1.93568 21.8754 2.34645 20.7277 2.57568C19.8015 1.58953 18.4815 0.97876 17.0415 0.97876C14.2477 0.97876 11.9985 3.24645 11.9985 6.02645C11.9985 6.42645 12.0323 6.81107 12.1154 7.17722C7.92 6.97261 4.20769 4.96184 1.71385 1.89876C1.27846 2.65414 1.02308 3.51876 1.02308 4.44953C1.02308 6.19722 1.92308 7.74645 3.26462 8.64337C2.45385 8.62799 1.65846 8.39261 0.984615 8.02184C0.984615 8.03722 0.984615 8.05722 0.984615 8.07722C0.984615 10.5295 2.73385 12.5665 5.02769 13.0357C4.61692 13.148 4.16923 13.2018 3.70462 13.2018C3.38154 13.2018 3.05538 13.1834 2.74923 13.1157C3.40308 15.1141 5.25846 16.5834 7.46462 16.6311C5.74769 17.9741 3.56769 18.7834 1.20769 18.7834C0.793846 18.7834 0.396923 18.7649 0 18.7141C2.23538 20.1557 4.88462 20.9788 7.74154 20.9788C17.0277 20.9788 22.1046 13.2865 22.1046 6.61876C22.1046 6.39568 22.0969 6.1803 22.0862 5.96645C23.0877 5.25568 23.9292 4.36799 24.6154 3.34645Z" fill="#090416"/>
</svg>
