<svg width="24" height="20" viewBox="0 0 24 20" fill="none" xmlns="http://www.w3.org/2000/svg">
<path d="M23.0025 8.19309C22.0315 7.0947 20.9817 6.09339 19.8347 5.21346L16.9279 8.1142C17.1039 8.62396 17.1949 9.17012 17.1949 9.74056C17.1949 12.5139 14.9496 14.7592 12.1763 14.7592C11.6058 14.7592 11.0597 14.6621 10.5499 14.4922L8.48056 16.5616C9.6093 16.9924 10.7866 17.2473 12.0367 17.2655C13.7359 17.2898 15.3319 16.871 16.8551 16.1307C18.8759 15.1476 20.6054 13.764 22.1711 12.168C22.4927 11.8403 22.8083 11.4883 23.1238 11.1485C23.4333 10.8147 23.7186 10.4627 23.8399 10.0076V9.46141C23.7246 8.94559 23.3423 8.57541 23.0025 8.19309ZM7.1637 9.74056C7.1637 6.96726 9.40904 4.72191 12.1823 4.72191C13.8451 4.72191 15.3198 5.52902 16.23 6.77307L18.6392 4.36387C18.2933 4.13934 17.9413 3.92694 17.5833 3.72668C16.1572 2.93777 14.6462 2.39161 13.0137 2.2399C11.5937 2.11246 10.2162 2.31879 8.87502 2.78606C6.70856 3.54462 4.83946 4.8008 3.17063 6.35434C2.43027 7.04615 1.76881 7.81078 1.05879 8.54507C0.803914 8.80601 0.664339 9.11551 0.542969 9.46141V10.0076C0.664339 10.5659 1.077 10.9603 1.44717 11.3669C2.98857 13.0782 4.69989 14.5832 6.7207 15.712C6.84207 15.7787 6.96344 15.8455 7.09088 15.9122L9.22092 13.7822C7.97081 12.884 7.1637 11.4094 7.1637 9.74056Z" fill="#D5D2DF"/>
<path d="M15.1986 7.80456L10.2407 12.7625C9.25152 12.1253 8.59005 11.0087 8.58398 9.74648C8.58398 7.77422 10.1921 6.15393 12.1705 6.15393C13.4388 6.15393 14.5615 6.8154 15.1986 7.80456Z" fill="#D5D2DF"/>
<path d="M15.7678 9.74036C15.7678 11.7187 14.1596 13.3329 12.1813 13.3329C12.0296 13.3329 11.8839 13.3208 11.7383 13.3026L15.7435 9.29736C15.7617 9.44301 15.7678 9.58865 15.7678 9.74036Z" fill="#D5D2DF"/>
<path d="M2.95741 19.2256C2.67826 18.9464 2.67826 18.4852 2.95741 18.2061L20.908 0.25546C21.1872 -0.0236909 21.6484 -0.0236909 21.9275 0.25546C22.2067 0.534611 22.2067 0.995817 21.9275 1.27497L3.97692 19.2256C3.6917 19.5047 3.23656 19.5047 2.95741 19.2256Z" fill="#D5D2DF"/>
</svg>
