<svg width="24" height="16" viewBox="0 0 24 16" fill="none" xmlns="http://www.w3.org/2000/svg">
<path d="M23.8399 7.46424C23.8399 7.64624 23.8399 7.82825 23.8399 8.01026C23.7186 8.46528 23.4395 8.81716 23.1301 9.15084C22.8146 9.49059 22.5113 9.8364 22.1837 10.1701C20.6184 11.7657 18.8954 13.1489 16.869 14.1318C15.3462 14.8719 13.7506 15.2906 12.0519 15.2663C10.1348 15.236 8.37536 14.6475 6.72516 13.7192C4.71094 12.5847 2.994 11.0801 1.45301 9.36925C1.08292 8.96276 0.688575 8.56842 0.542969 8.01026C0.542969 7.82825 0.542969 7.64624 0.542969 7.46424C0.652173 7.12449 0.809913 6.80901 1.06472 6.54813C1.76849 5.8201 2.44191 5.04961 3.18208 4.35798C4.85048 2.80485 6.71302 1.549 8.88498 0.790631C10.2258 0.317411 11.603 0.111136 13.0226 0.244608C14.6546 0.396281 16.1653 0.942304 17.591 1.731C19.672 2.88372 21.4374 4.41865 23.0088 6.19019C23.3485 6.5724 23.7065 6.94248 23.8399 7.46424ZM12.1914 12.7546C14.964 12.7546 17.2088 10.5098 17.2088 7.73725C17.2088 4.96467 14.9701 2.71991 12.1914 2.71991C9.41887 2.71991 7.17411 4.9586 7.17411 7.73725C7.17411 10.5159 9.41887 12.7546 12.1914 12.7546Z" fill="#D5D2DF"/>
<path d="M15.7826 7.73716C15.7826 9.71497 14.1749 11.3288 12.1971 11.3288C10.2253 11.3288 8.60547 9.71497 8.60547 7.74323C8.60547 5.76541 10.2132 4.15161 12.191 4.15161C14.1628 4.14555 15.7766 5.75935 15.7826 7.73716Z" fill="#D5D2DF"/>
</svg>
