<svg width="30" height="21" viewBox="0 0 30 21" fill="none" xmlns="http://www.w3.org/2000/svg">
<path d="M28.8543 4.03348C28.5267 2.80492 27.5643 1.84254 26.3358 1.51492C24.0988 0.905761 15.161 0.905762 15.161 0.905762C15.161 0.905762 6.22316 0.905762 3.98615 1.49445C2.78318 1.82207 1.79521 2.81004 1.46759 4.03348C0.878906 6.26537 0.878906 10.9032 0.878906 10.9032C0.878906 10.9032 0.878906 15.5615 1.46759 17.778C1.79521 19.0066 2.75759 19.969 3.98615 20.2966C6.23852 20.9058 15.1558 20.9058 15.1558 20.9058C15.1558 20.9058 24.0936 20.9058 26.3307 20.3171C27.5592 19.9895 28.5216 19.0271 28.8492 17.7985C29.443 15.5615 29.443 10.9237 29.443 10.9237C29.443 10.9237 29.4635 6.27049 28.8543 4.03348ZM12.3148 15.1929V6.61858L19.7476 10.9032L12.3148 15.1929Z" fill="#090416"/>
</svg>
