<svg width="44" height="31" viewBox="0 0 44 31" fill="none" xmlns="http://www.w3.org/2000/svg">
<rect x="13.3359" y="7.0769" width="18.0449" height="18.0449" fill="white"/>
<path d="M42.2522 5.37395C41.7608 3.53111 40.3172 2.08754 38.4744 1.59612C35.1189 0.682373 21.7122 0.682373 21.7122 0.682373C21.7122 0.682373 8.30544 0.682373 4.94993 1.5654C3.14547 2.05683 1.66352 3.53878 1.17209 5.37395C0.289062 8.72179 0.289062 15.6785 0.289062 15.6785C0.289062 15.6785 0.289062 22.666 1.17209 25.9908C1.66352 27.8336 3.10708 29.2772 4.94993 29.7686C8.32848 30.6824 21.7045 30.6824 21.7045 30.6824C21.7045 30.6824 35.1112 30.6824 38.4667 29.7993C40.3095 29.3079 41.7531 27.8644 42.2445 26.0215C43.1352 22.666 43.1352 15.7092 43.1352 15.7092C43.1352 15.7092 43.166 8.72947 42.2522 5.37395ZM17.4429 22.1131V9.25161L28.5921 15.6785L17.4429 22.1131Z" fill="#FF0000"/>
</svg>
