<svg width="31" height="31" viewBox="0 0 31 31" fill="none" xmlns="http://www.w3.org/2000/svg">
<path d="M27.8109 30.6824H2.61094C1.28494 30.6824 0.210938 29.6084 0.210938 28.2824V3.08237C0.210938 1.75637 1.28494 0.682373 2.61094 0.682373H27.8109C29.1369 0.682373 30.2109 1.75637 30.2109 3.08237V28.2824C30.2109 29.6084 29.1369 30.6824 27.8109 30.6824Z" fill="#5865F2"/>
<path d="M3.69141 20.4586C3.69141 19.8286 3.69141 19.1986 3.69141 18.5686C3.70341 18.4726 3.72141 18.3766 3.73341 18.2866C3.81741 17.5786 3.86541 16.8646 3.98541 16.1686C4.46541 13.3846 5.56341 10.8526 7.12341 8.5126C7.17741 8.4286 7.26741 8.3566 7.35141 8.3146C8.77341 7.6606 10.2614 7.2166 11.7974 6.9286C11.9234 6.9046 11.9894 6.9346 12.0494 7.0486C12.1934 7.3426 12.3554 7.6306 12.4814 7.9366C12.5534 8.1106 12.6434 8.1406 12.8174 8.1226C13.4834 8.0566 14.1434 7.9606 14.8094 7.9666C15.7514 7.9786 16.6934 8.0626 17.6354 8.1286C17.7914 8.1406 17.8754 8.1106 17.9354 7.9546C18.0614 7.6546 18.2234 7.3606 18.3614 7.0666C18.4154 6.9466 18.4814 6.9046 18.6254 6.9286C20.1554 7.2106 21.6374 7.6606 23.0534 8.3086C23.1494 8.3506 23.2454 8.4286 23.2994 8.5186C23.7074 9.1846 24.1274 9.8386 24.4934 10.5226C25.6214 12.6406 26.3354 14.8906 26.5994 17.2786C26.6474 17.7106 26.6834 18.1426 26.7254 18.5686C26.7254 19.1866 26.7254 19.7986 26.7254 20.4166C26.6954 20.7286 26.6774 21.0406 26.6294 21.3526C26.6114 21.4546 26.5514 21.5806 26.4734 21.6406C24.8894 22.7986 23.1674 23.6926 21.3074 24.3166C20.7854 24.4906 20.7734 24.4966 20.4734 24.0286C20.1494 23.5246 19.8494 23.0086 19.5254 22.4746C19.8914 22.3126 20.2154 22.1806 20.5274 22.0306C20.8454 21.8746 21.1514 21.7066 21.4754 21.5326C21.1394 21.1306 21.0794 21.1186 20.6774 21.2926C17.0234 22.8466 13.3694 22.8226 9.71541 21.2866C9.33741 21.1306 9.21741 21.1606 8.92341 21.5566C9.56541 21.8686 10.1954 22.1746 10.8794 22.5046C10.4894 23.1226 10.1054 23.7226 9.73341 24.3226C9.64941 24.4606 9.56541 24.4726 9.42141 24.4246C7.44141 23.7886 5.61141 22.8706 3.93741 21.6406C3.85941 21.5806 3.79941 21.4546 3.78141 21.3526C3.73941 21.0526 3.72141 20.7526 3.69141 20.4586ZM21.1154 16.5046C21.1094 16.4146 21.1094 16.2826 21.0854 16.1506C21.0554 15.9946 21.0194 15.8446 20.9714 15.6946C20.4674 14.2426 18.7814 13.7806 17.7134 14.7886C16.7414 15.7126 16.7354 17.3926 17.7014 18.3226C18.4934 19.0846 19.6694 19.0726 20.4374 18.2866C20.9054 17.8066 21.1094 17.2126 21.1154 16.5046ZM13.4954 16.5466C13.4354 16.2646 13.4054 15.9706 13.3154 15.6946C12.8294 14.2666 11.1914 13.7866 10.1114 14.7346C9.07341 15.6466 9.05541 17.4106 10.0754 18.3466C10.8794 19.0846 12.0134 19.0606 12.7814 18.2806C13.2494 17.8066 13.4474 17.2186 13.4954 16.5466Z" fill="#F4F4F4"/>
</svg>
