<svg width="31" height="31" viewBox="0 0 31 31" fill="none" xmlns="http://www.w3.org/2000/svg">
<path d="M2.24752 2.76518C-0.102743 5.20642 0.378276 7.79969 0.378276 15.6779C0.378276 22.2203 -0.76321 28.7789 5.2109 30.3229C7.07641 30.8026 23.6055 30.8026 25.4685 30.3204C27.9559 29.6786 29.9797 27.661 30.2563 24.1431C30.2949 23.6521 30.2949 7.71245 30.2551 7.2115C29.961 3.46428 27.6543 1.30468 24.6149 0.867274C23.9183 0.766335 23.7787 0.736427 20.2047 0.730196C7.52752 0.736427 4.74857 0.171915 2.24752 2.76518Z" fill="url(#paint0_linear_722_1078)"/>
<path d="M15.3265 4.64176C10.8017 4.64176 6.50495 4.23925 4.86375 8.45128C4.18584 10.1909 4.28428 12.4502 4.28428 15.6853C4.28428 18.524 4.19331 21.1921 4.86375 22.918C6.50121 27.1325 10.8329 26.7288 15.324 26.7288C19.657 26.7288 24.1245 27.1799 25.7856 22.918C26.4648 21.1609 26.3651 18.9353 26.3651 15.6853C26.3651 11.371 26.6031 8.58587 24.5108 6.49481C22.3923 4.37633 19.5274 4.64176 15.3216 4.64176H15.3265ZM14.3371 6.63189C23.7755 6.61693 24.9768 5.56766 24.3139 20.144C24.0784 25.2994 20.1529 24.7337 15.3278 24.7337C6.52987 24.7337 6.2769 24.4819 6.2769 15.6803C6.2769 6.77644 6.97475 6.63687 14.3371 6.62939V6.63189ZM21.2209 8.46499C20.4894 8.46499 19.8962 9.05817 19.8962 9.78966C19.8962 10.5212 20.4894 11.1143 21.2209 11.1143C21.9524 11.1143 22.5456 10.5212 22.5456 9.78966C22.5456 9.05817 21.9524 8.46499 21.2209 8.46499ZM15.3265 10.014C12.1949 10.014 9.6565 12.5537 9.6565 15.6853C9.6565 18.8169 12.1949 21.3553 15.3265 21.3553C18.4582 21.3553 20.9953 18.8169 20.9953 15.6853C20.9953 12.5537 18.4582 10.014 15.3265 10.014ZM15.3265 12.0041C20.1928 12.0041 20.199 19.3664 15.3265 19.3664C10.4615 19.3664 10.454 12.0041 15.3265 12.0041Z" fill="white"/>
<defs>
<linearGradient id="paint0_linear_722_1078" x1="2.30487" y1="28.7279" x2="30.1011" y2="4.67053" gradientUnits="userSpaceOnUse">
<stop stop-color="#FFDD55"/>
<stop offset="0.5" stop-color="#FF543E"/>
<stop offset="1" stop-color="#C837AB"/>
</linearGradient>
</defs>
</svg>
