<svg width="31" height="31" viewBox="0 0 31 31" fill="none" xmlns="http://www.w3.org/2000/svg">
<path d="M23.6555 30.6824C18.123 30.6824 12.588 30.6824 7.05547 30.6824C6.98297 30.6724 6.91047 30.6574 6.83797 30.6499C6.47547 30.6074 6.10797 30.5899 5.75297 30.5174C2.70047 29.8949 0.482969 27.2299 0.387969 24.1899C0.385469 24.1299 0.367969 24.0699 0.355469 24.0074C0.355469 18.4574 0.355469 12.9074 0.355469 7.35737C0.365469 7.29987 0.380469 7.24487 0.387969 7.18737C0.415469 6.91487 0.425469 6.63987 0.467969 6.36987C0.667969 5.08237 1.20297 3.94487 2.07297 2.97987C3.35547 1.55487 4.96047 0.787373 6.88547 0.712373C6.94297 0.709873 6.99797 0.692373 7.05547 0.682373C12.588 0.682373 18.123 0.682373 23.6555 0.682373C23.7205 0.692373 23.7855 0.712373 23.8505 0.712373C24.5805 0.729873 25.2855 0.877373 25.9655 1.13237C28.4905 2.07737 30.2405 4.48987 30.323 7.17487C30.3255 7.24487 30.343 7.31237 30.3555 7.38237C30.3555 12.9149 30.3555 18.4499 30.3555 23.9824C30.3455 24.0599 30.3255 24.1374 30.323 24.2149C30.3055 24.8599 30.1805 25.4849 29.9755 26.0949C29.093 28.7024 26.6355 30.5824 23.8255 30.6549C23.768 30.6524 23.7105 30.6724 23.6555 30.6824ZM25.3705 14.1724C25.383 13.5449 25.2605 12.8324 25.0255 12.1374C24.5255 10.6574 23.613 9.46987 22.408 8.49487C21.3755 7.65987 20.2105 7.07237 18.948 6.67237C18.0205 6.37987 17.068 6.21237 16.098 6.15237C15.713 6.12737 15.323 6.12737 14.938 6.14987C14.388 6.18237 13.833 6.21987 13.2905 6.30737C12.0455 6.50987 10.863 6.90987 9.75547 7.52237C8.41297 8.26237 7.27797 9.23487 6.45047 10.5374C5.47047 12.0774 5.11547 13.7499 5.45547 15.5499C5.72047 16.9499 6.39047 18.1474 7.35797 19.1849C8.19547 20.0824 9.18297 20.7724 10.2905 21.2974C11.3255 21.7874 12.4105 22.0999 13.5405 22.2749C13.8005 22.3149 14.053 22.4099 14.3005 22.5049C14.5005 22.5824 14.6205 22.7499 14.6255 22.9699C14.6305 23.2049 14.6355 23.4424 14.608 23.6774C14.5655 24.0449 14.493 24.4074 14.443 24.7724C14.403 25.0624 14.5755 25.2599 14.838 25.2324C14.9355 25.2224 15.0355 25.2024 15.1305 25.1724C15.583 25.0324 15.9855 24.7824 16.3905 24.5449C18.0655 23.5574 19.658 22.4524 21.1655 21.2249C22.173 20.4049 23.113 19.5149 23.8955 18.4724C24.823 17.2324 25.3805 15.8574 25.3705 14.1724Z" fill="#06C755"/>
<path d="M25.37 14.1723C25.38 15.8573 24.8225 17.2348 23.89 18.4748C23.105 19.5173 22.1675 20.4073 21.16 21.2273C19.6525 22.4523 18.0575 23.5598 16.385 24.5473C15.98 24.7848 15.5775 25.0348 15.125 25.1748C15.03 25.2048 14.9325 25.2248 14.8325 25.2348C14.57 25.2623 14.3975 25.0648 14.4375 24.7748C14.4875 24.4098 14.5625 24.0448 14.6025 23.6798C14.63 23.4473 14.625 23.2098 14.62 22.9723C14.615 22.7523 14.495 22.5848 14.295 22.5073C14.05 22.4123 13.795 22.3173 13.535 22.2773C12.405 22.1023 11.32 21.7898 10.285 21.2998C9.17751 20.7748 8.19001 20.0873 7.35251 19.1873C6.38501 18.1498 5.71751 16.9523 5.45001 15.5523C5.11001 13.7523 5.46501 12.0798 6.44501 10.5398C7.27251 9.23732 8.40751 8.26482 9.75001 7.52482C10.8575 6.91232 12.04 6.51232 13.285 6.30982C13.83 6.22232 14.3825 6.18482 14.9325 6.15232C15.3175 6.12982 15.7075 6.12982 16.0925 6.15482C17.0625 6.21482 18.015 6.38232 18.9425 6.67482C20.205 7.07482 21.37 7.66232 22.4025 8.49732C23.6075 9.47232 24.52 10.6598 25.02 12.1398C25.26 12.8298 25.3825 13.5448 25.37 14.1723ZM17.2675 14.8748C17.255 14.8773 17.2425 14.8773 17.2325 14.8798C17.2025 14.8423 17.17 14.8048 17.14 14.7648C16.5225 13.9323 15.905 13.0998 15.29 12.2648C15.2375 12.1948 15.1825 12.1598 15.0925 12.1623C14.8975 12.1673 14.7 12.1648 14.505 12.1648C14.255 12.1648 14.235 12.1848 14.235 12.4373C14.235 13.6623 14.235 14.8873 14.235 16.1123C14.235 16.2948 14.2325 16.4798 14.2375 16.6623C14.24 16.8023 14.2875 16.8473 14.4275 16.8498C14.6275 16.8523 14.8275 16.8523 15.0275 16.8498C15.23 16.8498 15.2675 16.8098 15.2675 16.6098C15.2675 15.8148 15.2675 15.0173 15.2675 14.2223C15.2675 14.1748 15.2725 14.1273 15.275 14.0798C15.285 14.0773 15.295 14.0723 15.305 14.0698C15.34 14.1123 15.3775 14.1523 15.4125 14.1973C16.03 15.0298 16.6475 15.8623 17.2625 16.6973C17.325 16.7823 17.3925 16.8248 17.5025 16.8223C17.695 16.8148 17.885 16.8198 18.0775 16.8198C18.26 16.8198 18.3175 16.7623 18.3175 16.5823C18.3175 15.1748 18.3175 13.7648 18.3175 12.3573C18.3175 12.1823 18.255 12.1223 18.075 12.1198C17.9075 12.1173 17.7425 12.1198 17.575 12.1198C17.325 12.1198 17.2825 12.1623 17.2825 12.4073C17.2825 13.1748 17.2825 13.9398 17.2825 14.7073C17.28 14.7623 17.2725 14.8198 17.2675 14.8748ZM19.0425 14.4798C19.0425 15.1723 19.0425 15.8623 19.0425 16.5548C19.0425 16.7798 19.0875 16.8273 19.31 16.8273C20.09 16.8273 20.8675 16.8273 21.6475 16.8273C21.7725 16.8273 21.8975 16.8298 22.0225 16.8248C22.1325 16.8223 22.1925 16.7598 22.1925 16.6498C22.195 16.4248 22.195 16.1998 22.1925 15.9748C22.19 15.8523 22.1275 15.7973 22.005 15.7898C21.9675 15.7873 21.93 15.7898 21.8925 15.7898C21.3475 15.7898 20.8 15.7873 20.255 15.7923C20.13 15.7923 20.085 15.7523 20.0925 15.6273C20.1025 15.4773 20.095 15.3273 20.095 15.1773C20.095 14.9998 20.095 14.9998 20.2775 14.9998C20.84 14.9998 21.4025 14.9998 21.965 14.9998C22.1425 14.9998 22.1925 14.9473 22.195 14.7673C22.195 14.6298 22.195 14.4923 22.195 14.3548C22.195 13.9623 22.195 13.9623 21.8025 13.9623C21.285 13.9623 20.77 13.9598 20.2525 13.9648C20.1375 13.9648 20.085 13.9348 20.0925 13.8098C20.1025 13.6523 20.1025 13.4923 20.0925 13.3348C20.085 13.2073 20.13 13.1698 20.255 13.1698C20.83 13.1748 21.405 13.1723 21.98 13.1723C22.135 13.1723 22.1925 13.1148 22.1925 12.9623C22.195 12.7698 22.1925 12.5798 22.1925 12.3873C22.1925 12.1898 22.145 12.1423 21.9525 12.1398C21.065 12.1398 20.1775 12.1398 19.29 12.1398C19.09 12.1398 19.04 12.1898 19.04 12.3923C19.0425 13.0898 19.0425 13.7848 19.0425 14.4798ZM8.66251 14.4723C8.66251 15.1848 8.66251 15.8973 8.66251 16.6098C8.66251 16.7723 8.70751 16.8223 8.85501 16.8223C9.77251 16.8248 10.6875 16.8248 11.605 16.8223C11.7425 16.8223 11.7925 16.7723 11.795 16.6323C11.7975 16.4273 11.795 16.2248 11.795 16.0198C11.795 15.8398 11.745 15.7923 11.5625 15.7923C11.02 15.7923 10.48 15.7923 9.93751 15.7923C9.68501 15.7923 9.69501 15.8223 9.69501 15.5473C9.69501 14.4848 9.69501 13.4223 9.69501 12.3598C9.69501 12.1823 9.65251 12.1398 9.47251 12.1398C9.28501 12.1398 9.09751 12.1398 8.91001 12.1398C8.69501 12.1398 8.66251 12.1723 8.66001 12.3848C8.66251 13.0823 8.66251 13.7773 8.66251 14.4723ZM12.4425 14.4823C12.4425 15.1823 12.4425 15.8823 12.4425 16.5823C12.4425 16.7748 12.495 16.8248 12.6875 16.8273C12.88 16.8298 13.07 16.8298 13.2625 16.8273C13.44 16.8248 13.495 16.7723 13.495 16.5948C13.495 15.1823 13.495 13.7723 13.495 12.3598C13.495 12.1848 13.4325 12.1223 13.2525 12.1198C13.0725 12.1173 12.895 12.1198 12.715 12.1198C12.5025 12.1198 12.4425 12.1798 12.4425 12.3973C12.4425 13.0923 12.4425 13.7873 12.4425 14.4823Z" fill="white"/>
<path d="M17.2694 14.8749C17.2744 14.8199 17.2819 14.7624 17.2819 14.7074C17.2819 13.9399 17.2819 13.1749 17.2819 12.4074C17.2819 12.1624 17.3244 12.1199 17.5744 12.1199C17.7419 12.1199 17.9069 12.1199 18.0744 12.1199C18.2544 12.1224 18.3169 12.1824 18.3169 12.3574C18.3169 13.7649 18.3169 15.1749 18.3169 16.5824C18.3169 16.7624 18.2594 16.8199 18.0769 16.8199C17.8844 16.8199 17.6944 16.8149 17.5019 16.8224C17.3944 16.8274 17.3244 16.7824 17.2619 16.6974C16.6469 15.8624 16.0294 15.0299 15.4119 14.1974C15.3794 14.1524 15.3419 14.1124 15.3044 14.0699C15.2944 14.0724 15.2844 14.0774 15.2744 14.0799C15.2719 14.1274 15.2669 14.1749 15.2669 14.2224C15.2669 15.0174 15.2669 15.8149 15.2669 16.6099C15.2669 16.8099 15.2269 16.8499 15.0269 16.8499C14.8269 16.8499 14.6269 16.8524 14.4269 16.8499C14.2844 16.8474 14.2394 16.8024 14.2369 16.6624C14.2344 16.4799 14.2344 16.2949 14.2344 16.1124C14.2344 14.8874 14.2344 13.6624 14.2344 12.4374C14.2344 12.1849 14.2544 12.1649 14.5044 12.1649C14.6994 12.1649 14.8969 12.1674 15.0919 12.1624C15.1819 12.1599 15.2369 12.1924 15.2894 12.2649C15.9044 13.0999 16.5219 13.9324 17.1394 14.7649C17.1694 14.8049 17.1994 14.8424 17.2319 14.8799C17.2444 14.8774 17.2569 14.8774 17.2694 14.8749Z" fill="#06C755"/>
<path d="M19.0469 14.4796C19.0469 13.7846 19.0469 13.0896 19.0469 12.3921C19.0469 12.1921 19.0969 12.1396 19.2969 12.1396C20.1844 12.1396 21.0719 12.1396 21.9594 12.1396C22.1519 12.1396 22.1994 12.1871 22.1994 12.3871C22.1994 12.5796 22.2019 12.7696 22.1994 12.9621C22.1969 13.1146 22.1394 13.1721 21.9869 13.1721C21.4119 13.1721 20.8369 13.1746 20.2619 13.1696C20.1369 13.1696 20.0894 13.2071 20.0994 13.3346C20.1094 13.4921 20.1094 13.6521 20.0994 13.8096C20.0919 13.9346 20.1444 13.9646 20.2594 13.9646C20.7769 13.9596 21.2919 13.9621 21.8094 13.9621C22.2019 13.9621 22.2019 13.9621 22.2019 14.3546C22.2019 14.4921 22.2019 14.6296 22.2019 14.7671C22.2019 14.9471 22.1494 14.9996 21.9719 14.9996C21.4094 14.9996 20.8469 14.9996 20.2844 14.9996C20.1019 14.9996 20.1019 14.9996 20.1019 15.1771C20.1019 15.3271 20.1094 15.4771 20.0994 15.6271C20.0919 15.7546 20.1369 15.7946 20.2619 15.7921C20.8069 15.7871 21.3544 15.7896 21.8994 15.7896C21.9369 15.7896 21.9744 15.7896 22.0119 15.7896C22.1369 15.7946 22.1969 15.8521 22.1994 15.9746C22.2019 16.1996 22.2019 16.4246 22.1994 16.6496C22.1994 16.7596 22.1394 16.8196 22.0294 16.8246C21.9044 16.8296 21.7794 16.8271 21.6544 16.8271C20.8744 16.8271 20.0969 16.8271 19.3169 16.8271C19.0944 16.8271 19.0494 16.7796 19.0494 16.5546C19.0469 15.8621 19.0469 15.1721 19.0469 14.4796Z" fill="#06C755"/>
<path d="M8.66406 14.4721C8.66406 13.7771 8.66406 13.0796 8.66406 12.3846C8.66406 12.1721 8.69656 12.1396 8.91406 12.1396C9.10156 12.1396 9.28906 12.1396 9.47656 12.1396C9.65656 12.1396 9.69906 12.1821 9.69906 12.3596C9.69906 13.4221 9.69906 14.4846 9.69906 15.5471C9.69906 15.8196 9.68906 15.7896 9.94156 15.7921C10.4841 15.7921 11.0241 15.7921 11.5666 15.7921C11.7491 15.7921 11.7966 15.8396 11.7991 16.0196C11.7991 16.2246 11.8016 16.4271 11.7991 16.6321C11.7966 16.7696 11.7491 16.8221 11.6091 16.8221C10.6916 16.8221 9.77656 16.8221 8.85906 16.8221C8.71156 16.8221 8.66656 16.7721 8.66656 16.6096C8.66406 15.8971 8.66406 15.1846 8.66406 14.4721Z" fill="#06C755"/>
<path d="M12.4453 14.4823C12.4453 13.7873 12.4453 13.0923 12.4453 12.3948C12.4453 12.1773 12.5028 12.1198 12.7178 12.1173C12.8978 12.1173 13.0753 12.1148 13.2553 12.1173C13.4353 12.1198 13.4978 12.1823 13.4978 12.3573C13.4978 13.7698 13.4978 15.1798 13.4978 16.5923C13.4978 16.7698 13.4453 16.8223 13.2653 16.8248C13.0728 16.8273 12.8828 16.8273 12.6903 16.8248C12.4978 16.8223 12.4453 16.7723 12.4453 16.5798C12.4453 15.8823 12.4453 15.1823 12.4453 14.4823Z" fill="#06C755"/>
</svg>
