<svg width="31" height="31" viewBox="0 0 31 31" fill="none" xmlns="http://www.w3.org/2000/svg">
<path d="M15.2947 30.6221C23.541 30.6221 30.2261 23.937 30.2261 15.6907C30.2261 7.44429 23.541 0.759277 15.2947 0.759277C7.04829 0.759277 0.363281 7.44429 0.363281 15.6907C0.363281 23.937 7.04829 30.6221 15.2947 30.6221Z" fill="white"/>
<path d="M10.868 30.012C12.4949 27.7672 13.0893 25.1705 13.6837 22.6519C13.9028 22.824 14.1139 22.9961 14.3329 23.1681C15.6 24.2006 17.0548 24.3414 18.5801 24.0285C20.5589 23.6296 22.0841 22.5111 23.1791 20.8451C24.8295 18.3422 25.3926 15.5734 24.634 12.6716C23.7501 9.28484 21.3802 7.26688 18.0404 6.49254C15.2168 5.83553 12.4558 6.19532 9.94503 7.72835C7.58292 9.16752 6.27672 11.3263 5.90128 14.056C5.6197 16.1053 6.06553 17.9903 7.25441 19.6875C7.65331 20.2585 8.15389 20.7356 8.79526 21.0407C9.17852 21.2284 9.30367 21.1658 9.41317 20.7591C9.53831 20.2663 9.67128 19.7736 9.75732 19.2808C9.7886 19.1009 9.75732 18.8506 9.65564 18.7098C7.14491 15.2214 9.19416 9.6681 14.1218 8.97198C15.6313 8.7608 17.0861 8.88594 18.4549 9.59771C20.3399 10.591 21.3332 12.2101 21.5131 14.2907C21.6774 16.2226 21.3489 18.0919 20.2695 19.7501C19.5108 20.9077 18.4784 21.6429 17.047 21.7524C15.4984 21.8698 14.3251 20.6027 14.6927 19.0931C14.9978 17.826 15.4123 16.5902 15.7252 15.3309C15.8503 14.8225 15.9129 14.2672 15.866 13.751C15.7408 12.2727 14.3642 11.5375 13.0346 12.2179C12.0647 12.7107 11.6032 13.5945 11.392 14.6113C11.1887 15.6047 11.2903 16.5746 11.6032 17.5366C11.6736 17.7478 11.6814 17.9981 11.6345 18.2093C11.087 20.6183 10.4456 23.0117 9.98414 25.4364C9.77296 26.5549 9.89028 27.7438 9.86682 28.9014C9.859 29.1438 9.89811 29.3941 9.92157 29.6522C4.05539 27.603 -1.2711 20.6105 0.707755 12.2179C2.63968 4.0131 10.9227 -0.992706 19.1276 1.19733C27.4497 3.41866 32.174 12.0224 29.6163 20.1568C27.0274 28.3538 18.4393 32.3741 10.868 30.012Z" fill="#E60023"/>
</svg>
