<svg width="31" height="31" viewBox="0 0 31 31" fill="none" xmlns="http://www.w3.org/2000/svg">
<path d="M15.2109 30.6824C23.4952 30.6824 30.2109 23.9666 30.2109 15.6824C30.2109 7.3981 23.4952 0.682373 15.2109 0.682373C6.92667 0.682373 0.210938 7.3981 0.210938 15.6824C0.210938 23.9666 6.92667 30.6824 15.2109 30.6824Z" fill="#DA552F"/>
<path d="M12.9585 18.7302C12.9585 20.2478 12.9585 21.7152 12.9585 23.2139C11.9426 23.2139 10.9456 23.2139 9.92969 23.2139C9.92969 18.2098 9.92969 13.2056 9.92969 8.15122C10.0426 8.15122 10.1554 8.15122 10.262 8.15122C12.5948 8.15122 14.9213 8.14495 17.2541 8.15122C20.3645 8.1575 22.8039 10.8979 22.4778 13.9957C22.1893 16.6734 19.9255 18.7177 17.2353 18.724C15.9372 18.724 14.6454 18.724 13.3473 18.724C13.2282 18.7302 13.1153 18.7302 12.9585 18.7302ZM12.9711 15.6826C14.3068 15.6826 15.5986 15.6826 16.8967 15.6826C17.1475 15.6826 17.3983 15.6638 17.6429 15.6261C18.7591 15.4443 19.5931 14.2591 19.3988 13.1554C19.1918 11.9702 18.3139 11.2177 17.1099 11.2114C15.8243 11.2052 14.5388 11.2114 13.2533 11.2114C13.1592 11.2114 13.0714 11.224 12.9648 11.2302C12.9711 12.7102 12.9711 14.1776 12.9711 15.6826Z" fill="white"/>
</svg>
