<svg width="31" height="31" viewBox="0 0 31 31" fill="none" xmlns="http://www.w3.org/2000/svg">
<path d="M27.8109 30.0994H2.61094C1.28494 30.0994 0.210938 29.0254 0.210938 27.6994V2.49937C0.210938 1.17337 1.28494 0.0993652 2.61094 0.0993652H27.8109C29.1369 0.0993652 30.2109 1.17337 30.2109 2.49937V27.6994C30.2109 29.0254 29.1369 30.0994 27.8109 30.0994Z" fill="#B92B27"/>
<path d="M23.362 21.7356C24.028 22.3956 24.694 23.0436 25.33 23.7156C25.51 23.9076 25.666 24.1776 25.702 24.4356C25.792 25.0476 25.318 25.5576 24.688 25.5996C24.586 25.6056 24.49 25.5996 24.388 25.5996C21.37 25.5996 18.346 25.5996 15.328 25.5996C10.324 25.5996 6.15402 22.3296 4.96602 17.4696C3.57402 11.7636 7.40802 5.84757 13.198 4.77357C18.712 3.75357 23.962 7.02957 25.366 12.4356C26.206 15.6756 25.582 18.6696 23.62 21.3816C23.542 21.4956 23.458 21.6096 23.362 21.7356ZM15.202 21.3636C18.67 21.3696 21.49 18.5676 21.49 15.1116C21.496 11.6436 18.694 8.81757 15.244 8.81157C11.758 8.80557 8.92602 11.6076 8.92002 15.0696C8.91402 18.5436 11.722 21.3636 15.202 21.3636Z" fill="white"/>
</svg>
