<svg width="31" height="31" viewBox="0 0 31 31" fill="none" xmlns="http://www.w3.org/2000/svg">
<path d="M15.1758 30.6824C23.4601 30.6824 30.1758 23.9666 30.1758 15.6824C30.1758 7.3981 23.4601 0.682373 15.1758 0.682373C6.89151 0.682373 0.175781 7.3981 0.175781 15.6824C0.175781 23.9666 6.89151 30.6824 15.1758 30.6824Z" fill="#FF4500"/>
<path d="M19.8138 8.42273C18.7591 8.20007 17.7162 7.97741 16.6263 7.7489C16.2982 9.28991 15.9759 10.8075 15.642 12.3778C17.7396 12.5067 19.7084 13.0165 21.4545 14.2352C21.9349 13.8192 22.4798 13.5966 23.1185 13.6434C24.0912 13.7137 24.8822 14.37 25.1224 15.2958C25.3627 16.2274 24.9584 17.2001 24.1263 17.7274C24.0326 17.786 23.9154 17.9266 23.9213 18.0204C24.0736 20.077 23.0775 21.5477 21.5072 22.7137C20.2123 23.6747 18.7298 24.202 17.1478 24.454C15.1205 24.7762 13.1224 24.6356 11.1771 23.9384C9.55407 23.3524 8.1361 22.4794 7.16344 21.0028C6.59508 20.1356 6.31383 19.1864 6.4193 18.1493C6.43688 17.9384 6.38414 17.827 6.19664 17.7098C5.13024 17.0536 4.83727 15.6473 5.53453 14.6161C6.24352 13.5731 7.66149 13.327 8.67516 14.0887C8.83336 14.2118 8.93297 14.2176 9.10289 14.1063C10.6498 13.0809 12.3724 12.577 14.2123 12.4423C14.7982 12.4012 14.7982 12.4071 14.9154 11.8505C15.2318 10.3446 15.5482 8.83874 15.8646 7.33288C15.9525 6.92859 16.1283 6.8114 16.5326 6.89929C17.6107 7.12781 18.6888 7.35046 19.7611 7.5907C19.9427 7.63171 20.0306 7.5907 20.1361 7.44421C20.5404 6.86999 21.2142 6.64734 21.8646 6.8407C22.4916 7.0282 22.9369 7.59656 22.9838 8.27038C23.0306 8.92077 22.6498 9.53601 22.0345 9.8114C21.2435 10.1688 20.2709 9.76452 19.9545 8.94421C19.9017 8.76843 19.8666 8.61023 19.8138 8.42273Z" fill="white"/>
<path d="M18.6035 18.9343C19.4546 18.9343 20.1445 18.2444 20.1445 17.3933C20.1445 16.5422 19.4546 15.8523 18.6035 15.8523C17.7524 15.8523 17.0625 16.5422 17.0625 17.3933C17.0625 18.2444 17.7524 18.9343 18.6035 18.9343Z" fill="#FF4500"/>
<path d="M11.748 18.9343C12.5991 18.9343 13.2891 18.2444 13.2891 17.3933C13.2891 16.5422 12.5991 15.8523 11.748 15.8523C10.897 15.8523 10.207 16.5422 10.207 17.3933C10.207 18.2444 10.897 18.9343 11.748 18.9343Z" fill="#FF4500"/>
<path d="M15.2119 22.7196C12.7627 22.7196 11.5147 21.5829 11.4619 21.536C11.2979 21.3837 11.2861 21.12 11.4443 20.9559C11.5967 20.7919 11.8545 20.7802 12.0244 20.9325C12.042 20.9501 13.1143 21.8993 15.2178 21.8993C17.3447 21.8993 18.3057 20.9677 18.3174 20.9559C18.4756 20.7977 18.7393 20.7977 18.8975 20.9559C19.0557 21.1141 19.0557 21.3778 18.8975 21.536C18.8389 21.5887 17.6729 22.7196 15.2119 22.7196Z" fill="#FF4500"/>
</svg>
