<svg width="31" height="31" viewBox="0 0 31 31" fill="none" xmlns="http://www.w3.org/2000/svg">
<path d="M29.1448 18.1868C29.1351 18.2397 29.1186 18.1391 29.1448 18.1868C29.2999 17.3417 29.3814 16.477 29.3814 15.6125C29.3814 13.6956 29.0062 11.836 28.2647 10.0852C27.5492 8.39414 26.5258 6.87547 25.2209 5.57154C23.9181 4.26743 22.3983 3.24415 20.708 2.52887C18.9579 1.78825 17.0982 1.41289 15.1814 1.41289C14.278 1.41289 13.3731 1.49769 12.4924 1.66692C12.4906 1.66729 12.4858 1.66784 12.4858 1.66784C11.2775 1.02542 9.91891 0.682373 8.5434 0.682373C6.29787 0.682373 4.18671 1.5568 2.59901 3.14504C1.01151 4.73273 0.136719 6.84408 0.136719 9.08942C0.136719 10.5187 0.504549 11.9238 1.19432 13.1651C1.05446 13.9696 0.980489 14.7917 0.980489 15.6125C0.980489 17.5299 1.35584 19.3892 2.09738 21.1403C2.81175 22.832 3.83558 24.3496 5.13932 25.6537C6.44416 26.9576 7.96174 27.9826 9.65387 28.696C11.4042 29.4381 13.2644 29.8136 15.1812 29.8136C16.0156 29.8136 16.8519 29.7375 17.6683 29.5926C18.926 30.3043 20.3499 30.6824 21.804 30.6824C24.049 30.6824 26.1592 29.8096 27.7471 28.2206C29.3352 26.6339 30.2092 24.5221 30.2092 22.2768C30.2092 20.8427 29.8396 19.4331 29.1448 18.1868ZM15.2379 24.3092C10.1931 24.3092 7.93604 21.8291 7.93604 19.9701C7.93604 19.017 8.63995 18.3485 9.61 18.3485C11.7691 18.3485 11.21 21.4484 15.2379 21.4484C17.3001 21.4484 18.4387 20.3288 18.4387 19.1831C18.4387 18.4939 18.0987 17.7299 16.7408 17.3953L12.2538 16.2751C8.63995 15.369 7.98431 13.4153 7.98431 11.5789C7.98431 7.76604 11.5743 6.33455 14.9456 6.33455C18.0512 6.33455 21.7121 8.05091 21.7121 10.3383C21.7121 11.3184 20.8633 11.8883 19.8936 11.8883C18.0512 11.8883 18.39 9.33813 14.6787 9.33813C12.8371 9.33813 11.817 10.1722 11.817 11.3654C11.817 12.5566 13.2716 12.9371 14.5344 13.2248L17.8557 13.9621C21.4938 14.7726 22.4161 16.8966 22.4161 18.8973C22.4165 21.9956 20.0381 24.3092 15.2379 24.3092Z" fill="url(#paint0_linear_727_1153)"/>
<defs>
<linearGradient id="paint0_linear_727_1153" x1="15.173" y1="0.682373" x2="15.173" y2="30.6824" gradientUnits="userSpaceOnUse">
<stop stop-color="#00B7F0"/>
<stop offset="1" stop-color="#0084D9"/>
</linearGradient>
</defs>
</svg>
