<svg width="31" height="31" viewBox="0 0 31 31" fill="none" xmlns="http://www.w3.org/2000/svg">
<path d="M15.2856 30.6793C11.3961 30.6793 7.50658 30.6793 3.61707 30.6793C2.00668 30.6793 0.723826 29.6899 0.375817 28.1887C0.314404 27.9157 0.287109 27.6292 0.287109 27.3426C0.287109 19.5635 0.287109 11.7845 0.287109 4.01234C0.287109 2.08805 1.68597 0.689197 3.60343 0.682373C11.3893 0.682373 19.1819 0.682373 26.9678 0.682373C28.8852 0.682373 30.2841 2.08805 30.2841 4.00551C30.2841 11.7845 30.2841 19.5635 30.2841 27.3357C30.2841 29.2941 28.892 30.6793 26.92 30.6793C23.0441 30.6862 19.1683 30.6793 15.2856 30.6793ZM9.10332 11.9142C9.0965 11.9142 9.08285 11.9142 9.07603 11.9142C9.10332 12.4396 9.11697 12.9582 9.17156 13.4768C9.20568 13.7634 9.08285 13.8726 8.8372 13.8385C8.48237 13.7839 8.11389 13.7361 7.78635 13.6065C7.37011 13.4427 7.00845 13.4836 6.64679 13.7088C6.10772 14.0432 6.04631 14.6164 6.53761 15.0053C6.83103 15.2373 7.19951 15.3874 7.54752 15.5512C7.86824 15.7013 8.20942 15.79 8.52331 15.947C9.02144 16.2063 9.15791 16.5816 8.91226 17.0865C7.96377 19.0722 6.59903 20.5871 4.33356 21.0579C3.93096 21.1398 3.76719 21.4946 4.00602 21.829C4.16297 22.0474 4.4018 22.2657 4.64745 22.3613C5.24111 22.5864 5.84842 22.7775 6.46938 22.8935C6.87198 22.9686 7.03575 23.105 7.11081 23.5076C7.29505 24.4971 7.41105 24.5585 8.38684 24.3674C9.68334 24.1149 10.898 24.2446 11.9556 25.1249C12.2286 25.35 12.5288 25.5343 12.8291 25.7185C14.4668 26.6807 16.1044 26.6602 17.7421 25.7117C18.1038 25.5002 18.4586 25.2682 18.7861 25.0089C19.7142 24.2719 20.765 24.1627 21.8841 24.3197C22.1571 24.3606 22.4232 24.4152 22.6961 24.4357C23.0987 24.4698 23.2557 24.3538 23.3649 23.9648C23.4263 23.7601 23.4877 23.5486 23.515 23.337C23.5491 23.0573 23.706 22.9822 23.9585 22.9276C24.5249 22.8116 25.0912 22.682 25.6371 22.4977C25.9374 22.3954 26.2376 22.2111 26.4696 21.9928C26.8654 21.6175 26.7016 21.1535 26.1762 21.0375C23.9312 20.5393 22.5869 19.0176 21.6726 17.0319C21.4542 16.5475 21.5975 16.1995 22.0683 15.9538C22.3754 15.79 22.7302 15.7082 23.0441 15.558C23.4194 15.3738 23.8152 15.2032 24.1291 14.9371C24.5249 14.6027 24.4635 14.0773 24.0336 13.7702C23.6378 13.4836 23.2079 13.4222 22.7439 13.5928C22.4505 13.702 22.1434 13.7907 21.8295 13.8521C21.5566 13.8999 21.3928 13.8112 21.4201 13.4632C21.4815 12.5897 21.5225 11.7163 21.5293 10.8429C21.5497 8.42727 20.458 6.57805 18.288 5.61591C16.6913 4.90624 15.3334 4.84483 13.7912 5.13142C10.9798 5.70461 9.18521 7.98373 9.10332 10.1264C9.08968 10.7132 9.10332 11.3137 9.10332 11.9142Z" fill="#FFFE03"/>
<path d="M9.11257 10.1061C9.19446 7.96343 11.0369 5.62291 13.8005 5.11113C15.3426 4.82453 16.8711 4.86548 18.2973 5.59561C20.4058 6.68058 21.559 8.40015 21.5385 10.8226C21.5317 11.696 21.4908 12.5694 21.4293 13.4429C21.402 13.7909 21.5658 13.8864 21.8388 13.8318C22.1458 13.7772 22.4529 13.6817 22.7531 13.5725C23.224 13.4019 23.647 13.4633 24.0428 13.7499C24.4659 14.057 24.5341 14.5824 24.1384 14.9168C23.8245 15.1829 23.4287 15.3535 23.0534 15.5377C22.7395 15.6879 22.3915 15.7697 22.0776 15.9335C21.5999 16.186 21.4566 16.534 21.6818 17.0117C22.603 19.0315 23.9405 20.519 26.1855 21.0172C26.7109 21.1332 26.8747 21.5972 26.4789 21.9725C26.2469 22.1908 25.9466 22.3751 25.6464 22.4774C25.1005 22.6617 24.5341 22.7913 23.9678 22.9073C23.7153 22.9619 23.5583 23.0438 23.5242 23.3168C23.4969 23.5283 23.4355 23.7398 23.3741 23.9445C23.2649 24.3335 22.8896 24.5177 21.8934 24.2994C18.9796 23.6648 19.2048 24.661 17.7514 25.6914C16.2979 26.7218 14.4351 26.7491 12.8383 25.6982C11.2416 24.6474 11.1802 23.8558 8.39608 24.354C7.58406 24.4972 7.30429 24.4836 7.12005 23.4942C7.04499 23.0916 6.8744 22.9551 6.47862 22.88C5.8372 22.7777 5.27083 22.6344 4.6567 22.3478C4.41787 22.2386 4.17222 22.0407 4.01527 21.8155C3.77644 21.4812 3.94021 21.1263 4.34281 21.0445C6.60828 20.5736 7.92525 19.1065 8.92151 17.0731C9.16034 16.5681 9.03069 16.1928 8.53256 15.9335C8.22549 15.7697 7.87748 15.681 7.55677 15.5377C7.20876 15.374 6.84028 15.2238 6.54686 14.9918C6.05556 14.6029 6.11697 14.0297 6.65604 13.6953C7.01087 13.477 7.37935 13.436 7.7956 13.593C8.12996 13.7226 8.49162 13.7772 8.84645 13.825C9.0921 13.8591 9.20128 13.7499 9.18081 13.4633C9.12622 12.8219 9.0921 10.7134 9.11257 10.1061Z" fill="white"/>
<path d="M15.3289 26.7286C14.4282 26.7286 13.5207 26.4488 12.7086 25.9097C12.3538 25.6777 12.0809 25.4594 11.8284 25.2615C11.187 24.7565 10.798 24.4494 9.82905 24.4494C9.44692 24.4494 8.99656 24.4972 8.43019 24.5996C8.18454 24.6405 8.00712 24.6678 7.84335 24.6678C7.21557 24.6678 7.01086 24.2379 6.88121 23.5487C6.82662 23.2553 6.74474 23.1802 6.43085 23.1257C5.72118 23.0165 5.14117 22.8459 4.55433 22.5798C4.27456 22.4501 4.00161 22.2249 3.81737 21.9724C3.66043 21.7541 3.61948 21.5016 3.70819 21.2833C3.7969 21.0512 4.01526 20.8875 4.29503 20.8261C6.24661 20.4235 7.60452 19.2361 8.70996 16.9843C8.8942 16.6022 8.81232 16.3634 8.42337 16.1587C8.26642 16.0768 8.09583 16.0154 7.91841 15.9471C7.76829 15.8925 7.61135 15.8311 7.46123 15.7629C7.40664 15.7356 7.35205 15.7151 7.30428 15.6878C6.99721 15.5445 6.68332 15.4012 6.41038 15.1897C6.11696 14.9577 5.96684 14.6574 5.98731 14.3436C6.00778 14.016 6.20566 13.7158 6.54003 13.5042C6.7925 13.3473 7.0518 13.2722 7.31793 13.2722C7.50217 13.2722 7.69323 13.3132 7.89112 13.3882C8.19818 13.5042 8.54619 13.5588 8.88738 13.6066C8.90785 13.6066 8.9215 13.6134 8.93514 13.6134H8.94197C8.94879 13.5929 8.94879 13.5588 8.94197 13.5042C8.88738 12.8219 8.85326 10.6929 8.87373 10.106C8.91467 8.98695 9.42645 7.79963 10.2726 6.84431C11.1801 5.82758 12.4152 5.13157 13.7595 4.87909C14.3736 4.76309 14.9332 4.7085 15.4722 4.7085C16.5572 4.7085 17.5194 4.93368 18.3996 5.38404C20.6583 6.55089 21.791 8.37964 21.7705 10.8225C21.7637 11.6414 21.7296 12.508 21.6613 13.4565C21.6545 13.5452 21.6682 13.5861 21.675 13.5998C21.6886 13.5998 21.7364 13.6066 21.791 13.5929C22.0571 13.5452 22.3437 13.4633 22.6644 13.3473C23.2035 13.1494 23.7153 13.2245 24.1793 13.552C24.4591 13.7567 24.6228 14.0433 24.6365 14.3504C24.6501 14.637 24.5205 14.9031 24.2885 15.101C23.995 15.3466 23.6402 15.5172 23.3058 15.681C23.2581 15.7015 23.2103 15.7288 23.1626 15.7492C23.0056 15.8243 22.8418 15.8857 22.6781 15.9471C22.5075 16.0085 22.3437 16.0699 22.1936 16.145C21.8183 16.3429 21.7364 16.5544 21.9002 16.9161C22.9033 19.1201 24.2816 20.3552 26.24 20.7919C26.588 20.867 26.8405 21.0785 26.9156 21.3583C26.9906 21.6313 26.8951 21.9179 26.6495 22.1499C26.3902 22.3955 26.0626 22.6002 25.7283 22.7094C25.1619 22.9005 24.5751 23.0301 24.0223 23.1461C23.7972 23.1939 23.7835 23.2348 23.7699 23.3508C23.7426 23.5624 23.688 23.7671 23.6334 23.9581L23.6197 24.0127C23.5037 24.4222 23.1694 24.6337 22.6303 24.6337C22.4119 24.6337 22.1595 24.5996 21.8592 24.5382C21.2587 24.4085 20.7811 24.3403 20.4058 24.3403C19.5733 24.3403 19.273 24.6405 18.809 25.1045C18.5702 25.3434 18.2973 25.6163 17.9083 25.8892C17.1236 26.442 16.2365 26.7286 15.3289 26.7286ZM9.83587 23.9786C10.9686 23.9786 11.4804 24.3812 12.1286 24.893C12.3675 25.084 12.6404 25.2956 12.9748 25.5139C13.7049 25.9984 14.5238 26.2509 15.3289 26.2509C16.141 26.2509 16.9325 25.9916 17.6149 25.5139C17.9697 25.2615 18.229 25.0022 18.4542 24.777C18.9387 24.2925 19.3549 23.8763 20.3853 23.8763C20.8016 23.8763 21.3133 23.9445 21.9411 24.081C22.2072 24.1356 22.4256 24.1697 22.6098 24.1697C23.0602 24.1697 23.1148 23.9923 23.1421 23.8967L23.1557 23.8421C23.2103 23.6579 23.2581 23.4805 23.2786 23.3031C23.3331 22.8664 23.6266 22.7435 23.9132 22.6889C24.4522 22.5798 25.0254 22.4501 25.5645 22.2659C25.8306 22.1772 26.0967 22.0134 26.3083 21.8155C26.4243 21.7063 26.472 21.5903 26.4447 21.4948C26.4175 21.3924 26.2946 21.3037 26.124 21.2628C24.0087 20.7919 22.5279 19.475 21.4566 17.1208C21.1905 16.534 21.3679 16.0427 21.9616 15.7288C22.139 15.6332 22.3232 15.565 22.5075 15.5036C22.6644 15.449 22.8077 15.3944 22.9442 15.3262C22.992 15.2989 23.0397 15.2784 23.0943 15.2579C23.4082 15.1078 23.7289 14.9509 23.9814 14.7462C24.1042 14.6438 24.1656 14.5141 24.1588 14.3777C24.152 14.2207 24.0565 14.0638 23.8995 13.9546C23.5651 13.7158 23.2171 13.668 22.8282 13.8113C22.4802 13.941 22.1663 14.0228 21.8797 14.0774C21.8183 14.0911 21.7637 14.0911 21.7091 14.0911C21.5112 14.0911 21.3884 14.0092 21.327 13.941C21.2178 13.825 21.17 13.6612 21.1905 13.436C21.2519 12.4943 21.2929 11.6414 21.2997 10.8294C21.3202 8.57753 20.2761 6.89208 18.1881 5.82076C17.3692 5.39769 16.4822 5.19298 15.4791 5.19298C14.9673 5.19298 14.435 5.24757 13.8482 5.35675C11.1324 5.8617 9.42645 8.18176 9.35139 10.1265C9.33092 10.7065 9.36504 12.8014 9.4128 13.4701C9.42645 13.6817 9.38551 13.8386 9.28315 13.9478C9.22174 14.016 9.11256 14.0911 8.9215 14.0911C8.88738 14.0911 8.84644 14.0911 8.80549 14.0843C8.43701 14.0297 8.05489 13.9751 7.70005 13.8386C7.36569 13.709 7.0791 13.7294 6.77886 13.9205C6.57414 14.0433 6.45814 14.2071 6.45132 14.3777C6.44449 14.5346 6.52638 14.6916 6.69697 14.8212C6.92215 14.9986 7.21557 15.1351 7.49534 15.2648C7.54993 15.292 7.60452 15.3125 7.65911 15.3398C7.79559 15.4012 7.93206 15.4558 8.08218 15.5104C8.26642 15.5786 8.45749 15.6469 8.64173 15.7424C9.25586 16.0631 9.43327 16.5817 9.13985 17.1959C7.96618 19.591 6.49908 20.8602 4.39056 21.2969C4.26774 21.3242 4.17903 21.3788 4.15173 21.4607C4.12444 21.5289 4.14491 21.6108 4.20632 21.6927C4.3428 21.8769 4.54751 22.0475 4.75222 22.143C5.30494 22.3955 5.83036 22.5525 6.51273 22.6548C7.03133 22.7503 7.26334 22.9755 7.35205 23.46C7.48852 24.1901 7.64546 24.1901 7.84335 24.1901C7.973 24.1901 8.13677 24.1629 8.34831 24.1287C8.94197 24.0264 9.42645 23.9786 9.83587 23.9786Z" fill="#020401"/>
</svg>
