<svg width="31" height="31" viewBox="0 0 31 31" fill="none" xmlns="http://www.w3.org/2000/svg">
<path d="M15.2871 30.6824C23.5714 30.6824 30.2871 23.9666 30.2871 15.6824C30.2871 7.3981 23.5714 0.682373 15.2871 0.682373C7.00284 0.682373 0.287109 7.3981 0.287109 15.6824C0.287109 23.9666 7.00284 30.6824 15.2871 30.6824Z" fill="black"/>
<path d="M14.1888 13.7813C14.1888 14.8222 14.1888 15.848 14.1888 16.8838C13.9022 16.8537 13.6256 16.8084 13.344 16.8034C11.9059 16.7833 10.6588 17.8694 10.5281 19.2472C10.3873 20.7407 11.3376 22.0632 12.7557 22.3347C14.219 22.6163 15.637 21.7615 16.0192 20.3384C16.0996 20.0367 16.1248 19.7149 16.1248 19.4031C16.1298 15.2345 16.1298 11.0659 16.1298 6.89725C16.1298 6.77154 16.1298 6.64583 16.1298 6.5C17.1657 6.5 18.1714 6.5 19.1871 6.5C19.519 9.3763 21.113 10.9754 24.0245 11.2771C24.0245 12.2727 24.0245 13.2784 24.0245 14.3143C23.1596 14.3294 22.335 14.1735 21.5254 13.907C20.7158 13.6405 19.9766 13.2332 19.2324 12.6951C19.2324 12.861 19.2324 12.9666 19.2324 13.0722C19.2424 15.2194 19.2575 17.3716 19.2575 19.5188C19.2575 22.0481 17.7741 24.1852 15.4158 25.0903C11.9964 26.4078 8.0993 24.2305 7.45062 20.6452C6.87737 17.4772 9.00945 14.4098 12.1724 13.8315C12.8361 13.7058 13.4999 13.6857 14.1888 13.7813Z" fill="#FE2C55"/>
<path d="M23.2187 10.6689V13.7061C22.3538 13.7212 21.5292 13.5653 20.7196 13.2988C19.91 13.0323 19.1708 12.625 18.4266 12.0869C18.4266 12.2528 18.4266 12.3584 18.4266 12.464C18.4366 14.6112 18.4517 16.7634 18.4517 18.9106C18.4517 21.4399 16.9683 23.577 14.615 24.4821C12.7997 25.1811 10.8486 24.8945 9.31997 23.934C7.97233 23.0892 6.95658 21.7165 6.64984 20.037C6.07659 16.869 8.20867 13.8016 11.3716 13.2233C12.0404 13.1027 12.7041 13.0825 13.3931 13.1781V16.2807C13.1064 16.2505 12.8299 16.2052 12.5483 16.2002C11.1101 16.1801 9.86305 17.2663 9.73231 18.6441C9.61665 19.8811 10.2452 20.9974 11.271 21.5053C11.4822 21.6109 11.7135 21.6863 11.9599 21.7366C13.4232 22.0182 14.8413 21.1583 15.2234 19.7403C15.3039 19.4386 15.329 19.1167 15.329 18.805C15.3391 14.6363 15.334 10.4677 15.334 6.29911V5.90186H18.3914C18.4165 6.10802 18.4467 6.30916 18.4819 6.50527C18.7836 8.08422 19.5228 9.22569 20.7095 9.91962C21.3934 10.3169 22.2281 10.5683 23.2187 10.6689Z" fill="#25F4EE"/>
<path d="M23.215 11.1516V13.7111C22.3501 13.7261 21.5254 13.5703 20.7158 13.3038C19.9062 13.0372 19.167 12.6299 18.4228 12.0919C18.4228 12.2578 18.4228 12.3634 18.4228 12.469C18.4329 14.6162 18.4479 16.7684 18.4479 18.9156C18.4479 21.4449 16.9645 23.582 14.6112 24.4871C12.7959 25.1861 10.8449 24.8995 9.31619 23.939C8.37586 23.1043 7.69199 21.9729 7.45062 20.6454C6.87737 17.4774 9.00945 14.41 12.1724 13.8317C12.5747 13.7563 12.982 13.7211 13.3893 13.7261V16.2856C13.1026 16.2555 12.8261 16.2102 12.5445 16.2052C11.1063 16.1851 9.85927 17.2712 9.72853 18.649C9.61287 19.8861 10.2414 21.0024 11.2672 21.5103C11.6494 21.9276 12.1623 22.2293 12.7607 22.345C14.224 22.6266 15.642 21.7667 16.0242 20.3487C16.1047 20.047 16.1298 19.7251 16.1298 19.4134C16.1399 15.2448 16.1348 11.0761 16.1348 6.90751V6.51025H18.4781C18.7798 8.0892 19.519 9.23067 20.7057 9.9246C21.3393 10.523 22.1791 10.9353 23.215 11.1516Z" fill="white"/>
</svg>
