<svg width="31" height="31" viewBox="0 0 31 31" fill="none" xmlns="http://www.w3.org/2000/svg">
<path d="M15.1719 30.6824C23.4561 30.6824 30.1719 23.9666 30.1719 15.6824C30.1719 7.3981 23.4561 0.682373 15.1719 0.682373C6.8876 0.682373 0.171875 7.3981 0.171875 15.6824C0.171875 23.9666 6.8876 30.6824 15.1719 30.6824Z" fill="#395976"/>
<path d="M11.3053 14.0071C10.6618 14.0071 10.0572 14.0071 9.44141 14.0071C9.44141 12.9143 9.44141 11.8437 9.44141 10.7786C9.7576 10.7287 10.0793 10.7287 10.3678 10.6233C11.4606 10.2238 12.2539 9.4916 12.6478 8.38213C12.8086 7.93834 12.8974 7.46127 12.9917 6.9953C13.0361 6.7845 13.1082 6.70129 13.3301 6.70684C14.0124 6.71793 14.6947 6.72348 15.3826 6.70684C15.6378 6.70129 15.721 6.7734 15.7154 7.03413C15.7044 8.15469 15.7154 9.2808 15.7043 10.4014C15.6988 10.6621 15.782 10.7342 16.0372 10.7287C17.1966 10.7176 18.3615 10.7287 19.5209 10.7176C19.7816 10.712 19.8593 10.7952 19.8538 11.0504C19.8427 11.9269 19.8482 12.8089 19.8482 13.6854C19.8482 13.7797 19.8371 13.8795 19.8316 14.0071C18.4669 14.0071 17.1134 14.0071 15.7432 14.0071C15.7321 14.1236 15.7154 14.2068 15.7154 14.29C15.7154 15.9986 15.7154 17.7072 15.7321 19.4158C15.7376 19.7764 15.7654 20.1203 15.8597 20.4864C15.893 20.6528 16.015 20.8304 16.1481 20.9413C16.7251 21.4517 17.4074 21.5792 18.1452 21.3906C18.7387 21.2409 19.3212 21.0578 19.9536 20.8803C19.9647 21.0079 19.9813 21.1077 19.9813 21.2076C19.9813 22.2838 19.9758 23.3544 19.9869 24.4306C19.9869 24.6525 19.9203 24.7468 19.6984 24.8133C17.8678 25.3459 16.0427 25.4457 14.201 24.8744C12.6089 24.3807 11.7269 23.2878 11.4384 21.6791C11.3885 21.4128 11.3774 21.1355 11.3719 20.8636C11.3552 18.7057 11.3441 16.5478 11.333 14.3899C11.322 14.2845 11.3109 14.168 11.3053 14.0071Z" fill="white"/>
</svg>
