<svg width="29" height="31" viewBox="0 0 29 31" fill="none" xmlns="http://www.w3.org/2000/svg">
<path d="M28.0072 18.0496C28.9028 10.5218 27.5799 5.77451 25.1916 3.62038C21.3399 -0.0498416 8.32147 -0.594229 3.71467 3.78428C1.64248 5.92671 0.910782 9.0701 0.828831 12.9628C0.74688 16.8554 0.653222 24.149 7.44928 26.1276H7.45513L7.44928 29.148C7.44928 29.148 7.40245 30.3714 8.18683 30.6173C9.08244 30.9041 9.48634 30.3363 12.2668 27.0173C16.9146 27.4212 20.4911 26.4963 20.8951 26.3617C21.8316 26.0456 27.1467 25.3373 28.0072 18.0496ZM12.7234 24.8866C12.7234 24.8866 9.77902 28.5568 8.86586 29.511C8.56732 29.8212 8.23952 29.7919 8.24537 29.1773C8.24537 28.7734 8.26878 24.1607 8.26878 24.1607C2.50882 22.51 2.84833 16.2993 2.91272 13.0506C2.97711 9.80181 3.56833 7.13841 5.32441 5.3472C9.36927 1.55405 20.778 2.40283 23.6872 5.13647C27.2404 8.28572 25.976 17.1891 25.9818 17.4935C25.2501 23.5812 20.9477 23.9676 20.1516 24.231C19.8063 24.3422 16.6687 25.15 12.7234 24.8866Z" fill="#7D3DAF"/>
<path d="M14.3483 6.06714C13.8683 6.06714 13.8683 6.8164 14.3483 6.82226C18.077 6.85152 21.1502 9.45053 21.1853 14.2212C21.1853 14.7246 21.9229 14.7188 21.917 14.2154C21.876 9.0759 18.5219 6.09641 14.3483 6.06714Z" fill="#7D3DAF"/>
<path d="M19.2641 13.4312C19.2524 13.9287 19.99 13.9522 19.9958 13.4487C20.0544 10.6156 18.31 8.28 15.0261 8.03415C14.5461 7.99903 14.4934 8.75414 14.9734 8.78926C17.8183 9.00585 19.3168 10.9493 19.2641 13.4312Z" fill="#7D3DAF"/>
<path d="M18.4736 16.6506C17.859 16.2935 17.2268 16.5159 16.9692 16.8672L16.4248 17.5696C16.1497 17.9267 15.6346 17.8798 15.6346 17.8798C11.8707 16.8847 10.8639 12.9452 10.8639 12.9452C10.8639 12.9452 10.817 12.4125 11.1624 12.1257L11.8414 11.5638C12.1809 11.2945 12.3975 10.6448 12.0522 10.0067C11.1273 8.33843 10.5068 7.75892 10.1907 7.3199C9.85705 6.90429 9.35949 6.81063 8.83852 7.09161H8.82681C7.74389 7.7238 6.56146 8.90623 6.94195 10.1238C7.58584 11.4057 8.77413 15.4974 12.5556 18.594C14.3351 20.0574 17.1448 21.5559 18.3389 21.9013L18.3507 21.9188C19.5272 22.311 20.6687 21.0818 21.2833 19.9696V19.9579C21.5526 19.4193 21.4648 18.9101 21.0667 18.5764C20.3643 17.8915 19.3048 17.1364 18.4736 16.6506Z" fill="#7D3DAF"/>
<path d="M15.5319 10.8204C16.7319 10.8906 17.3114 11.517 17.3758 12.8048C17.3992 13.3082 18.1309 13.2731 18.1075 12.7697C18.0256 11.0897 17.1534 10.1531 15.5729 10.0653C15.0929 10.036 15.0461 10.7911 15.5319 10.8204Z" fill="#7D3DAF"/>
</svg>
