<svg width="31" height="31" viewBox="0 0 31 31" fill="none" xmlns="http://www.w3.org/2000/svg">
<path d="M30.2637 15.696C30.1886 23.9566 23.688 30.6619 15.2637 30.6687C6.86671 30.6687 0.243255 23.977 0.263719 15.6346C0.284183 7.27856 6.93492 0.668752 15.2705 0.682394C23.7425 0.696037 30.2159 7.45592 30.2637 15.696ZM15.2501 21.1257C18.2446 21.1326 20.7002 18.6905 20.7139 15.696C20.7275 12.681 18.2787 10.2185 15.2705 10.2185C12.2692 10.2117 9.82032 12.6469 9.80668 15.6483C9.78621 18.6564 12.2351 21.1257 15.2501 21.1257ZM21.4097 22.9811C22.617 21.9375 23.5174 20.7369 24.0836 19.2635C23.2037 18.977 22.3578 18.7042 21.6007 18.4586C21.0004 19.2772 20.441 20.0412 19.8544 20.8461C20.3319 21.4941 20.8571 22.224 21.4097 22.9811ZM6.46426 12.1012C7.31691 12.3741 8.16957 12.6537 8.91309 12.8925C9.52019 12.0603 10.0795 11.3099 10.6593 10.5118C10.175 9.85018 9.64979 9.12031 9.11773 8.39043C8.02633 9.19534 6.73029 11.0098 6.46426 12.1012ZM10.6593 20.8393C10.0659 20.0275 9.50654 19.2635 8.91309 18.4518C8.38103 18.6223 7.77394 18.8202 7.16003 19.018C6.9281 19.093 6.68936 19.1749 6.46426 19.2499C6.75075 20.3549 8.04679 22.1694 9.11773 22.9607C9.64979 22.2308 10.175 21.5009 10.6593 20.8393ZM19.8544 10.505C20.441 11.3168 21.0004 12.0807 21.6007 12.8925C22.3646 12.6469 23.2105 12.3672 24.0904 12.0807C23.5038 10.6005 22.617 9.39316 21.4097 8.36315C20.8571 9.12713 20.3319 9.85018 19.8544 10.505ZM8.50382 17.1489C8.50382 16.1326 8.50382 15.1844 8.50382 14.1953C7.72619 13.9429 6.88717 13.6701 6.00723 13.3836C5.6116 14.932 5.59795 16.4259 6.01405 17.9607C6.90082 17.6742 7.72619 17.4013 8.50382 17.1489ZM24.5065 17.9607C24.9022 16.4191 24.909 14.9252 24.5065 13.3836C23.6266 13.6701 22.7876 13.9429 22.0099 14.1953C22.0099 15.1981 22.0099 16.153 22.0099 17.1489C22.7944 17.4081 23.6334 17.6742 24.5065 17.9607ZM14.5543 6.21445C12.9581 6.26902 11.5393 6.7124 10.2296 7.60598C10.7753 8.35632 11.2869 9.05891 11.7507 9.70011C12.7057 9.38634 13.6129 9.09302 14.5475 8.78606C14.5543 7.98115 14.5543 7.10803 14.5543 6.21445ZM10.2296 23.7519C11.5666 24.6319 12.9786 25.0957 14.5475 25.1298C14.5475 24.2294 14.5475 23.3495 14.5475 22.565C13.5993 22.2513 12.6989 21.9579 11.7576 21.6442C11.2937 22.2922 10.7821 22.9948 10.2296 23.7519ZM15.9595 6.21445C15.9595 7.10803 15.9595 7.98798 15.9595 8.77924C16.9008 9.0862 17.8012 9.38634 18.7494 9.69329C19.22 9.04527 19.7385 8.33586 20.2773 7.59234C18.954 6.7124 17.5352 6.25537 15.9595 6.21445ZM15.9595 22.565C15.9595 23.3699 15.9595 24.2431 15.9595 25.1298C17.5352 25.0889 18.954 24.6387 20.2842 23.7451C19.7453 23.0016 19.2269 22.2922 18.7562 21.6442C17.8012 21.9579 16.9008 22.2513 15.9595 22.565ZM1.72347 13.9771C1.58705 15.1298 1.56658 16.2349 1.73711 17.3672C2.65799 17.2035 3.53111 17.0466 4.37695 16.8966C4.37695 16.0507 4.37695 15.2526 4.37695 14.4409C3.51064 14.2908 2.63752 14.1408 1.72347 13.9771ZM28.7971 17.3672C28.9267 16.2144 28.954 15.1094 28.7835 13.9771C27.8626 14.1408 26.9895 14.2977 26.1436 14.4477C26.1436 15.2867 26.1436 16.0916 26.1436 16.9034C27.0031 17.0534 27.8694 17.2103 28.7971 17.3672ZM26.7098 8.27447C26.1027 7.28539 25.3455 6.47365 24.5133 5.70285C23.9131 6.41908 23.3401 7.10803 22.7876 7.76287C23.3333 8.39043 23.8585 8.98388 24.3974 9.60462C25.1409 9.17488 25.9185 8.73149 26.7098 8.27447ZM6.00041 5.70285C5.16821 6.4873 4.40423 7.29221 3.81078 8.27447C4.61569 8.73832 5.38649 9.1817 6.11637 9.60462C6.67571 8.97024 7.19413 8.36997 7.73301 7.76287C7.16685 7.09439 6.59386 6.41226 6.00041 5.70285ZM24.5133 25.6482C25.3387 24.857 26.1095 24.0589 26.703 23.0698C25.9049 22.606 25.1409 22.1694 24.3906 21.7397C23.8449 22.3604 23.3196 22.9675 22.7739 23.5814C23.3469 24.2499 23.9199 24.9388 24.5133 25.6482ZM6.11637 21.7397C5.35921 22.1762 4.59523 22.6196 3.72893 23.1244C4.49291 24.0043 5.21596 24.8433 5.95948 25.7028C6.59386 24.9457 7.17367 24.2567 7.73301 23.5882C7.19413 22.9675 6.66889 22.374 6.11637 21.7397ZM11.2528 2.66738C11.5666 3.52004 11.8667 4.35224 12.16 5.14351C12.999 5.02072 13.7767 4.90476 14.5475 4.79562C14.5475 3.90203 14.5475 3.00845 14.5475 2.11486C13.4151 2.18307 12.3169 2.25129 11.2528 2.66738ZM19.261 2.66738C18.1696 2.25811 17.0713 2.17625 15.9526 2.12168C15.9526 3.04255 15.9526 3.93614 15.9526 4.80244C16.7576 4.9184 17.5352 5.03437 18.3537 5.15033C18.647 4.34542 18.954 3.52004 19.261 2.66738ZM8.76985 6.88293C9.47926 6.46001 10.1682 6.05756 10.8776 5.64146C10.5843 4.83655 10.2773 3.99753 9.97039 3.15169C8.85852 3.52004 7.95129 4.1476 7.06453 4.84337C7.63069 5.5255 8.18322 6.18716 8.76985 6.88293ZM20.5365 3.15169C20.2228 4.018 19.9226 4.84337 19.6293 5.64146C20.3455 6.06438 21.0413 6.47365 21.7371 6.88293C22.3237 6.18716 22.8762 5.5255 23.4424 4.85019C22.5556 4.1476 21.6484 3.51322 20.5365 3.15169ZM10.8776 25.7096C10.1546 25.2867 9.46561 24.8774 8.76985 24.4682C8.19004 25.1571 7.63069 25.8256 7.06453 26.5009C7.96493 27.2035 8.87216 27.8311 9.97721 28.1926C10.2773 27.3536 10.5843 26.5214 10.8776 25.7096ZM12.1532 26.2008C11.8599 27.0057 11.5597 27.8311 11.2528 28.6769C12.3237 29.093 13.4288 29.168 14.5611 29.2294C14.5611 28.3085 14.5611 27.4218 14.5611 26.5487C13.7494 26.4327 12.9717 26.3167 12.1532 26.2008ZM19.261 28.6837C18.9472 27.8242 18.647 26.9989 18.3537 26.2008C17.5284 26.3236 16.7371 26.4395 15.9663 26.5487C15.9663 27.4491 15.9663 28.3358 15.9663 29.2294C17.0918 29.1612 18.1832 29.093 19.261 28.6837ZM19.6361 25.7096C19.9294 26.5145 20.2296 27.3399 20.5434 28.1994C21.6416 27.8311 22.5625 27.2035 23.4492 26.5009C22.8694 25.812 22.3101 25.1435 21.7371 24.4682C21.0345 24.8843 20.3524 25.2867 19.6361 25.7096ZM3.14912 9.46819C2.6307 10.505 2.23507 11.5282 2.00996 12.6401C2.92402 12.797 3.79032 12.9539 4.62933 13.0971C4.91583 12.3058 5.18186 11.5623 5.45471 10.7983C4.71119 10.3686 3.94038 9.93204 3.14912 9.46819ZM5.45471 20.5459C5.16821 19.7547 4.90218 19.0111 4.62933 18.2472C3.77667 18.3972 2.91037 18.5473 2.00996 18.711C2.24871 19.8297 2.6307 20.8597 3.15594 21.8761C3.94038 21.4191 4.71801 20.9689 5.45471 20.5459ZM25.0659 10.7983C25.3455 11.5828 25.6116 12.3331 25.8844 13.1039C26.7439 12.9539 27.6102 12.797 28.5856 12.6264C28.19 11.5487 27.8148 10.5118 27.426 9.43408C26.5665 9.93204 25.7889 10.3822 25.0659 10.7983ZM28.5038 18.7042C27.5966 18.5473 26.7166 18.3904 25.8844 18.2472C25.6047 19.0384 25.3387 19.7751 25.0659 20.5459C25.8026 20.9689 26.5734 21.4122 27.3646 21.8693C27.883 20.8529 28.265 19.8229 28.5038 18.7042Z" fill="black"/>
</svg>
