<svg width="31" height="31" viewBox="0 0 31 31" fill="none" xmlns="http://www.w3.org/2000/svg">
<path d="M25.9103 4.9788C23.071 2.22523 19.3425 0.682373 15.3675 0.682373C3.85497 0.682373 -3.28075 13.0895 2.39782 22.9788L0.287109 30.6824L8.23175 28.6574C11.7193 30.5217 14.4728 30.3609 15.3675 30.4413C28.6639 30.4413 35.2318 14.3859 25.9103 4.9788Z" fill="#ECEFF1"/>
<path d="M15.3661 27.843C11.3911 27.843 8.79827 25.9787 8.5572 25.818L3.85363 27.0341L5.15006 22.5769L4.82327 22.0894C3.61256 20.1394 2.95898 17.8733 2.95898 15.5216C2.95898 4.49656 16.3358 -0.935583 24.1197 6.76263C31.9036 14.4608 26.4768 27.843 15.3661 27.843Z" fill="#4CAF50"/>
<path d="M22.1769 18.6019V18.6822C21.7698 18.5215 19.9859 17.6269 19.6644 17.4662C18.9359 17.2251 19.0966 17.3858 17.6394 19.0894C17.3983 19.3305 17.2323 19.3305 16.8305 19.1697C16.4233 19.009 15.2876 18.6019 13.8305 17.3055C12.6948 16.3305 11.9662 15.1144 11.7198 14.7126C11.3126 14.0644 12.1269 13.984 12.8555 12.6876C13.0162 12.4465 12.9359 12.2001 12.8555 12.0394C12.7751 11.8787 12.0466 10.0144 11.7198 9.28045C11.393 8.55188 11.0716 8.63224 10.9109 8.63224C10.1823 8.55188 9.69478 8.55188 9.20728 9.03938C7.18228 11.2305 7.66442 13.5822 9.44835 16.0144C12.8555 20.4715 14.6394 21.2858 17.9608 22.4215C18.8501 22.6626 19.6644 22.6626 20.3126 22.5822C21.0412 22.5019 22.5037 21.693 22.8251 20.7983C23.1466 19.9037 23.1519 19.1751 23.0662 19.0144C22.7448 18.843 22.5037 18.7626 22.1769 18.6019Z" fill="#FAFAFA"/>
</svg>
