<svg width="31" height="31" viewBox="0 0 31 31" fill="none" xmlns="http://www.w3.org/2000/svg">
<path d="M15.2871 30.6824C23.5714 30.6824 30.2871 23.9666 30.2871 15.6824C30.2871 7.3981 23.5714 0.682373 15.2871 0.682373C7.00284 0.682373 0.287109 7.3981 0.287109 15.6824C0.287109 23.9666 7.00284 30.6824 15.2871 30.6824Z" fill="black"/>
<path d="M4.57617 10.8597C4.57617 10.778 4.57617 10.6554 4.57617 10.4919C6.37454 10.4919 8.1729 10.4919 9.9304 10.4919C10.0121 10.9006 10.0121 10.8597 9.64429 10.9824C9.31732 11.0641 8.99034 11.2276 8.70424 11.3911C8.45901 11.5546 8.41813 11.7998 8.54075 12.0859C9.9304 15.233 11.2792 18.4211 12.6688 21.5682C12.6688 21.6091 12.7097 21.6499 12.7506 21.6908C12.9549 21.323 13.1184 20.9551 13.3228 20.6281C13.9358 19.4837 14.5489 18.3393 15.162 17.154C15.2029 17.0314 15.2437 16.8679 15.2029 16.7453C14.5081 15.1513 13.7315 13.5573 13.0775 11.9633C12.7914 11.2685 12.2601 10.9824 11.5653 10.9415C11.4018 10.9415 11.1974 10.9006 11.0339 10.9006C11.0339 10.7371 11.0339 10.6145 11.0339 10.451C12.6279 10.451 14.1811 10.451 15.7751 10.451C15.7751 10.5736 15.7751 10.7371 15.7751 10.8189C15.5299 10.8597 15.3255 10.9006 15.0803 10.9824C14.7533 11.105 14.6715 11.3502 14.7942 11.6363C15.3255 12.8216 15.8568 13.966 16.3882 15.1922C16.4699 15.0696 16.5108 14.9878 16.5516 14.9061C17.0012 13.9251 17.4917 12.9851 17.9413 12.0042C18.2683 11.3502 18.1048 11.0641 17.3691 10.9006C17.1647 10.8597 16.9604 10.8597 16.756 10.8189C16.756 10.6963 16.756 10.5328 16.756 10.4102C18.1048 10.4102 19.4536 10.4102 20.8432 10.4102C20.8432 10.5328 20.8432 10.6554 20.8432 10.778C20.598 10.8597 20.3527 10.9006 20.1075 10.9824C19.5353 11.1867 19.0857 11.5546 18.7996 12.1676C18.2274 13.3938 17.6552 14.5791 17.0421 15.7644C16.9604 15.9279 16.9604 16.0505 17.0421 16.214C17.7778 17.8488 18.5135 19.5246 19.2492 21.2003C19.2901 21.0777 19.3718 21.0369 19.3718 20.9551C20.6797 17.9715 21.9467 14.9878 23.2546 12.0042C23.3364 11.7998 23.2955 11.6363 23.1729 11.4728C22.8868 11.105 22.5189 10.9415 22.0694 10.8597C21.9876 10.8597 21.865 10.8189 21.7833 10.8189C21.7833 10.6554 21.7833 10.5328 21.7833 10.4102C23.2138 10.4102 24.6034 10.4102 26.0339 10.4102C26.0339 10.5736 26.0339 10.6963 26.0339 10.8189C25.9931 10.8189 25.9931 10.8597 25.9522 10.8597C25.0121 10.9415 24.4808 11.5137 24.113 12.3311C22.3963 16.2957 20.7206 20.1377 19.0448 23.9796C18.9631 24.1431 18.9222 24.2657 18.677 24.2657C18.4318 24.2657 18.3909 24.1431 18.35 23.9796C17.5326 22.0178 16.7151 20.0968 15.8568 18.135C15.816 18.0532 15.7751 17.9306 15.6933 17.808C15.6116 17.9306 15.5707 18.0123 15.5299 18.0941C14.5081 20.0559 13.4863 22.0587 12.5053 24.0205C12.4236 24.2249 12.301 24.2657 12.0966 24.2657C11.8922 24.2657 11.8514 24.1431 11.7696 23.9796C10.2165 20.4238 8.66337 16.8679 7.11023 13.3121C6.74238 12.4946 6.21105 11.8407 5.51623 11.3093C5.31187 11.1459 4.94402 11.0232 4.57617 10.8597Z" fill="white"/>
</svg>
