<svg width="31" height="31" viewBox="0 0 31 31" fill="none" xmlns="http://www.w3.org/2000/svg">
<path d="M27.9184 30.8884H2.71836C1.39236 30.8884 0.318359 29.8144 0.318359 28.4884V3.28843C0.318359 1.96243 1.39236 0.888428 2.71836 0.888428H27.9184C29.2444 0.888428 30.3184 1.96243 30.3184 3.28843V28.4884C30.3184 29.8144 29.2444 30.8884 27.9184 30.8884Z" fill="#090416"/>
<path d="M3.79883 20.6647C3.79883 20.0347 3.79883 19.4047 3.79883 18.7747C3.81083 18.6787 3.82883 18.5827 3.84083 18.4927C3.92483 17.7846 3.97283 17.0707 4.09283 16.3747C4.57283 13.5907 5.67083 11.0587 7.23083 8.71865C7.28483 8.63465 7.37483 8.56265 7.45883 8.52065C8.88083 7.86665 10.3688 7.42265 11.9048 7.13465C12.0308 7.11065 12.0968 7.14065 12.1568 7.25465C12.3008 7.54865 12.4628 7.83665 12.5888 8.14265C12.6608 8.31665 12.7508 8.34665 12.9248 8.32865C13.5908 8.26265 14.2508 8.16665 14.9168 8.17265C15.8588 8.18465 16.8008 8.26865 17.7428 8.33465C17.8988 8.34665 17.9828 8.31665 18.0428 8.16065C18.1688 7.86065 18.3308 7.56665 18.4688 7.27265C18.5228 7.15265 18.5888 7.11065 18.7328 7.13465C20.2628 7.41665 21.7448 7.86665 23.1608 8.51465C23.2568 8.55665 23.3528 8.63465 23.4068 8.72465C23.8148 9.39065 24.2348 10.0447 24.6008 10.7287C25.7288 12.8467 26.4428 15.0967 26.7068 17.4847C26.7548 17.9167 26.7908 18.3487 26.8328 18.7747C26.8328 19.3927 26.8328 20.0047 26.8328 20.6227C26.8028 20.9346 26.7848 21.2467 26.7368 21.5587C26.7188 21.6607 26.6588 21.7866 26.5808 21.8466C24.9968 23.0046 23.2748 23.8986 21.4148 24.5226C20.8928 24.6966 20.8808 24.7027 20.5808 24.2346C20.2568 23.7306 19.9568 23.2146 19.6328 22.6806C19.9988 22.5187 20.3228 22.3866 20.6348 22.2366C20.9528 22.0806 21.2588 21.9127 21.5828 21.7387C21.2468 21.3366 21.1868 21.3246 20.7848 21.4987C17.1308 23.0527 13.4768 23.0286 9.82283 21.4927C9.44483 21.3366 9.32483 21.3666 9.03083 21.7626C9.67283 22.0746 10.3028 22.3806 10.9868 22.7106C10.5968 23.3286 10.2128 23.9286 9.84083 24.5286C9.75683 24.6666 9.67283 24.6786 9.52883 24.6306C7.54883 23.9946 5.71883 23.0766 4.04483 21.8466C3.96683 21.7866 3.90683 21.6607 3.88883 21.5587C3.84683 21.2586 3.82883 20.9587 3.79883 20.6647ZM21.2228 16.7107C21.2168 16.6207 21.2168 16.4887 21.1928 16.3567C21.1628 16.2007 21.1268 16.0507 21.0788 15.9007C20.5748 14.4487 18.8888 13.9867 17.8208 14.9947C16.8488 15.9187 16.8428 17.5987 17.8088 18.5287C18.6008 19.2907 19.7768 19.2787 20.5448 18.4927C21.0128 18.0127 21.2168 17.4187 21.2228 16.7107ZM13.6028 16.7527C13.5428 16.4707 13.5128 16.1767 13.4228 15.9007C12.9368 14.4727 11.2988 13.9927 10.2188 14.9407C9.18083 15.8527 9.16283 17.6167 10.1828 18.5527C10.9868 19.2907 12.1208 19.2666 12.8888 18.4866C13.3568 18.0126 13.5548 17.4247 13.6028 16.7527Z" fill="white"/>
</svg>
