<svg width="31" height="31" viewBox="0 0 31 31" fill="none" xmlns="http://www.w3.org/2000/svg">
<path d="M2.3569 2.97124C0.00663206 5.41247 0.487651 8.00574 0.487651 15.884C0.487651 22.4264 -0.653835 28.9849 5.32028 30.5289C7.18578 31.0087 23.7149 31.0087 25.5779 30.5264C28.0653 29.8846 30.089 27.8671 30.3657 24.3492C30.4043 23.8582 30.4043 7.91851 30.3644 7.41755C30.0703 3.67034 27.7637 1.51073 24.7243 1.07333C24.0277 0.97239 23.8881 0.942482 20.3141 0.936251C7.63689 0.942482 4.85795 0.37797 2.3569 2.97124Z" fill="#090416"/>
<path d="M15.4359 4.84782C10.9111 4.84782 6.61432 4.4453 4.97313 8.65734C4.29521 10.397 4.39366 12.6563 4.39366 15.8913C4.39366 18.7301 4.30269 21.3981 4.97313 23.1241C6.61058 27.3386 10.9423 26.9348 15.4334 26.9348C19.7663 26.9348 24.2338 27.3859 25.895 23.1241C26.5741 21.367 26.4744 19.1413 26.4744 15.8913C26.4744 11.5771 26.7125 8.79192 24.6201 6.70086C22.5017 4.58238 19.6367 4.84782 15.4309 4.84782H15.4359ZM14.4465 6.83794C23.8849 6.82299 25.0862 5.77372 24.4233 20.3501C24.1877 25.5055 20.2623 24.9397 15.4372 24.9397C6.63925 24.9397 6.38628 24.688 6.38628 15.8863C6.38628 6.98249 7.08413 6.84292 14.4465 6.83545V6.83794ZM21.3303 8.67105C20.5988 8.67105 20.0056 9.26422 20.0056 9.99572C20.0056 10.7272 20.5988 11.3204 21.3303 11.3204C22.0618 11.3204 22.6549 10.7272 22.6549 9.99572C22.6549 9.26422 22.0618 8.67105 21.3303 8.67105ZM15.4359 10.22C12.3043 10.22 9.76587 12.7597 9.76587 15.8913C9.76587 19.0229 12.3043 21.5614 15.4359 21.5614C18.5675 21.5614 21.1047 19.0229 21.1047 15.8913C21.1047 12.7597 18.5675 10.22 15.4359 10.22ZM15.4359 12.2102C20.3022 12.2102 20.3084 19.5725 15.4359 19.5725C10.5709 19.5725 10.5634 12.2102 15.4359 12.2102Z" fill="white"/>
</svg>
