<svg width="31" height="31" viewBox="0 0 31 31" fill="none" xmlns="http://www.w3.org/2000/svg">
<path d="M23.7648 30.8884C18.2323 30.8884 12.6973 30.8884 7.16484 30.8884C7.09234 30.8784 7.01984 30.8634 6.94734 30.8559C6.58484 30.8134 6.21734 30.7959 5.86234 30.7234C2.80984 30.1009 0.592344 27.4359 0.497344 24.3959C0.494844 24.3359 0.477344 24.2759 0.464844 24.2134C0.464844 18.6634 0.464844 13.1134 0.464844 7.56343C0.474844 7.50593 0.489844 7.45093 0.497344 7.39343C0.524844 7.12093 0.534844 6.84593 0.577344 6.57593C0.777344 5.28843 1.31234 4.15093 2.18234 3.18593C3.46484 1.76093 5.06984 0.993428 6.99484 0.918428C7.05234 0.915928 7.10734 0.898428 7.16484 0.888428C12.6973 0.888428 18.2323 0.888428 23.7648 0.888428C23.8298 0.898428 23.8948 0.918428 23.9598 0.918428C24.6898 0.935928 25.3948 1.08343 26.0748 1.33843C28.5998 2.28343 30.3498 4.69593 30.4323 7.38093C30.4348 7.45093 30.4523 7.51843 30.4648 7.58843C30.4648 13.1209 30.4648 18.6559 30.4648 24.1884C30.4548 24.2659 30.4348 24.3434 30.4323 24.4209C30.4148 25.0659 30.2898 25.6909 30.0848 26.3009C29.2023 28.9084 26.7448 30.7884 23.9348 30.8609C23.8773 30.8584 23.8198 30.8784 23.7648 30.8884ZM25.4798 14.3784C25.4923 13.7509 25.3698 13.0384 25.1348 12.3434C24.6348 10.8634 23.7223 9.67593 22.5173 8.70093C21.4848 7.86593 20.3198 7.27843 19.0573 6.87843C18.1298 6.58593 17.1773 6.41843 16.2073 6.35843C15.8223 6.33343 15.4323 6.33343 15.0473 6.35593C14.4973 6.38843 13.9423 6.42593 13.3998 6.51343C12.1548 6.71593 10.9723 7.11593 9.86484 7.72843C8.52234 8.46843 7.38734 9.44093 6.55984 10.7434C5.57984 12.2834 5.22484 13.9559 5.56484 15.7559C5.82984 17.1559 6.49984 18.3534 7.46734 19.3909C8.30484 20.2884 9.29234 20.9784 10.3998 21.5034C11.4348 21.9934 12.5198 22.3059 13.6498 22.4809C13.9098 22.5209 14.1623 22.6159 14.4098 22.7109C14.6098 22.7884 14.7298 22.9559 14.7348 23.1759C14.7398 23.4109 14.7448 23.6484 14.7173 23.8834C14.6748 24.2509 14.6023 24.6134 14.5523 24.9784C14.5123 25.2684 14.6848 25.4659 14.9473 25.4384C15.0448 25.4284 15.1448 25.4084 15.2398 25.3784C15.6923 25.2384 16.0948 24.9884 16.4998 24.7509C18.1748 23.7634 19.7673 22.6584 21.2748 21.4309C22.2823 20.6109 23.2223 19.7209 24.0048 18.6784C24.9323 17.4384 25.4898 16.0634 25.4798 14.3784Z" fill="#090416"/>
<path d="M25.4794 14.3784C25.4894 16.0634 24.9319 17.4409 23.9994 18.6809C23.2144 19.7234 22.2769 20.6134 21.2694 21.4334C19.7619 22.6584 18.1669 23.7659 16.4944 24.7534C16.0894 24.9909 15.6869 25.2409 15.2344 25.3809C15.1394 25.4109 15.0419 25.4309 14.9419 25.4409C14.6794 25.4684 14.5069 25.2709 14.5469 24.9809C14.5969 24.6159 14.6719 24.2509 14.7119 23.8859C14.7394 23.6534 14.7344 23.4159 14.7294 23.1784C14.7244 22.9584 14.6044 22.7909 14.4044 22.7134C14.1594 22.6184 13.9044 22.5234 13.6444 22.4834C12.5144 22.3084 11.4294 21.9959 10.3944 21.5059C9.28689 20.9809 8.29939 20.2934 7.46189 19.3934C6.49439 18.3559 5.82689 17.1584 5.55939 15.7584C5.21939 13.9584 5.57439 12.2859 6.55439 10.7459C7.38189 9.44337 8.51689 8.47087 9.85939 7.73087C10.9669 7.11837 12.1494 6.71837 13.3944 6.51587C13.9394 6.42837 14.4919 6.39087 15.0419 6.35837C15.4269 6.33587 15.8169 6.33587 16.2019 6.36087C17.1719 6.42087 18.1244 6.58837 19.0519 6.88087C20.3144 7.28087 21.4794 7.86837 22.5119 8.70337C23.7169 9.67837 24.6294 10.8659 25.1294 12.3459C25.3694 13.0359 25.4919 13.7509 25.4794 14.3784ZM17.3769 15.0809C17.3644 15.0834 17.3519 15.0834 17.3419 15.0859C17.3119 15.0484 17.2794 15.0109 17.2494 14.9709C16.6319 14.1384 16.0144 13.3059 15.3994 12.4709C15.3469 12.4009 15.2919 12.3659 15.2019 12.3684C15.0069 12.3734 14.8094 12.3709 14.6144 12.3709C14.3644 12.3709 14.3444 12.3909 14.3444 12.6434C14.3444 13.8684 14.3444 15.0934 14.3444 16.3184C14.3444 16.5009 14.3419 16.6859 14.3469 16.8684C14.3494 17.0084 14.3969 17.0534 14.5369 17.0559C14.7369 17.0584 14.9369 17.0584 15.1369 17.0559C15.3394 17.0559 15.3769 17.0159 15.3769 16.8159C15.3769 16.0209 15.3769 15.2234 15.3769 14.4284C15.3769 14.3809 15.3819 14.3334 15.3844 14.2859C15.3944 14.2834 15.4044 14.2784 15.4144 14.2759C15.4494 14.3184 15.4869 14.3584 15.5219 14.4034C16.1394 15.2359 16.7569 16.0684 17.3719 16.9034C17.4344 16.9884 17.5019 17.0309 17.6119 17.0284C17.8044 17.0209 17.9944 17.0259 18.1869 17.0259C18.3694 17.0259 18.4269 16.9684 18.4269 16.7884C18.4269 15.3809 18.4269 13.9709 18.4269 12.5634C18.4269 12.3884 18.3644 12.3284 18.1844 12.3259C18.0169 12.3234 17.8519 12.3259 17.6844 12.3259C17.4344 12.3259 17.3919 12.3684 17.3919 12.6134C17.3919 13.3809 17.3919 14.1459 17.3919 14.9134C17.3894 14.9684 17.3819 15.0259 17.3769 15.0809ZM19.1519 14.6859C19.1519 15.3784 19.1519 16.0684 19.1519 16.7609C19.1519 16.9859 19.1969 17.0334 19.4194 17.0334C20.1994 17.0334 20.9769 17.0334 21.7569 17.0334C21.8819 17.0334 22.0069 17.0359 22.1319 17.0309C22.2419 17.0284 22.3019 16.9659 22.3019 16.8559C22.3044 16.6309 22.3044 16.4059 22.3019 16.1809C22.2994 16.0584 22.2369 16.0034 22.1144 15.9959C22.0769 15.9934 22.0394 15.9959 22.0019 15.9959C21.4569 15.9959 20.9094 15.9934 20.3644 15.9984C20.2394 15.9984 20.1944 15.9584 20.2019 15.8334C20.2119 15.6834 20.2044 15.5334 20.2044 15.3834C20.2044 15.2059 20.2044 15.2059 20.3869 15.2059C20.9494 15.2059 21.5119 15.2059 22.0744 15.2059C22.2519 15.2059 22.3019 15.1534 22.3044 14.9734C22.3044 14.8359 22.3044 14.6984 22.3044 14.5609C22.3044 14.1684 22.3044 14.1684 21.9119 14.1684C21.3944 14.1684 20.8794 14.1659 20.3619 14.1709C20.2469 14.1709 20.1944 14.1409 20.2019 14.0159C20.2119 13.8584 20.2119 13.6984 20.2019 13.5409C20.1944 13.4134 20.2394 13.3759 20.3644 13.3759C20.9394 13.3809 21.5144 13.3784 22.0894 13.3784C22.2444 13.3784 22.3019 13.3209 22.3019 13.1684C22.3044 12.9759 22.3019 12.7859 22.3019 12.5934C22.3019 12.3959 22.2544 12.3484 22.0619 12.3459C21.1744 12.3459 20.2869 12.3459 19.3994 12.3459C19.1994 12.3459 19.1494 12.3959 19.1494 12.5984C19.1519 13.2959 19.1519 13.9909 19.1519 14.6859ZM8.77189 14.6784C8.77189 15.3909 8.77189 16.1034 8.77189 16.8159C8.77189 16.9784 8.81689 17.0284 8.96439 17.0284C9.88189 17.0309 10.7969 17.0309 11.7144 17.0284C11.8519 17.0284 11.9019 16.9784 11.9044 16.8384C11.9069 16.6334 11.9044 16.4309 11.9044 16.2259C11.9044 16.0459 11.8544 15.9984 11.6719 15.9984C11.1294 15.9984 10.5894 15.9984 10.0469 15.9984C9.79439 15.9984 9.80439 16.0284 9.80439 15.7534C9.80439 14.6909 9.80439 13.6284 9.80439 12.5659C9.80439 12.3884 9.76189 12.3459 9.58189 12.3459C9.39439 12.3459 9.20689 12.3459 9.01939 12.3459C8.80439 12.3459 8.77189 12.3784 8.76939 12.5909C8.77189 13.2884 8.77189 13.9834 8.77189 14.6784ZM12.5519 14.6884C12.5519 15.3884 12.5519 16.0884 12.5519 16.7884C12.5519 16.9809 12.6044 17.0309 12.7969 17.0334C12.9894 17.0359 13.1794 17.0359 13.3719 17.0334C13.5494 17.0309 13.6044 16.9784 13.6044 16.8009C13.6044 15.3884 13.6044 13.9784 13.6044 12.5659C13.6044 12.3909 13.5419 12.3284 13.3619 12.3259C13.1819 12.3234 13.0044 12.3259 12.8244 12.3259C12.6119 12.3259 12.5519 12.3859 12.5519 12.6034C12.5519 13.2984 12.5519 13.9934 12.5519 14.6884Z" fill="white"/>
<path d="M17.3807 15.0809C17.3857 15.0259 17.3932 14.9684 17.3932 14.9134C17.3932 14.1459 17.3932 13.3809 17.3932 12.6134C17.3932 12.3684 17.4357 12.3259 17.6857 12.3259C17.8532 12.3259 18.0182 12.3259 18.1857 12.3259C18.3657 12.3284 18.4282 12.3884 18.4282 12.5634C18.4282 13.9709 18.4282 15.3809 18.4282 16.7884C18.4282 16.9684 18.3707 17.0259 18.1882 17.0259C17.9957 17.0259 17.8057 17.0209 17.6132 17.0284C17.5057 17.0334 17.4357 16.9884 17.3732 16.9034C16.7582 16.0684 16.1407 15.2359 15.5232 14.4034C15.4907 14.3584 15.4532 14.3184 15.4157 14.2759C15.4057 14.2784 15.3957 14.2834 15.3857 14.2859C15.3832 14.3334 15.3782 14.3809 15.3782 14.4284C15.3782 15.2234 15.3782 16.0209 15.3782 16.8159C15.3782 17.0159 15.3382 17.0559 15.1382 17.0559C14.9382 17.0559 14.7382 17.0584 14.5382 17.0559C14.3957 17.0534 14.3507 17.0084 14.3482 16.8684C14.3457 16.6859 14.3457 16.5009 14.3457 16.3184C14.3457 15.0934 14.3457 13.8684 14.3457 12.6434C14.3457 12.3909 14.3657 12.3709 14.6157 12.3709C14.8107 12.3709 15.0082 12.3734 15.2032 12.3684C15.2932 12.3659 15.3482 12.3984 15.4007 12.4709C16.0157 13.3059 16.6332 14.1384 17.2507 14.9709C17.2807 15.0109 17.3107 15.0484 17.3432 15.0859C17.3557 15.0834 17.3682 15.0834 17.3807 15.0809Z" fill="#090416"/>
<path d="M19.1563 14.6857C19.1563 13.9907 19.1563 13.2957 19.1563 12.5982C19.1563 12.3982 19.2062 12.3457 19.4062 12.3457C20.2937 12.3457 21.1812 12.3457 22.0687 12.3457C22.2612 12.3457 22.3087 12.3932 22.3087 12.5932C22.3087 12.7857 22.3112 12.9757 22.3087 13.1682C22.3062 13.3207 22.2487 13.3782 22.0962 13.3782C21.5212 13.3782 20.9462 13.3807 20.3712 13.3757C20.2462 13.3757 20.1987 13.4132 20.2087 13.5407C20.2187 13.6982 20.2187 13.8582 20.2087 14.0157C20.2012 14.1407 20.2537 14.1707 20.3687 14.1707C20.8862 14.1657 21.4012 14.1682 21.9187 14.1682C22.3112 14.1682 22.3113 14.1682 22.3113 14.5607C22.3113 14.6982 22.3113 14.8357 22.3113 14.9732C22.3113 15.1532 22.2587 15.2057 22.0812 15.2057C21.5187 15.2057 20.9562 15.2057 20.3937 15.2057C20.2112 15.2057 20.2113 15.2057 20.2113 15.3832C20.2113 15.5332 20.2187 15.6832 20.2087 15.8332C20.2012 15.9607 20.2462 16.0007 20.3712 15.9982C20.9162 15.9932 21.4637 15.9957 22.0087 15.9957C22.0462 15.9957 22.0837 15.9957 22.1212 15.9957C22.2462 16.0007 22.3062 16.0582 22.3087 16.1807C22.3112 16.4057 22.3112 16.6307 22.3087 16.8557C22.3087 16.9657 22.2487 17.0257 22.1387 17.0307C22.0137 17.0357 21.8887 17.0332 21.7637 17.0332C20.9837 17.0332 20.2062 17.0332 19.4262 17.0332C19.2037 17.0332 19.1587 16.9857 19.1587 16.7607C19.1562 16.0682 19.1563 15.3782 19.1563 14.6857Z" fill="#090416"/>
<path d="M8.77344 14.6782C8.77344 13.9832 8.77344 13.2857 8.77344 12.5907C8.77344 12.3782 8.80594 12.3457 9.02344 12.3457C9.21094 12.3457 9.39844 12.3457 9.58594 12.3457C9.76594 12.3457 9.80844 12.3882 9.80844 12.5657C9.80844 13.6282 9.80844 14.6907 9.80844 15.7532C9.80844 16.0257 9.79844 15.9957 10.0509 15.9982C10.5934 15.9982 11.1334 15.9982 11.6759 15.9982C11.8584 15.9982 11.9059 16.0457 11.9084 16.2257C11.9084 16.4307 11.9109 16.6332 11.9084 16.8382C11.9059 16.9757 11.8584 17.0282 11.7184 17.0282C10.8009 17.0282 9.88594 17.0282 8.96844 17.0282C8.82094 17.0282 8.77594 16.9782 8.77594 16.8157C8.77344 16.1032 8.77344 15.3907 8.77344 14.6782Z" fill="#090416"/>
<path d="M12.5527 14.6884C12.5527 13.9934 12.5527 13.2984 12.5527 12.6009C12.5527 12.3834 12.6102 12.3259 12.8252 12.3234C13.0052 12.3234 13.1827 12.3209 13.3627 12.3234C13.5427 12.3259 13.6052 12.3884 13.6052 12.5634C13.6052 13.9759 13.6052 15.3859 13.6052 16.7984C13.6052 16.9759 13.5527 17.0284 13.3727 17.0309C13.1802 17.0334 12.9902 17.0334 12.7977 17.0309C12.6052 17.0284 12.5527 16.9784 12.5527 16.7859C12.5527 16.0884 12.5527 15.3884 12.5527 14.6884Z" fill="#090416"/>
</svg>
