<svg width="31" height="31" viewBox="0 0 31 31" fill="none" xmlns="http://www.w3.org/2000/svg">
<path d="M14.8875 0.888428C15.5146 0.888428 16.1358 0.888428 16.7629 0.888428C16.8391 0.906009 16.9153 0.929451 16.9856 0.935312C19.3239 1.11113 21.5099 1.77923 23.5025 3.00994C27.3763 5.39517 29.7615 8.82357 30.5937 13.3069C30.6933 13.8519 30.7461 14.4028 30.8223 14.9537C30.8223 15.5808 30.8223 16.202 30.8223 16.829C30.7988 17.0224 30.7695 17.2158 30.7519 17.4034C30.4296 20.3688 29.3571 23.0353 27.4642 25.3385C25.1083 28.2102 22.096 29.9918 18.439 30.654C17.8822 30.7536 17.3196 30.8122 16.7629 30.8884C16.1358 30.8884 15.5146 30.8884 14.8875 30.8884C14.5242 30.8415 14.1549 30.8064 13.7916 30.7536C11.0254 30.361 8.53471 29.3061 6.37804 27.5304C3.51224 25.1744 1.72479 22.1621 1.05669 18.5051C0.957058 17.9484 0.898452 17.3858 0.822266 16.829C0.822266 16.202 0.822266 15.5808 0.822266 14.9537C0.845708 14.7603 0.87501 14.5669 0.892592 14.3793C1.23836 11.1971 2.43977 8.38989 4.56128 5.99294C6.89376 3.35571 9.79472 1.72062 13.27 1.11699C13.8033 1.02322 14.3483 0.964614 14.8875 0.888428ZM17.138 23.5569C17.138 22.6134 17.138 21.6933 17.138 20.779C17.1438 19.5366 17.138 18.3 17.1673 17.0576C17.1848 16.3836 17.5365 15.8679 18.0874 15.5046C19.1481 14.7954 20.4784 15.2701 20.8242 16.4891C20.9414 16.8935 20.9766 17.333 20.9825 17.7609C21 19.5893 20.9883 21.412 20.9883 23.2404C20.9883 23.3459 20.9883 23.4456 20.9883 23.5452C22.2249 23.5452 23.4263 23.5452 24.6277 23.5452C24.6336 23.4514 24.6394 23.3694 24.6394 23.2932C24.6394 21.2889 24.6453 19.2905 24.6336 17.2862C24.6336 16.8876 24.6043 16.4833 24.5574 16.0906C24.2995 13.9398 23.0161 12.5802 20.9414 12.3399C19.447 12.1699 18.187 12.6212 17.2962 13.9046C17.2669 13.9457 17.2259 13.9808 17.1438 14.0687C17.1438 13.6175 17.1321 13.2307 17.1497 12.8439C17.1555 12.627 17.0911 12.5567 16.8684 12.5626C15.8252 12.5743 14.7762 12.5684 13.733 12.5684C13.6568 12.5684 13.5806 12.586 13.5103 12.5919C13.5103 16.2606 13.5103 19.9058 13.5103 23.5569C14.7176 23.5569 15.9072 23.5569 17.138 23.5569ZM11.4532 23.5628C11.4591 23.4866 11.465 23.4397 11.465 23.3928C11.465 19.8648 11.465 16.3426 11.4708 12.8146C11.4708 12.586 11.3712 12.5684 11.1895 12.5684C10.1522 12.5743 9.12076 12.5684 8.08345 12.5743C8.0014 12.5743 7.91349 12.586 7.82559 12.5919C7.82559 16.2606 7.82559 19.9058 7.82559 23.5628C9.04457 23.5628 10.2343 23.5628 11.4532 23.5628ZM7.60289 9.18106C7.60289 10.2946 8.45852 11.0857 9.64235 11.0799C10.8379 11.074 11.7111 10.277 11.7053 9.19278C11.7053 8.07929 10.8496 7.28225 9.66579 7.28225C8.45266 7.27639 7.60289 8.05584 7.60289 9.18106Z" fill="#090416"/>
</svg>
