<svg width="31" height="31" viewBox="0 0 31 31" fill="none" xmlns="http://www.w3.org/2000/svg">
<path d="M15.404 30.8281C23.6504 30.8281 30.3354 24.1431 30.3354 15.8967C30.3354 7.65034 23.6504 0.965332 15.404 0.965332C7.15767 0.965332 0.472656 7.65034 0.472656 15.8967C0.472656 24.1431 7.15767 30.8281 15.404 30.8281Z" fill="white"/>
<path d="M10.9774 30.2181C12.6042 27.9733 13.1987 25.3765 13.7931 22.858C14.0121 23.03 14.2233 23.2021 14.4423 23.3742C15.7094 24.4066 17.1642 24.5474 18.6894 24.2346C20.6683 23.8357 22.1935 22.7172 23.2885 21.0512C24.9389 18.5483 25.502 15.7794 24.7433 12.8776C23.8595 9.4909 21.4896 7.47293 18.1497 6.6986C15.3262 6.04158 12.5651 6.40138 10.0544 7.9344C7.69229 9.37358 6.38609 11.5323 6.01066 14.2621C5.72908 16.3113 6.17491 18.1963 7.36379 19.8936C7.76269 20.4646 8.26327 20.9417 8.90464 21.2467C9.2879 21.4344 9.41304 21.3719 9.52254 20.9652C9.64769 20.4724 9.78065 19.9796 9.86669 19.4869C9.89798 19.307 9.86669 19.0567 9.76501 18.9159C7.25429 15.4275 9.30354 9.87416 14.2311 9.17804C15.7407 8.96685 17.1955 9.092 18.5643 9.80376C20.4493 10.7971 21.4426 12.4162 21.6225 14.4967C21.7868 16.4286 21.4583 18.298 20.3789 19.9562C19.6202 21.1138 18.5877 21.849 17.1564 21.9585C15.6077 22.0758 14.4345 20.8087 14.8021 19.2992C15.1071 18.0321 15.5217 16.7963 15.8346 15.537C15.9597 15.0286 16.0223 14.4732 15.9753 13.957C15.8502 12.4787 14.4736 11.7435 13.1439 12.424C12.1741 12.9167 11.7126 13.8006 11.5014 14.8174C11.298 15.8107 11.3997 16.7806 11.7126 17.7427C11.783 17.9538 11.7908 18.2041 11.7439 18.4153C11.1964 20.8244 10.555 23.2178 10.0935 25.6425C9.88234 26.7609 9.99966 27.9498 9.97619 29.1074C9.96837 29.3499 10.0075 29.6002 10.0309 29.8583C4.16476 27.809 -1.16173 20.8165 0.81713 12.424C2.74906 4.21916 11.0321 -0.786652 19.2369 1.40339C27.5591 3.62472 32.2833 12.2284 29.7257 20.3629C27.1367 28.5599 18.5486 32.5802 10.9774 30.2181Z" fill="#090416"/>
</svg>
