<svg width="31" height="31" viewBox="0 0 31 31" fill="none" xmlns="http://www.w3.org/2000/svg">
<path d="M15.3184 30.8884C23.6026 30.8884 30.3184 24.1727 30.3184 15.8884C30.3184 7.60416 23.6026 0.888428 15.3184 0.888428C7.03409 0.888428 0.318359 7.60416 0.318359 15.8884C0.318359 24.1727 7.03409 30.8884 15.3184 30.8884Z" fill="#090416"/>
<path d="M13.0679 18.9363C13.0679 20.4539 13.0679 21.9212 13.0679 23.42C12.052 23.42 11.0549 23.42 10.0391 23.42C10.0391 18.4158 10.0391 13.4116 10.0391 8.35728C10.1519 8.35728 10.2648 8.35728 10.3714 8.35728C12.7042 8.35728 15.0307 8.35101 17.3635 8.35728C20.4738 8.36355 22.9132 11.1039 22.5871 14.2018C22.2987 16.8794 20.0349 18.9238 17.3447 18.93C16.0466 18.93 14.7548 18.93 13.4567 18.93C13.3376 18.9363 13.2247 18.9363 13.0679 18.9363ZM13.0805 15.8886C14.4162 15.8886 15.708 15.8886 17.006 15.8886C17.2569 15.8886 17.5077 15.8698 17.7523 15.8322C18.8685 15.6503 19.7025 14.4651 19.5081 13.3615C19.3012 12.1763 18.4233 11.4238 17.2192 11.4175C15.9337 11.4112 14.6482 11.4175 13.3626 11.4175C13.2686 11.4175 13.1808 11.43 13.0742 11.4363C13.0804 12.9162 13.0805 14.3836 13.0805 15.8886Z" fill="white"/>
</svg>
