<svg width="31" height="31" viewBox="0 0 31 31" fill="none" xmlns="http://www.w3.org/2000/svg">
<path d="M27.9184 30.3054H2.71836C1.39236 30.3054 0.318359 29.2314 0.318359 27.9054V2.70542C0.318359 1.37942 1.39236 0.30542 2.71836 0.30542H27.9184C29.2444 0.30542 30.3184 1.37942 30.3184 2.70542V27.9054C30.3184 29.2314 29.2444 30.3054 27.9184 30.3054Z" fill="#090416"/>
<path d="M23.4694 21.9416C24.1354 22.6016 24.8014 23.2496 25.4374 23.9216C25.6174 24.1136 25.7734 24.3836 25.8094 24.6416C25.8994 25.2536 25.4254 25.7636 24.7954 25.8056C24.6934 25.8116 24.5974 25.8056 24.4954 25.8056C21.4774 25.8056 18.4534 25.8056 15.4354 25.8056C10.4314 25.8056 6.26144 22.5356 5.07344 17.6756C3.68144 11.9696 7.51544 6.05362 13.3054 4.97962C18.8194 3.95962 24.0694 7.23562 25.4734 12.6416C26.3134 15.8816 25.6894 18.8756 23.7274 21.5876C23.6494 21.7016 23.5654 21.8156 23.4694 21.9416ZM15.3094 21.5696C18.7774 21.5756 21.5974 18.7736 21.5974 15.3176C21.6034 11.8496 18.8014 9.02362 15.3514 9.01762C11.8654 9.01162 9.03344 11.8136 9.02744 15.2756C9.02144 18.7496 11.8294 21.5696 15.3094 21.5696Z" fill="white"/>
</svg>
