<svg width="31" height="31" viewBox="0 0 31 31" fill="none" xmlns="http://www.w3.org/2000/svg">
<path d="M15.2832 30.8884C23.5675 30.8884 30.2832 24.1727 30.2832 15.8884C30.2832 7.60416 23.5675 0.888428 15.2832 0.888428C6.99893 0.888428 0.283203 7.60416 0.283203 15.8884C0.283203 24.1727 6.99893 30.8884 15.2832 30.8884Z" fill="#090416"/>
<path d="M19.9213 8.62878C18.8666 8.40613 17.8236 8.18347 16.7338 7.95495C16.4056 9.49597 16.0834 11.0135 15.7494 12.5839C17.847 12.7128 19.8158 13.2225 21.5619 14.4413C22.0423 14.0253 22.5873 13.8026 23.2259 13.8495C24.1986 13.9198 24.9896 14.576 25.2298 15.5018C25.4701 16.4335 25.0658 17.4061 24.2338 17.9335C24.14 17.9921 24.0228 18.1327 24.0287 18.2264C24.181 20.2831 23.1849 21.7538 21.6146 22.9198C20.3197 23.8807 18.8373 24.4081 17.2552 24.66C15.2279 24.9823 13.2298 24.8417 11.2845 24.1444C9.66149 23.5585 8.24352 22.6854 7.27086 21.2089C6.7025 20.3417 6.42125 19.3925 6.52672 18.3553C6.5443 18.1444 6.49157 18.0331 6.30407 17.9159C5.23766 17.2596 4.94469 15.8534 5.64196 14.8221C6.35094 13.7792 7.76891 13.5331 8.78258 14.2948C8.94079 14.4178 9.04039 14.4237 9.21032 14.3124C10.7572 13.287 12.4798 12.7831 14.3197 12.6483C14.9056 12.6073 14.9056 12.6132 15.0228 12.0565C15.3392 10.5507 15.6556 9.0448 15.972 7.53894C16.0599 7.13464 16.2357 7.01745 16.64 7.10534C17.7181 7.33386 18.7963 7.55652 19.8685 7.79675C20.0502 7.83777 20.1381 7.79675 20.2435 7.65027C20.6478 7.07605 21.3216 6.85339 21.972 7.04675C22.599 7.23425 23.0443 7.80261 23.0912 8.47644C23.1381 9.12683 22.7572 9.74206 22.142 10.0175C21.3509 10.3749 20.3783 9.97058 20.0619 9.15027C20.0091 8.97449 19.974 8.81628 19.9213 8.62878Z" fill="white"/>
<path d="M18.7109 19.1404C19.562 19.1404 20.252 18.4504 20.252 17.5994C20.252 16.7483 19.562 16.0583 18.7109 16.0583C17.8599 16.0583 17.1699 16.7483 17.1699 17.5994C17.1699 18.4504 17.8599 19.1404 18.7109 19.1404Z" fill="#090416"/>
<path d="M11.8555 19.1404C12.7065 19.1404 13.3965 18.4504 13.3965 17.5994C13.3965 16.7483 12.7065 16.0583 11.8555 16.0583C11.0044 16.0583 10.3145 16.7483 10.3145 17.5994C10.3145 18.4504 11.0044 19.1404 11.8555 19.1404Z" fill="#090416"/>
<path d="M15.3193 22.9257C12.8701 22.9257 11.6221 21.7889 11.5693 21.7421C11.4053 21.5897 11.3936 21.326 11.5518 21.162C11.7041 20.9979 11.9619 20.9862 12.1318 21.1385C12.1494 21.1561 13.2217 22.1053 15.3252 22.1053C17.4522 22.1053 18.4131 21.1737 18.4248 21.162C18.583 21.0038 18.8467 21.0038 19.0049 21.162C19.1631 21.3202 19.1631 21.5839 19.0049 21.7421C18.9463 21.7948 17.7803 22.9257 15.3193 22.9257Z" fill="#090416"/>
</svg>
