<svg width="31" height="31" viewBox="0 0 31 31" fill="none" xmlns="http://www.w3.org/2000/svg">
<path d="M29.2522 18.3928C29.2425 18.4457 29.226 18.3451 29.2522 18.3928C29.4073 17.5478 29.4888 16.6831 29.4888 15.8186C29.4888 13.9016 29.1137 12.0421 28.3721 10.2912C27.6567 8.6002 26.6332 7.08152 25.3284 5.7776C24.0255 4.47349 22.5058 3.45021 20.8155 2.73492C19.0653 1.9943 17.2056 1.61895 15.2888 1.61895C14.3854 1.61895 13.4805 1.70375 12.5999 1.87298C12.598 1.87335 12.5932 1.8739 12.5932 1.8739C11.385 1.23148 10.0263 0.888428 8.65082 0.888428C6.4053 0.888428 4.29413 1.76285 2.70644 3.35109C1.11893 4.93878 0.244141 7.05013 0.244141 9.29548C0.244141 10.7248 0.611971 12.1298 1.30174 13.3712C1.16188 14.1756 1.08791 14.9978 1.08791 15.8186C1.08791 17.7359 1.46327 19.5953 2.2048 21.3463C2.91917 23.0381 3.943 24.5557 5.24674 25.8598C6.55158 27.1637 8.06916 28.1886 9.76129 28.9021C11.5116 29.6442 13.3719 30.0197 15.2887 30.0197C16.1231 30.0197 16.9593 29.9435 17.7757 29.7987C19.0334 30.5103 20.4574 30.8884 21.9114 30.8884C24.1564 30.8884 26.2667 30.0157 27.8545 28.4267C29.4426 26.8399 30.3166 24.7282 30.3166 22.4828C30.3166 21.0488 29.947 19.6391 29.2522 18.3928ZM15.3454 24.5153C10.3006 24.5153 8.04346 22.0352 8.04346 20.1762C8.04346 19.223 8.74737 18.5546 9.71742 18.5546C11.8765 18.5546 11.3174 21.6545 15.3454 21.6545C17.4075 21.6545 18.5461 20.5349 18.5461 19.3891C18.5461 18.6999 18.2061 17.936 16.8483 17.6014L12.3612 16.4812C8.74737 15.575 8.09173 13.6213 8.09173 11.7849C8.09173 7.9721 11.6818 6.5406 15.053 6.5406C18.1586 6.5406 21.8195 8.25696 21.8195 10.5443C21.8195 11.5245 20.9707 12.0944 20.0011 12.0944C18.1586 12.0944 18.4974 9.54418 14.7861 9.54418C12.9446 9.54418 11.9244 10.3782 11.9244 11.5715C11.9244 12.7627 13.379 13.1432 14.6418 13.4308L17.9631 14.1681C21.6012 14.9787 22.5236 17.1027 22.5236 19.1034C22.5239 22.2017 20.1455 24.5153 15.3454 24.5153Z" fill="#090416"/>
</svg>
