<svg width="31" height="31" viewBox="0 0 31 31" fill="none" xmlns="http://www.w3.org/2000/svg">
<path d="M15.395 30.8854C11.5055 30.8854 7.61595 30.8854 3.72645 30.8854C2.11606 30.8854 0.833201 29.896 0.485192 28.3947C0.423779 28.1218 0.396484 27.8352 0.396484 27.5486C0.396484 19.7696 0.396484 11.9906 0.396484 4.21839C0.396484 2.29411 1.79534 0.895251 3.7128 0.888428C11.4986 0.888428 19.2913 0.888428 27.0771 0.888428C28.9946 0.888428 30.3935 2.29411 30.3935 4.21157C30.3935 11.9906 30.3935 19.7696 30.3935 27.5418C30.3935 29.5002 29.0014 30.8854 27.0294 30.8854C23.1535 30.8922 19.2777 30.8854 15.395 30.8854ZM9.2127 12.1202C9.20588 12.1202 9.19223 12.1202 9.18541 12.1202C9.2127 12.6457 9.22635 13.1643 9.28094 13.6829C9.31505 13.9695 9.19223 14.0786 8.94658 14.0445C8.59174 13.9899 8.22326 13.9422 7.89573 13.8125C7.47948 13.6487 7.11783 13.6897 6.75617 13.9149C6.2171 14.2492 6.15568 14.8224 6.64699 15.2114C6.94041 15.4434 7.30889 15.5935 7.6569 15.7573C7.97761 15.9074 8.3188 15.9961 8.63269 16.153C9.13082 16.4123 9.26729 16.7876 9.02164 17.2926C8.07314 19.2783 6.7084 20.7931 4.44294 21.264C4.04034 21.3459 3.87657 21.7007 4.1154 22.0351C4.27234 22.2534 4.51117 22.4718 4.75683 22.5673C5.35049 22.7925 5.9578 22.9836 6.57875 23.0996C6.98135 23.1746 7.14512 23.3111 7.22018 23.7137C7.40442 24.7031 7.52042 24.7645 8.49621 24.5735C9.79271 24.321 11.0073 24.4507 12.065 25.3309C12.338 25.5561 12.6382 25.7403 12.9384 25.9246C14.5761 26.8867 16.2138 26.8662 17.8515 25.9177C18.2132 25.7062 18.568 25.4742 18.8955 25.2149C19.8235 24.4779 20.8744 24.3688 21.9935 24.5257C22.2664 24.5667 22.5326 24.6212 22.8055 24.6417C23.2081 24.6758 23.365 24.5598 23.4742 24.1709C23.5356 23.9662 23.5971 23.7546 23.6243 23.5431C23.6585 23.2633 23.8154 23.1883 24.0679 23.1337C24.6343 23.0177 25.2006 22.888 25.7465 22.7038C26.0468 22.6014 26.347 22.4172 26.579 22.1988C26.9748 21.8235 26.811 21.3595 26.2856 21.2435C24.0406 20.7454 22.6963 19.2237 21.7819 17.238C21.5636 16.7535 21.7069 16.4055 22.1777 16.1599C22.4848 15.9961 22.8396 15.9142 23.1535 15.7641C23.5288 15.5798 23.9246 15.4093 24.2385 15.1431C24.6343 14.8088 24.5728 14.2833 24.1429 13.9763C23.7472 13.6897 23.3173 13.6283 22.8533 13.7989C22.5599 13.908 22.2528 13.9967 21.9389 14.0582C21.6659 14.1059 21.5022 14.0172 21.5295 13.6692C21.5909 12.7958 21.6318 11.9223 21.6386 11.0489C21.6591 8.63332 20.5673 6.7841 18.3974 5.82196C16.8006 5.1123 15.4427 5.05088 13.9006 5.33748C11.0892 5.91067 9.29458 8.18978 9.2127 10.3324C9.19905 10.9193 9.2127 11.5197 9.2127 12.1202Z" fill="#090416"/>
<path d="M9.22195 10.3121C9.30383 8.16949 11.1462 5.82896 13.9098 5.31718C15.452 5.03059 16.9805 5.07153 18.4066 5.80167C20.5152 6.88663 21.6684 8.60621 21.6479 11.0286C21.6411 11.9021 21.6001 12.7755 21.5387 13.6489C21.5114 13.9969 21.6752 14.0925 21.9481 14.0379C22.2552 13.9833 22.5623 13.8877 22.8625 13.7786C23.3334 13.608 23.7564 13.6694 24.1522 13.956C24.5753 14.263 24.6435 14.7885 24.2477 15.1228C23.9338 15.389 23.5381 15.5596 23.1628 15.7438C22.8489 15.8939 22.5009 15.9758 22.187 16.1396C21.7093 16.392 21.566 16.7401 21.7912 17.2177C22.7124 19.2375 24.0498 20.7251 26.2948 21.2232C26.8203 21.3392 26.984 21.8032 26.5883 22.1785C26.3562 22.3969 26.056 22.5811 25.7558 22.6835C25.2099 22.8677 24.6435 22.9974 24.0771 23.1134C23.8247 23.168 23.6677 23.2499 23.6336 23.5228C23.6063 23.7343 23.5449 23.9459 23.4835 24.1506C23.3743 24.5395 22.999 24.7238 22.0027 24.5054C19.089 23.8708 19.3142 24.8671 17.8607 25.8975C16.4073 26.9278 14.5444 26.9551 12.9477 25.9043C11.3509 24.8534 11.2895 24.0619 8.50546 24.56C7.69344 24.7033 7.41367 24.6897 7.22943 23.7002C7.15437 23.2976 6.98377 23.1611 6.588 23.0861C5.94657 22.9837 5.38021 22.8404 4.76607 22.5538C4.52724 22.4447 4.28159 22.2468 4.12465 22.0216C3.88582 21.6872 4.04958 21.3324 4.45218 21.2505C6.71765 20.7797 8.03462 19.3126 9.03088 17.2791C9.26971 16.7742 9.14006 16.3989 8.64193 16.1396C8.33487 15.9758 7.98686 15.8871 7.66614 15.7438C7.31814 15.58 6.94966 15.4299 6.65624 15.1979C6.16493 14.8089 6.22634 14.2358 6.76542 13.9014C7.12025 13.683 7.48873 13.6421 7.90497 13.799C8.23933 13.9287 8.60099 13.9833 8.95582 14.031C9.20148 14.0652 9.31065 13.956 9.29018 13.6694C9.23559 13.028 9.20148 10.9194 9.22195 10.3121Z" fill="white"/>
<path d="M15.4383 26.9346C14.5376 26.9346 13.63 26.6548 12.818 26.1158C12.4632 25.8838 12.1902 25.6654 11.9378 25.4675C11.2963 24.9626 10.9074 24.6555 9.93842 24.6555C9.5563 24.6555 9.10593 24.7033 8.53957 24.8056C8.29391 24.8466 8.1165 24.8739 7.95273 24.8739C7.32495 24.8739 7.12024 24.444 6.99059 23.7548C6.936 23.4614 6.85411 23.3863 6.54022 23.3317C5.83056 23.2225 5.25054 23.0519 4.66371 22.7858C4.38393 22.6562 4.11099 22.431 3.92675 22.1785C3.7698 21.9601 3.72886 21.7077 3.81757 21.4893C3.90628 21.2573 4.12463 21.0935 4.40441 21.0321C6.35598 20.6295 7.7139 19.4422 8.81934 17.1904C9.00358 16.8083 8.92169 16.5694 8.53274 16.3647C8.3758 16.2828 8.2052 16.2214 8.02779 16.1532C7.87767 16.0986 7.72072 16.0372 7.5706 15.9689C7.51601 15.9416 7.46142 15.9212 7.41366 15.8939C7.10659 15.7506 6.7927 15.6073 6.51975 15.3957C6.22633 15.1637 6.07621 14.8635 6.09668 14.5496C6.11715 14.2221 6.31504 13.9218 6.6494 13.7103C6.90188 13.5533 7.16118 13.4783 7.4273 13.4783C7.61154 13.4783 7.80261 13.5192 8.00049 13.5943C8.30756 13.7103 8.65557 13.7649 8.99675 13.8126C9.01722 13.8126 9.03087 13.8195 9.04452 13.8195H9.05134C9.05817 13.799 9.05817 13.7649 9.05134 13.7103C8.99675 13.0279 8.96263 10.8989 8.98311 10.3121C9.02405 9.19301 9.53583 8.00569 10.382 7.05037C11.2895 6.03364 12.5246 5.33762 13.8689 5.08514C14.483 4.96914 15.0425 4.91455 15.5816 4.91455C16.6666 4.91455 17.6287 5.13973 18.509 5.5901C20.7676 6.75695 21.9004 8.5857 21.8799 11.0286C21.8731 11.8474 21.839 12.714 21.7707 13.6625C21.7639 13.7512 21.7775 13.7922 21.7844 13.8058C21.798 13.8058 21.8458 13.8126 21.9004 13.799C22.1665 13.7512 22.4531 13.6694 22.7738 13.5533C23.3129 13.3555 23.8246 13.4305 24.2887 13.7581C24.5684 13.9628 24.7322 14.2494 24.7458 14.5564C24.7595 14.843 24.6298 15.1092 24.3978 15.307C24.1044 15.5527 23.7496 15.7233 23.4152 15.8871C23.3675 15.9075 23.3197 15.9348 23.2719 15.9553C23.115 16.0304 22.9512 16.0918 22.7874 16.1532C22.6169 16.2146 22.4531 16.276 22.303 16.3511C21.9277 16.549 21.8458 16.7605 22.0095 17.1221C23.0126 19.3262 24.391 20.5613 26.3494 20.998C26.6974 21.0731 26.9499 21.2846 27.025 21.5644C27.1 21.8373 27.0045 22.1239 26.7588 22.3559C26.4995 22.6016 26.172 22.8063 25.8376 22.9155C25.2713 23.1065 24.6844 23.2362 24.1317 23.3522C23.9065 23.3999 23.8929 23.4409 23.8792 23.5569C23.8519 23.7684 23.7974 23.9731 23.7428 24.1642L23.7291 24.2188C23.6131 24.6282 23.2787 24.8397 22.7397 24.8397C22.5213 24.8397 22.2688 24.8056 21.9686 24.7442C21.3681 24.6146 20.8905 24.5463 20.5152 24.5463C19.6827 24.5463 19.3824 24.8466 18.9184 25.3106C18.6796 25.5494 18.4066 25.8224 18.0177 26.0953C17.233 26.648 16.3459 26.9346 15.4383 26.9346ZM9.94525 24.1847C11.078 24.1847 11.5898 24.5873 12.238 25.099C12.4768 25.2901 12.7498 25.5016 13.0841 25.72C13.8143 26.2045 14.6331 26.457 15.4383 26.457C16.2503 26.457 17.0419 26.1977 17.7243 25.72C18.0791 25.4675 18.3384 25.2082 18.5636 24.983C19.0481 24.4986 19.4643 24.0823 20.4947 24.0823C20.9109 24.0823 21.4227 24.1505 22.0505 24.287C22.3166 24.3416 22.535 24.3757 22.7192 24.3757C23.1696 24.3757 23.2242 24.1983 23.2515 24.1028L23.2651 24.0482C23.3197 23.864 23.3675 23.6865 23.3879 23.5091C23.4425 23.0724 23.7359 22.9496 24.0225 22.895C24.5616 22.7858 25.1348 22.6562 25.6739 22.4719C25.94 22.3832 26.2061 22.2194 26.4176 22.0216C26.5337 21.9124 26.5814 21.7964 26.5541 21.7008C26.5268 21.5985 26.404 21.5098 26.2334 21.4688C24.1181 20.998 22.6373 19.681 21.566 17.3269C21.2999 16.74 21.4773 16.2487 22.071 15.9348C22.2484 15.8393 22.4326 15.7711 22.6169 15.7096C22.7738 15.655 22.9171 15.6005 23.0536 15.5322C23.1013 15.5049 23.1491 15.4845 23.2037 15.464C23.5176 15.3139 23.8383 15.1569 24.0908 14.9522C24.2136 14.8499 24.275 14.7202 24.2682 14.5837C24.2614 14.4268 24.1658 14.2698 24.0089 14.1607C23.6745 13.9218 23.3265 13.8741 22.9376 14.0174C22.5896 14.147 22.2757 14.2289 21.9891 14.2835C21.9277 14.2971 21.8731 14.2971 21.8185 14.2971C21.6206 14.2971 21.4978 14.2152 21.4363 14.147C21.3272 14.031 21.2794 13.8672 21.2999 13.6421C21.3613 12.7004 21.4022 11.8474 21.4091 11.0354C21.4295 8.78359 20.3855 7.09813 18.2974 6.02681C17.4786 5.60374 16.5915 5.39903 15.5884 5.39903C15.0767 5.39903 14.5444 5.45362 13.9576 5.5628C11.2417 6.06776 9.53583 8.38781 9.46076 10.3326C9.44029 10.9126 9.47441 13.0075 9.52218 13.6762C9.53582 13.8877 9.49488 14.0447 9.39253 14.1538C9.33111 14.2221 9.22193 14.2971 9.03087 14.2971C8.99675 14.2971 8.95581 14.2971 8.91487 14.2903C8.54639 14.2357 8.16426 14.1811 7.80943 14.0447C7.47507 13.915 7.18847 13.9355 6.88823 14.1265C6.68352 14.2494 6.56752 14.4131 6.56069 14.5837C6.55387 14.7407 6.63575 14.8976 6.80635 15.0273C7.03153 15.2047 7.32495 15.3412 7.60472 15.4708C7.65931 15.4981 7.7139 15.5186 7.76849 15.5459C7.90496 15.6073 8.04144 15.6619 8.19156 15.7165C8.3758 15.7847 8.56686 15.8529 8.7511 15.9485C9.36523 16.2692 9.54265 16.7878 9.24923 17.4019C8.07555 19.797 6.60846 21.0662 4.49994 21.503C4.37711 21.5303 4.2884 21.5848 4.26111 21.6667C4.23381 21.735 4.25428 21.8168 4.3157 21.8987C4.45217 22.083 4.65688 22.2536 4.86159 22.3491C5.41431 22.6016 5.93974 22.7585 6.62211 22.8609C7.14071 22.9564 7.37271 23.1816 7.46142 23.6661C7.59789 24.3962 7.75484 24.3962 7.95273 24.3962C8.08238 24.3962 8.24615 24.3689 8.45768 24.3348C9.05134 24.2324 9.53582 24.1847 9.94525 24.1847Z" fill="#090416"/>
</svg>
