<svg width="31" height="31" viewBox="0 0 31 31" fill="none" xmlns="http://www.w3.org/2000/svg">
<path d="M15.3965 30.8884C23.6808 30.8884 30.3965 24.1727 30.3965 15.8884C30.3965 7.60416 23.6808 0.888428 15.3965 0.888428C7.11221 0.888428 0.396484 7.60416 0.396484 15.8884C0.396484 24.1727 7.11221 30.8884 15.3965 30.8884Z" fill="#090416"/>
<path d="M14.2982 13.9873C14.2982 15.0282 14.2982 16.054 14.2982 17.0899C14.0116 17.0597 13.735 17.0145 13.4534 17.0094C12.0152 16.9893 10.7682 18.0755 10.6374 19.4533C10.4966 20.9468 11.447 22.2692 12.8651 22.5408C14.3283 22.8224 15.7464 21.9675 16.1286 20.5445C16.209 20.2428 16.2341 19.9209 16.2341 19.6092C16.2392 15.4405 16.2392 11.2719 16.2392 7.10331C16.2392 6.97759 16.2392 6.85188 16.2392 6.70605C17.275 6.70605 18.2807 6.70605 19.2965 6.70605C19.6284 9.58235 21.2224 11.1814 24.1339 11.4831C24.1339 12.4788 24.1339 13.4845 24.1339 14.5203C23.269 14.5354 22.4443 14.3795 21.6348 14.113C20.8252 13.8465 20.086 13.4392 19.3418 12.9012C19.3418 13.0671 19.3418 13.1727 19.3418 13.2783C19.3518 15.4255 19.3669 17.5777 19.3669 19.7248C19.3669 22.2542 17.8835 24.3913 15.5251 25.2964C12.1058 26.6139 8.20867 24.4365 7.55999 20.8512C6.98675 17.6833 9.11883 14.6159 12.2818 14.0376C12.9455 13.9119 13.6093 13.8918 14.2982 13.9873Z" fill="white"/>
<path d="M23.3281 10.8749V13.9121C22.4632 13.9272 21.6385 13.7713 20.8289 13.5048C20.0194 13.2383 19.2802 12.831 18.5359 12.293C18.5359 12.4589 18.5359 12.5645 18.5359 12.6701C18.546 14.8173 18.5611 16.9695 18.5611 19.1166C18.5611 21.646 17.0777 23.7831 14.7243 24.6882C12.9091 25.3872 10.958 25.1005 9.42934 24.1401C8.08171 23.2953 7.06595 21.9225 6.75921 20.243C6.18597 17.0751 8.31805 14.0077 11.481 13.4294C12.1498 13.3087 12.8135 13.2886 13.5024 13.3841V16.4867C13.2158 16.4566 12.9392 16.4113 12.6576 16.4063C11.2195 16.3862 9.97242 17.4723 9.84168 18.8501C9.72603 20.0871 10.3546 21.2035 11.3804 21.7113C11.5916 21.8169 11.8229 21.8924 12.0693 21.9426C13.5326 22.2242 14.9506 21.3644 15.3328 19.9463C15.4133 19.6446 15.4384 19.3228 15.4384 19.011C15.4485 14.8424 15.4434 10.6738 15.4434 6.50516V6.10791H18.5007C18.5259 6.31408 18.5561 6.51522 18.5913 6.71133C18.893 8.29028 19.6322 9.43174 20.8189 10.1257C21.5028 10.5229 22.3375 10.7744 23.3281 10.8749Z" fill="#090416"/>
<path d="M23.3243 11.3576V13.9171C22.4594 13.9322 21.6348 13.7763 20.8252 13.5098C20.0156 13.2433 19.2764 12.836 18.5322 12.2979C18.5322 12.4639 18.5322 12.5695 18.5322 12.6751C18.5422 14.8222 18.5573 16.9744 18.5573 19.1216C18.5573 21.6509 17.0739 23.788 14.7206 24.6932C12.9053 25.3921 10.9542 25.1055 9.42557 24.1451C8.48524 23.3103 7.80136 22.1789 7.55999 20.8514C6.98675 17.6835 9.11883 14.6161 12.2818 14.0378C12.684 13.9624 13.0913 13.9272 13.4986 13.9322V16.4917C13.212 16.4615 12.9355 16.4163 12.6539 16.4112C11.2157 16.3911 9.96864 17.4773 9.8379 18.8551C9.72225 20.0921 10.3508 21.2084 11.3766 21.7163C11.7588 22.1337 12.2717 22.4354 12.8701 22.551C14.3334 22.8326 15.7514 21.9728 16.1336 20.5547C16.214 20.253 16.2392 19.9312 16.2392 19.6194C16.2492 15.4508 16.2442 11.2822 16.2442 7.11356V6.71631H18.5875C18.8892 8.29526 19.6284 9.43672 20.8151 10.1307C21.4487 10.729 22.2885 11.1414 23.3243 11.3576Z" fill="white"/>
</svg>
