<svg width="31" height="31" viewBox="0 0 31 31" fill="none" xmlns="http://www.w3.org/2000/svg">
<path d="M15.2832 30.8884C23.5675 30.8884 30.2832 24.1727 30.2832 15.8884C30.2832 7.60416 23.5675 0.888428 15.2832 0.888428C6.99893 0.888428 0.283203 7.60416 0.283203 15.8884C0.283203 24.1727 6.99893 30.8884 15.2832 30.8884Z" fill="#090416"/>
<path d="M11.4166 14.2132C10.7731 14.2132 10.1685 14.2132 9.55273 14.2132C9.55273 13.1204 9.55273 12.0497 9.55273 10.9846C9.86893 10.9347 10.1907 10.9347 10.4791 10.8293C11.572 10.4299 12.3652 9.69765 12.7591 8.58819C12.92 8.1444 13.0087 7.66733 13.103 7.20135C13.1474 6.99055 13.2195 6.90734 13.4414 6.91289C14.1237 6.92398 14.8061 6.92953 15.4939 6.91289C15.7491 6.90734 15.8323 6.97946 15.8268 7.24018C15.8157 8.36075 15.8268 9.48685 15.8157 10.6074C15.8101 10.8681 15.8933 10.9403 16.1485 10.9347C17.3079 10.9236 18.4729 10.9347 19.6322 10.9236C19.893 10.9181 19.9706 11.0013 19.9651 11.2565C19.954 12.1329 19.9595 13.015 19.9595 13.8914C19.9595 13.9857 19.9484 14.0856 19.9429 14.2132C18.5783 14.2132 17.2247 14.2132 15.8545 14.2132C15.8434 14.3297 15.8268 14.4129 15.8268 14.4961C15.8268 16.2047 15.8268 17.9133 15.8434 19.6218C15.849 19.9824 15.8767 20.3264 15.971 20.6925C16.0043 20.8589 16.1263 21.0364 16.2595 21.1474C16.8364 21.6577 17.5187 21.7853 18.2565 21.5967C18.8501 21.4469 19.4325 21.2639 20.0649 21.0863C20.076 21.2139 20.0927 21.3138 20.0927 21.4136C20.0927 22.4898 20.0871 23.5604 20.0982 24.6366C20.0982 24.8585 20.0317 24.9528 19.8098 25.0194C17.9791 25.5519 16.1541 25.6518 14.3123 25.0804C12.7203 24.5867 11.8382 23.4939 11.5498 21.8852C11.4998 21.6189 11.4888 21.3415 11.4832 21.0697C11.4666 18.9118 11.4555 16.7539 11.4444 14.596C11.4333 14.4906 11.4222 14.3741 11.4166 14.2132Z" fill="white"/>
</svg>
