<svg width="31" height="31" viewBox="0 0 31 31" fill="none" xmlns="http://www.w3.org/2000/svg">
<rect x="0.396484" y="0.888428" width="30" height="30" rx="3" fill="#090416"/>
<path d="M24.0888 10.4025C23.4309 10.6911 22.7298 10.8824 21.9989 10.9753C22.7508 10.5263 23.3247 9.82083 23.5945 8.97049C22.8935 9.38847 22.1194 9.68371 21.2945 9.84847C20.6288 9.13967 19.6801 8.70068 18.6451 8.70068C16.637 8.70068 15.0204 10.3306 15.0204 12.3287C15.0204 12.6162 15.0447 12.8927 15.1044 13.1558C12.089 13.0088 9.42076 11.5635 7.62831 9.36193C7.31538 9.90487 7.13182 10.5263 7.13182 11.1953C7.13182 12.4515 7.7787 13.565 8.74293 14.2096C8.16019 14.1986 7.5885 14.0294 7.10418 13.7629C7.10418 13.774 7.10418 13.7883 7.10418 13.8027C7.10418 15.5653 8.36144 17.0293 10.0101 17.3666C9.7149 17.4473 9.39312 17.486 9.05918 17.486C8.82697 17.486 8.59254 17.4728 8.37249 17.4241C8.84245 18.8605 10.176 19.9165 11.7617 19.9508C10.5276 20.9161 8.96076 21.4978 7.26451 21.4978C6.96706 21.4978 6.68177 21.4845 6.39648 21.448C8.00317 22.4841 9.9073 23.0757 11.9607 23.0757C18.6351 23.0757 22.2842 17.5468 22.2842 12.7544C22.2842 12.5941 22.2786 12.4393 22.2709 12.2856C22.9908 11.7747 23.5956 11.1367 24.0888 10.4025Z" fill="white"/>
</svg>
