<svg width="29" height="31" viewBox="0 0 29 31" fill="none" xmlns="http://www.w3.org/2000/svg">
<path d="M28.1166 18.2556C29.0122 10.7279 27.6893 5.98057 25.301 3.82643C21.4493 0.156213 8.43084 -0.388174 3.82404 3.99034C1.75186 6.13276 1.02016 9.27616 0.938206 13.1688C0.856255 17.0615 0.762597 24.3551 7.55865 26.3336H7.56451L7.55865 29.3541C7.55865 29.3541 7.51182 30.5775 8.29621 30.8233C9.19181 31.1102 9.59571 30.5424 12.3762 27.2234C17.024 27.6273 20.6005 26.7024 21.0044 26.5678C21.941 26.2517 27.2561 25.5434 28.1166 18.2556ZM12.8328 25.0926C12.8328 25.0926 9.8884 28.7629 8.97523 29.717C8.67669 30.0273 8.34889 29.998 8.35475 29.3834C8.35475 28.9795 8.37816 24.3668 8.37816 24.3668C2.6182 22.7161 2.95771 16.5054 3.02209 13.2566C3.08648 10.0079 3.6777 7.34446 5.43379 5.55325C9.47864 1.76011 20.8874 2.60888 23.7966 5.34252C27.3498 8.49177 26.0854 17.3951 26.0912 17.6995C25.3595 23.7873 21.0571 24.1736 20.261 24.437C19.9157 24.5483 16.7781 25.3561 12.8328 25.0926Z" fill="#090416"/>
<path d="M14.4577 6.27319C13.9777 6.27319 13.9777 7.02246 14.4577 7.02831C18.1864 7.05758 21.2596 9.65659 21.2947 14.4273C21.2947 14.9307 22.0322 14.9248 22.0264 14.4214C21.9854 9.28196 18.6313 6.30246 14.4577 6.27319Z" fill="#090416"/>
<path d="M19.3735 13.6372C19.3618 14.1348 20.0993 14.1582 20.1052 13.6548C20.1637 10.8216 18.4194 8.48605 15.1355 8.2402C14.6555 8.20508 14.6028 8.9602 15.0828 8.99532C17.9276 9.2119 19.4262 11.1553 19.3735 13.6372Z" fill="#090416"/>
<path d="M18.583 16.8566C17.9683 16.4996 17.3361 16.722 17.0786 17.0732L16.5342 17.7756C16.2591 18.1327 15.744 18.0859 15.744 18.0859C11.9801 17.0908 10.9732 13.1513 10.9732 13.1513C10.9732 13.1513 10.9264 12.6186 11.2718 12.3318L11.9508 11.7698C12.2903 11.5006 12.5069 10.8508 12.1615 10.2128C11.2367 8.54448 10.6162 7.96497 10.3001 7.52595C9.96642 7.11034 9.46887 7.01669 8.94789 7.29766H8.93619C7.85327 7.92985 6.67083 9.11228 7.05132 10.3298C7.69522 11.6118 8.8835 15.7035 12.6649 18.8C14.4444 20.2634 17.2542 21.762 18.4483 22.1073L18.46 22.1249C19.6366 22.5171 20.7781 21.2878 21.3927 20.1756V20.1639C21.662 19.6254 21.5742 19.1161 21.1761 18.7825C20.4737 18.0976 19.4142 17.3425 18.583 16.8566Z" fill="#090416"/>
<path d="M15.6413 11.0265C16.8413 11.0967 17.4208 11.723 17.4852 13.0108C17.5086 13.5142 18.2403 13.4791 18.2169 12.9757C18.1349 11.2957 17.2627 10.3591 15.6823 10.2713C15.2023 10.2421 15.1554 10.9972 15.6413 11.0265Z" fill="#090416"/>
</svg>
