<svg width="31" height="31" viewBox="0 0 31 31" fill="none" xmlns="http://www.w3.org/2000/svg">
<path d="M30.373 15.9021C30.298 24.1626 23.7973 30.8679 15.3731 30.8748C6.97608 30.8748 0.35263 24.1831 0.373094 15.8407C0.393558 7.48462 7.0443 0.874806 15.3799 0.888449C23.8519 0.902091 30.3253 7.66197 30.373 15.9021ZM15.3594 21.3318C18.354 21.3386 20.8096 18.8966 20.8233 15.9021C20.8369 12.8871 18.3881 10.4246 15.3799 10.4246C12.3785 10.4178 9.9297 12.853 9.91605 15.8543C9.89559 18.8625 12.3444 21.3318 15.3594 21.3318ZM21.519 23.1872C22.7264 22.1435 23.6268 20.943 24.193 19.4696C23.313 19.1831 22.4672 18.9102 21.71 18.6647C21.1098 19.4832 20.5504 20.2472 19.9638 21.0521C20.4413 21.7001 20.9665 22.43 21.519 23.1872ZM6.57363 12.3073C7.42629 12.5801 8.27895 12.8598 9.02247 13.0985C9.62956 12.2663 10.1889 11.516 10.7687 10.7179C10.2844 10.0562 9.75916 9.32636 9.22711 8.59649C8.1357 9.4014 6.83966 11.2159 6.57363 12.3073ZM10.7687 21.0453C10.1753 20.2336 9.61592 19.4696 9.02247 18.6579C8.49041 18.8284 7.88331 19.0262 7.2694 19.224C7.03748 19.2991 6.79873 19.3809 6.57363 19.4559C6.86012 20.561 8.15617 22.3755 9.22711 23.1667C9.75916 22.4368 10.2844 21.707 10.7687 21.0453ZM19.9638 10.7111C20.5504 11.5228 21.1098 12.2868 21.71 13.0985C22.474 12.853 23.3199 12.5733 24.1998 12.2868C23.6132 10.8066 22.7264 9.59921 21.519 8.5692C20.9665 9.33318 20.4413 10.0562 19.9638 10.7111ZM8.61319 17.355C8.61319 16.3386 8.61319 15.3905 8.61319 14.4014C7.83557 14.149 6.99655 13.8761 6.1166 13.5897C5.72097 15.1381 5.70733 16.6319 6.12343 18.1667C7.01019 17.8802 7.83557 17.6074 8.61319 17.355ZM24.6159 18.1667C25.0115 16.6251 25.0183 15.1313 24.6159 13.5897C23.736 13.8761 22.8969 14.149 22.1193 14.4014C22.1193 15.4041 22.1193 16.3591 22.1193 17.355C22.9038 17.6142 23.7428 17.8802 24.6159 18.1667ZM14.6637 6.4205C13.0675 6.47507 11.6487 6.91845 10.339 7.81204C10.8847 8.56238 11.3963 9.26497 11.8601 9.90617C12.8151 9.59239 13.7223 9.29908 14.6568 8.99212C14.6637 8.18721 14.6637 7.31409 14.6637 6.4205ZM10.339 23.958C11.6759 24.8379 13.0879 25.3018 14.6568 25.3359C14.6568 24.4355 14.6568 23.5555 14.6568 22.7711C13.7087 22.4573 12.8083 22.164 11.8669 21.8502C11.4031 22.4982 10.8915 23.2008 10.339 23.958ZM16.0688 6.4205C16.0688 7.31409 16.0688 8.19403 16.0688 8.9853C17.0102 9.29225 17.9106 9.59239 18.8587 9.89935C19.3294 9.25133 19.8478 8.54192 20.3867 7.7984C19.0634 6.91845 17.6446 6.46143 16.0688 6.4205ZM16.0688 22.7711C16.0688 23.576 16.0688 24.4491 16.0688 25.3359C17.6446 25.295 19.0634 24.8448 20.3935 23.9512C19.8546 23.2076 19.3362 22.4982 18.8656 21.8502C17.9106 22.164 17.0102 22.4573 16.0688 22.7711ZM1.83285 14.1831C1.69642 15.3359 1.67596 16.4409 1.84649 17.5733C2.76736 17.4096 3.64048 17.2527 4.48632 17.1026C4.48632 16.2568 4.48632 15.4587 4.48632 14.647C3.62002 14.4969 2.7469 14.3468 1.83285 14.1831ZM28.9065 17.5733C29.0361 16.4205 29.0634 15.3154 28.8928 14.1831C27.972 14.3468 27.0988 14.5037 26.253 14.6538C26.253 15.4928 26.253 16.2977 26.253 17.1094C27.1125 17.2595 27.9788 17.4164 28.9065 17.5733ZM26.8192 8.48052C26.2121 7.49144 25.4549 6.67971 24.6227 5.9089C24.0224 6.62514 23.4495 7.31409 22.8969 7.96893C23.4426 8.59649 23.9679 9.18994 24.5068 9.81067C25.2503 9.38093 26.0279 8.93755 26.8192 8.48052ZM6.10978 5.9089C5.27759 6.69335 4.51361 7.49826 3.92016 8.48052C4.72507 8.94437 5.49587 9.38775 6.22575 9.81067C6.78509 9.17629 7.30351 8.57602 7.84239 7.96893C7.27622 7.30044 6.70323 6.61832 6.10978 5.9089ZM24.6227 25.8543C25.4481 25.063 26.2189 24.2649 26.8123 23.2759C26.0143 22.812 25.2503 22.3755 24.4999 21.9457C23.9542 22.5664 23.429 23.1735 22.8833 23.7875C23.4563 24.4559 24.0293 25.1449 24.6227 25.8543ZM6.22575 21.9457C5.46858 22.3823 4.7046 22.8257 3.8383 23.3304C4.60228 24.2104 5.32534 25.0494 6.06886 25.9089C6.70323 25.1517 7.28304 24.4628 7.84239 23.7943C7.30351 23.1735 6.77827 22.5801 6.22575 21.9457ZM11.3622 2.87344C11.6759 3.7261 11.9761 4.55829 12.2694 5.34956C13.1084 5.22678 13.886 5.11082 14.6568 5.00168C14.6568 4.10809 14.6568 3.2145 14.6568 2.32092C13.5245 2.38913 12.4263 2.45734 11.3622 2.87344ZM19.3703 2.87344C18.2789 2.46416 17.1807 2.38231 16.062 2.32774C16.062 3.24861 16.062 4.1422 16.062 5.0085C16.8669 5.12446 17.6446 5.24042 18.4631 5.35638C18.7564 4.55147 19.0634 3.7261 19.3703 2.87344ZM8.87922 7.08898C9.58863 6.66607 10.2776 6.26361 10.987 5.84751C10.6937 5.0426 10.3867 4.20359 10.0798 3.35775C8.9679 3.7261 8.06067 4.35365 7.1739 5.04942C7.74007 5.73155 8.29259 6.39321 8.87922 7.08898ZM20.6459 3.35775C20.3321 4.22405 20.032 5.04942 19.7387 5.84751C20.4549 6.27043 21.1507 6.67971 21.8465 7.08898C22.4331 6.39321 22.9856 5.73155 23.5518 5.05625C22.665 4.35365 21.7578 3.71928 20.6459 3.35775ZM10.987 25.9157C10.2639 25.4928 9.57499 25.0835 8.87922 24.6742C8.29941 25.3632 7.74007 26.0317 7.1739 26.707C8.07431 27.4095 8.98154 28.0371 10.0866 28.3986C10.3867 27.5596 10.6937 26.7274 10.987 25.9157ZM12.2626 26.4068C11.9693 27.2117 11.6691 28.0371 11.3622 28.8829C12.4331 29.299 13.5381 29.3741 14.6705 29.4355C14.6705 28.5146 14.6705 27.6278 14.6705 26.7547C13.8587 26.6387 13.0811 26.5228 12.2626 26.4068ZM19.3703 28.8898C19.0566 28.0303 18.7564 27.2049 18.4631 26.4068C17.6377 26.5296 16.8465 26.6456 16.0757 26.7547C16.0757 27.6551 16.0757 28.5419 16.0757 29.4355C17.2012 29.3673 18.2926 29.299 19.3703 28.8898ZM19.7455 25.9157C20.0388 26.7206 20.339 27.546 20.6527 28.4055C21.751 28.0371 22.6718 27.4095 23.5586 26.707C22.9788 26.018 22.4194 25.3495 21.8465 24.6742C21.1439 25.0903 20.4617 25.4928 19.7455 25.9157ZM3.25849 9.67425C2.74008 10.7111 2.34444 11.7343 2.11934 12.8461C3.03339 13.003 3.89969 13.1599 4.73871 13.3032C5.0252 12.5119 5.29123 11.7684 5.56408 11.0044C4.82056 10.5747 4.04976 10.1381 3.25849 9.67425ZM5.56408 20.752C5.27759 19.9607 5.01156 19.2172 4.73871 18.4532C3.88605 18.6033 3.01975 18.7534 2.11934 18.9171C2.35808 20.0358 2.74008 21.0658 3.26531 22.0821C4.04976 21.6251 4.82738 21.1749 5.56408 20.752ZM25.1752 11.0044C25.4549 11.7888 25.7209 12.5392 25.9938 13.31C26.8533 13.1599 27.7196 13.003 28.695 12.8325C28.2994 11.7547 27.9242 10.7179 27.5354 9.64014C26.6759 10.1381 25.8983 10.5883 25.1752 11.0044ZM28.6132 18.9102C27.7059 18.7534 26.826 18.5965 25.9938 18.4532C25.7141 19.2445 25.4481 19.9812 25.1752 20.752C25.9119 21.1749 26.6827 21.6183 27.474 22.0753C27.9924 21.0589 28.3744 20.0289 28.6132 18.9102Z" fill="#090416"/>
</svg>
