<svg width="31" height="31" viewBox="0 0 31 31" fill="none" xmlns="http://www.w3.org/2000/svg">
<path d="M26.0197 5.18486C23.1804 2.43128 19.4518 0.888428 15.4768 0.888428C3.96434 0.888428 -3.17137 13.2956 2.5072 23.1849L0.396484 30.8884L8.34113 28.8634C11.8286 30.7277 14.5822 30.567 15.4768 30.6474C28.7733 30.6474 35.3411 14.592 26.0197 5.18486Z" fill="#090416"/>
<path d="M15.4755 28.049C11.5005 28.049 8.90764 26.1848 8.66657 26.024L3.963 27.2401L5.25943 22.783L4.93264 22.2955C3.72193 20.3455 3.06836 18.0794 3.06836 15.7276C3.06836 4.70261 16.4451 -0.729528 24.2291 6.96869C32.013 14.6669 26.5862 28.049 15.4755 28.049Z" fill="#090416"/>
<path d="M22.2863 18.8079V18.8883C21.8792 18.7276 20.0952 17.8329 19.7738 17.6722C19.0452 17.4311 19.2059 17.5919 17.7488 19.2954C17.5077 19.5365 17.3417 19.5365 16.9399 19.3758C16.5327 19.2151 15.397 18.8079 13.9399 17.5115C12.8042 16.5365 12.0756 15.3204 11.8292 14.9186C11.422 14.2704 12.2363 14.1901 12.9649 12.8936C13.1256 12.6526 13.0452 12.4061 12.9649 12.2454C12.8845 12.0847 12.1559 10.2204 11.8292 9.48651C11.5024 8.75793 11.1809 8.83829 11.0202 8.83829C10.2917 8.75793 9.80415 8.75793 9.31665 9.24543C7.29165 11.4365 7.7738 13.7883 9.55773 16.2204C12.9649 20.6776 14.7488 21.4919 18.0702 22.6276C18.9595 22.8686 19.7738 22.8686 20.422 22.7883C21.1506 22.7079 22.6131 21.899 22.9345 21.0044C23.2559 20.1097 23.2613 19.3812 23.1756 19.2204C22.8542 19.049 22.6131 18.9686 22.2863 18.8079Z" fill="white"/>
</svg>
