<svg width="31" height="31" viewBox="0 0 31 31" fill="none" xmlns="http://www.w3.org/2000/svg">
<path d="M15.3965 30.8884C23.6808 30.8884 30.3965 24.1727 30.3965 15.8884C30.3965 7.60416 23.6808 0.888428 15.3965 0.888428C7.11221 0.888428 0.396484 7.60416 0.396484 15.8884C0.396484 24.1727 7.11221 30.8884 15.3965 30.8884Z" fill="#090416"/>
<path d="M4.68555 11.0658C4.68555 10.9841 4.68555 10.8614 4.68555 10.698C6.48391 10.698 8.28228 10.698 10.0398 10.698C10.1215 11.1067 10.1215 11.0658 9.75367 11.1884C9.42669 11.2702 9.09972 11.4337 8.81361 11.5971C8.56838 11.7606 8.52751 12.0059 8.65012 12.292C10.0398 15.4391 11.3885 18.6271 12.7782 21.7742C12.7782 21.8151 12.8191 21.856 12.8599 21.8969C13.0643 21.529 13.2278 21.1612 13.4321 20.8342C14.0452 19.6898 14.6583 18.5454 15.2714 17.3601C15.3123 17.2375 15.3531 17.074 15.3122 16.9514C14.6174 15.3574 13.8409 13.7634 13.1869 12.1693C12.9008 11.4745 12.3695 11.1884 11.6746 11.1475C11.5112 11.1475 11.3068 11.1067 11.1433 11.1067C11.1433 10.9432 11.1433 10.8206 11.1433 10.6571C12.7373 10.6571 14.2905 10.6571 15.8845 10.6571C15.8845 10.7797 15.8845 10.9432 15.8845 11.0249C15.6392 11.0658 15.4349 11.1067 15.1896 11.1884C14.8627 11.311 14.7809 11.5563 14.9035 11.8424C15.4349 13.0277 15.9662 14.1721 16.4975 15.3982C16.5793 15.2756 16.6202 15.1939 16.661 15.1121C17.1106 14.1312 17.6011 13.1911 18.0507 12.2102C18.3776 11.5563 18.2142 11.2702 17.4785 11.1067C17.2741 11.0658 17.0697 11.0658 16.8654 11.0249C16.8654 10.9023 16.8654 10.7388 16.8654 10.6162C18.2142 10.6162 19.5629 10.6162 20.9526 10.6162C20.9526 10.7388 20.9526 10.8614 20.9526 10.9841C20.7073 11.0658 20.4621 11.1067 20.2169 11.1884C19.6447 11.3928 19.1951 11.7606 18.909 12.3737C18.3368 13.5999 17.7646 14.7851 17.1515 15.9704C17.0697 16.1339 17.0697 16.2565 17.1515 16.42C17.8872 18.0549 18.6229 19.7307 19.3586 21.4064C19.3994 21.2838 19.4812 21.2429 19.4812 21.1612C20.7891 18.1775 22.0561 15.1939 23.364 12.2102C23.4458 12.0059 23.4049 11.8424 23.2823 11.6789C22.9962 11.311 22.6283 11.1475 22.1787 11.0658C22.097 11.0658 21.9744 11.0249 21.8926 11.0249C21.8926 10.8614 21.8926 10.7388 21.8926 10.6162C23.3231 10.6162 24.7128 10.6162 26.1433 10.6162C26.1433 10.7797 26.1433 10.9023 26.1433 11.0249C26.1024 11.0249 26.1024 11.0658 26.0616 11.0658C25.1215 11.1475 24.5902 11.7198 24.2223 12.5372C22.5057 16.5018 20.83 20.3437 19.1542 24.1857C19.0725 24.3492 19.0316 24.4718 18.7864 24.4718C18.5411 24.4718 18.5003 24.3492 18.4594 24.1857C17.6419 22.2238 16.8245 20.3029 15.9662 18.341C15.9253 18.2593 15.8845 18.1366 15.8027 18.014C15.721 18.1366 15.6801 18.2184 15.6392 18.3001C14.6174 20.262 13.5956 22.2647 12.6147 24.2266C12.533 24.4309 12.4103 24.4718 12.206 24.4718C12.0016 24.4718 11.9608 24.3492 11.879 24.1857C10.3259 20.6298 8.77274 17.074 7.21961 13.5181C6.85176 12.7007 6.32042 12.0467 5.6256 11.5154C5.42124 11.3519 5.05339 11.2293 4.68555 11.0658Z" fill="white"/>
</svg>
