<svg width="44" height="31" viewBox="0 0 44 31" fill="none" xmlns="http://www.w3.org/2000/svg">
<rect x="13.4434" y="7.28296" width="18.0449" height="18.0449" fill="white"/>
<path d="M42.3596 5.58001C41.8682 3.73716 40.4246 2.2936 38.5818 1.80217C35.2263 0.888427 21.8196 0.888428 21.8196 0.888428C21.8196 0.888428 8.41287 0.888428 5.05735 1.77146C3.2529 2.26288 1.77094 3.74484 1.27951 5.58001C0.396484 8.92784 0.396484 15.8846 0.396484 15.8846C0.396484 15.8846 0.396484 22.872 1.27951 26.1968C1.77094 28.0397 3.2145 29.4833 5.05735 29.9747C8.4359 30.8884 21.8119 30.8884 21.8119 30.8884C21.8119 30.8884 35.2186 30.8884 38.5741 30.0054C40.417 29.514 41.8605 28.0704 42.352 26.2276C43.2427 22.872 43.2427 15.9153 43.2427 15.9153C43.2427 15.9153 43.2734 8.93552 42.3596 5.58001ZM17.5503 22.3192V9.45766L28.6995 15.8846L17.5503 22.3192Z" fill="#090416"/>
</svg>
